<svg width="115" height="17" viewBox="0 0 115 17" fill="none" xmlns="http://www.w3.org/2000/svg">
<path d="M36.9077 16.5382H39.174L42.2497 5.53516H39.8215L36.9077 16.5382Z" fill="white"/>
<path d="M53.7433 5.53516H43.3831L42.8975 7.47686H46.7826L44.3544 16.5382H46.7826L49.2107 7.47686H53.0958L53.7433 5.53516Z" fill="white"/>
<path d="M57.4662 8.1241C57.9519 7.63867 58.7613 7.47686 59.7326 7.47686H63.7795L64.2651 5.53516H60.0563C58.9232 5.53516 57.9519 5.69696 57.1425 6.02058C56.3331 6.3442 55.6856 6.82963 55.0381 7.63867C54.2287 8.60953 53.5812 9.74219 53.2575 11.1985C52.7718 13.4638 52.7718 14.9201 53.7431 15.8909C54.0668 16.2146 54.5525 16.3764 54.8762 16.5382C55.3619 16.7 56.0094 16.7 56.8187 16.7H58.4375C60.2182 16.7 62.1607 15.2437 62.6463 13.4638C63.132 11.6839 62.1607 10.0658 60.2182 10.0658H58.5994C58.1138 10.0658 57.4663 10.5512 57.3044 11.0367C57.1425 11.5221 57.4663 12.0075 58.1138 12.0075H59.2469C60.0563 12.0075 60.3801 12.4929 60.2182 13.302C60.0563 14.111 59.2469 14.7583 58.5994 14.7583H57.6281C57.1425 14.7583 56.6569 14.5965 56.3331 14.5965C56.0094 14.4347 55.8475 14.2728 55.5237 14.111C55.3619 13.7874 55.2 13.4638 55.2 12.9784C55.2 12.4929 55.3619 11.8457 55.5237 11.1985C56.3331 9.58038 56.8187 8.60953 57.4662 8.1241Z" fill="white"/>
<path d="M67.1794 14.4347C66.8556 14.2729 66.6938 13.9492 66.6938 13.4638C66.6938 13.1402 66.8557 12.6548 67.0176 11.8457L68.6363 5.53516H66.37L64.7512 11.8457C64.4275 12.9784 64.2656 13.6256 64.2656 14.111C64.2656 15.2437 64.7513 16.0527 65.8844 16.3764C66.37 16.5382 67.1794 16.5382 68.4744 16.5382H71.0645L71.5501 14.5965H69.2838C68.1507 14.5965 67.5032 14.5965 67.1794 14.4347Z" fill="white"/>
<path d="M84.1763 8.28591C84.0144 7.31506 83.6907 6.50601 82.8813 6.02058C82.2338 5.69696 81.2625 5.53516 80.2913 5.53516C78.6725 5.53516 77.3775 5.85877 76.4062 6.66782C75.2731 7.63867 74.3018 9.09496 73.6543 11.1985C73.3305 12.3311 73.3306 13.4638 73.3306 14.2728C73.4924 15.0819 73.8162 15.7291 74.4637 16.0528C75.2731 16.5382 76.0825 16.8618 77.3775 16.8618C78.3488 16.8618 78.9963 16.7 79.9676 16.3764C80.9388 16.0527 81.7482 15.2437 82.5576 14.2728C83.0432 13.4638 83.5288 12.4929 83.8526 11.3603C84.1764 10.0658 84.1763 9.09496 84.1763 8.28591ZM81.4244 11.0367C81.1007 12.3311 80.6151 13.302 79.9676 13.9492C79.4819 14.5965 78.5106 14.9201 77.7012 14.9201C76.73 14.9201 76.0825 14.5965 75.9206 13.9492C75.5969 13.4638 75.5968 12.3311 76.0825 11.0367C76.4062 9.904 76.8919 8.93315 77.2156 8.28591C77.8631 7.47686 78.6725 7.31505 79.8057 7.31505C80.9388 7.31505 81.4244 7.63867 81.5863 8.44772C81.7482 8.93315 81.7482 9.904 81.4244 11.0367Z" fill="white"/>
<path d="M101.983 5.53516L95.022 16.5382H97.4501L102.468 8.1241L102.954 16.5382H105.22L104.249 5.53516H101.983Z" fill="white"/>
<path d="M112.343 14.5962C111.372 14.5962 110.562 14.4344 110.238 14.2726C109.915 14.1107 109.753 13.7871 109.753 13.3017C109.753 12.9781 109.915 12.4926 110.077 11.6836L111.695 5.37305H109.429L107.81 11.6836C107.487 12.8163 107.325 13.4635 107.325 13.9489C107.325 15.0816 107.81 15.8906 108.943 16.2143C109.429 16.3761 110.239 16.3761 111.534 16.3761H114.124L114.609 14.4344H112.343V14.5962Z" fill="white"/>
<path d="M37.2316 8.77104C37.7173 6.99114 36.746 5.37305 34.8035 5.37305H30.2709C28.814 5.37305 27.6809 6.3439 27.3571 7.63837L25.0908 16.5379H25.2527H27.519H32.0516C33.8322 16.5379 35.7748 15.0816 36.2604 13.1399C36.5842 12.169 36.4223 11.5218 35.9366 10.8746C36.4223 10.3891 36.9079 9.74189 37.2316 8.77104ZM33.6704 13.3017C33.5085 14.1107 32.6991 14.5962 32.0516 14.5962H27.8428L28.6521 12.0072H32.861C33.5085 12.0072 33.8322 12.6545 33.6704 13.3017ZM34.8035 8.77104C34.6416 9.58009 33.8322 10.0655 33.1847 10.0655H28.9759L29.2996 8.44742C29.4615 7.80018 30.109 7.31475 30.7565 7.31475H33.8322C34.6416 7.47656 34.9653 7.96199 34.8035 8.77104Z" fill="white"/>
<path d="M95.9933 8.77104C96.479 6.99114 95.5077 5.37305 93.5652 5.37305H89.0326C87.5757 5.37305 86.4426 6.3439 86.1188 7.63837L83.8525 16.5379H84.0144H86.2807H90.8132C92.5939 16.5379 94.5364 15.0816 95.0221 13.1399C95.3458 12.169 95.1839 11.5218 94.6983 10.8746C95.1839 10.3891 95.8315 9.74189 95.9933 8.77104ZM92.432 13.3017C92.2701 14.1107 91.4608 14.5962 90.8132 14.5962H86.6044L87.4138 12.0072H91.6226C92.1083 12.0072 92.5939 12.6545 92.432 13.3017ZM93.5652 8.77104C93.4033 9.58009 92.5939 10.0655 91.9464 10.0655H87.7376L88.0614 8.44742C88.2232 7.80018 88.8707 7.31475 89.5182 7.31475H92.5939C93.4033 7.47656 93.8889 7.96199 93.5652 8.77104Z" fill="white"/>
<path d="M18.9399 7.6377L15.7023 8.77036L14.0836 10.5503L13.4361 12.8156H4.5328L3.56152 16.699H13.4361C16.0261 16.699 18.9399 14.7573 19.9112 12.0065C20.5587 10.2266 20.073 8.60855 18.9399 7.6377Z" fill="url(#paint0_linear_113_113141)"/>
<path d="M7.77015 12.8158C5.18011 12.8158 5.18012 11.0358 5.50387 9.90318C5.82763 8.93233 5.50385 9.90318 5.98948 8.12328C6.31324 7.15243 6.96076 6.18157 7.77015 5.37253C7.93202 5.21072 8.09387 5.21072 8.09387 5.04891C8.09387 5.04891 8.09388 5.04891 8.25576 5.04891C9.06515 4.56348 10.0364 4.23986 11.0077 4.23986C13.7596 4.23986 15.7021 4.23986 15.7021 4.23986L16.0259 3.1072L18.7778 5.37253L14.7309 7.63786L15.0546 6.50519H10.522C8.90326 6.50519 8.41764 7.63786 8.25576 8.12328C8.09388 8.93233 7.932 10.3886 9.87453 10.3886H13.274H14.8927C17.4828 10.3886 20.3966 8.4469 21.3678 5.69615C22.3391 2.78358 20.7203 0.356445 17.8065 0.356445H8.25576C7.28449 0.356445 6.15138 0.680064 5.50387 1.16549C5.50387 1.16549 5.50386 1.16549 5.34198 1.16549C5.18011 1.3273 5.01821 1.3273 5.01821 1.48911C4.04695 2.29816 3.39943 3.1072 3.23755 4.23986L0 16.5374H4.04694L5.01821 12.6539H7.77015C7.93202 12.8157 7.77015 12.8158 7.77015 12.8158Z" fill="#F37320"/>
<defs>
<linearGradient id="paint0_linear_113_113141" x1="20.9348" y1="10.5564" x2="9.0065" y2="14.9402" gradientUnits="userSpaceOnUse">
<stop offset="0.3633" stop-color="#D63026"/>
<stop offset="1" stop-color="#F37320"/>
</linearGradient>
</defs>
</svg>
