<svg width="97" height="25" viewBox="0 0 97 25" fill="none" xmlns="http://www.w3.org/2000/svg">
<path d="M64.0681 17.8743C63.7444 19.0069 63.0969 19.816 61.8019 19.816C60.6687 19.816 60.345 19.0069 60.6687 17.8743L62.2875 12.2109H59.05L57.4312 17.8743C56.6218 20.9486 57.7549 22.7285 60.9925 22.7285C64.23 22.7285 66.4963 20.9486 67.3057 17.8743L68.9245 12.2109H65.6869L64.0681 17.8743Z" fill="white"/>
<path d="M81.8749 12.0498C80.5799 12.0498 79.2848 12.3734 78.3136 13.0207C77.6661 12.3734 76.6948 12.0498 75.7235 12.0498C75.076 12.0498 74.2666 12.2116 73.2954 12.8589L73.1335 13.0207C72.9716 12.3734 72.6479 12.0498 71.8385 12.0498H70.2197L67.144 22.7292H70.3816L72.0004 17.0659C72.3241 15.7714 73.2954 14.8006 74.1048 14.8006C75.2379 14.8006 75.7235 15.6096 75.2379 17.0659L73.6191 22.7292H76.8567L78.4755 17.0659C78.7992 15.9332 79.6086 14.8006 80.7417 14.8006C82.0368 14.8006 82.0368 15.7714 81.713 17.0659L80.0942 22.7292H83.3318L84.9506 17.0659C86.4075 13.8297 85.1124 12.0498 81.8749 12.0498Z" fill="white"/>
<path d="M45.1286 9.94622C45.4524 8.97536 44.8049 8.32812 43.9955 8.32812H42.3767L38.8154 20.4638C38.4917 21.7583 39.1392 22.7291 40.4342 22.7291H43.5098L44.4811 19.493H42.8623C42.7005 19.493 42.5386 19.3311 42.7005 19.1693L43.8336 15.4477H44.1573C45.1286 15.4477 46.0999 14.6387 46.2618 13.8296L46.7474 12.2115H44.8049L45.1286 9.94622Z" fill="white"/>
<path d="M53.546 12.0497C52.8985 12.0497 52.0891 12.2115 51.1179 12.8588L51.9273 9.94622C52.251 8.97536 51.6035 8.32812 50.7941 8.32812H49.1754L45.1284 22.7291H48.366L49.9847 17.0658C50.3085 15.7713 51.2798 14.8005 52.0892 14.8005C53.2223 14.8005 53.7079 15.6095 53.2223 17.0658L51.6035 22.7291H54.8411L56.4598 17.0658C57.593 13.1824 55.3267 12.0497 53.546 12.0497Z" fill="white"/>
<path d="M30.2356 12.0497C29.5881 12.0497 29.1024 12.0497 28.4549 12.2115L29.1025 9.94622C29.4262 8.97536 28.7787 8.32812 27.9693 8.32812H26.3505L23.7605 17.3894C22.7892 20.6256 24.0842 22.7291 27.1599 22.7291C30.3975 22.7291 32.6637 20.7874 33.635 17.3894C34.6063 14.1533 33.4732 12.0497 30.2356 12.0497ZM27.9693 19.8166C26.6743 19.8166 26.6743 18.6839 26.9981 17.3894C27.3218 16.095 28.1312 14.9623 29.4262 14.9623C30.5594 14.9623 30.7212 16.095 30.3975 17.3894C30.0737 18.6839 29.2643 19.8166 27.9693 19.8166Z" fill="white"/>
<path d="M93.2063 12.0497C92.5588 12.0497 92.0732 12.0497 91.4257 12.2115L92.0732 9.94622C92.3969 8.97536 91.7494 8.32812 90.94 8.32812H89.3213L86.7312 17.3894C85.7599 20.6256 87.055 22.7291 90.1306 22.7291C93.3682 22.7291 95.6345 20.7874 96.6057 17.3894C97.577 14.1533 96.4438 12.0497 93.2063 12.0497ZM90.94 19.8166C89.645 19.8166 89.645 18.6839 89.9688 17.3894C90.2925 16.095 91.1019 14.9623 92.3969 14.9623C93.5301 14.9623 93.6919 16.095 93.3682 17.3894C92.8826 18.6839 92.0732 19.8166 90.94 19.8166Z" fill="white"/>
<path d="M38.006 12.0498H36.3872L33.3115 22.5674H36.5491L39.1391 13.6679C39.4629 12.8589 38.8154 12.0498 38.006 12.0498Z" fill="white"/>
<path d="M38.9771 8.32812C38.0059 8.32812 37.0346 9.13717 36.8727 9.94622C36.549 10.9171 37.1965 11.5643 38.0059 11.5643C38.9772 11.5643 39.9484 10.7553 40.1103 9.94622C40.434 9.13717 39.9484 8.32812 38.9771 8.32812Z" fill="white"/>
<path d="M2.39263 12.6977H2.06885C0.611955 12.6977 -0.359305 11.4032 0.126328 9.9469L1.25946 6.06348H4.33515L2.39263 12.6977Z" fill="#D1350F"/>
<path d="M11.9433 6.06303H10.0007L8.0582 12.6972H10.0007C11.2957 12.6972 11.6195 13.6681 11.1339 15.448C10.6482 17.2279 9.67696 18.1987 8.54381 18.1987C7.41067 18.1987 6.92505 17.2279 7.41068 15.448L10.972 3.31228C11.4576 1.856 10.4863 0.561523 9.02945 0.561523H5.1444L0.935579 15.448C-0.845072 21.7585 1.5831 24.8329 6.76318 24.8329C11.9433 24.8329 16.1521 21.7585 17.9327 15.448C19.5515 9.29922 17.1233 6.06303 11.9433 6.06303Z" fill="#FF8200"/>
<path d="M17.7712 15.4484C19.5519 9.13785 17.1237 6.06348 11.9436 6.06348H10.0011L8.05859 12.6977H10.0011C11.2961 12.6977 11.6199 13.6685 11.1343 15.4484" fill="url(#paint0_linear_113_113118)"/>
<defs>
<linearGradient id="paint0_linear_113_113118" x1="14.6685" y1="13.8358" x2="11.6292" y2="8.67396" gradientUnits="userSpaceOnUse">
<stop stop-color="#FF8200"/>
<stop offset="1" stop-color="#D1350F"/>
</linearGradient>
</defs>
</svg>
