<svg width="92" height="22" viewBox="0 0 92 22" fill="none" xmlns="http://www.w3.org/2000/svg">
<path fill-rule="evenodd" clip-rule="evenodd" d="M10.522 0.796875C4.69445 0.796875 0 5.48934 0 11.3145C0 17.1396 4.69445 21.8321 10.522 21.8321C16.3496 21.8321 21.0441 17.1396 21.0441 11.3145H16.3496C16.3496 14.5507 13.7596 17.1396 10.522 17.1396C7.28448 17.1396 4.69444 14.5507 4.69444 11.3145C4.69444 8.07829 7.28448 5.48934 10.522 5.48934V0.796875Z" fill="#2354E6"/>
<path d="M16.3496 5.48926H10.522V11.3144H16.3496V5.48926Z" fill="#17E6A1"/>
<path d="M78.6726 4.35645H76.0825V6.94539H78.6726V4.35645Z" fill="white"/>
<path fill-rule="evenodd" clip-rule="evenodd" d="M71.3876 13.4178C71.3876 13.0941 71.3876 12.7705 71.3876 12.4469C71.3876 9.21072 68.7976 6.45996 65.3982 6.45996C62.1606 6.45996 59.4087 9.04891 59.4087 12.4469C59.4087 15.8449 61.9987 18.4338 65.3982 18.4338C67.6644 18.4338 69.607 17.1394 70.5782 15.3595L68.312 14.2268C67.6644 15.1977 66.5313 16.0067 65.2363 16.0067C63.6175 16.0067 62.3225 14.874 61.8369 13.4178H68.6357H71.3876ZM62.1606 11.3142C62.6462 10.0198 63.9413 9.04891 65.3982 9.04891C66.8551 9.04891 68.1501 10.0198 68.6357 11.3142H62.1606Z" fill="white"/>
<path d="M74.7873 15.5205H72.1973V18.1095H74.7873V15.5205Z" fill="white"/>
<path d="M78.6726 8.07715H76.0825V18.1093H78.6726V8.07715Z" fill="white"/>
<path fill-rule="evenodd" clip-rule="evenodd" d="M85.9567 6.62109C82.7192 6.62109 79.9673 9.21004 79.9673 12.608C79.9673 16.006 82.5573 18.595 85.9567 18.595C89.1943 18.595 91.9462 16.006 91.9462 12.608C91.9462 9.21004 89.1943 6.62109 85.9567 6.62109ZM85.9567 16.006C84.0142 16.006 82.3954 14.3879 82.3954 12.4462C82.3954 10.5045 84.0142 8.88642 85.9567 8.88642C87.8993 8.88642 89.5181 10.5045 89.5181 12.4462C89.5181 14.5497 87.8993 16.006 85.9567 16.006Z" fill="white"/>
<path fill-rule="evenodd" clip-rule="evenodd" d="M31.4042 10.3431V13.0938H35.1273C34.9655 13.9029 34.4798 14.5501 33.9942 15.0355C33.1848 15.8446 32.0517 16.33 30.7567 16.33C28.1666 16.33 26.0622 14.2265 26.0622 11.6376C26.0622 9.04861 28.1666 6.94509 30.7567 6.94509C32.0517 6.94509 33.3467 7.59233 34.318 8.56318L36.4224 6.78328C34.9655 5.16519 33.0229 4.19434 30.7567 4.19434C26.7097 4.19434 23.4722 7.43052 23.4722 11.4757C23.4722 15.521 26.7097 18.7572 30.7567 18.7572C32.6992 18.7572 34.4798 18.1099 35.9367 16.6536C37.0699 15.521 37.7174 13.9029 37.8793 12.2848C37.8793 11.4757 37.8793 10.6667 37.8793 10.0195H31.4042V10.3431Z" fill="white"/>
<path fill-rule="evenodd" clip-rule="evenodd" d="M48.2392 6.94471V7.75376C47.268 7.10652 45.973 6.62109 44.6779 6.62109C41.4404 6.62109 38.6885 9.21004 38.6885 12.608C38.6885 15.8442 41.2785 18.595 44.6779 18.595C45.973 18.595 47.268 18.1095 48.2392 17.4623V18.2714H50.6674V7.10652H48.2392V6.94471ZM44.6779 16.006C42.7354 16.006 41.1166 14.3879 41.1166 12.4462C41.1166 10.5045 42.7354 8.88642 44.6779 8.88642C46.6205 8.88642 48.2392 10.5045 48.2392 12.4462C48.2392 14.5497 46.6205 16.006 44.6779 16.006Z" fill="white"/>
<path fill-rule="evenodd" clip-rule="evenodd" d="M55.8475 4.35645H53.4193V6.94539H51.9624V9.21072H53.4193V15.1977C53.4193 15.8449 53.4193 16.3303 53.5812 16.8157C53.7431 17.1394 53.9049 17.463 54.2287 17.7866C54.5524 18.1102 54.8762 18.272 55.2 18.272C55.5237 18.4338 56.0093 18.4338 56.495 18.4338C56.9806 18.4338 57.4662 18.4338 57.79 18.272C58.1137 18.1102 58.4375 18.1102 58.7613 17.9484V16.1685C58.2756 16.3303 57.79 16.4921 57.3044 16.4921C56.8187 16.4921 56.495 16.3303 56.1712 16.1685C55.8475 15.8449 55.6856 15.5213 55.6856 15.0358V9.53434H58.5994V7.26901H55.6856V4.35645H55.8475Z" fill="white"/>
</svg>
