<svg width="85" height="20" viewBox="0 0 85 20" fill="none" xmlns="http://www.w3.org/2000/svg">
<path d="M66.3695 10.0351C66.3695 9.54966 66.3695 9.06424 66.3695 8.57881C66.3695 8.09338 66.3696 7.76976 66.2077 7.44614C66.0458 7.12253 66.0458 6.79891 65.8839 6.47529C65.722 6.15167 65.5602 5.82805 65.2364 5.50443C64.7508 5.01901 64.427 4.8572 63.9414 4.53358C63.4557 4.37177 62.8083 4.20996 62.1607 4.20996C61.5132 4.20996 60.8657 4.37177 60.3801 4.53358C59.8945 4.69539 59.4088 5.01901 58.9232 5.50443C58.5994 5.82805 58.4375 6.15167 58.2757 6.47529C58.1138 6.79891 57.9519 7.12253 57.9519 7.44614C57.9519 7.76976 57.79 8.25519 57.79 8.57881C57.79 9.06424 57.79 9.54966 57.79 10.0351C57.79 10.5205 57.79 11.0059 57.79 11.4914C57.79 11.9768 57.79 12.3004 57.9519 12.624C57.9519 12.9477 58.1138 13.2713 58.2757 13.5949C58.4375 13.9185 58.5994 14.2421 58.9232 14.5657C59.4088 15.0512 59.7326 15.213 60.3801 15.5366C60.8657 15.6984 61.5132 15.8602 62.1607 15.8602C62.8083 15.8602 63.4557 15.6984 63.9414 15.5366C64.427 15.3748 64.9127 15.0512 65.2364 14.5657C65.5602 14.2421 65.722 13.9185 65.8839 13.5949C66.0458 13.2713 66.2077 12.9477 66.2077 12.624C66.2077 12.3004 66.3695 11.815 66.3695 11.4914C66.3695 11.0059 66.3695 10.5205 66.3695 10.0351ZM64.1032 10.0351C64.1032 10.5205 64.1032 11.0059 64.1032 11.4914C64.1032 11.815 64.1032 12.1386 63.9414 12.4622C63.9414 12.624 63.7795 12.9477 63.7795 12.9477C63.7795 13.1095 63.6176 13.2713 63.4557 13.4331C63.2939 13.5949 63.132 13.7567 62.8082 13.9185C62.4845 14.0803 62.3226 14.0803 61.9989 14.0803C61.6751 14.0803 61.3514 14.0803 61.1895 13.9185C61.0276 13.7567 60.7039 13.5949 60.542 13.4331C60.3801 13.2713 60.3801 13.1095 60.2182 12.9477C60.2182 12.7858 60.0563 12.624 60.0563 12.4622C60.0563 12.3004 60.0563 11.9768 60.0563 11.4914C60.0563 11.1678 60.0563 10.6823 60.0563 10.0351C60.0563 9.54966 60.0563 9.06424 60.0563 8.57881C60.0563 8.25519 60.0563 7.93157 60.0563 7.60795C60.0563 7.44614 60.2182 7.12252 60.2182 7.12252C60.2182 6.96072 60.3801 6.79891 60.542 6.6371C60.7039 6.47529 60.8657 6.31348 61.1895 6.15167C61.5132 5.98986 61.6751 5.98986 61.9989 5.98986C62.3226 5.98986 62.6464 5.98986 62.8082 6.15167C62.9701 6.31348 63.2939 6.47529 63.4557 6.6371C63.6176 6.79891 63.6176 6.96072 63.7795 7.12252C63.7795 7.28433 63.9414 7.44614 63.9414 7.60795C63.9414 7.76976 63.9414 8.09338 64.1032 8.57881C64.1032 9.06424 64.1032 9.38785 64.1032 10.0351Z" fill="#28CD96"/>
<path d="M84.1759 4.37177C84.1759 4.20996 84.0141 4.20996 84.0141 4.20996H82.2334C82.0716 4.20996 82.0716 4.37177 82.0716 4.37177V11.1678L77.539 4.20996C77.539 4.20996 77.539 4.20996 77.3771 4.20996H75.5965C75.4346 4.20996 75.4346 4.37177 75.4346 4.37177C75.4346 8.09338 75.4346 11.815 75.4346 15.5366C75.4346 15.6984 75.5965 15.6984 75.5965 15.6984H77.3771C77.539 15.6984 77.539 15.5366 77.539 15.5366V8.74062L82.0716 15.6984C82.0716 15.6984 82.0716 15.6984 82.2334 15.6984H84.0141C84.176 15.6984 84.1759 15.5366 84.1759 15.5366V4.37177Z" fill="#28CD96"/>
<path d="M71.874 4.37177C71.874 4.20996 71.7121 4.20996 71.7121 4.20996H69.9314C69.7695 4.20996 69.7695 4.37177 69.7695 4.37177V15.5366C69.7695 15.6984 69.9314 15.6984 69.9314 15.6984H71.7121C71.874 15.6984 71.874 15.5366 71.874 15.5366V4.37177Z" fill="#28CD96"/>
<path d="M49.6962 10.0355C49.6962 9.55004 49.6962 9.06461 49.6962 8.57919C49.6962 8.25557 49.6962 7.93195 49.6962 7.60833C49.8581 6.63748 50.6675 5.99024 51.6388 5.99024C52.2863 5.99024 52.7719 6.15205 53.2576 6.79928C53.4194 6.96109 53.5813 7.28471 53.5813 7.60833H55.6857C55.5238 6.31386 54.7144 5.01938 53.4194 4.37215C52.7719 4.04853 52.1244 3.88672 51.4769 3.88672C50.1819 3.88672 49.2106 4.37215 48.4012 5.18119C47.9156 5.66662 47.5918 6.31386 47.43 6.96109C47.2681 7.60833 47.2681 8.57919 47.2681 9.87366C47.2681 11.1681 47.2681 12.139 47.43 12.7862C47.5918 13.4335 47.9156 14.0807 48.4012 14.5661C49.2106 15.3752 50.3437 15.8606 51.4769 15.8606C52.2863 15.8606 52.9338 15.6988 53.4194 15.3752C54.7144 14.7279 55.362 13.5953 55.6857 12.139H53.5813C53.5813 12.4626 53.4194 12.7862 53.2576 12.948C52.9338 13.4335 52.2863 13.7571 51.6388 13.7571C50.6675 13.7571 49.8581 13.1098 49.6962 12.139C49.6962 11.9772 49.6962 11.6536 49.6962 11.1681C49.6962 11.0063 49.6962 10.5209 49.6962 10.0355Z" fill="#28CD96"/>
<path d="M26.7099 4.37177C26.7099 4.20996 26.548 4.20996 26.548 4.20996H24.7674C24.6055 4.20996 24.6055 4.37177 24.6055 4.37177V15.5366C24.6055 15.6984 24.7674 15.6984 24.7674 15.6984H26.548C26.7099 15.6984 26.7099 15.5366 26.7099 15.5366V12.3004L28.1668 10.5205L31.2425 15.6984C31.2425 15.6984 31.2425 15.6984 31.4043 15.6984H33.6706C33.8325 15.6984 33.8325 15.6984 33.6706 15.5366L29.6237 8.74062L33.3468 4.37177C33.3468 4.20996 33.3468 4.20996 33.3468 4.20996H30.9187L26.8717 9.06423V4.37177H26.7099Z" fill="#28CD96"/>
<path d="M40.1461 13.7567C39.1748 13.7567 38.2035 12.7858 38.2035 11.6532V4.37177C38.2035 4.20996 38.0416 4.20996 38.0416 4.20996H36.261C36.0991 4.20996 36.0991 4.37177 36.0991 4.37177V11.6532C36.0991 14.2421 38.0417 15.8602 40.3079 15.8602C42.5742 15.8602 44.5167 14.2421 44.5167 11.6532V4.37177C44.5167 4.20996 44.3549 4.20996 44.3549 4.20996H42.5742C42.4123 4.20996 42.4123 4.37177 42.4123 4.37177V11.6532C42.0886 12.7858 41.2792 13.7567 40.1461 13.7567Z" fill="#28CD96"/>
<path d="M5.8276 10.0354L11.4933 15.6987L15.0546 12.1389C15.7021 11.4917 16.6734 11.4917 17.3209 12.1389C17.9684 12.7862 17.9684 13.757 17.3209 14.4042L12.4646 19.2585C11.8171 19.9058 10.8458 19.9058 10.1983 19.2585L3.23755 12.3007V16.346C3.23755 17.3168 2.42816 17.964 1.61877 17.964C0.809387 17.964 0 17.155 0 16.346V3.56303C0 2.59218 0.809387 1.94494 1.61877 1.94494C2.42816 1.94494 3.23755 2.75399 3.23755 3.56303V7.60826L10.1983 0.650466C10.8458 0.00322995 11.8171 0.00322995 12.4646 0.650466L17.3209 5.50474C17.9684 6.15198 17.9684 7.12283 17.3209 7.77007C16.6734 8.41731 15.7021 8.41731 15.0546 7.77007L11.4933 4.21027L5.8276 10.0354ZM11.6552 8.41731C10.6839 8.41731 10.0364 9.22635 10.0364 10.0354C10.0364 11.0063 10.8458 11.6535 11.6552 11.6535C12.6265 11.6535 13.274 10.8444 13.274 10.0354C13.274 9.06454 12.4646 8.41731 11.6552 8.41731Z" fill="#28CD96"/>
</svg>
