<svg width="111" height="25" viewBox="0 0 111 25" fill="none" xmlns="http://www.w3.org/2000/svg">
<path d="M12.1408 0.341797C18.7778 0.341797 24.2816 5.84331 24.2816 12.4775C24.2816 19.1117 18.7778 24.6132 12.1408 24.6132C5.50383 24.6132 0 19.1117 0 12.4775C0 5.6815 5.50383 0.341797 12.1408 0.341797Z" fill="#5661FF"/>
<path d="M19.2633 17.3316L16.6732 9.88838H12.7882L10.8457 14.9045H8.74124L12.1407 5.51953H10.8457C10.36 5.51953 9.87438 5.68134 9.55063 5.84315C9.22687 6.16677 8.90312 6.49039 8.74124 6.97581L5.01807 17.3316H11.1694C11.655 17.3316 12.1407 17.1698 12.4644 17.008C12.7882 16.6844 13.1119 16.3607 13.2738 15.8753L14.5688 12.3155L16.3495 17.3316H19.2633Z" fill="white"/>
<path d="M32.3755 18.3023V6.49023H35.2893V16.037H40.3075V18.3023H32.3755Z" fill="#5661FF"/>
<path d="M53.0957 8.75556V6.49023H63.4559V8.75556H59.7327V18.3023H56.8189V8.75556H53.0957Z" fill="#5661FF"/>
<path d="M75.9208 12.4772C75.9208 13.7716 75.597 14.9043 75.1114 15.7134C74.6258 16.6842 73.8164 17.3314 73.007 17.8169C72.1976 18.3023 71.0645 18.4641 70.0932 18.4641C68.9601 18.4641 67.9888 18.3023 67.1794 17.8169C66.37 17.3314 65.5606 16.6842 65.075 15.7134C64.5894 14.7425 64.2656 13.7716 64.2656 12.4772C64.2656 11.1827 64.5894 10.05 65.075 9.24099C65.5606 8.27014 66.2082 7.6229 67.1794 7.13747C67.9888 6.65205 69.122 6.49023 70.0932 6.49023C71.2264 6.49023 72.1976 6.65205 73.007 7.13747C73.8164 7.6229 74.6258 8.27014 75.1114 9.24099C75.597 10.05 75.9208 11.1827 75.9208 12.4772ZM72.8451 12.4772C72.8451 11.6681 72.6833 11.0209 72.5214 10.5355C72.3595 10.05 72.0357 9.56461 71.5501 9.4028C71.0645 9.07918 70.5789 8.91737 70.0932 8.91737C69.4457 8.91737 68.9601 9.07918 68.6363 9.4028C68.1507 9.72642 67.8269 10.05 67.6651 10.5355C67.5032 11.0209 67.3413 11.6681 67.3413 12.4772C67.3413 13.2862 67.5032 13.9335 67.6651 14.4189C67.8269 14.9043 68.1507 15.3897 68.6363 15.5515C69.1219 15.8752 69.6076 16.037 70.0932 16.037C70.7407 16.037 71.2264 15.8752 71.5501 15.5515C72.0357 15.2279 72.3595 14.9043 72.5214 14.4189C72.8451 13.7716 72.8451 13.1244 72.8451 12.4772Z" fill="#5661FF"/>
<path d="M77.5396 18.3023V6.49023H80.4533V11.5063H80.6152L84.6622 6.49023H88.0616L83.6909 11.8299L88.0616 18.3023H84.5003L81.4246 13.6098L80.2915 15.0661V18.3023H77.5396Z" fill="#5661FF"/>
<path d="M89.3564 18.3023V6.49023H97.936V8.75556H92.4321V11.1827H97.6122V13.448H92.4321V15.8752H97.936V18.1405H89.3564V18.3023Z" fill="#5661FF"/>
<path d="M110.077 6.49023V18.3023H107.649L102.792 11.5063V18.3023H99.8784V6.49023H102.468L107.325 13.2862H107.487V6.49023H110.077Z" fill="#5661FF"/>
<path d="M50.6677 18.3023H53.9052L49.8583 6.49023H45.9732L41.9263 18.3023H45.1638L45.9732 15.8752H50.182L50.6677 18.3023ZM46.297 13.6098L47.592 9.4028H47.7539L49.0489 13.6098H46.297Z" fill="#5661FF"/>
</svg>
