<svg width="22" height="20" viewBox="0 0 22 20" fill="none" xmlns="http://www.w3.org/2000/svg">
<g clip-path="url(#clip0_10_8319)">
<path d="M20.9113 0.0448063C20.9113 0.0448063 20.8472 -0.00886941 20.8106 0.00902251L13.8647 2.54073C13.8647 2.54073 13.8281 2.56757 13.8189 2.58546L12.2266 6.22646C12.2266 6.22646 12.2266 6.29803 12.254 6.31592C12.2723 6.32487 12.2906 6.33382 12.2998 6.33382C12.3089 6.33382 12.3364 6.33382 12.3455 6.31592L20.893 0.143212C20.893 0.143212 20.9387 0.0805902 20.9204 0.0448063H20.9113Z" fill="#E17726"/>
<path d="M4.30152 14.3405C4.30152 14.3405 4.26491 14.3047 4.23746 14.3047L0.265746 14.3852C0.265746 14.3852 0.219989 14.3941 0.201686 14.421C0.183383 14.4478 0.183383 14.4657 0.192535 14.4926L1.5744 19.1176C1.5744 19.1176 1.62015 19.1713 1.65676 19.1713H1.67506L6.52531 17.8652C6.52531 17.8652 6.57107 17.8383 6.58022 17.8205C6.58937 17.8026 6.58022 17.7668 6.58022 17.7489L4.31982 14.3584L4.30152 14.3405Z" fill="#E27625"/>
<path d="M21.8177 14.4117C21.8177 14.4117 21.7811 14.3759 21.7536 14.3759L17.7728 14.2954C17.7728 14.2954 17.7179 14.3044 17.6996 14.3312L15.43 17.7217C15.43 17.7217 15.4117 17.7664 15.43 17.7933C15.4392 17.8201 15.4575 17.838 15.4849 17.838L20.3535 19.1441H20.3718C20.4084 19.1441 20.4358 19.1262 20.4541 19.0904L21.8451 14.4654C21.8451 14.4654 21.8451 14.4117 21.836 14.3938L21.8177 14.4117Z" fill="#E27625"/>
<path d="M8.18195 2.59433C8.18195 2.59433 8.15449 2.55854 8.13619 2.5496L1.19027 0C1.19027 0 1.1079 0 1.0896 0.0357838C1.0713 0.0715677 1.08045 0.116297 1.1079 0.134189L9.57296 6.36952C9.57296 6.36952 9.60042 6.38742 9.61872 6.38742C9.63702 6.38742 9.65532 6.38742 9.66448 6.36952C9.69193 6.35163 9.70108 6.3069 9.69193 6.28006L8.18195 2.59433Z" fill="#E27625"/>
<path d="M6.95497 14.4387C6.95497 14.4387 6.90006 14.4208 6.87261 14.4298C6.84516 14.4387 6.82685 14.4655 6.82685 14.4924L6.41504 17.7666C6.41504 17.7666 6.42419 17.8203 6.45164 17.8382C6.46995 17.8471 6.4791 17.8561 6.4974 17.8561C6.50655 17.8561 6.52486 17.8561 6.53401 17.8561L9.45331 16.4873C9.45331 16.4873 9.49906 16.4515 9.49906 16.4247C9.49906 16.3979 9.49907 16.371 9.47161 16.3531L6.96412 14.4476L6.95497 14.4387Z" fill="#E27625"/>
<path d="M9.56338 5.73453C9.56338 5.73453 9.49932 5.73453 9.48102 5.75242L6.20481 8.58829C6.20481 8.58829 6.17736 8.60619 6.16821 8.61513L4.8138 10.6101C4.8138 10.6101 4.7955 10.6638 4.8138 10.6906C4.82295 10.7174 4.8504 10.7353 4.88701 10.7353L9.6915 10.95C9.6915 10.95 9.73726 10.95 9.74641 10.9232C9.76471 10.9053 9.77386 10.8874 9.77386 10.8606L9.61829 5.79715C9.61829 5.79715 9.59999 5.73453 9.57253 5.72559L9.56338 5.73453Z" fill="#E27625"/>
<path d="M17.1863 10.6098L15.841 8.62384C15.841 8.62384 15.841 8.6149 15.8227 8.60595L12.4733 5.68062C12.4733 5.68062 12.4184 5.65379 12.3909 5.67168C12.3635 5.68062 12.3452 5.70746 12.3452 5.74325L12.2354 10.8693C12.2354 10.8693 12.2354 10.914 12.2628 10.9319C12.2811 10.9498 12.2994 10.9587 12.3177 10.9587L17.1222 10.744C17.1222 10.744 17.1771 10.7261 17.1954 10.6993C17.2046 10.6725 17.2046 10.6456 17.1954 10.6188L17.1863 10.6098Z" fill="#E27625"/>
<path d="M15.1364 14.4211C15.1364 14.4211 15.0814 14.4211 15.054 14.43L12.5465 16.3355C12.5465 16.3355 12.5099 16.3802 12.519 16.4071C12.519 16.4339 12.5373 16.4607 12.5648 16.4697L15.4658 17.8474C15.4658 17.8474 15.4933 17.8474 15.5024 17.8474C15.5207 17.8474 15.539 17.8474 15.5482 17.8295C15.5756 17.8116 15.5848 17.7847 15.5848 17.7579L15.1913 14.4747C15.1913 14.4747 15.173 14.4211 15.1455 14.4121L15.1364 14.4211Z" fill="#E27625"/>
<path d="M15.5297 17.7043L12.6287 16.3355C12.6287 16.3355 12.5738 16.3266 12.5464 16.3355C12.5189 16.3534 12.5098 16.3802 12.5098 16.4071L12.7386 18.2321L12.7111 19.0104C12.7111 19.0104 12.7202 19.064 12.7477 19.0819C12.7569 19.0819 12.7752 19.0909 12.7935 19.0909C12.8026 19.0909 12.8209 19.0909 12.8301 19.0909L15.5206 17.8384C15.5206 17.8384 15.5663 17.7937 15.5663 17.7669C15.5663 17.74 15.548 17.7043 15.5206 17.6953L15.5297 17.7043Z" fill="#D5BFB2"/>
<path d="M9.45367 16.3444C9.45367 16.3444 9.39876 16.3265 9.37131 16.3444L6.45201 17.7131C6.45201 17.7131 6.40625 17.7578 6.40625 17.7847C6.40625 17.8115 6.42455 17.8473 6.45201 17.8562L9.15167 19.1087C9.15167 19.1087 9.17913 19.1087 9.18828 19.1087C9.20658 19.1087 9.21573 19.1087 9.23404 19.0997C9.26149 19.0818 9.27064 19.055 9.27064 19.0282L9.25234 18.2588L9.49028 16.4159C9.49028 16.4159 9.48113 16.3623 9.45367 16.3444Z" fill="#D5BFB2"/>
<path d="M8.50183 11.7551L6.79966 12.5155C6.79966 12.5155 6.75391 12.5603 6.75391 12.596C6.75391 12.6318 6.78136 12.6587 6.80881 12.6676L9.21564 13.3564C9.21564 13.3564 9.23394 13.3564 9.24309 13.3564C9.27055 13.3564 9.298 13.3386 9.3163 13.3207C9.33461 13.2938 9.33461 13.267 9.3163 13.2401L8.61164 11.7909C8.61164 11.7909 8.54758 11.7372 8.50183 11.7551Z" fill="#233447"/>
<path d="M15.2097 12.5153L13.4984 11.7549C13.4984 11.7549 13.4069 11.7549 13.3886 11.7907L12.6748 13.2489C12.6748 13.2489 12.6748 13.2757 12.6748 13.2936C12.6748 13.3204 12.684 13.3383 12.7114 13.3562C12.7297 13.3652 12.7389 13.3741 12.7572 13.3741C12.7572 13.3741 12.7755 13.3741 12.7846 13.3741L15.2097 12.6763C15.2097 12.6763 15.2647 12.6405 15.2647 12.6047C15.2647 12.569 15.2464 12.5421 15.2189 12.5242L15.2097 12.5153Z" fill="#233447"/>
<path d="M9.69965 10.78L4.89516 10.5742C4.89516 10.5742 4.8311 10.5921 4.82195 10.6189C4.8128 10.6458 4.82195 10.6816 4.84025 10.7084L6.7895 12.6407C6.7895 12.6407 6.85356 12.6676 6.88102 12.6586L8.50997 11.9251L9.18717 13.3027C9.18717 13.3027 9.23293 13.3475 9.26039 13.3475C9.26039 13.3475 9.26039 13.3475 9.26954 13.3475C9.30614 13.3475 9.3336 13.3206 9.34275 13.2848L9.79117 10.8694C9.79117 10.8694 9.79117 10.8247 9.77286 10.8068C9.75456 10.7889 9.73626 10.78 9.7088 10.78H9.69965Z" fill="#CC6228"/>
<path d="M6.9089 14.3047L4.22754 14.3852C4.22754 14.3852 4.17263 14.4031 4.15432 14.4299C4.14517 14.4568 4.14517 14.4836 4.15432 14.5104L6.41472 17.8294C6.41472 17.8294 6.45133 17.8652 6.47878 17.8652C6.47878 17.8652 6.48794 17.8652 6.49709 17.8652C6.53369 17.8652 6.552 17.8294 6.56115 17.7936L6.98211 14.4031C6.98211 14.4031 6.98211 14.3584 6.96381 14.3405C6.94551 14.3226 6.9272 14.3226 6.89975 14.3136L6.9089 14.3047Z" fill="#CC6228"/>
<path d="M17.7712 14.3852L15.0899 14.3047C15.0899 14.3047 15.0441 14.3047 15.0258 14.3315C15.0075 14.3494 14.9983 14.3673 15.0075 14.3941L15.4193 17.7847C15.4193 17.7847 15.4468 17.8473 15.4834 17.8562C15.4834 17.8562 15.4925 17.8562 15.5017 17.8562C15.5291 17.8562 15.5566 17.8473 15.5657 17.8204L17.8353 14.5015C17.8353 14.5015 17.8536 14.4478 17.8353 14.421C17.817 14.3941 17.7987 14.3763 17.7621 14.3763L17.7712 14.3852Z" fill="#CC6228"/>
<path d="M15.237 12.6405L17.1771 10.7082C17.1771 10.7082 17.2046 10.6456 17.1954 10.6188C17.1863 10.5919 17.1497 10.5651 17.1222 10.574L12.3177 10.7887C12.3177 10.7887 12.272 10.7977 12.2537 10.8156C12.2354 10.8335 12.2354 10.8603 12.2354 10.8782L12.6746 13.2936C12.6746 13.2936 12.7112 13.3562 12.7478 13.3562C12.7478 13.3562 12.7478 13.3562 12.757 13.3562C12.7844 13.3562 12.821 13.3383 12.8302 13.3115L13.5074 11.9249L15.1455 12.6584C15.1455 12.6584 15.2096 12.6584 15.237 12.6405Z" fill="#CC6228"/>
<path d="M6.8906 12.5332L4.94134 10.6009C4.94134 10.6009 4.86813 10.5651 4.83153 10.6009C4.79492 10.6277 4.78577 10.6635 4.80407 10.6993L6.81738 14.5371C6.81738 14.5371 6.86314 14.5818 6.8906 14.5818C6.8906 14.5818 6.89975 14.5818 6.9089 14.5818C6.9455 14.5729 6.97296 14.5371 6.97296 14.5013L6.9089 12.5958C6.9089 12.5958 6.9089 12.56 6.88144 12.5421L6.8906 12.5332Z" fill="#E27525"/>
<path d="M9.70009 10.7886C9.70009 10.7886 9.62688 10.8154 9.61773 10.8512L9.16016 13.2666C9.16016 13.2666 9.16016 13.2845 9.16016 13.2934L9.72754 16.1383C9.72754 16.1383 9.76415 16.2009 9.80991 16.2009C9.84651 16.2009 9.88312 16.1651 9.88312 16.1204L10.0112 12.3541L9.76415 10.8512C9.76415 10.8512 9.72754 10.7886 9.68179 10.7886H9.70009Z" fill="#E27525"/>
<path d="M12.2994 10.7796C12.2994 10.7796 12.2262 10.8154 12.2262 10.8601L11.9883 12.363L12.1072 16.1203C12.1072 16.1203 12.1439 16.1919 12.1805 16.2008C12.2171 16.2008 12.2537 16.174 12.2628 16.1382L12.8302 13.2845C12.8302 13.2845 12.8302 13.2666 12.8302 13.2576L12.3818 10.8422C12.3818 10.8422 12.3452 10.7706 12.2903 10.7796H12.2994Z" fill="#E27525"/>
<path d="M17.1588 10.5918C17.1588 10.5918 17.0855 10.5739 17.0489 10.6007L15.1088 12.5331C15.1088 12.5331 15.0905 12.5688 15.0814 12.5867L14.999 14.4922C14.999 14.4922 15.0265 14.5638 15.0631 14.5727H15.0814C15.1088 14.5727 15.1363 14.5548 15.1546 14.528L17.1679 10.6902C17.1679 10.6902 17.1679 10.6097 17.1405 10.5918H17.1588Z" fill="#E27525"/>
<path d="M15.2281 12.5242C15.2281 12.5242 15.1823 12.5063 15.1548 12.5063L12.7297 13.1952C12.7297 13.1952 12.6748 13.231 12.6748 13.2578L12.1074 16.1116C12.1074 16.1116 12.1074 16.1742 12.144 16.1921L12.5558 16.4694C12.5558 16.4694 12.5833 16.4873 12.6016 16.4873C12.6199 16.4873 12.6382 16.4873 12.6474 16.4694L15.1457 14.5639C15.1457 14.5639 15.1731 14.5281 15.1731 14.5013L15.2555 12.5869C15.2555 12.5869 15.2464 12.5332 15.2281 12.5242Z" fill="#F5841F"/>
<path d="M9.27054 13.1953L6.86372 12.5154C6.81797 12.4976 6.76306 12.5333 6.75391 12.5781C6.75391 12.596 6.75391 12.6049 6.75391 12.6228L6.81797 14.4925C6.81797 14.4925 6.82712 14.5372 6.84542 14.5551L9.35291 16.4606C9.35291 16.4606 9.38951 16.4785 9.39866 16.4785C9.41697 16.4785 9.43527 16.4785 9.44442 16.4606L9.84708 16.1833C9.84708 16.1833 9.88369 16.1296 9.88369 16.1028L9.3163 13.249C9.3163 13.249 9.28885 13.1953 9.26139 13.1864L9.27054 13.1953Z" fill="#F5841F"/>
<path d="M15.5666 17.7311C15.5666 17.7311 15.5026 17.6864 15.466 17.7043L12.9036 18.8941L12.9219 18.241C12.9219 18.241 12.9127 18.1963 12.8944 18.1784L12.6748 17.9995C12.6748 17.9995 12.6382 17.9816 12.6199 17.9816H9.39859C9.39859 17.9816 9.36199 17.9816 9.34368 17.9995L9.1332 18.1784C9.1332 18.1784 9.10575 18.2142 9.10575 18.241L9.12405 18.8941L6.54335 17.6953C6.54335 17.6953 6.46099 17.6953 6.44269 17.7221C6.42438 17.7579 6.42438 17.8027 6.46099 17.8295L7.41274 18.5989L9.32538 19.8871C9.32538 19.8871 9.35284 19.905 9.37114 19.905H12.6473C12.6473 19.905 12.6839 19.905 12.6931 19.8871L14.624 18.5899L15.5575 17.8384C15.5575 17.8384 15.5941 17.7669 15.5758 17.7311H15.5666Z" fill="#C0AC9D"/>
<path d="M12.6834 16.4068C12.6834 16.4068 12.6743 16.3531 12.6468 16.3353L12.235 16.0579C12.235 16.0579 12.2075 16.04 12.1892 16.04H9.80988C9.80988 16.04 9.77327 16.04 9.76412 16.0579L9.36146 16.3353C9.36146 16.3353 9.334 16.371 9.32485 16.3889L9.08691 18.2318C9.08691 18.2318 9.09606 18.2944 9.13267 18.3123C9.14182 18.3123 9.16013 18.3213 9.16928 18.3213C9.18758 18.3213 9.20588 18.3213 9.22418 18.3034L9.41636 18.1423H12.5828L12.7841 18.3034C12.7841 18.3034 12.8481 18.3302 12.8756 18.3034C12.9031 18.2855 12.9214 18.2586 12.9214 18.2229L12.6926 16.3889L12.6834 16.4068Z" fill="#161616"/>
<path d="M1.20799 0.0177985C1.20799 0.0177985 1.16223 -9.34349e-05 1.13478 0.00885253C1.10732 0.00885253 1.08902 0.0356904 1.07987 0.0625283L0 3.22045C0 3.22045 0 3.24729 0 3.26518L0.71381 6.61992L0.283694 6.92408C0.283694 6.92408 0.247088 6.95986 0.247088 6.9867C0.247088 7.01354 0.25624 7.03143 0.283694 7.04932L0.896839 7.49662L0.457571 7.83657C0.457571 7.83657 0.430116 7.87235 0.430116 7.89919C0.430116 7.92603 0.430116 7.94392 0.457571 7.96181L1.06156 8.50751L0.71381 8.758C0.71381 8.758 0.686356 8.79379 0.677205 8.81168C0.668053 8.82957 0.677205 8.85641 0.695507 8.8743L1.68386 10.0015C1.68386 10.0015 1.72047 10.0283 1.74792 10.0283H1.76622L6.25042 8.758C6.25042 8.758 6.26872 8.758 6.27787 8.74011L9.45341 6.11894C9.45341 6.11894 9.48086 6.08316 9.48086 6.05632C9.48086 6.02948 9.47171 6.01159 9.44426 5.9937L1.20799 0.0177985Z" fill="#763E1A"/>
<path d="M21.2956 6.62001L22.0003 3.26528C22.0003 3.26528 22.0003 3.23844 22.0003 3.22055L20.9204 0.0536758C20.9204 0.0536758 20.8929 0.00894596 20.8655 0C20.838 0 20.8106 0 20.7923 0.00894596L12.5469 5.98485C12.5469 5.98485 12.5194 6.02063 12.5102 6.04747C12.5011 6.07431 12.5194 6.0922 12.5377 6.11009L15.7132 8.72231C15.7132 8.72231 15.7315 8.73126 15.7407 8.7402L20.2249 10.0195H20.2432C20.2706 10.0195 20.2889 10.0105 20.3073 9.99264L21.2956 8.86545C21.2956 8.86545 21.3139 8.82966 21.3139 8.80283C21.3139 8.77599 21.2956 8.7581 21.2773 8.74915L20.9295 8.49866L21.5427 7.95296C21.5427 7.95296 21.5701 7.91718 21.5701 7.89034C21.5701 7.8635 21.561 7.84561 21.5427 7.82772L21.1034 7.49672L21.6983 7.04942C21.6983 7.04942 21.7257 7.01363 21.7257 6.9868C21.7257 6.95996 21.7166 6.94207 21.6983 6.92417L21.2865 6.62001H21.2956Z" fill="#763E1A"/>
<path d="M6.30491 8.70434C6.30491 8.70434 6.32322 8.65067 6.30491 8.62383C6.28661 8.59699 6.25916 8.5791 6.2317 8.5791H6.2134L1.72921 9.85837C1.72921 9.85837 1.68345 9.88521 1.6743 9.91205L0.182617 14.4387C0.182617 14.4387 0.182617 14.4924 0.191769 14.5103C0.210071 14.5282 0.228374 14.5461 0.255828 14.5461H4.23669L6.89976 14.5818C6.89976 14.5818 6.95466 14.5639 6.97297 14.5461C6.99127 14.5282 6.99127 14.4924 6.97297 14.4655L4.97796 10.6635L6.30491 8.70434Z" fill="#F5841F"/>
<path d="M20.3252 9.91238C20.3252 9.91238 20.2977 9.86765 20.2703 9.85871L15.7861 8.58838C15.7861 8.58838 15.722 8.58838 15.6946 8.61522C15.6763 8.64205 15.6763 8.67784 15.6946 8.70468L17.0215 10.6549L15.0265 14.4569C15.0265 14.4569 15.0174 14.5106 15.0265 14.5374C15.0357 14.5643 15.0631 14.5732 15.0997 14.5732L17.7628 14.5374H21.7437C21.7437 14.5374 21.7986 14.5285 21.8077 14.5017C21.826 14.4838 21.826 14.4569 21.8169 14.4301L20.316 9.90343L20.3252 9.91238Z" fill="#F5841F"/>
<path d="M13.9004 2.53174H8.10754C8.10754 2.53174 8.05263 2.54068 8.04348 2.56752C8.02518 2.58541 8.02518 2.61225 8.03433 2.63909L9.33383 6.05645L9.62668 10.8694L9.7365 12.3723V16.1207C9.7365 16.1207 9.7731 16.2012 9.81886 16.2012H12.2074C12.2074 16.2012 12.2897 16.1654 12.2897 16.1207V12.3812L12.4087 10.8694L12.7016 6.05645L13.9919 2.63909C13.9919 2.63909 13.9919 2.58541 13.9828 2.56752C13.9644 2.54963 13.9461 2.53174 13.9187 2.53174H13.9004Z" fill="#F5841F"/>
</g>
<defs>
<clipPath id="clip0_10_8319">
<rect width="22" height="19.9048" fill="white"/>
</clipPath>
</defs>
</svg>
