<svg width="34" height="24" viewBox="0 0 34 24" fill="none" xmlns="http://www.w3.org/2000/svg">
<path d="M8.96881 6.58538C13.4045 2.28925 20.5962 2.28925 25.032 6.58538L25.5658 7.10242C25.7876 7.31725 25.7876 7.6655 25.5658 7.88033L23.7397 9.64903C23.6288 9.75645 23.449 9.75645 23.3381 9.64903L22.6035 8.93754C19.509 5.94042 14.4918 5.94042 11.3973 8.93754L10.6106 9.69948C10.4997 9.8069 10.32 9.8069 10.209 9.69948L8.38288 7.93078C8.16103 7.71595 8.16103 7.3677 8.38288 7.15287L8.96881 6.58538ZM28.8087 10.2433L30.4341 11.8174C30.6559 12.0322 30.6559 12.3805 30.4341 12.5953L23.1054 19.6935C22.8837 19.9082 22.524 19.9082 22.3023 19.6935L17.1008 14.6557C17.0454 14.602 16.9555 14.602 16.9 14.6557L11.6987 19.6935C11.477 19.9082 11.1173 19.9082 10.8956 19.6935L3.56673 12.5953C3.34494 12.3804 3.34494 12.0322 3.56673 11.8173L5.19204 10.2432C5.41383 10.0284 5.77342 10.0284 5.99521 10.2432L11.1967 15.281C11.2521 15.3347 11.342 15.3347 11.3975 15.281L16.5987 10.2432C16.8205 10.0284 17.1801 10.0284 17.4019 10.2432L22.6034 15.281C22.6588 15.3347 22.7487 15.3347 22.8042 15.281L28.0056 10.2433C28.2274 10.0285 28.587 10.0285 28.8087 10.2433Z" fill="#3396FF"/>
</svg>
