<svg width="90" height="20" viewBox="0 0 90 20" fill="none" xmlns="http://www.w3.org/2000/svg">
<path d="M0.971275 0.356445C1.13315 0.356445 1.4569 0.356445 1.61877 0.356445C8.25575 0.356445 15.0546 0.356445 21.6916 0.356445C22.3391 0.356445 22.8247 1.00368 22.6628 1.48911C22.6628 2.13635 22.0154 2.62177 21.3678 2.62177C14.569 2.62177 7.77013 2.62177 0.971275 2.62177C0.485642 2.62177 0.161877 2.29816 0 1.97454C0 1.16549 0.323765 0.518254 0.971275 0.356445ZM3.39944 3.75444C3.56131 3.75444 3.72316 3.75444 3.72316 3.75444C8.90324 3.75444 14.2452 3.75444 19.4253 3.75444C19.9109 3.75444 20.3966 4.23987 20.3966 4.72529V4.8871C20.3966 5.53434 19.749 6.01977 19.1015 6.01977C13.9214 6.01977 8.57951 6.01977 3.39944 6.01977C2.9138 6.01977 2.59004 5.69615 2.42816 5.37253C2.26628 4.72529 2.59005 3.91625 3.39944 3.75444ZM9.06515 7.31424C9.22702 7.31424 9.55077 7.31424 9.71265 7.31424C11.1695 7.31424 12.7883 7.31424 14.2452 7.31424C14.5689 7.31424 14.8927 7.63786 14.8927 7.96148C15.0546 8.60871 14.4071 9.41776 13.5977 9.41776H8.74137C8.41762 9.41776 8.09387 9.25595 8.09387 8.93233C7.93199 8.12328 8.41764 7.47605 9.06515 7.31424ZM8.57948 10.874C8.74136 10.874 8.90327 10.874 9.06515 10.874C10.6839 10.874 12.3027 10.874 13.9215 10.874C14.2452 10.874 14.569 11.1977 14.569 11.5213C14.7308 12.1685 14.0833 12.9776 13.4358 12.9776C11.817 12.9776 10.1983 12.9776 8.57948 12.9776C8.25573 12.9776 7.93198 12.8157 7.93198 12.4921C7.60823 11.6831 7.93197 11.0358 8.57948 10.874ZM8.41765 14.272C10.0364 14.272 11.817 14.272 13.4358 14.272C13.7596 14.272 14.0834 14.5956 14.0834 14.9193C14.0834 15.4047 13.9214 16.0519 13.4358 16.2137C13.1121 16.3755 12.7883 16.3755 12.4646 16.3755H8.09387C7.77012 16.3755 7.44637 16.2137 7.44637 15.7283C7.12262 14.9193 7.60826 14.272 8.41765 14.272ZM7.60826 17.67C9.22703 17.67 10.8458 17.67 12.4646 17.67C12.7883 17.67 13.1121 17.9936 13.274 18.3173C13.274 18.8027 13.1121 19.2881 12.6264 19.6117C12.3027 19.7735 11.979 19.7735 11.6552 19.7735C10.1983 19.7735 8.74138 19.7735 7.28448 19.7735C6.96073 19.7735 6.63698 19.6117 6.63698 19.2881C6.47511 18.4791 6.96075 17.8318 7.60826 17.67Z" fill="#00DAE4"/>
<path d="M58.114 3.75453C58.4377 3.59272 58.9234 3.75453 59.2472 3.75453C59.5709 3.91634 59.5709 4.23996 59.5709 4.56358C59.5709 6.01986 59.5709 7.63795 59.5709 9.09423C59.5709 9.25604 59.5709 9.41785 59.409 9.57966C58.7615 10.8741 58.7615 12.654 59.409 13.9485C59.5709 14.2721 59.5709 14.7576 59.5709 15.243C59.5709 15.7284 58.9234 16.052 58.5997 16.052C58.114 16.052 57.6284 15.8902 57.6284 15.243C57.6284 11.6832 57.6284 8.12338 57.6284 4.56358C57.6284 4.07815 57.9521 3.75453 58.114 3.75453ZM88.3851 3.75453C88.7088 3.75453 89.1945 3.59272 89.5182 3.91634C89.842 4.07815 89.842 4.40177 89.842 4.56358C89.842 8.12338 89.842 11.6832 89.842 15.243C89.842 15.7284 89.5182 15.8902 89.0326 15.8902C88.547 16.052 87.7376 15.8902 87.7376 15.243C87.7376 11.6832 87.7376 8.12338 87.7376 4.56358C87.7376 4.07815 88.0613 3.75453 88.3851 3.75453ZM69.9311 4.56358C69.9311 3.75453 71.0642 3.43091 71.7117 3.91634C71.8736 4.07815 72.0355 4.40177 72.0355 4.56358C72.0355 5.85805 72.0355 7.15252 72.0355 8.447C72.3592 7.63795 73.1686 6.99071 73.978 6.82891C74.9493 6.6671 76.0824 6.99071 76.7299 7.63795C77.2155 8.12338 77.3774 8.77062 77.7012 9.25604C77.3774 10.5505 77.3774 12.0068 77.7012 13.3013C77.5393 14.1103 77.0537 14.7576 76.2443 15.243C75.273 15.8902 73.978 15.8902 73.0067 15.4048C72.683 15.243 72.3592 14.7576 72.1973 14.4339C72.1973 14.7576 72.1973 15.243 72.0355 15.4048C71.7117 15.7284 71.2261 15.7284 70.7405 15.5666C70.4167 15.4048 70.0929 15.0812 70.2548 14.5957C69.931 11.3596 69.9311 7.96157 69.9311 4.56358ZM73.3305 8.77062C72.5211 8.93243 72.1973 9.90328 72.0355 10.7123C71.8736 11.6832 71.8736 12.8158 72.3592 13.6249C73.0067 14.5957 74.7874 14.4339 75.273 13.4631C75.5968 12.8158 75.5968 12.0068 75.5968 11.3596C75.5968 10.7123 75.4349 9.90328 74.9492 9.25604C74.6255 8.77062 73.978 8.60881 73.3305 8.77062ZM47.2682 6.50529C48.0776 5.21081 49.3726 4.40177 50.9914 4.23996C52.1245 4.07815 53.4196 4.23996 54.5527 4.88719C55.0384 5.21081 55.6859 5.69624 56.0096 6.18167C56.1715 6.34348 56.1715 6.6671 56.0096 6.99072C55.6859 7.47614 54.8765 7.63795 54.3908 7.31433C54.0671 6.99071 53.7433 6.6671 53.4196 6.50529C52.1245 5.69624 50.182 5.85805 49.2107 7.15253C48.4013 8.12338 48.2395 9.41785 48.2395 10.5505C48.2395 11.5214 48.5632 12.4922 49.2107 13.1395C50.0201 14.1103 51.477 14.4339 52.6102 13.9485C53.5814 13.4631 54.2289 12.3304 54.2289 11.3596C53.5814 11.3596 52.9339 11.3596 52.2864 11.3596C51.9626 11.3596 51.6389 11.3596 51.477 11.0359C51.1533 10.5505 51.3152 9.57966 51.9627 9.57966C52.7721 9.41785 53.7433 9.57966 54.5527 9.57966C55.0384 9.57966 55.524 9.57966 55.8477 9.90328C56.1715 10.2269 56.1715 10.7123 56.1715 11.1978C56.1715 12.3304 56.0096 13.4631 55.3621 14.4339C54.7146 15.4048 53.7433 15.8902 52.6102 16.2138C51.1533 16.3756 49.5345 16.2138 48.2395 15.4048C46.9444 14.5957 46.2969 13.1395 46.1351 11.6832C46.1351 9.74147 46.297 7.79976 47.2682 6.50529ZM26.8717 6.01986C26.5479 5.53443 26.7098 4.56358 27.5192 4.56358C29.9473 4.56358 32.2136 4.56358 34.6418 4.56358C33.8324 4.8872 33.9943 6.18167 34.8037 6.34348C33.1849 8.77062 31.4042 11.3596 29.7854 13.7867C31.4042 13.7867 32.8611 13.7867 34.4799 13.7867C34.9655 13.7867 35.2893 14.2721 35.2893 14.7576C35.2893 15.243 34.9655 15.5666 34.4799 15.7284C32.2136 15.7284 29.9473 15.7284 27.6811 15.7284C27.1954 15.7284 26.7098 15.243 27.0336 14.7576C28.8142 12.0068 30.7567 9.25604 32.5374 6.50529H27.8429C27.3573 6.34348 27.1954 6.18167 26.8717 6.01986ZM35.9368 4.56358C38.2031 4.56358 40.4693 4.56358 42.5737 4.56358C42.8975 4.56358 43.3831 4.72539 43.545 5.049C43.7069 5.53443 43.7069 6.01986 43.2213 6.34348C43.0594 6.50529 42.7356 6.50529 42.5737 6.50529C41.9262 6.50529 41.1169 6.50529 40.4694 6.50529C40.4694 9.41785 40.4694 12.3304 40.4694 15.0812C40.4694 15.4048 40.1456 15.8902 39.8219 15.8902C39.4981 15.8902 39.0125 15.8902 38.6887 15.7284C38.5268 15.5666 38.365 15.243 38.365 14.9194C38.365 12.0068 38.365 9.25604 38.365 6.34348C37.5556 6.34348 36.908 6.34348 36.0987 6.34348C35.7749 6.34348 35.4511 6.18167 35.2893 6.01986C35.1274 5.53443 35.2893 4.56358 35.9368 4.56358ZM63.9416 6.99072C64.9129 6.82891 66.046 6.99071 66.8554 7.47614C67.8266 8.12338 68.4741 9.09423 68.636 10.2269C69.1217 12.4922 67.8267 14.9194 65.8841 15.7284C64.751 16.2138 63.6178 16.2138 62.4847 15.7284C61.6753 15.243 61.0278 14.5957 60.5422 13.7867C59.8946 12.3304 60.0565 10.5505 60.8659 9.09423C61.5134 8.12338 62.6466 7.31433 63.9416 6.99072ZM64.751 8.60881C64.2653 10.0651 62.9703 11.1978 61.5134 11.6832C61.9991 11.845 62.3228 12.0068 62.8084 12.3304C63.6178 12.8158 64.1034 13.7867 64.4272 14.7576C64.751 14.1103 65.0747 13.4631 65.5604 12.9777C66.2079 12.4922 66.8554 12.0068 67.6647 11.845C66.3697 11.1978 65.2366 10.0651 64.751 8.60881ZM80.9387 6.99072C81.7481 6.82891 82.5575 6.6671 83.205 7.15253C83.6906 7.47614 84.1763 7.96157 84.3382 8.60881C84.3382 8.28519 84.1763 7.79976 84.5 7.47614C84.9857 6.82891 86.2807 6.99072 86.2807 7.96157C86.2807 10.3887 86.2807 12.654 86.2807 14.9194C86.2807 15.243 86.1188 15.7284 85.795 15.7284C85.3094 15.8902 84.8238 15.8902 84.5 15.5666C84.1763 15.243 84.3382 14.9194 84.3382 14.5957C84.0144 15.0812 83.6906 15.5666 83.205 15.8902C81.91 16.3756 80.4531 16.052 79.6437 14.9194C78.9962 14.1103 78.6724 12.9777 78.6724 12.0068C78.6724 10.8741 78.6724 9.90328 79.1581 8.93242C79.4818 7.96157 80.1293 7.31433 80.9387 6.99072ZM82.0719 8.77062C81.2625 8.93243 80.7768 9.74147 80.7768 10.5505C80.615 11.5214 80.615 12.4922 81.1006 13.3013C81.5862 14.2721 83.205 14.5957 84.0144 13.7867C84.5 13.1395 84.6619 12.3304 84.6619 11.5214C84.6619 10.7123 84.5 9.90328 84.0144 9.09423C83.3669 8.60881 82.7194 8.60881 82.0719 8.77062Z" fill="white"/>
</svg>
