<svg width="116" height="81" viewBox="0 0 116 81" fill="none" xmlns="http://www.w3.org/2000/svg">
<path d="M104.875 24.8142C104.875 23.1524 103.535 21.8051 101.882 21.8051C100.229 21.8051 98.8887 23.1524 98.8887 24.8142C98.8887 26.476 100.229 27.8234 101.882 27.8234C103.535 27.8234 104.875 26.476 104.875 24.8142Z" fill="white"/>
<path d="M12.3525 34.3806V14.0801L26.1349 28.5869V15.3376H28.9942V35.5259L15.2118 21.064V34.3581H12.3525V34.3806Z" fill="white"/>
<path d="M79.0752 34.2908V15.3376H83.0513C84.5703 15.2927 86.0892 15.4724 87.5635 15.8991C88.7698 16.2808 89.8867 16.9096 90.8249 17.7854C92.7906 19.6044 93.8405 22.1644 93.7511 24.8367C93.8628 28.9013 91.3163 32.5392 87.4965 33.8417C86.0446 34.2459 84.5479 34.4255 83.0513 34.3582L79.0975 34.2908H79.0752ZM81.9344 31.596H83.23C84.3022 31.6185 85.3744 31.4838 86.4243 31.1918C89.1272 30.2711 90.9142 27.6662 90.8472 24.7918C90.9142 22.883 90.1547 21.0191 88.7698 19.7166C87.5189 18.5489 85.6872 17.9875 83.2524 17.9875H81.9568V31.596H81.9344Z" fill="white"/>
<path d="M66.4771 15.2927H41.2578V18.0549H66.4771V15.2927Z" fill="white"/>
<path d="M66.4771 23.2872H41.2578V26.0494H66.4771V23.2872Z" fill="white"/>
<path d="M66.4771 31.5511H41.2578V34.3133H66.4771V31.5511Z" fill="white"/>
<path d="M9.82812 65.3029L13.8042 44.8452L20.3269 59.5766L27.0505 44.8452L30.6246 65.3029H27.6983L25.8443 53.8053L20.2599 66.1787L14.8318 53.8053L12.799 65.258L9.85046 65.3029H9.82812Z" fill="white"/>
<path d="M53.4317 61.0138H45.3901L43.2904 65.6398H40.1631L49.5226 45.4291L58.5471 65.6398H55.4198L53.4317 61.0138ZM52.2702 58.319L49.4556 51.8516L46.507 58.319H52.2702Z" fill="white"/>
<path d="M68.6436 65.0335V46.0354H72.6197C74.1386 45.9905 75.6576 46.1701 77.1319 46.5968C78.3381 46.9786 79.455 47.6298 80.3932 48.4831C82.3589 50.2796 83.4088 52.8621 83.3195 55.5344C83.4312 59.599 80.8846 63.237 77.0649 64.5394C75.6129 64.9436 74.1163 65.1233 72.6197 65.0784H68.6659L68.6436 65.0335ZM71.5028 62.3162H72.7984C73.8706 62.3387 74.9651 62.204 75.9927 61.912C79.5444 60.4973 81.3091 56.4551 79.9241 52.8846C79.5667 51.9639 79.0306 51.133 78.3158 50.4593C77.0649 49.2916 75.2332 48.7302 72.7984 48.7302H71.5028V62.3387V62.3162Z" fill="white"/>
<path d="M104.786 46.0354H94.5781V48.7975H104.786V46.0354Z" fill="white"/>
<path d="M104.786 54.0074H94.5781V56.7696H104.786V54.0074Z" fill="white"/>
<path d="M104.786 62.2714H94.5781V65.0335H104.786V62.2714Z" fill="white"/>
<path d="M113.766 2.24561H2.2334V78.7543H113.766V2.24561Z" stroke="white" stroke-width="2" stroke-miterlimit="10"/>
</svg>
