<svg width="126" height="18" viewBox="0 0 126 18" fill="none" xmlns="http://www.w3.org/2000/svg">
<g clip-path="url(#clip0_206_6935)">
<path d="M10.7973 4.19352L0 0V18H3.60193V11.6083C6.79801 12.8511 10.8058 14.4068 10.8058 14.4068V10.8051C10.8058 10.8051 6.80647 9.24941 3.60193 8.00658V5.40254C6.79801 6.64537 10.8058 8.20103 10.8058 8.20103L18.0097 5.40254V18H21.6116V0L10.7973 4.19352Z" fill="#6E71FF"/>
<path d="M39.6045 1.80078H50.4018V4.69228H42.7837V7.64296H49.8438V10.4753H42.7837V16.1991H39.6045V1.80078Z" fill="#6E71FF"/>
<path d="M56.2529 1.80078H58.9163L63.8542 9.17326L68.7921 1.80078H71.4555V16.1991H68.4623V7.42314L63.8542 14.2376L59.2292 7.42314V16.1991H56.2529V1.80078Z" fill="#6E71FF"/>
<path d="M78.0338 1.80078H79.1077L82.7857 13.9079L86.5229 1.80078H87.3092L91.0465 13.9079L94.6991 1.80078H95.7983L91.4777 16.1991H90.7336L86.9118 3.94827L83.0901 16.1991H82.346L78.0254 1.80078H78.0338Z" fill="#6E71FF"/>
<path d="M105.082 1.80078H105.928L111.855 16.1991H110.696L109.081 12.2761H101.894L100.305 16.1991H99.1465L105.074 1.80078H105.082ZM108.676 11.2869L105.496 3.4579L102.317 11.2869H108.684H108.676Z" fill="#6E71FF"/>
<path d="M120.986 16.1991H119.912V10.1286L114.89 1.80078H116.09L120.453 9.05489L124.816 1.80078H126.017L120.994 10.1286V16.1991H120.986Z" fill="#6E71FF"/>
<path d="M25.8559 1.48802C25.8559 1.20056 25.6276 1.0061 25.2809 1.0061H24.6045V2.56176H24.8666V1.9953H25.2133L25.6191 2.54485L25.636 2.56176H25.9658L25.5007 1.94457C25.729 1.87693 25.8643 1.70784 25.8643 1.48802H25.8559ZM25.264 1.75011H24.8666V1.25974H25.264C25.4669 1.25974 25.5853 1.34429 25.5853 1.49647C25.5853 1.68248 25.4162 1.75011 25.2555 1.75011H25.264Z" fill="#6E71FF"/>
<path d="M25.1968 0C24.2075 0 23.4043 0.811649 23.4043 1.80085C23.4043 2.79004 24.2075 3.60169 25.2053 3.60169C26.203 3.60169 27.0062 2.79004 27.0062 1.80085C27.0062 0.811649 26.1945 0 25.1968 0ZM25.1968 3.37341C24.3344 3.37341 23.6241 2.67168 23.6241 1.80085C23.6241 0.930014 24.3259 0.228276 25.1968 0.228276C26.0677 0.228276 26.7695 0.930014 26.7695 1.80085C26.7695 2.67168 26.0677 3.37341 25.1968 3.37341Z" fill="#6E71FF"/>
</g>
<defs>
<clipPath id="clip0_206_6935">
<rect width="126" height="18" fill="white"/>
</clipPath>
</defs>
</svg>
