<svg width="216" height="56" viewBox="0 0 216 56" fill="none" xmlns="http://www.w3.org/2000/svg">
<path d="M142.585 39.3339C141.828 41.9446 140.351 43.7939 137.648 43.7939C134.946 43.7939 134.477 41.9446 135.234 39.3339L138.909 26.4614H131.523L127.847 39.3339C125.865 46.2959 128.676 50.212 135.811 50.212C142.945 50.212 147.99 46.2959 149.972 39.3339L153.647 26.4614H146.26L142.585 39.3339Z" fill="white"/>
<path d="M182.367 26.4977C179.304 26.4977 176.673 27.2592 174.475 28.6371C172.998 27.0779 170.764 26.4977 168.854 26.4977C167.413 26.4977 165.539 26.8603 163.341 28.3832C163.197 28.4558 163.124 28.5645 162.98 28.6371C162.764 27.3679 161.755 26.4614 160.242 26.4614H156.566L149.792 50.212H157.179L160.854 37.3396C161.719 34.3662 163.737 32.4081 165.683 32.4081C168.133 32.4081 169.106 34.1849 168.205 37.3396L164.53 50.212H171.881L175.556 37.3396C176.313 34.7288 177.934 32.4081 180.637 32.4081C183.34 32.4081 183.664 34.7651 182.907 37.3396L179.232 50.212H186.619L190.294 37.3396C192.276 30.3776 189.465 26.4614 182.331 26.4614L182.367 26.4977Z" fill="white"/>
<path d="M100.425 21.8201C101.002 19.7896 99.8487 18.1216 97.7947 18.1216H94.1193L86.3719 45.3169C85.5792 48.0364 87.1647 50.2483 89.8672 50.2483H96.7498L98.8758 42.8149H95.0922C94.7679 42.8149 94.5156 42.4886 94.6237 42.1985L96.966 33.9311H97.6866C99.7045 33.9311 101.831 32.2632 102.443 30.2326L103.488 26.534H99.0559L100.389 21.8201H100.425Z" fill="white"/>
<path d="M119.235 26.4978C117.794 26.4978 115.956 26.8604 113.794 28.3108L115.668 21.7839C116.244 19.7533 115.091 18.0853 113.037 18.0853H109.362L100.209 50.2121H107.596L111.271 37.3396C112.136 34.3663 114.154 32.4082 116.1 32.4082C118.55 32.4082 119.523 34.185 118.622 37.3396L114.947 50.2121H122.298L125.973 37.3396C128.388 28.8547 123.163 26.4978 119.235 26.4978Z" fill="white"/>
<path d="M67.3819 26.4977C66.0486 26.4977 64.7514 26.6428 63.5623 26.9691L65.0397 21.8201C65.6162 19.7896 64.4631 18.1216 62.4092 18.1216H58.7337L52.9682 38.3912C50.8422 45.8246 53.5088 50.2483 60.6435 50.2483C67.7782 50.2483 72.9672 45.7883 75.0932 38.3912C77.2192 30.9578 74.5527 26.534 67.4179 26.534L67.3819 26.4977ZM62.4092 43.939C59.7066 43.939 59.4183 41.437 60.3192 38.3549C61.184 35.2728 62.8776 32.7708 65.5802 32.7708C68.2827 32.7708 68.571 35.2728 67.6702 38.3549C66.7693 41.437 65.1117 43.939 62.4092 43.939Z" fill="white"/>
<path d="M207.446 26.4977C206.113 26.4977 204.816 26.6428 203.627 26.9691L205.104 21.8201C205.681 19.7896 204.528 18.1216 202.474 18.1216H198.798L193.033 38.3912C190.907 45.8246 193.573 50.2483 200.708 50.2483C207.843 50.2483 213.032 45.7883 215.158 38.3912C217.284 30.9578 214.617 26.534 207.482 26.534L207.446 26.4977ZM202.474 43.939C199.771 43.939 199.483 41.437 200.384 38.3549C201.285 35.2728 202.942 32.7708 205.645 32.7708C208.347 32.7708 208.636 35.2728 207.735 38.3549C206.87 41.437 205.176 43.939 202.474 43.939Z" fill="white"/>
<path d="M84.6061 26.4977H80.9307L74.1562 50.2483H81.5432L87.2366 30.1962C87.8132 28.1657 86.6601 26.4977 84.6061 26.4977Z" fill="white"/>
<path d="M86.9844 18.0853C84.9665 18.0853 82.8405 19.7533 82.2279 21.7839C81.6514 23.8145 82.8045 25.4825 84.8584 25.4825C86.9124 25.4825 89.0023 23.8145 89.6149 21.7839C90.1915 19.7533 89.0384 18.0853 86.9844 18.0853Z" fill="white"/>
<path d="M5.36731 27.9845H4.64663C1.22339 27.9845 -0.722446 25.2287 0.250475 21.8202L2.70079 13.1539H9.5833L5.36731 27.9845Z" fill="#D1350F"/>
<path d="M26.5553 13.1539H22.3754L18.1594 27.9844H22.3393C25.0419 27.9844 25.9427 30.0512 24.7536 34.1487C23.5645 38.2824 21.5105 40.3129 18.808 40.3129C16.1054 40.3129 15.2046 38.2461 16.3937 34.1487L24.141 6.95334C25.1139 3.54486 23.1681 0.789062 19.7449 0.789062H11.1327L1.65575 34.1487C-2.34403 48.1452 3.02505 55.1797 14.592 55.1797C26.1589 55.1797 35.4918 48.1815 39.4915 34.1487C43.4913 20.1521 38.1222 13.1176 26.5553 13.1176V13.1539Z" fill="#FF8200"/>
<path d="M39.4915 34.1487C43.4913 20.1522 38.1222 13.1177 26.5552 13.1177H22.3753L18.1593 27.9482H22.3393C25.0418 27.9482 25.9427 30.015 24.7535 34.1125" fill="url(#paint0_linear_24_4046)"/>
<defs>
<linearGradient id="paint0_linear_24_4046" x1="32.7171" y1="30.3776" x2="25.8795" y2="18.848" gradientUnits="userSpaceOnUse">
<stop stop-color="#FF8200"/>
<stop offset="1" stop-color="#D1350F"/>
</linearGradient>
</defs>
</svg>
