<svg width="244" height="54" viewBox="0 0 244 54" fill="none" xmlns="http://www.w3.org/2000/svg">
<g clip-path="url(#clip0_24_4005)">
<path d="M26.9118 0C41.7671 0 53.8235 12.096 53.8235 27C53.8235 41.904 41.7671 54 26.9118 54C12.0565 54 0 41.904 0 27C0 12.096 12.0565 0 26.9118 0Z" fill="#5661FF"/>
<path d="M42.5924 38.0879L36.6718 21.6H27.9165L23.9694 32.616H19.4124L26.9118 11.7H24.0771C23.0724 11.7 22.1035 12.024 21.2783 12.6C20.453 13.176 19.843 14.004 19.4841 14.94L11.1953 38.0519H24.8306C25.8353 38.0519 26.8041 37.7279 27.6294 37.1519C28.4547 36.5759 29.0647 35.748 29.4235 34.812L32.2941 26.784L36.3488 38.0519H42.5924V38.0879Z" fill="white"/>
<path d="M71.7646 40.14V13.86H78.2952V34.992H89.5623V40.14H71.7646Z" fill="#5661FF"/>
<path d="M117.73 19.008V13.86H140.587V19.008H132.37V40.14H125.911V19.008H117.694H117.73Z" fill="#5661FF"/>
<path d="M168.073 27C168.073 29.88 167.499 32.328 166.35 34.344C165.202 36.36 163.659 37.872 161.686 38.916C159.748 39.96 157.559 40.464 155.119 40.464C152.679 40.464 150.49 39.924 148.553 38.88C146.615 37.836 145.072 36.288 143.924 34.308C142.776 32.292 142.238 29.844 142.238 26.964C142.238 24.084 142.812 21.636 143.924 19.62C145.072 17.604 146.615 16.092 148.553 15.048C150.49 14.004 152.679 13.5 155.119 13.5C157.559 13.5 159.712 14.004 161.686 15.048C163.623 16.092 165.202 17.604 166.35 19.62C167.499 21.636 168.073 24.084 168.073 26.964V27ZM161.399 27C161.399 25.272 161.148 23.832 160.645 22.68C160.143 21.492 159.425 20.592 158.492 20.016C157.559 19.404 156.447 19.116 155.155 19.116C153.863 19.116 152.751 19.404 151.818 20.016C150.885 20.628 150.168 21.528 149.665 22.68C149.163 23.868 148.912 25.308 148.912 27C148.912 28.692 149.163 30.168 149.665 31.32C150.168 32.508 150.885 33.408 151.818 33.984C152.751 34.596 153.863 34.884 155.155 34.884C156.447 34.884 157.559 34.596 158.492 33.984C159.425 33.372 160.143 32.472 160.645 31.32C161.148 30.132 161.399 28.692 161.399 27Z" fill="#5661FF"/>
<path d="M171.912 40.14V13.86H178.443V24.984H178.802L187.736 13.86H195.451L185.871 25.596L195.631 40.14H187.808L181.062 29.808L178.443 33.012V40.14H171.912Z" fill="#5661FF"/>
<path d="M198.035 40.14V13.86H216.909V19.008H204.601V24.408H215.976V29.592H204.601V34.992H216.909V40.14H198.035Z" fill="#5661FF"/>
<path d="M244 13.86V40.14H238.438L227.674 24.984H227.494V40.14H220.964V13.86H226.597L237.254 29.016H237.469V13.86H244Z" fill="#5661FF"/>
<path d="M112.061 40.14H119.094L109.98 13.86H101.26L92.146 40.14H99.1789L100.973 34.632H110.302L112.097 40.14H112.061ZM102.48 29.808L105.494 20.484H105.71L108.724 29.808H102.48Z" fill="#5661FF"/>
</g>
<defs>
<clipPath id="clip0_24_4005">
<rect width="244" height="54" fill="white"/>
</clipPath>
</defs>
</svg>
