<svg width="170" height="24" viewBox="0 0 170 24" fill="none" xmlns="http://www.w3.org/2000/svg">
<g clip-path="url(#clip0_206_8335)">
<path d="M22.0373 3.45268C19.7124 1.31098 16.4998 0 12.9349 0C5.80522 0.0778799 0 5.42564 0 12.0065C0 18.5873 5.80522 23.9221 12.9349 23.9221C16.4998 23.9221 19.811 22.6111 22.1218 20.3916L18.7261 17.2634C17.3029 18.4965 15.3303 19.3142 13.1886 19.3142C8.72192 19.3142 5.15707 16.0303 5.15707 11.9156C5.15707 7.80097 8.7501 4.51704 13.2027 4.51704C15.3444 4.51704 17.3029 5.2569 18.7402 6.56787" fill="#1A48CD"/>
<path d="M18.8242 6.65869L22.0368 3.45264" stroke="#1A48CD" stroke-width="0.63" stroke-miterlimit="6.33"/>
<path d="M67.014 0.0778809C59.8702 0.0778809 54.0791 5.42563 54.0791 11.9935C54.0791 18.5614 59.8843 23.9091 67.014 23.9091C74.1437 23.9091 79.949 18.5614 79.949 11.9935C80.0476 5.42563 74.2424 0.0778809 67.014 0.0778809ZM67.3663 19.6387C62.8151 19.6387 59.0671 16.186 59.0671 11.9935C59.0671 7.80097 62.8151 4.3483 67.3663 4.3483C71.9175 4.3483 75.6655 7.80097 75.6655 11.9935C75.581 16.186 71.9175 19.6387 67.3663 19.6387Z" fill="#1A48CD"/>
<path d="M99.0555 6.41211L94.4198 24H89.3331L82.8093 0.817739C82.7248 0.40238 82.9925 0 83.5279 0H87.9946L92.3626 16.3548L96.2938 0.986479C96.4769 0.41536 97.0124 0 97.6324 0H101.831L105.847 16.3548L109.947 0.986479C110.13 0.41536 110.666 0 111.286 0H115.569L108.792 24H103.705L99.0696 6.41211H99.0555Z" fill="#1A48CD"/>
<path d="M130.645 0H120.557V24H130.645C138.761 24 143.848 19.9762 143.848 11.9156C143.848 3.85506 138.761 0 130.645 0ZM130.645 19.2363H125.826V4.85452H130.645C135.281 4.85452 138.592 7.24283 138.592 12.0844C138.677 16.848 135.295 19.2363 130.645 19.2363Z" fill="#1A48CD"/>
<path d="M49.175 7.39855V6.82743C48.8227 3.12814 45.7792 0.24658 41.9467 0.0908203H28.0254V24H32.5766V14.7063H38.3818L43.9193 24H49.0905L43.4684 14.6284C46.7656 13.7198 49.175 10.8512 49.175 7.39855ZM32.492 10.4359V4.43912H41.8621C43.4684 4.60786 44.6238 5.84095 44.6238 7.39855C44.6238 8.95615 43.3698 10.1893 41.8621 10.358H34.5492" fill="#1A48CD"/>
<path d="M145.99 0H151.429L157.586 7.81395L163.927 0H170L160.277 12.0065V24.013H154.923V12.0065L145.638 0.66198C145.454 0.41536 145.638 0 145.99 0Z" fill="#1A48CD"/>
</g>
<defs>
<clipPath id="clip0_206_8335">
<rect width="170" height="24" fill="white"/>
</clipPath>
</defs>
</svg>
