<svg width="128" height="30" viewBox="0 0 128 30" fill="none" xmlns="http://www.w3.org/2000/svg">
<g clip-path="url(#clip0_206_6954)">
<path d="M24.9108 30H6.26872C2.82256 30 0 27.2842 0 23.9684V6.03158C0 2.70789 2.81436 0 6.26872 0H24.9108C28.3569 0 31.1795 2.70789 31.1795 6.03158V23.9684C31.1795 27.2842 28.3569 30 24.9108 30Z" fill="#5A66F9"/>
<path d="M19.2579 9.89212C19.0446 9.96318 19.1184 10.2079 19.3482 10.2079L20.5297 10.1842L18.1748 16.2632L15.9512 12.3237C15.6066 11.7 15.0979 11.179 14.4907 10.7921C13.8753 10.4053 13.1697 10.1842 12.4394 10.1369H11.7748C10.0353 10.2632 8.57482 11.3211 7.98405 12.9L4.34918 22.5C4.32456 22.5632 4.37379 22.6342 4.44764 22.6342H9.88764C9.92866 22.6342 9.96969 22.6105 9.9861 22.5711L12.2671 16.5237L14.4825 20.4474C14.8764 21.1658 15.4835 21.75 16.222 22.1369C16.9605 22.5237 17.7974 22.6974 18.6425 22.6342C19.4876 22.5869 20.2917 22.2948 20.9646 21.8132C21.6374 21.3316 22.1543 20.6684 22.4415 19.9026L26.224 10.129L27.2169 7.46054C27.2169 7.46054 27.2169 7.42107 27.2169 7.40528C27.2169 7.38949 27.2005 7.3737 27.1923 7.35791C27.1758 7.34212 27.1594 7.33423 27.143 7.33423C27.1266 7.33423 27.102 7.33423 27.0856 7.33423L19.2661 9.87633L19.2579 9.89212Z" fill="#141225"/>
<path opacity="0.3" d="M7.97584 12.9001L4.34918 22.5001C4.32456 22.5633 4.37379 22.6343 4.44764 22.6343H9.88764C9.92866 22.6343 9.96969 22.6106 9.9861 22.5712L12.2671 16.5238L14.4825 20.4475C15.2128 21.7343 16.5174 22.5396 17.9943 22.6422H18.6425L11.7666 10.137C10.9215 10.1922 10.1092 10.4843 9.43636 10.9738C8.76354 11.4633 8.25482 12.1343 7.96764 12.9001H7.97584Z" fill="#3B53FF"/>
<path d="M9.68983 16.0105L7.16265 22.5078C7.13804 22.571 7.18727 22.642 7.26112 22.642H9.87855C9.91958 22.642 9.9606 22.6184 9.97701 22.5789L12.258 16.5315L11.7986 15.8447C11.3227 15.1263 10.018 15.2289 9.68983 16.0184V16.0105Z" fill="#141225"/>
<path opacity="0.3" d="M20.7512 16.7922L23.2702 10.4527C23.2702 10.4527 23.2866 10.3896 23.2784 10.358C23.2784 10.3264 23.262 10.2949 23.2456 10.2712C23.2292 10.2475 23.2045 10.2238 23.1717 10.208C23.1389 10.1922 23.1061 10.1843 23.0733 10.1843H20.5297L18.1748 16.2791L18.6343 16.9659C19.1102 17.6764 20.423 17.5817 20.7512 16.7922Z" fill="#3B53FF"/>
<path d="M51.2904 17.8104L42.2484 9.39466C41.5427 8.7315 40.4268 8.50255 39.4176 8.81834C38.4084 9.12624 37.752 9.89202 37.752 10.7683V21.3157H40.9766V12.1894L50.0186 20.5973C50.5191 21.0631 51.2248 21.3157 51.9468 21.3157C52.2504 21.3157 52.5622 21.2683 52.8576 21.1815C53.8668 20.8736 54.5232 20.1078 54.5232 19.2315V8.82624H51.2986V17.8104H51.2904ZM56.7222 11.992V21.0473H59.9468V11.992C59.9468 11.621 60.3325 11.3052 60.792 11.3052H71.6391V8.69202H60.792C58.552 8.69202 56.7222 10.1683 56.7222 11.992Z" fill="white"/>
<path d="M71.6391 13.6816H61.2021V16.2948H71.6391V13.6816ZM74.3714 11.3053H80.7796V21.0553H84.0042V11.3053H90.4124V8.69214H74.3714V11.3053ZM95.4586 16.2474V13.6737C95.4586 12.3711 96.7714 11.3053 98.3796 11.3053H107.889V8.69214H98.3796C94.9909 8.69214 92.2422 10.9263 92.2422 13.6658V16.2395C92.2422 18.9869 94.9991 21.2132 98.3796 21.2132H104.295V18.6H98.3796C96.7714 18.6 95.4586 17.5342 95.4586 16.2316V16.2474Z" fill="white"/>
<path d="M104.697 13.6499H98.6992V16.2631H104.697C105.148 16.2631 105.534 16.492 105.534 16.7683V21.0473H108.759V16.7683C108.759 15.0473 106.937 13.6499 104.697 13.6499Z" fill="#5A66F9"/>
<path d="M121.411 8.80273H117.407C113.772 8.80273 110.818 11.2027 110.818 14.1475V15.8764C110.818 18.8212 113.772 21.2212 117.407 21.2212H121.411C125.046 21.2212 128 18.8212 128 15.8764V14.1475C128 11.1948 125.046 8.80273 121.411 8.80273ZM124.783 15.8764C124.783 17.3843 123.274 18.608 121.411 18.608H117.407C115.553 18.608 114.035 17.3843 114.035 15.8764V14.1475C114.035 12.6396 115.545 11.4159 117.407 11.4159H121.411C123.266 11.4159 124.783 12.6396 124.783 14.1475V15.8764Z" fill="white"/>
</g>
<defs>
<clipPath id="clip0_206_6954">
<rect width="128" height="30" fill="white"/>
</clipPath>
</defs>
</svg>
