<svg width="199" height="44" viewBox="0 0 199 44" fill="none" xmlns="http://www.w3.org/2000/svg">
<g clip-path="url(#clip0_24_4088)">
<path d="M1.93794 0.146608C2.44028 -0.0367252 2.97851 -5.85595e-05 3.51673 -5.85595e-05H48.0459C49.3736 -5.85595e-05 50.3783 1.42994 50.0194 2.67661C49.8759 4.03328 48.6559 5.20661 47.2924 5.16994H2.22499C1.2203 5.24327 0.323261 4.58327 0.0720885 3.59328C-0.214965 2.19994 0.574433 0.623275 1.93794 0.146608ZM7.24843 7.84661C7.53549 7.77328 7.82254 7.77327 8.10959 7.77327H42.9866C44.1707 7.84661 45.1395 8.83661 45.1036 10.1199C45.1036 10.2666 45.1036 10.4133 45.0319 10.5599C44.9242 11.9533 43.6684 13.1999 42.269 13.1266C30.6074 13.1266 18.9818 13.1266 7.35608 13.1266C6.35139 13.1266 5.49023 12.4666 5.20317 11.4766C4.84436 9.93661 5.70552 8.17661 7.21255 7.80994M19.807 15.9866C20.2735 15.9133 20.74 15.8399 21.2064 15.8766H31.2892C32.0427 15.8766 32.6168 16.5366 32.7603 17.2333C33.0115 18.8833 31.648 20.5699 29.9974 20.5699H19.3765C18.6588 20.5699 18.0129 20.0199 17.7977 19.3233C17.5824 17.8933 18.4435 16.4999 19.807 16.0233M18.7665 23.8699C19.0894 23.7599 19.4482 23.6866 19.807 23.6866H30.3921C31.1815 23.6866 31.7556 24.3466 31.8992 25.0799C32.1503 26.6566 30.8586 28.2699 29.2798 28.3799H18.5153C17.7977 28.3799 17.1518 27.8299 16.9724 27.1333C16.7212 25.7766 17.5106 24.4566 18.8023 23.9066M18.4435 31.6066C22.1393 31.5333 25.7993 31.6066 29.4951 31.6066C30.2486 31.6066 30.9304 32.2666 31.038 32.9999C31.1457 34.2099 30.4998 35.4199 29.4233 35.9699C28.7775 36.3733 27.9881 36.2266 27.2704 36.2633H17.5824C16.8647 36.2633 16.2189 35.7133 16.0395 34.9799C15.7883 33.4033 16.8647 31.9366 18.4076 31.6433M16.9006 39.4533C20.5247 39.3799 24.1487 39.4533 27.8087 39.4533C28.6339 39.4533 29.3516 40.0399 29.4592 40.8833C29.5669 42.0933 28.9569 43.2299 27.9163 43.8166C27.2704 44.2199 26.5169 44.1099 25.7634 44.1099H16.1112C15.3936 44.1099 14.7477 43.6333 14.4965 42.8999C14.2095 41.3233 15.2501 39.7466 16.8647 39.4533H16.9006Z" fill="#00DAE4"/>
<path d="M128.851 7.73663C129.712 7.47996 130.574 7.5533 131.399 7.84663C132.045 8.13996 132.26 8.90996 132.26 9.56996V19.9466C132.26 20.3133 132.152 20.6433 131.973 20.9366C130.538 23.98 130.466 27.7933 131.973 30.8C132.475 31.68 132.188 32.67 132.224 33.6233C132.296 34.8333 130.896 35.3466 129.928 35.31C128.959 35.3833 127.631 34.8333 127.703 33.6233V9.3133C127.631 8.57996 128.098 7.91996 128.815 7.7733M195.663 7.7733C196.524 7.62663 197.457 7.5533 198.211 7.9933C198.785 8.28663 198.964 9.01996 198.928 9.6433V33.6966C199 34.65 198.067 35.2366 197.278 35.3466C196.165 35.5666 194.371 35.2 194.443 33.7333V9.34996C194.443 8.57996 194.909 7.8833 195.663 7.73663M154.973 9.60663C155.045 7.7733 157.557 7.1133 158.777 8.2133C159.243 8.61663 159.494 9.23996 159.458 9.8633V18.7C160.319 16.9766 161.791 15.4733 163.728 15.07C165.881 14.6666 168.249 15.3266 169.828 16.94C170.833 17.9666 171.407 19.3233 171.837 20.68C171.048 23.6866 171.048 26.8033 171.837 29.81C171.299 31.57 170.33 33.2933 168.752 34.32C166.635 35.8233 163.692 35.86 161.468 34.5766C160.607 34.0633 159.997 33.1833 159.566 32.3033C159.566 33.0733 159.709 33.99 159.171 34.65C158.454 35.4566 157.198 35.4566 156.229 35.2C155.368 34.98 154.973 33.99 155.009 33.1833C155.009 25.3366 155.009 17.49 155.009 9.60663M162.544 19.1766C160.714 19.6533 159.925 21.7066 159.674 23.4666C159.387 25.6666 159.351 28.1233 160.499 30.1033C161.898 32.45 165.809 32.12 167.065 29.7366C167.891 28.2333 167.926 26.4733 167.926 24.8233C167.855 23.21 167.603 21.45 166.455 20.2033C165.451 19.1033 163.872 18.81 162.544 19.14M104.775 14.0066C106.605 11.1833 109.583 9.38663 112.884 9.01996C115.539 8.7633 118.41 8.94663 120.742 10.4866C121.962 11.33 123.218 12.21 124.007 13.53C124.294 14.0433 124.509 14.74 124.151 15.2533C123.29 16.3166 121.711 16.83 120.491 16.06C119.773 15.4733 119.163 14.7033 118.374 14.19C115.539 12.1733 111.233 12.7966 109.188 15.6566C107.537 17.82 107.035 20.6066 107.215 23.2466C107.322 25.4466 108.04 27.6466 109.511 29.26C111.377 31.3133 114.57 32.1566 117.082 30.9833C119.307 29.9566 120.634 27.5 120.634 25.0433C119.235 25.0433 117.8 25.0433 116.4 25.0433C115.79 24.97 115.037 24.86 114.678 24.31C114.032 23.1366 114.355 21.12 115.862 20.9366C117.764 20.68 119.701 20.8633 121.603 20.8266C122.644 20.8266 123.828 20.6433 124.653 21.4133C125.263 22.22 125.227 23.32 125.263 24.31C125.263 26.84 124.797 29.5166 123.325 31.6433C121.962 33.7333 119.63 35.09 117.226 35.4933C113.924 36.0433 110.336 35.5666 107.502 33.6233C104.739 31.7533 103.124 28.5266 102.658 25.19C102.191 21.3766 102.658 17.27 104.81 14.0433M59.5995 13.0533C58.8818 11.8433 59.3483 9.7533 60.9271 9.67996C66.13 9.60663 71.3328 9.67996 76.5357 9.67996C74.8133 10.4133 74.9927 13.4566 76.8586 13.8233C73.1269 19.47 69.4311 25.1533 65.7353 30.8366H76.0333C77.1098 30.8366 77.9709 31.9 77.8274 32.9633C77.935 34.0266 77.2174 34.9433 76.1768 35.0166H75.9974C70.974 35.0166 65.9147 35.0166 60.8912 35.0166C59.743 35.09 58.7024 33.77 59.4201 32.7066C63.4747 26.4 67.6011 20.1666 71.6557 13.86H61.3218C60.6042 13.9333 59.9583 13.6033 59.5636 13.09M79.6932 9.71663C84.6449 9.6433 89.5966 9.71663 94.5124 9.71663C95.3377 9.6433 96.3424 9.93663 96.6653 10.78C96.9523 11.6966 96.9524 12.98 96.0912 13.6033C95.6247 13.8966 95.0506 14.0066 94.5483 13.97H89.8478V33.55C89.8478 34.43 89.2378 35.2366 88.3407 35.3833C87.5155 35.53 86.5825 35.53 85.9008 35.0166C85.3984 34.6133 85.1473 33.9533 85.1831 33.33V13.86H80.1597C79.5138 13.86 78.9038 13.6033 78.5091 13.09C77.7915 11.88 78.1503 9.78996 79.6932 9.6433M141.446 15.07C143.706 14.52 146.039 14.9233 148.012 16.17C150.201 17.5633 151.636 19.9833 152.138 22.5133C153.143 27.5366 150.488 33.11 145.859 35.1633C143.527 36.2266 140.8 36.2266 138.503 35.09C136.673 34.1733 135.238 32.6333 134.341 30.7266C132.834 27.39 133.121 23.3566 134.915 20.2033C136.279 17.71 138.647 15.84 141.446 15.1066M143.563 18.8466C142.379 22.22 139.687 24.8233 136.35 25.8133C137.355 26.18 138.324 26.6566 139.185 27.28C141.051 28.5266 142.199 30.6166 142.845 32.7433C143.419 31.2033 144.352 29.7366 145.464 28.5633C146.792 27.3166 148.371 26.3633 150.093 25.8866C146.864 24.86 144.388 22.1833 143.563 18.8466ZM179.409 15.3633C181.059 14.85 182.961 14.74 184.54 15.62C185.724 16.28 186.549 17.49 187.051 18.7733C187.051 17.8933 186.836 16.9033 187.446 16.2066C188.487 14.6666 191.465 15.29 191.537 17.27C191.537 22.5866 191.537 27.8666 191.537 33.22C191.537 34.0266 191.142 34.9066 190.352 35.1633C189.384 35.42 188.164 35.4566 187.41 34.6866C186.8 34.1 186.98 33.11 186.98 32.34C186.441 33.5133 185.652 34.65 184.432 35.1266C181.669 36.19 178.332 35.3833 176.43 33.11C174.887 31.24 174.277 28.82 174.134 26.4C173.99 23.98 174.206 21.6333 175.21 19.4333C175.964 17.5633 177.471 15.95 179.409 15.4366M181.813 19.2133C179.983 19.6533 179.014 21.56 178.799 23.32C178.547 25.3733 178.547 27.61 179.373 29.5533C180.413 31.9 183.894 32.56 185.652 30.7266C186.836 29.3333 187.015 27.39 187.015 25.63C187.015 23.7966 186.764 21.8166 185.616 20.3133C184.719 19.1766 183.104 18.8833 181.777 19.25" fill="white"/>
</g>
<defs>
<clipPath id="clip0_24_4088">
<rect width="199" height="44" fill="white"/>
</clipPath>
</defs>
</svg>
