<svg width="245" height="54" viewBox="0 0 245 54" fill="none" xmlns="http://www.w3.org/2000/svg">
<g clip-path="url(#clip0_24_4032)">
<path d="M29.9404 29.484H35.4169L32.7147 21.8521L29.9404 29.484Z" fill="white"/>
<path d="M27.0221 0C12.1059 0 0 12.096 0 27C0 41.904 12.1059 54 27.0221 54C41.9382 54 54.0441 41.904 54.0441 27C54.0081 12.096 41.9382 0 27.0221 0ZM39.0919 39.78L37.2544 34.596H28.1029L26.2654 39.78H9.76397L18.9154 14.256H24.3919L17.0779 34.632H22.5544L29.8684 14.256H35.4169L44.6404 39.816H39.0919V39.78Z" fill="white"/>
<path d="M72.0588 40.14V13.86H78.6162V34.992H89.9294V40.14H72.0588Z" fill="white"/>
<path d="M112.484 40.14H119.546L110.394 13.86H101.639L92.4875 40.14H99.5493L101.351 34.632H110.718L112.52 40.14H112.484ZM102.864 29.808L105.89 20.484H106.107L109.133 29.808H102.864Z" fill="white"/>
<path d="M118.213 19.008V13.86H141.163V19.008H132.913V40.14H126.427V19.008H118.177H118.213Z" fill="white"/>
<path d="M168.762 27C168.762 29.88 168.185 32.328 167.032 34.344C165.879 36.36 164.33 37.872 162.349 38.916C160.403 39.96 158.205 40.464 155.755 40.464C153.305 40.464 151.107 39.924 149.162 38.88C147.216 37.836 145.667 36.288 144.514 34.308C143.361 32.292 142.821 29.844 142.821 26.964C142.821 24.084 143.397 21.636 144.514 19.62C145.667 17.604 147.216 16.092 149.162 15.048C151.107 14.004 153.305 13.5 155.755 13.5C158.205 13.5 160.367 14.004 162.349 15.048C164.294 16.092 165.879 17.604 167.032 19.62C168.185 21.636 168.762 24.084 168.762 26.964V27ZM162.06 27C162.06 25.272 161.808 23.832 161.304 22.68C160.799 21.492 160.079 20.592 159.142 20.016C158.205 19.404 157.088 19.116 155.791 19.116C154.494 19.116 153.377 19.404 152.44 20.016C151.504 20.628 150.783 21.528 150.279 22.68C149.774 23.868 149.522 25.308 149.522 27C149.522 28.692 149.774 30.168 150.279 31.32C150.783 32.508 151.504 33.408 152.44 34.02C153.377 34.632 154.494 34.92 155.791 34.92C157.088 34.92 158.205 34.632 159.142 34.02C160.079 33.408 160.799 32.508 161.304 31.32C161.808 30.132 162.06 28.692 162.06 27Z" fill="white"/>
<path d="M172.617 40.14V13.86H179.174V24.984H179.535L188.506 13.86H196.252L186.632 25.596L196.432 40.14H188.578L181.804 29.808L179.174 33.012V40.14H172.617Z" fill="white"/>
<path d="M198.846 40.14V13.86H217.798V19.008H205.44V24.408H216.861V29.592H205.44V34.992H217.798V40.14H198.846Z" fill="white"/>
<path d="M245 13.86V40.14H239.415L228.607 24.984H228.426V40.14H221.869V13.86H227.526L238.226 29.016H238.443V13.86H245Z" fill="white"/>
</g>
<defs>
<clipPath id="clip0_24_4032">
<rect width="245" height="54" fill="white"/>
</clipPath>
</defs>
</svg>
