<svg width="95" height="24" viewBox="0 0 95 24" fill="none" xmlns="http://www.w3.org/2000/svg">
<g clip-path="url(#clip0_206_6980)">
<path d="M29.6377 4.44165H41.1013V7.61606H33.9526V10.3213H40.3761V13.4957H33.9526V19.3754H29.6377V4.44165Z" fill="white"/>
<path d="M48.2983 19.3754H43.9834V4.44165H48.2983V19.3754Z" fill="white"/>
<path d="M65.8258 19.3754H62.2179L56.1113 11.3084H55.9955V19.3754H51.6807V4.44165H55.3556L61.3708 12.466H61.5049V4.44165H65.8197V19.3754H65.8258Z" fill="white"/>
<path d="M69.2141 4.44165H76.2044C79.8794 4.44165 82.2867 6.53761 82.2867 9.68156C82.2867 12.8255 79.8123 14.891 76.0642 14.8788H73.5229V19.3754H69.208V4.44165H69.2141ZM75.2049 11.8263C76.8261 11.8141 77.7829 10.9915 77.7707 9.68156C77.7829 8.38377 76.8261 7.58559 75.2049 7.5795H73.5229V11.8263H75.2049Z" fill="white"/>
<path d="M83.9932 4.44165H88.308V16.201H95.0058V19.3754H83.9993V4.44165H83.9932Z" fill="white"/>
<path d="M20.4651 5.4843L11.293 0.189554C10.8542 -0.0602551 10.3179 -0.0602551 9.87907 0.189554L0.706954 5.4843C0.268155 5.73411 0 6.20326 0 6.70898V17.2985C0 17.8042 0.268155 18.2672 0.706954 18.5231L9.87907 23.8179C10.3179 24.0677 10.8542 24.0677 11.293 23.8179L20.4651 18.5231C20.9039 18.2733 21.1721 17.8042 21.1721 17.2985V6.70898C21.1721 6.20326 20.9039 5.7402 20.4651 5.4843ZM19.0512 14.2398C19.0512 14.3678 18.9842 14.4835 18.8745 14.5445L15.3458 16.5795C15.1081 16.7135 14.8156 16.5429 14.8156 16.2749V14.642C14.8156 14.514 14.8826 14.3982 14.9923 14.3373L16.7536 13.3198C16.8633 13.2589 16.9303 13.1431 16.9303 13.0151V11.3883C16.9303 11.1142 16.6378 10.9496 16.4001 11.0837L12.8714 13.1187C12.7617 13.1797 12.6947 13.2954 12.6947 13.4234V20.3449C12.6947 20.4729 12.6277 20.5886 12.518 20.6496L11.1101 21.466C10.8725 21.6001 10.5799 21.4295 10.5799 21.1614V14.642C10.5799 14.514 10.5129 14.3982 10.4032 14.3373L4.75975 11.0776C4.52207 10.9436 4.22954 11.1142 4.22954 11.3822V13.0091C4.22954 13.137 4.29657 13.2528 4.40627 13.3137L8.28843 15.5559C8.39813 15.6168 8.46517 15.7326 8.46517 15.8605V17.4873C8.46517 17.7615 8.17263 17.926 7.93495 17.792L4.75975 15.958C4.52207 15.824 4.22954 15.9946 4.22954 16.2627V17.4813C4.22954 17.7554 3.937 17.9199 3.69932 17.7859L2.28541 16.9694C2.17571 16.9085 2.10867 16.7928 2.10867 16.6648V7.72649C2.10867 7.45231 2.40121 7.2878 2.63889 7.42185L10.4032 11.9001C10.5129 11.9611 10.647 11.9611 10.7567 11.9001L18.5149 7.42185C18.7526 7.2878 19.0451 7.4584 19.0451 7.72649V14.2398H19.0512Z" fill="white"/>
</g>
<defs>
<clipPath id="clip0_206_6980">
<rect width="95" height="24" fill="white"/>
</clipPath>
</defs>
</svg>
