<svg width="160" height="40" viewBox="0 0 160 40" fill="none" xmlns="http://www.w3.org/2000/svg">
<g clip-path="url(#clip0_206_8353)">
<path d="M49.915 7.40283H69.2222V12.6935H57.1822V17.2023H68.0007V22.493H57.1822V32.2924H49.915V7.40283Z" fill="white"/>
<path d="M81.3443 32.2924H74.0771V7.40283H81.3443V32.2924Z" fill="white"/>
<path d="M110.864 32.2924H104.788L94.5032 18.8474H94.3081V32.2924H87.041V7.40283H93.2304L103.361 20.7768H103.587V7.40283H110.854V32.2924H110.864Z" fill="white"/>
<path d="M116.572 7.40283H128.345C134.534 7.40283 138.589 10.8961 138.589 16.136C138.589 21.3759 134.421 24.8184 128.109 24.7981H123.829V32.2924H116.562V7.40283H116.572ZM126.662 19.7105C129.392 19.6902 131.003 18.3193 130.983 16.136C131.003 13.973 129.392 12.6427 126.662 12.6326H123.829V19.7105H126.662Z" fill="white"/>
<path d="M141.463 7.40283H148.73V27.0017H160.01V32.2924H141.473V7.40283H141.463Z" fill="white"/>
<path d="M34.4675 9.1405L19.0198 0.315924C18.2807 -0.100425 17.3775 -0.100425 16.6384 0.315924L1.19066 9.1405C0.451629 9.55685 0 10.3388 0 11.1816V28.8308C0 29.6736 0.451629 30.4454 1.19066 30.8719L16.6384 39.6965C17.3775 40.1128 18.2807 40.1128 19.0198 39.6965L34.4675 30.8719C35.2066 30.4556 35.6582 29.6736 35.6582 28.8308V11.1816C35.6582 10.3388 35.2066 9.567 34.4675 9.1405ZM32.0862 23.733C32.0862 23.9463 31.9733 24.1392 31.7886 24.2408L25.8455 27.6325C25.4452 27.8559 24.9525 27.5716 24.9525 27.1248V24.4033C24.9525 24.19 25.0654 23.9971 25.2502 23.8955L28.2166 22.1996C28.4013 22.0981 28.5142 21.9052 28.5142 21.6919V18.9806C28.5142 18.5236 28.0216 18.2494 27.6212 18.4728L21.6782 21.8645C21.4935 21.9661 21.3805 22.159 21.3805 22.3723V33.9082C21.3805 34.1215 21.2676 34.3144 21.0829 34.4159L18.7118 35.7767C18.3115 36.0001 17.8188 35.7158 17.8188 35.269V24.4033C17.8188 24.19 17.7059 23.9971 17.5212 23.8955L8.01642 18.4627C7.61611 18.2393 7.12343 18.5236 7.12343 18.9704V21.6818C7.12343 21.895 7.23633 22.0879 7.42109 22.1895L13.9595 25.9265C14.1442 26.028 14.2571 26.221 14.2571 26.4342V29.1456C14.2571 29.6025 13.7644 29.8767 13.3641 29.6533L8.01642 26.5967C7.61611 26.3733 7.12343 26.6576 7.12343 27.1044V29.1354C7.12343 29.5924 6.63074 29.8666 6.23043 29.6432L3.84911 28.2824C3.66436 28.1809 3.55145 27.9879 3.55145 27.7747V12.8775C3.55145 12.4205 4.04414 12.1463 4.44444 12.3697L17.5212 19.8336C17.7059 19.9351 17.9317 19.9351 18.1165 19.8336L31.183 12.3697C31.5833 12.1463 32.076 12.4307 32.076 12.8775V23.733H32.0862Z" fill="white"/>
</g>
<defs>
<clipPath id="clip0_206_8353">
<rect width="160" height="40" fill="white"/>
</clipPath>
</defs>
</svg>
