<svg width="187" height="44" viewBox="0 0 187 44" fill="none" xmlns="http://www.w3.org/2000/svg">
<g clip-path="url(#clip0_24_4061)">
<path d="M147.214 22C147.214 20.8633 147.214 19.8 147.178 18.8466C147.142 17.8933 147.034 16.94 146.926 16.1333C146.818 15.3266 146.53 14.52 146.205 13.75C145.881 12.98 145.34 12.2833 144.692 11.6233C143.791 10.7066 142.782 10.01 141.665 9.49664C140.547 9.01997 139.25 8.76331 137.772 8.76331C136.295 8.76331 134.998 9.01997 133.88 9.49664C132.763 9.9733 131.718 10.67 130.817 11.6233C130.168 12.2833 129.7 12.98 129.34 13.75C128.979 14.52 128.727 15.29 128.619 16.1333C128.475 16.9766 128.403 17.8933 128.367 18.8466C128.331 19.8 128.331 20.8633 128.331 22C128.331 23.1366 128.331 24.1633 128.367 25.1533C128.403 26.1066 128.511 27.06 128.619 27.8666C128.763 28.71 129.015 29.48 129.34 30.25C129.7 30.9833 130.205 31.7166 130.817 32.3766C131.718 33.2933 132.727 33.99 133.88 34.5033C134.998 34.98 136.295 35.2366 137.772 35.2366C139.25 35.2366 140.475 34.98 141.665 34.5033C142.782 34.0266 143.827 33.33 144.692 32.3766C145.34 31.7166 145.809 31.02 146.205 30.25C146.566 29.5166 146.818 28.71 146.926 27.8666C147.034 27.0233 147.178 26.1066 147.178 25.1533C147.214 24.1266 147.214 23.1366 147.214 22ZM142.241 22C142.241 23.2466 142.241 24.2733 142.205 25.1166C142.169 25.96 142.133 26.62 141.989 27.1333C141.917 27.6466 141.773 28.0866 141.592 28.4166C141.412 28.7833 141.232 29.0766 140.98 29.3333C140.619 29.7733 140.151 30.0666 139.646 30.36C139.07 30.6166 138.493 30.7266 137.772 30.7633C137.088 30.7633 136.475 30.6166 135.898 30.36C135.322 30.1033 134.889 29.7733 134.529 29.3333C134.277 29.0766 134.097 28.7466 133.916 28.4166C133.736 28.05 133.628 27.6833 133.52 27.1333C133.448 26.62 133.34 25.96 133.34 25.1166C133.304 24.2733 133.304 23.2833 133.304 22C133.304 20.7166 133.304 19.7266 133.34 18.8833C133.376 18.04 133.412 17.38 133.52 16.8666C133.592 16.3533 133.736 15.9133 133.916 15.5833C134.097 15.2166 134.277 14.9233 134.529 14.6666C134.889 14.2266 135.358 13.9333 135.898 13.64C136.475 13.3833 137.052 13.2733 137.772 13.2366C138.457 13.2366 139.07 13.3833 139.646 13.64C140.151 13.8966 140.655 14.2266 140.98 14.6666C141.232 14.9233 141.412 15.2533 141.592 15.5833C141.773 15.9133 141.881 16.3166 141.989 16.8666C142.097 17.4166 142.169 18.04 142.205 18.8833C142.205 19.7266 142.241 20.79 142.241 22Z" fill="#28CD96"/>
<path d="M187 9.42328C187 9.16661 186.784 8.98328 186.568 8.98328H182.459C182.207 8.98328 182.027 9.20328 182.027 9.42328V24.9333L171.972 9.12994C171.972 9.12994 171.828 8.98328 171.72 8.98328H167.864C167.648 8.98328 167.432 9.20328 167.432 9.42328V34.5399C167.432 34.7966 167.648 34.9799 167.864 34.9799H171.972C172.225 34.9799 172.405 34.7599 172.405 34.5399V19.0299L182.459 34.9066C182.459 34.9066 182.604 35.0533 182.712 35.0533H186.568C186.82 35.0533 187 34.8333 187 34.6133V9.42328Z" fill="#28CD96"/>
<path d="M159.395 9.42328C159.395 9.16661 159.179 8.98328 158.963 8.98328H154.854C154.602 8.98328 154.422 9.20328 154.422 9.42328V34.5399C154.422 34.7966 154.638 34.9799 154.854 34.9799H158.963C159.215 34.9799 159.395 34.7599 159.395 34.5399V9.42328Z" fill="#28CD96"/>
<path d="M110.095 21.9999C110.095 20.7533 110.095 19.7266 110.132 18.8833C110.168 18.0399 110.204 17.3799 110.312 16.8666C110.708 14.6299 112.402 13.3099 114.528 13.3099C115.97 13.3099 117.195 13.8233 118.024 15.0699C118.384 15.5833 118.636 16.2066 118.817 16.9033C118.817 16.9766 118.853 17.0499 118.961 17.0499H123.79C123.79 17.0499 123.862 17.0133 123.862 16.9033C123.357 13.8599 121.736 11.1099 118.889 9.75326C117.591 9.12993 116.078 8.79993 114.456 8.79993C111.753 8.79993 109.411 9.75326 107.537 11.6599C106.456 12.7599 105.771 14.0799 105.447 15.5833C105.158 17.0499 105.014 19.1766 105.014 22.0366C105.014 24.8966 105.158 27.0599 105.447 28.4899C105.735 29.9933 106.492 31.3133 107.537 32.4133C109.411 34.3199 111.717 35.2733 114.456 35.2733C116.114 35.2733 117.555 34.9799 118.889 34.3199C121.7 32.9633 123.321 30.2499 123.862 27.1699C123.862 27.0966 123.862 27.0233 123.79 27.0233H118.961C118.961 27.0233 118.817 27.0599 118.817 27.1699C118.636 27.8666 118.384 28.4899 118.024 29.0033C117.195 30.1766 115.934 30.7266 114.528 30.7633C112.366 30.7633 110.672 29.4433 110.312 27.2066C110.24 26.6933 110.132 26.0333 110.132 25.1899C110.095 24.3466 110.095 23.2833 110.095 22.0733V21.9999Z" fill="#28CD96"/>
<path d="M58.8858 9.42332C58.8858 9.16665 58.6696 8.98332 58.4534 8.98332H54.3451C54.0928 8.98332 53.9126 9.20332 53.9126 9.42332V34.54C53.9126 34.7967 54.1288 34.98 54.3451 34.98H58.4534C58.7056 34.98 58.8858 34.76 58.8858 34.54V27.17L62.2013 23.1367L68.9764 34.87C68.9764 34.87 69.1205 35.0167 69.2286 35.0167H74.2379C74.4541 35.0167 74.4902 34.87 74.4181 34.65L65.5168 19.3233L73.6613 9.34999C73.8415 9.12999 73.7334 8.94666 73.4811 8.94666H68.0034C68.0034 8.94666 67.8592 8.94666 67.8232 9.01999L58.8498 19.9467V9.42332H58.8858Z" fill="#28CD96"/>
<path d="M88.9052 30.6899C86.5628 30.6899 84.5086 28.4899 84.5086 25.8866V9.42328C84.5086 9.16661 84.2924 8.98328 84.0762 8.98328H79.9679C79.7156 8.98328 79.5354 9.20328 79.5354 9.42328V25.8499C79.5354 31.6066 83.7518 35.2366 88.9413 35.2366C94.1307 35.2366 98.3471 31.6066 98.3471 25.8499V9.42328C98.3471 9.16661 98.1309 8.98328 97.9147 8.98328H93.8064C93.5541 8.98328 93.3739 9.20328 93.3739 9.42328V25.9233C93.3018 28.5266 91.1756 30.7266 88.8692 30.7266L88.9052 30.6899Z" fill="#28CD96"/>
<path d="M12.4691 22L25.2625 35.0167L33.3349 26.8033C34.7765 25.3367 37.0829 25.3367 38.5244 26.8033C39.9659 28.27 39.9659 30.6167 38.5244 32.0833L27.8572 42.9367C26.4157 44.4033 24.1093 44.4033 22.6678 42.9367L7.35171 27.28V36.5933C7.35171 38.61 5.69397 40.3333 3.67585 40.3333C1.65774 40.3333 0 38.6467 0 36.5933V7.51667C0 5.46333 1.65774 3.77667 3.67585 3.77667C5.69397 3.77667 7.35171 5.46333 7.35171 7.51667V16.7567L22.7038 1.1C24.1453 -0.366667 26.4517 -0.366667 27.8932 1.1L38.5604 11.9533C40.0019 13.42 40.0019 15.7667 38.5604 17.2333C37.1189 18.7 34.8125 18.7 33.371 17.2333L25.2985 9.02L12.4691 22.0367V22ZM25.2985 18.26C23.2804 18.26 21.6227 19.9467 21.6227 22C21.6227 24.0533 23.2804 25.74 25.2985 25.74C27.3166 25.74 28.9744 24.0533 28.9744 22C28.9383 19.9467 27.2806 18.26 25.2985 18.26Z" fill="#28CD96"/>
</g>
<defs>
<clipPath id="clip0_24_4061">
<rect width="187" height="44" fill="white"/>
</clipPath>
</defs>
</svg>
