<svg width="101" height="15" viewBox="0 0 101 15" fill="none" xmlns="http://www.w3.org/2000/svg">
<g clip-path="url(#clip0_206_6946)">
<path d="M13.0927 2.15792C11.7115 0.819362 9.80282 0 7.68487 0C3.44899 0.048675 0 3.39102 0 7.50406C0 11.6171 3.44899 14.9513 7.68487 14.9513C9.80282 14.9513 11.7701 14.132 13.143 12.7447L11.1255 10.7896C10.28 11.5603 9.108 12.0714 7.83556 12.0714C5.18185 12.0714 3.0639 10.0189 3.0639 7.44727C3.0639 4.87561 5.19859 2.82315 7.84393 2.82315C9.11637 2.82315 10.28 3.28556 11.1339 4.10492" fill="#1A48CD"/>
<path d="M11.1846 4.16174L13.0932 2.15796" stroke="#1A48CD" stroke-width="0.63" stroke-miterlimit="6.33"/>
<path d="M39.8138 0.048584C35.5695 0.048584 32.1289 3.39093 32.1289 7.49585C32.1289 11.6008 35.5779 14.9431 39.8138 14.9431C44.0497 14.9431 47.4987 11.6008 47.4987 7.49585C47.5573 3.39093 44.1083 0.048584 39.8138 0.048584ZM40.0231 12.2741C37.3191 12.2741 35.0924 10.1162 35.0924 7.49585C35.0924 4.87552 37.3191 2.71759 40.0231 2.71759C42.727 2.71759 44.9538 4.87552 44.9538 7.49585C44.9035 10.1162 42.727 12.2741 40.0231 12.2741Z" fill="#1A48CD"/>
<path d="M58.8507 4.00757L56.0966 15H53.0745L49.1986 0.511087C49.1484 0.251487 49.3074 0 49.6255 0H52.2792L54.8743 10.2217L57.2099 0.616549C57.3188 0.2596 57.6369 0 58.0052 0H60.4999L62.8857 10.2217L65.3217 0.616549C65.4306 0.2596 65.7487 0 66.117 0H68.6619L64.6353 15H61.6133L58.8591 4.00757H58.8507Z" fill="#1A48CD"/>
<path d="M77.6189 0H71.625V15H77.6189C82.4407 15 85.4628 12.4851 85.4628 7.44727C85.4628 2.40941 82.4407 0 77.6189 0ZM77.6189 12.0227H74.7559V3.03407H77.6189C80.373 3.03407 82.3403 4.52677 82.3403 7.55273C82.3905 10.53 80.3814 12.0227 77.6189 12.0227Z" fill="#1A48CD"/>
<path d="M29.2157 4.62422V4.26727C29.0065 1.95521 27.1983 0.154235 24.9213 0.0568848H16.6504V15.0001H19.3543V9.19155H22.8033L26.0932 15.0001H29.1655L25.8254 9.14288C27.7843 8.575 29.2157 6.78214 29.2157 4.62422ZM19.3041 6.52254V2.77457H24.871C25.8254 2.88003 26.5118 3.65072 26.5118 4.62422C26.5118 5.59772 25.7668 6.3684 24.871 6.47387H20.5263" fill="#1A48CD"/>
<path d="M86.7355 0H89.9669L93.6251 4.88372L97.3922 0H101L95.2241 7.50406V15.0081H92.043V7.50406L86.5263 0.413737C86.4174 0.2596 86.5263 0 86.7355 0Z" fill="#1A48CD"/>
</g>
<defs>
<clipPath id="clip0_206_6946">
<rect width="101" height="15" fill="white"/>
</clipPath>
</defs>
</svg>
