<svg width="205" height="47" viewBox="0 0 205 47" fill="none" xmlns="http://www.w3.org/2000/svg">
<g clip-path="url(#clip0_24_4017)">
<path fill-rule="evenodd" clip-rule="evenodd" d="M23.4719 0C10.5082 0 0 10.5208 0 23.5C0 36.4792 10.5082 47 23.4719 47C36.4356 47 46.9438 36.4792 46.9438 23.5H36.3634C36.3634 30.6223 30.5857 36.4431 23.4719 36.4431C16.3581 36.4431 10.5443 30.6585 10.5443 23.5C10.5443 16.3415 16.322 10.5931 23.4719 10.5931V0Z" fill="#2354E6"/>
<path d="M36.3634 10.593H23.4719V23.4999H36.3634V10.593Z" fill="#17E6A1"/>
<path d="M175.534 8.13464H169.72V13.9554H175.534V8.13464Z" fill="white"/>
<path fill-rule="evenodd" clip-rule="evenodd" d="M159.139 28.4531C159.248 27.8023 159.284 27.1154 159.284 26.4285C159.284 19.1254 153.362 13.1962 146.067 13.1962C138.773 13.1962 132.851 19.1254 132.851 26.4285C132.851 33.7316 138.773 39.6608 146.067 39.6608C151.087 39.6608 155.42 36.8769 157.659 32.7554L152.784 30.3692C151.412 32.6831 148.92 34.2016 146.067 34.2016C142.456 34.2016 139.423 31.7431 138.52 28.3808H153.615H159.139V28.4531ZM138.773 23.6808C139.893 20.7162 142.745 18.6192 146.067 18.6192C149.39 18.6192 152.242 20.7162 153.362 23.6808H138.773Z" fill="white"/>
<path d="M166.65 33.1531H160.837V38.9738H166.65V33.1531Z" fill="white"/>
<path d="M175.534 16.5223H169.72V38.9377H175.534V16.5223Z" fill="white"/>
<path fill-rule="evenodd" clip-rule="evenodd" d="M191.784 13.1962C184.489 13.1962 178.567 19.1254 178.567 26.4285C178.567 33.7316 184.489 39.6608 191.784 39.6608C199.078 39.6608 205 33.7316 205 26.4285C205 19.1254 199.078 13.1962 191.784 13.1962ZM191.784 34.2377C187.486 34.2377 183.984 30.7308 183.984 26.4285C183.984 22.1262 187.486 18.6192 191.784 18.6192C196.081 18.6192 199.583 22.1262 199.583 26.4285C199.583 30.7308 196.081 34.2377 191.784 34.2377Z" fill="white"/>
<path fill-rule="evenodd" clip-rule="evenodd" d="M70.0546 21.5477V27.5854H78.1795C77.7461 29.3208 76.9156 30.8393 75.724 32.0685C73.9184 33.9123 71.3907 34.9608 68.6102 34.9608C62.8686 34.9608 58.2103 30.297 58.2103 24.5485C58.2103 18.8 62.8686 14.1362 68.6102 14.1362C71.6796 14.1362 74.4962 15.4377 76.4462 17.7154L81.1044 13.9193C77.9989 10.3039 73.4129 8.13464 68.6102 8.13464C59.5825 8.13464 52.2159 15.51 52.2159 24.5485C52.2159 33.587 59.5825 40.9623 68.6102 40.9623C73.0157 40.9623 77.06 39.3716 80.0211 36.3346C82.5128 33.8039 84.1377 30.2608 84.4627 26.6816C84.6072 24.9462 84.6433 23.2108 84.5349 21.5116H70.0546V21.5477Z" fill="white"/>
<path fill-rule="evenodd" clip-rule="evenodd" d="M107.537 13.9554V15.7992C105.335 14.2085 102.662 13.2323 99.7375 13.2323C92.4431 13.2323 86.521 19.1615 86.521 26.4646C86.521 33.7677 92.4431 39.6969 99.7375 39.6969C102.662 39.6969 105.371 38.7569 107.537 37.13V38.9738H112.954V13.9554H107.537ZM99.7375 34.2738C95.4403 34.2738 91.9376 30.7669 91.9376 26.4646C91.9376 22.1623 95.4403 18.6554 99.7375 18.6554C104.035 18.6554 107.537 22.1623 107.537 26.4646C107.537 30.7669 104.035 34.2738 99.7375 34.2738Z" fill="white"/>
<path fill-rule="evenodd" clip-rule="evenodd" d="M124.546 8.13464H119.129V13.9554H115.879V19.0531H119.129V32.43C119.129 33.8039 119.31 34.9608 119.635 35.9008C119.96 36.8046 120.501 37.5277 121.115 38.07C121.729 38.6123 122.487 39.0823 123.354 39.2993C124.221 39.5523 125.196 39.6608 126.243 39.6608C127.29 39.6608 128.265 39.5523 129.059 39.3354C129.818 39.1185 130.54 38.8293 131.19 38.4677V34.3462C130.107 34.8162 129.132 34.9608 127.976 35.0331C126.784 35.1054 126.062 34.7439 125.484 34.1654C124.871 33.587 124.546 32.7916 124.546 31.5262V19.0531H131.19V13.9554H124.546V8.13464Z" fill="white"/>
</g>
<defs>
<clipPath id="clip0_24_4017">
<rect width="205" height="47" fill="white"/>
</clipPath>
</defs>
</svg>
