<svg width="69" height="48" viewBox="0 0 69 48" fill="none" xmlns="http://www.w3.org/2000/svg">
<g clip-path="url(#clip0_206_6964)">
<path d="M62.3832 14.7048C62.3832 13.7201 61.586 12.9216 60.6027 12.9216C59.6195 12.9216 58.8223 13.7201 58.8223 14.7048C58.8223 15.6896 59.6195 16.488 60.6027 16.488C61.586 16.488 62.3832 15.6896 62.3832 14.7048Z" fill="white"/>
<path d="M7.34863 20.3737V8.34375L15.5468 16.9404V9.08897H17.2475V21.0524L9.04938 12.4824V20.3604H7.34863V20.3737Z" fill="white"/>
<path d="M47.0371 20.3204V9.08894H49.4022C50.3057 9.06233 51.2093 9.16878 52.0862 9.42163C52.8037 9.64785 53.4681 10.0205 54.0261 10.5395C55.1954 11.6174 55.8199 13.1344 55.7667 14.718C55.8332 17.1266 54.3184 19.2825 52.0463 20.0543C51.1827 20.2938 50.2925 20.4003 49.4022 20.3604L47.0504 20.3204H47.0371ZM48.7379 18.7235H49.5085C50.1463 18.7368 50.7841 18.657 51.4086 18.484C53.0163 17.9384 54.0793 16.3947 54.0394 14.6914C54.0793 13.5602 53.6275 12.4557 52.8037 11.6839C52.0596 10.9919 50.9701 10.6592 49.5218 10.6592H48.7511V18.7235H48.7379Z" fill="white"/>
<path d="M39.5431 9.0625H24.542V10.6993H39.5431V9.0625Z" fill="white"/>
<path d="M39.5431 13.7998H24.542V15.4366H39.5431V13.7998Z" fill="white"/>
<path d="M39.5431 18.697H24.542V20.3338H39.5431V18.697Z" fill="white"/>
<path d="M5.84668 38.698L8.21179 26.575L12.0916 35.3046L16.091 26.575L18.217 38.698H16.4764L15.3735 31.8846L12.0518 39.217L8.82299 31.8846L7.61387 38.6714L5.85997 38.698H5.84668Z" fill="white"/>
<path d="M31.7832 36.1565H26.9998L25.7508 38.8979H23.8906L29.4579 26.9211L34.8259 38.8979H32.9657L31.7832 36.1565ZM31.0922 34.5596L29.4181 30.7271L27.6642 34.5596H31.0922Z" fill="white"/>
<path d="M40.832 38.5385V27.2803H43.1971C44.1007 27.2537 45.0042 27.3602 45.8811 27.613C46.5986 27.8393 47.263 28.2252 47.8211 28.7309C48.9903 29.7955 49.6148 31.3258 49.5617 32.9094C49.6281 35.318 48.1134 37.4739 45.8413 38.2457C44.9776 38.4852 44.0874 38.5917 43.1971 38.5651H40.8453L40.832 38.5385ZM42.5328 36.9283H43.3034C43.9412 36.9416 44.5923 36.8617 45.2035 36.6887C47.3161 35.8503 48.3658 33.455 47.542 31.3391C47.3294 30.7935 47.0105 30.3011 46.5854 29.9019C45.8413 29.2099 44.7517 28.8772 43.3034 28.8772H42.5328V36.9416V36.9283Z" fill="white"/>
<path d="M62.33 27.2803H56.2578V28.9171H62.33V27.2803Z" fill="white"/>
<path d="M62.33 32.0044H56.2578V33.6412H62.33V32.0044Z" fill="white"/>
<path d="M62.33 36.9016H56.2578V38.5384H62.33V36.9016Z" fill="white"/>
<path d="M67.6717 1.33081H1.3291V46.6693H67.6717V1.33081Z" stroke="white" stroke-width="2" stroke-miterlimit="10"/>
</g>
<defs>
<clipPath id="clip0_206_6964">
<rect width="69" height="48" fill="white"/>
</clipPath>
</defs>
</svg>
