<svg width="212" height="29" viewBox="0 0 212 29" fill="none" xmlns="http://www.w3.org/2000/svg">
<g clip-path="url(#clip0_206_8360)">
<path d="M18.167 6.75622L0 0V29H6.06039V18.7022C11.4379 20.7046 18.1812 23.2109 18.1812 23.2109V17.4082C18.1812 17.4082 11.4522 14.9018 6.06039 12.8995V8.70409C11.4379 10.7064 18.1812 13.2128 18.1812 13.2128L30.302 8.70409V29H36.3624V0L18.167 6.75622Z" fill="#6E71FF"/>
<path d="M66.6357 2.90137H84.8027V7.55989H71.9848V12.3138H83.8638V16.8769H71.9848V26.0986H66.6357V2.90137Z" fill="#6E71FF"/>
<path d="M94.6475 2.90137H99.1287L107.437 14.7792L115.745 2.90137H120.226V26.0986H115.19V11.9596L107.437 22.9385L99.6551 11.9596V26.0986H94.6475V2.90137Z" fill="#6E71FF"/>
<path d="M131.295 2.90137H133.101L139.29 22.4072L145.578 2.90137H146.901L153.189 22.4072L159.334 2.90137H161.184L153.914 26.0986H152.662L146.232 6.36121L139.802 26.0986H138.55L131.28 2.90137H131.295Z" fill="#6E71FF"/>
<path d="M176.804 2.90137H178.227L188.199 26.0986H186.25L183.533 19.7783H171.441L168.766 26.0986H166.817L176.79 2.90137H176.804ZM182.85 18.1846L177.501 5.57117L172.152 18.1846H182.865H182.85Z" fill="#6E71FF"/>
<path d="M203.564 26.0986H201.757V16.3185L193.307 2.90137H195.327L202.668 14.5885L210.008 2.90137H212.028L203.578 16.3185V26.0986H203.564Z" fill="#6E71FF"/>
<path d="M43.5039 2.39739C43.5039 1.93426 43.1198 1.62097 42.5365 1.62097H41.3984V4.12731H41.8395V3.21468H42.4227L43.1056 4.10007L43.134 4.12731H43.6889L42.9064 3.13295C43.2905 3.02398 43.5182 2.75155 43.5182 2.39739H43.5039ZM42.5081 2.81966H41.8395V2.02961H42.5081C42.8495 2.02961 43.0487 2.16583 43.0487 2.41101C43.0487 2.71069 42.7642 2.81966 42.4939 2.81966H42.5081Z" fill="#6E71FF"/>
<path d="M42.3939 0C40.7294 0 39.3779 1.30766 39.3779 2.90136C39.3779 4.49507 40.7294 5.80272 42.4081 5.80272C44.0868 5.80272 45.4383 4.49507 45.4383 2.90136C45.4383 1.30766 44.0726 0 42.3939 0ZM42.3939 5.43495C40.9428 5.43495 39.7478 4.30437 39.7478 2.90136C39.7478 1.49836 40.9286 0.367778 42.3939 0.367778C43.8592 0.367778 45.04 1.49836 45.04 2.90136C45.04 4.30437 43.8592 5.43495 42.3939 5.43495Z" fill="#6E71FF"/>
</g>
<defs>
<clipPath id="clip0_206_8360">
<rect width="212" height="29" fill="white"/>
</clipPath>
</defs>
</svg>
