<svg width="215" height="52" viewBox="0 0 215 52" fill="none" xmlns="http://www.w3.org/2000/svg">
<g clip-path="url(#clip0_206_8343)">
<path d="M41.8423 52H10.5295C4.74103 52 0 47.2926 0 41.5453V10.4547C0 4.69368 4.72724 0 10.5295 0H41.8423C47.6308 0 52.3718 4.69368 52.3718 10.4547V41.5453C52.3718 47.2926 47.6308 52 41.8423 52Z" fill="#5A66F9"/>
<path d="M32.3467 17.1463C31.9883 17.2695 32.1124 17.6937 32.4983 17.6937L34.4829 17.6526L30.5275 28.1895L26.7925 21.3611C26.2137 20.28 25.3592 19.3769 24.3393 18.7063C23.3057 18.0358 22.1204 17.6526 20.8938 17.5705H19.7775C16.8557 17.7895 14.4025 19.6232 13.4101 22.36L7.3047 39C7.26335 39.1095 7.34605 39.2327 7.47009 39.2327H16.6076C16.6765 39.2327 16.7454 39.1916 16.773 39.1232L20.6044 28.6411L24.3255 35.4421C24.9871 36.6874 26.0069 37.7 27.2473 38.3705C28.4877 39.0411 29.8935 39.3421 31.313 39.2327C32.7326 39.1505 34.0832 38.6442 35.2134 37.8095C36.3435 36.9748 37.2117 35.8253 37.6941 34.4979L44.0476 17.5569L45.7153 12.9316C45.7153 12.9316 45.7153 12.8632 45.7153 12.8358C45.7153 12.8084 45.6877 12.7811 45.6739 12.7537C45.6464 12.7263 45.6188 12.7126 45.5912 12.7126C45.5637 12.7126 45.5223 12.7126 45.4948 12.7126L32.3605 17.119L32.3467 17.1463Z" fill="#141225"/>
<path opacity="0.3" d="M13.3964 22.36L7.3047 39C7.26335 39.1095 7.34605 39.2327 7.47009 39.2327H16.6076C16.6765 39.2327 16.7454 39.1916 16.773 39.1232L20.6044 28.6411L24.3255 35.4421C25.5521 37.6727 27.7435 39.0684 30.2242 39.2463H31.313L19.7637 17.5706C18.3441 17.6663 16.9797 18.1727 15.8496 19.0211C14.7194 19.8695 13.865 21.0327 13.3826 22.36H13.3964Z" fill="#3B53FF"/>
<path d="M16.2761 27.7516L12.0313 39.0138C11.9899 39.1232 12.0726 39.2464 12.1966 39.2464H16.5931C16.662 39.2464 16.7309 39.2053 16.7585 39.1369L20.5899 28.6548L19.8181 27.4643C19.0188 26.219 16.8274 26.3969 16.2761 27.7653V27.7516Z" fill="#141225"/>
<path opacity="0.3" d="M34.8549 29.1063L39.086 18.1179C39.086 18.1179 39.1136 18.0084 39.0998 17.9536C39.0998 17.8989 39.0722 17.8442 39.0447 17.8031C39.0171 17.7621 38.9757 17.721 38.9206 17.6936C38.8655 17.6663 38.8104 17.6526 38.7552 17.6526H34.4828L30.5273 28.2168L31.2991 29.4073C32.0985 30.6389 34.3036 30.4747 34.8549 29.1063Z" fill="#3B53FF"/>
<path d="M86.1515 30.8717L70.9637 16.2843C69.7784 15.1348 67.9041 14.738 66.2089 15.2854C64.5137 15.819 63.4111 17.1464 63.4111 18.6654V36.9475H68.8275V21.1285L84.0153 35.7022C84.856 36.5096 86.0413 36.9475 87.2541 36.9475C87.764 36.9475 88.2877 36.8654 88.7839 36.7148C90.4791 36.1811 91.5816 34.8538 91.5816 33.3348V15.299H86.1653V30.8717H86.1515ZM95.2752 20.7864V36.4822H100.692V20.7864C100.692 20.1432 101.339 19.5959 102.111 19.5959H120.331V15.0664H102.111C98.3486 15.0664 95.2752 17.6254 95.2752 20.7864Z" fill="white"/>
<path d="M120.332 23.7148H102.801V28.2443H120.332V23.7148ZM124.921 19.5959H135.685V36.4959H141.101V19.5959H151.865V15.0664H124.921V19.5959ZM160.341 28.1622V23.7011C160.341 21.4432 162.546 19.5959 165.247 19.5959H181.221V15.0664H165.247C159.555 15.0664 154.938 18.939 154.938 23.6875V28.1485C154.938 32.9106 159.569 36.7696 165.247 36.7696H175.184V32.2401H165.247C162.546 32.2401 160.341 30.3927 160.341 28.1348V28.1622Z" fill="white"/>
<path d="M175.859 23.6599H165.784V28.1894H175.859C176.617 28.1894 177.265 28.5862 177.265 29.0652V36.482H182.681V29.0652C182.681 26.082 179.621 23.6599 175.859 23.6599Z" fill="#5A66F9"/>
<path d="M203.933 15.2578H197.208C191.102 15.2578 186.141 19.4178 186.141 24.522V27.5189C186.141 32.6231 191.102 36.7831 197.208 36.7831H203.933C210.039 36.7831 215 32.6231 215 27.5189V24.522C215 19.4041 210.039 15.2578 203.933 15.2578ZM209.598 27.5189C209.598 30.1326 207.062 32.2536 203.933 32.2536H197.208C194.093 32.2536 191.543 30.1326 191.543 27.5189V24.522C191.543 21.9083 194.079 19.7873 197.208 19.7873H203.933C207.048 19.7873 209.598 21.9083 209.598 24.522V27.5189Z" fill="white"/>
</g>
<defs>
<clipPath id="clip0_206_8343">
<rect width="215" height="52" fill="white"/>
</clipPath>
</defs>
</svg>
