<svg width="22" height="22" viewBox="0 0 22 22" fill="none" xmlns="http://www.w3.org/2000/svg">
<g clip-path="url(#clip0_65_1805)">
<path fill-rule="evenodd" clip-rule="evenodd" d="M11 0C4.92684 0 0 4.92684 0 11C0 17.0732 4.92684 22 11 22C17.0732 22 22 17.0732 22 11C22 4.92684 17.0732 0 11 0ZM16.1005 7.48C15.9326 9.21684 15.2205 13.4432 14.8558 15.3884C14.6995 16.2105 14.3984 16.4884 14.1032 16.5174C13.4663 16.5753 12.98 16.0947 12.3605 15.6895C11.3937 15.0526 10.8437 14.6589 9.90579 14.0395C8.81737 13.3216 9.52368 12.9279 10.1432 12.2853C10.3053 12.1174 13.1189 9.55842 13.1768 9.32684C13.1826 9.2979 13.1884 9.18789 13.1247 9.13C13.0611 9.07211 12.9626 9.09526 12.8989 9.10684C12.8005 9.13 11.2547 10.1489 8.26158 12.1753C7.82158 12.4763 7.42211 12.6211 7.06895 12.6153C6.67526 12.6095 5.92263 12.3953 5.36105 12.21C4.67211 11.9842 4.12211 11.8684 4.17421 11.4863C4.19737 11.2895 4.46947 11.0868 4.99053 10.8784C8.19789 9.48316 10.3342 8.56263 11.4053 8.11684C14.4621 6.84895 15.0932 6.62316 15.51 6.61737C15.6026 6.61737 15.8053 6.64053 15.9384 6.74474C16.0484 6.83737 16.0832 6.95895 16.0947 7.04C16.1121 7.12684 16.1295 7.31789 16.1121 7.47421L16.1005 7.48Z" fill="white"/>
</g>
<defs>
<clipPath id="clip0_65_1805">
<rect width="22" height="22" fill="white"/>
</clipPath>
</defs>
</svg>
