<?xml version="1.0" encoding="UTF-8"?>
<svg id="Layer_2" data-name="Layer 2" xmlns="http://www.w3.org/2000/svg" viewBox="0 0 149.02 21.29">
  <defs>
    <style>
      .cls-1 {
        fill: #fff;
      }
    </style>
  </defs>
  <g id="Layer_1-2" data-name="Layer 1">
    <g>
      <path class="cls-1" d="M12.77,4.96L0,0V21.29H4.26v-7.56c3.78,1.47,8.52,3.31,8.52,3.31v-4.26s-4.73-1.84-8.52-3.31v-3.08c3.78,1.47,8.52,3.31,8.52,3.31l8.52-3.31v14.9h4.26V0L12.77,4.96Z"/>
      <path class="cls-1" d="M46.84,2.13h12.77v3.42h-9.01v3.49h8.35v3.35h-8.35v6.77h-3.76V2.13Z"/>
      <path class="cls-1" d="M66.53,2.13h3.15l5.84,8.72,5.84-8.72h3.15V19.16h-3.54V8.78l-5.45,8.06-5.47-8.06v10.38h-3.52V2.13Z"/>
      <path class="cls-1" d="M92.29,2.13h1.27l4.35,14.32,4.42-14.32h.93l4.42,14.32,4.32-14.32h1.3l-5.11,17.03h-.88l-4.52-14.49-4.52,14.49h-.88l-5.11-17.03Z"/>
      <path class="cls-1" d="M124.28,2.13h1l7.01,17.03h-1.37l-1.91-4.64h-8.5l-1.88,4.64h-1.37l7.01-17.03Zm4.25,11.22l-3.76-9.26-3.76,9.26h7.53Z"/>
      <path class="cls-1" d="M143.09,19.16h-1.27v-7.18l-5.94-9.85h1.42l5.16,8.58,5.16-8.58h1.42l-5.94,9.85v7.18Z"/>
    </g>
  </g>
</svg>