<?xml version="1.0" encoding="UTF-8"?>
<svg id="Layer_1" data-name="Layer 1" xmlns="http://www.w3.org/2000/svg" viewBox="0 0 50 50">
  <defs>
    <style>
      .cls-1 {
        fill: #fff;
        fill-rule: evenodd;
      }
    </style>
  </defs>
  <path class="cls-1" d="M-.05,0V50H49.95V0H-.05ZM39.43,15.9c0,.08,0,.26-.14,.46-.68,.92-1.41,1.74-2.32,2.42-.13,.1-.36,.2-.36,.39,0,4.82-1.23,9.62-4.74,13.11-4.47,4.44-11.17,5.65-17.13,4-1.15-.32-2.26-.76-3.31-1.32-.35-.19-.69-.39-1.03-.61-.09-.07-.15-.13-.08-.18,.07-.04,.13-.04,.39,0,1.66,.16,3.38-.08,4.96-.63,.87-.3,2.73-.91,3.26-1.73,.01-.02,.03-.02,.04-.04-.22-.05-.43-.05-.65-.09-1.62-.46-3.78-1.27-4.78-4-.06-.16,0-.24,.17-.21,1.33,.1,1.81,.03,2.27-.07-.26-.04-.53-.13-.77-.24-2.04-.78-3.53-2.76-3.8-4.91-.03-.25-.05-.46-.04-.69,.01-.16,.08-.21,.22-.12,1.05,.54,2.22,.67,2.32,.65-.26-.2-.5-.43-.74-.65-1.77-1.67-2.45-5.08-1.04-7.2,.11-.17,.19-.17,.33-.01,3.23,3.68,7.21,5.4,12.01,6.12,.13,.02,.14,0,.12-.14-.12-.85-.14-1.67,.06-2.51,.21-.87,.63-1.69,1.19-2.38,.54-.67,1.22-1.22,1.99-1.62,.76-.4,1.61-.64,2.46-.7,.88-.06,1.78,.08,2.6,.42,.62,.25,1.18,.6,1.69,1.04,.11,.09,.2,.2,.31,.31,.06,.06,.14,.09,.24,.06,1.23-.31,2.38-.74,3.5-1.34,.05-.03,.09-.04,.16-.01,.05,.04,.03,.1,0,.15-.2,.65-.55,1.26-.98,1.78-.28,.35-.98,1.21-1.45,1.29,1-.17,2.02-.42,2.94-.84,.12-.05,.11-.08,.11,0v.03Z"/>
</svg>