<svg width="22" height="22" viewBox="0 0 22 22" fill="none" xmlns="http://www.w3.org/2000/svg">
<g clip-path="url(#clip0_65_1819)">
<path fill-rule="evenodd" clip-rule="evenodd" d="M11 0C4.92684 0 0 5.04842 0 11.2779C0 16.2626 3.14947 20.4889 7.52053 21.9768C8.07053 22.0811 8.27316 21.7337 8.27316 21.4326C8.27316 21.1663 8.26158 20.4542 8.25579 19.5163C5.19316 20.1995 4.55053 18.0053 4.55053 18.0053C4.05263 16.7026 3.32895 16.3553 3.32895 16.3553C2.32737 15.6547 3.40421 15.6721 3.40421 15.6721C4.51 15.7532 5.08895 16.8358 5.08895 16.8358C6.06737 18.5611 7.66526 18.0632 8.29053 17.7737C8.38895 17.0442 8.67263 16.5463 8.99105 16.2684C6.54789 15.9847 3.98316 15.0179 3.98316 10.6932C3.98316 9.46 4.41158 8.45263 5.11789 7.66526C5.00211 7.38158 4.62579 6.23526 5.22789 4.67789C5.22789 4.67789 6.15421 4.37684 8.25 5.83579C9.13 5.58684 10.0679 5.45947 11.0058 5.45368C11.9379 5.45368 12.8816 5.58105 13.7616 5.83579C15.8632 4.37684 16.7837 4.67789 16.7837 4.67789C17.3858 6.22947 17.0037 7.37579 16.8937 7.66526C17.6 8.45263 18.0226 9.46 18.0226 10.6932C18.0226 15.0237 15.4521 15.9789 12.9974 16.2568C13.3911 16.6042 13.7442 17.2932 13.7442 18.3468C13.7442 19.8521 13.7326 21.0737 13.7326 21.4384C13.7326 21.7395 13.9295 22.0926 14.4911 21.9826C18.8563 20.4889 22.0058 16.2626 22.0058 11.2837C22 5.04842 17.0732 0 11 0Z" fill="white"/>
</g>
<defs>
<clipPath id="clip0_65_1819">
<rect width="22" height="22" fill="white"/>
</clipPath>
</defs>
</svg>
