<?xml version="1.0" encoding="UTF-8"?>
<svg id="Layer_1" data-name="Layer 1" xmlns="http://www.w3.org/2000/svg" viewBox="0 0 50 50">
  <defs>
    <style>
      .cls-1, .cls-2 {
        fill: #fff;
      }

      .cls-2 {
        fill-rule: evenodd;
      }
    </style>
  </defs>
  <path class="cls-1" d="M38.95,29.12c0,.21-.11,.4-.29,.5l-5.81,3.36c-.39,.22-.87-.06-.87-.5v-2.69c0-.21,.11-.4,.29-.5l2.91-1.68c.18-.1,.29-.3,.29-.5v-2.68c0-.45-.48-.73-.87-.5l-5.81,3.35c-.18,.1-.29,.3-.29,.5v11.41c0,.21-.11,.4-.29,.5l-2.32,1.34c-.39,.22-.87-.06-.87-.5v-10.74c0-.21-.11-.4-.29-.5l-9.3-5.37c-.39-.22-.87,.06-.87,.5v2.68c0,.21,.11,.4,.29,.5l6.39,3.69c.18,.1,.29,.3,.29,.5v2.68c0,.45-.48,.73-.87,.5l-5.23-3.02c-.39-.22-.87,.06-.87,.5v2.01c0,.45-.48,.73-.87,.5l-2.32-1.34c-.18-.1-.29-.3-.29-.5v-14.76c0-.45,.48-.73,.87-.5l12.79,7.38c.18,.1,.4,.1,.58,0l12.78-7.38c.39-.22,.87,.06,.87,.5v10.73Z"/>
  <path class="cls-2" d="M0,0V50H50V0H0ZM41.42,33.21c0,.79-.41,1.51-1.09,1.89l-14.24,8.22c-.67,.39-1.51,.39-2.18,0l-14.24-8.22c-.67-.38-1.09-1.11-1.09-1.89V16.78c0-.78,.42-1.5,1.09-1.89L23.91,6.66c.67-.38,1.51-.38,2.18,0l14.24,8.22c.68,.39,1.09,1.12,1.09,1.89v16.43Z"/>
</svg>