<svg width="22" height="22" viewBox="0 0 22 22" fill="none" xmlns="http://www.w3.org/2000/svg">
<g clip-path="url(#clip0_65_1814)">
<path d="M10.0447 9.19955C9.9173 9.12429 9.80151 9.21692 9.80151 9.36745V12.6559C9.80151 12.8006 9.9173 12.8932 10.0447 12.8238L12.9684 11.2201C13.1015 11.1506 13.1247 10.9596 12.9915 10.8843L10.0505 9.19955H10.0447Z" fill="white"/>
<path d="M11 0C4.93263 0 0 4.93263 0 11C0 17.0674 4.93263 22 11 22C17.0674 22 22 17.0674 22 11C22 4.93263 17.0674 0 11 0ZM17.5884 12.7658C17.5884 14.3232 16.3263 15.5911 14.7632 15.5911H7.43368C5.87632 15.5911 4.60842 14.3289 4.60842 12.7658V9.33263C4.60842 7.77526 5.87053 6.50737 7.43368 6.50737H14.7632C16.3205 6.50737 17.5884 7.76947 17.5884 9.33263V12.7658V12.7658Z" fill="white"/>
</g>
<defs>
<clipPath id="clip0_65_1814">
<rect width="22" height="22" fill="white"/>
</clipPath>
</defs>
</svg>
