<?xml version="1.0" encoding="UTF-8"?>
<svg id="Layer_1" data-name="Layer 1" xmlns="http://www.w3.org/2000/svg" viewBox="0 0 50 50">
  <defs>
    <style>
      .cls-1 {
        fill: #fff;
      }
    </style>
  </defs>
  <path class="cls-1" d="M0,0V50H50V0H0ZM18.03,34.1c-4.97,0-9.01-4.06-9.01-9.07s4.03-9.07,9.01-9.07,9.01,4.06,9.01,9.07-4.03,9.07-9.01,9.07Zm14.39-.53c-2.49,0-4.5-3.82-4.5-8.54s2.02-8.54,4.5-8.54,4.5,3.82,4.5,8.54h0c0,4.71-2.02,8.54-4.5,8.54Zm6.96-.89c-.87,0-1.58-3.42-1.58-7.65s.71-7.65,1.58-7.65,1.58,3.42,1.58,7.65-.71,7.65-1.58,7.65Z"/>
</svg>