<svg width="129" height="128" viewBox="0 0 129 128" fill="none" xmlns="http://www.w3.org/2000/svg">
<mask id="mask0_69_1534" style="mask-type:alpha" maskUnits="userSpaceOnUse" x="0" y="0" width="129" height="128">
<rect x="0.851562" width="128" height="128" fill="#D9D9D9"/>
</mask>
<g mask="url(#mask0_69_1534)">
<path d="M31.7842 105.066C29.4731 105.066 27.562 104.311 26.0508 102.8C24.5397 101.289 23.7842 99.3775 23.7842 97.0664V69.3331H27.5175V97.0664C27.5175 98.1331 27.962 99.1109 28.8508 99.9998C29.7397 100.889 30.7175 101.333 31.7842 101.333H59.5175V105.066H31.7842ZM70.1842 105.066V101.333H97.9175C98.9842 101.333 99.962 100.889 100.851 99.9998C101.74 99.1109 102.184 98.1331 102.184 97.0664V69.3331H105.918V97.0664C105.918 99.3775 105.162 101.289 103.651 102.8C102.14 104.311 100.229 105.066 97.9175 105.066H70.1842ZM43.2508 87.1998L52.0508 75.7331L60.5842 85.5998L73.9175 69.0664L87.5175 87.1998H43.2508ZM23.7842 58.6664V30.9331C23.7842 28.622 24.5397 26.7109 26.0508 25.1998C27.562 23.6887 29.4731 22.9331 31.7842 22.9331H59.5175V26.6664H31.7842C30.7175 26.6664 29.7397 27.1109 28.8508 27.9998C27.962 28.8887 27.5175 29.8664 27.5175 30.9331V58.6664H23.7842ZM102.184 58.6664V30.9331C102.184 29.8664 101.74 28.8887 100.851 27.9998C99.962 27.1109 98.9842 26.6664 97.9175 26.6664H70.1842V22.9331H97.9175C100.229 22.9331 102.14 23.6887 103.651 25.1998C105.162 26.7109 105.918 28.622 105.918 30.9331V58.6664H102.184ZM82.1842 51.9998C80.6731 51.9998 79.4073 51.4878 78.3868 50.4638C77.3628 49.4433 76.8508 48.1775 76.8508 46.6664C76.8508 45.1553 77.3628 43.8878 78.3868 42.8638C79.4073 41.8433 80.6731 41.3331 82.1842 41.3331C83.6953 41.3331 84.9628 41.8433 85.9868 42.8638C87.0073 43.8878 87.5175 45.1553 87.5175 46.6664C87.5175 48.1775 87.0073 49.4433 85.9868 50.4638C84.9628 51.4878 83.6953 51.9998 82.1842 51.9998Z" fill="#C4C4D3" fill-opacity="0.4"/>
</g>
</svg>
