<?xml version="1.0" encoding="utf-8"?>
<!-- Generator: Adobe Illustrator 27.1.0, SVG Export Plug-In . SVG Version: 6.00 Build 0)  -->
<svg version="1.1" id="Layer_1" xmlns="http://www.w3.org/2000/svg" xmlns:xlink="http://www.w3.org/1999/xlink" x="0px" y="0px"
	 viewBox="0 0 161 30" style="enable-background:new 0 0 161 30;" xml:space="preserve">
<style type="text/css">
	.st0{fill:none;}
	.st1{fill:#CCB8FF;}
	.st2{fill:#925CF9;}
	.st3{fill:#FF86F6;}
	.st4{fill:#904EFD;}
	.st5{fill:#B057E2;}
	.st6{clip-path:url(#SVGID_00000056419027445650080190000010143531782109954199_);}
	.st7{fill:#F3A2EA;}
	.st8{fill:#D978D2;}
	.st9{filter:url(#Adobe_OpacityMaskFilter);}
	.st10{mask:url(#SVGID_00000120535238998432435020000010206157870306295984_);}
	.st11{fill:#C744B0;}
	.st12{filter:url(#Adobe_OpacityMaskFilter_00000061459949293792902240000002251118174820195222_);}
	.st13{opacity:0.5;mask:url(#SVGID_00000036249780427273544770000014435582727516676754_);}
	.st14{filter:url(#Adobe_OpacityMaskFilter_00000145781424018724958790000008384339639245379232_);}
	.st15{fill:#A458E5;}
	.st16{filter:url(#Adobe_OpacityMaskFilter_00000150063874466931184390000007217887693116125583_);}
	.st17{opacity:0.5;mask:url(#SVGID_00000074412947326176298370000018308303527287595182_);}
	.st18{fill:#8D3DB6;}
	.st19{filter:url(#Adobe_OpacityMaskFilter_00000065781857968814099790000002199732034240853176_);}
	.st20{mask:url(#SVGID_00000067193926128531637370000012129723933146067884_);}
	.st21{filter:url(#Adobe_OpacityMaskFilter_00000091733664588012149350000010469716934940880052_);}
	.st22{opacity:0.5;}
	.st23{fill:#7D3EF2;}
	.st24{filter:url(#Adobe_OpacityMaskFilter_00000013914413988342957190000006469481698102440326_);}
	.st25{opacity:0.5;mask:url(#SVGID_00000181060418450042285960000011021856467938311810_);}
	.st26{fill:#4F1DC0;}
	.st27{filter:url(#Adobe_OpacityMaskFilter_00000033335282027846623110000017489011027109212071_);}
	.st28{opacity:0.7;mask:url(#SVGID_00000021111102423949150350000008801665357242855339_);}
	.st29{filter:url(#Adobe_OpacityMaskFilter_00000052094403265253769240000016838369641233325189_);}
	.st30{fill:#5B24E7;}
	.st31{filter:url(#Adobe_OpacityMaskFilter_00000011030521961324602750000003388148588154626452_);}
	.st32{mask:url(#SVGID_00000048482097685141969770000000466535997403092635_);}
	.st33{fill:#3B0ABD;}
	.st34{filter:url(#Adobe_OpacityMaskFilter_00000031927873438516558470000011464094305350048427_);}
	.st35{opacity:0.5;mask:url(#SVGID_00000013906615791072594860000005101761472739695524_);}
	.st36{filter:url(#Adobe_OpacityMaskFilter_00000007414148464943300960000006492982829680248736_);}
	.st37{clip-path:url(#SVGID_00000109015762083804578000000009831674759043610778_);fill:#5B24E7;}
	.st38{opacity:0.3;clip-path:url(#SVGID_00000056419027445650080190000010143531782109954199_);}
	.st39{fill:#3E19B7;}
	.st40{fill:#5626BC;}
	.st41{fill:#C756B5;}
	.st42{filter:url(#Adobe_OpacityMaskFilter_00000173150256347014956390000014695007832796312461_);}
	.st43{mask:url(#SVGID_00000176031863719607007110000015884301418371589294_);}
	.st44{opacity:0.5;clip-path:url(#SVGID_00000056419027445650080190000010143531782109954199_);}
	.st45{fill:#FFF0FE;}
	.st46{opacity:0.7;clip-path:url(#SVGID_00000056419027445650080190000010143531782109954199_);}
	.st47{fill:#7E65FF;}
	.st48{opacity:0.6;clip-path:url(#SVGID_00000056419027445650080190000010143531782109954199_);}
	.st49{display:none;opacity:0.8;clip-path:url(#SVGID_00000056419027445650080190000010143531782109954199_);}
</style>
<rect y="1" class="st0" width="46" height="28"/>
<path class="st1" d="M64.1,14.8c0.8,0.2,1.5,0.6,2,1.2c0.5,0.6,0.7,1.3,0.7,2.2c0,1.2-0.4,2.1-1.2,2.8s-2,1-3.5,1h-7V7.9h6.8
	c1.4,0,2.6,0.3,3.4,1c0.8,0.6,1.2,1.5,1.2,2.7c0,0.8-0.2,1.5-0.7,2.1C65.4,14.2,64.8,14.6,64.1,14.8z M59,13.5h2
	c1,0,1.5-0.4,1.5-1.2c0-0.8-0.5-1.3-1.5-1.3h-2V13.5z M61.3,18.8c1,0,1.5-0.4,1.5-1.2c0-0.4-0.1-0.8-0.4-1c-0.3-0.2-0.6-0.3-1.1-0.3
	H59v2.6H61.3z M75.3,22.1c-1.3,0-2.5-0.3-3.6-0.9c-1.1-0.6-2-1.5-2.6-2.6c-0.6-1.1-1-2.4-1-3.7s0.3-2.6,1-3.7c0.7-1.1,1.5-2,2.6-2.6
	C72.8,8,74,7.7,75.3,7.7c1.3,0,2.5,0.3,3.6,0.9c1.1,0.6,2,1.5,2.6,2.6c0.6,1.1,1,2.3,1,3.7s-0.3,2.6-1,3.7c-0.6,1.1-1.5,2-2.6,2.6
	C77.8,21.8,76.6,22.1,75.3,22.1z M75.3,18.5c1,0,1.8-0.3,2.4-1c0.6-0.7,0.9-1.5,0.9-2.6c0-1.1-0.3-2-0.9-2.6c-0.6-0.7-1.4-1-2.4-1
	c-1,0-1.8,0.3-2.4,1c-0.6,0.6-0.9,1.5-0.9,2.6c0,1.1,0.3,2,0.9,2.6C73.5,18.2,74.3,18.5,75.3,18.5z M93.2,19.7h-5L87.4,22h-4.1
	l5.1-14.1H93L98.1,22H94L93.2,19.7z M92.2,16.7l-1.5-4.6l-1.5,4.6H92.2z M108.9,18.2c0-5.2-7.5-2.9-7.5-6.5c0-1.5,1.2-2.3,2.7-2.2
	c1.7,0,2.6,1.1,2.7,2h2c-0.2-2.1-2-3.6-4.6-3.6c-2.8,0-4.6,1.6-4.6,3.9c0,5.2,7.5,2.8,7.5,6.5c0,1.3-1,2.3-2.8,2.3
	c-1.9,0-2.8-1.2-2.9-2.3h-1.9c0,2.3,2,3.9,4.8,3.9C107.2,22.1,108.9,20.2,108.9,18.2z M113.4,14.7V9.6h2.7c2.1,0,3,1,3,2.6
	c0,1.6-0.9,2.5-3,2.5H113.4z M120.9,12.1c0-2.3-1.5-4.1-4.8-4.1h-4.5V22h1.8v-5.8h2.7C119.5,16.2,120.9,14.3,120.9,12.1z M132.5,22
	h1.9l-5-13.9h-2.1l-5,13.9h1.9l1.1-3.1h6.1L132.5,22z M130.8,17.4h-5l2.5-7L130.8,17.4z M135.9,15c0,4.2,3.1,7.1,7,7.1
	c3,0,5.4-1.5,6.5-4.2h-2.2c-0.8,1.7-2.2,2.6-4.3,2.6c-2.9,0-5.1-2.1-5.1-5.5c0-3.4,2.2-5.5,5.1-5.5c2,0,3.5,0.9,4.3,2.6h2.2
	c-1-2.7-3.4-4.2-6.5-4.2C139,7.9,135.9,10.8,135.9,15z M159.5,8H152v14h7.5v-1.5h-5.7v-4.8h5.1v-1.5h-5.1V9.5h5.7V8z"/>
<g>
	<circle class="st2" cx="43" cy="23.2" r="1.9"/>
	<circle class="st3" cx="5.3" cy="8.7" r="2.7"/>
	<circle class="st3" cx="8.6" cy="3.2" r="0.9"/>
	<path class="st4" d="M13.8,23.9c-5.2,2.9-10,3.8-11,2.3c-1-1.6,2-5.3,6.9-8.6c0.1-0.1,0.2,0.1,0.1,0.2c-2.6,2.3-3.9,4.6-3.3,5.3
		c0.6,0.8,3,0.5,6.1-0.8C13,22.9,13.3,23.4,13.8,23.9z"/>
	<path class="st5" d="M40.9,11.5c-0.1,0.1-0.2-0.1-0.1-0.2C43.3,9,44.6,6.8,44.1,6c-0.7-1-3.8-0.3-7.7,1.5c-0.3-0.5-0.7-1-1.1-1.5
		c5.8-3.5,11.4-4.8,12.4-3.2C48.8,4.4,45.7,8.2,40.9,11.5z"/>
	<g>
		<defs>
			<circle id="SVGID_1_" cx="24.6" cy="15" r="14"/>
		</defs>
		<clipPath id="SVGID_00000061433869290006583670000011089310938595637138_">
			<use xlink:href="#SVGID_1_"  style="overflow:visible;"/>
		</clipPath>
		<g style="clip-path:url(#SVGID_00000061433869290006583670000011089310938595637138_);">
			<circle class="st7" cx="24.6" cy="15" r="14"/>
		</g>
		<g style="clip-path:url(#SVGID_00000061433869290006583670000011089310938595637138_);">
			
				<image style="overflow:visible;opacity:0.5;" width="266" height="258" xlink:href="B4CE9ED2.png"  transform="matrix(0.1082 0 0 0.1082 10.1517 1.5161)">
			</image>
			<g>
				<g>
					<g>
						<g>
							<path class="st8" d="M38.6,15c0,0.4,0,0.8,0,1.2c0,0.6-0.1,1.2-0.2,1.7c-1.3,6.4-7,11.1-13.7,11.1c-4.7,0-8.8-2.3-11.3-5.8
								c-1.2-1.6-2-3.5-2.4-5.6c-0.2-0.9-0.2-1.7-0.2-2.6c0-1.3,0.2-2.5,0.5-3.7c0,0,0,0,0,0c0.4-1.4,1-2.8,1.8-4
								c-0.2,1-0.1,1.8,0.5,2.3c1.3,1,2.6-0.2,3.6-1.6c1-1.4,2.7-4,6.1-5.4c1.2-0.5,2.4-0.7,3.6-0.7c2.2-0.1,4.4,0.5,6.2,1.8
								c1.2,0.9,2.3,2,3.1,3.2C37.6,9.2,38.6,12,38.6,15z"/>
						</g>
					</g>
					<defs>
						<filter id="Adobe_OpacityMaskFilter" filterUnits="userSpaceOnUse" x="10.5" y="1.9" width="28" height="27.1">
							
								<feColorMatrix  type="matrix" values="-1 0 0 0 1  0 -1 0 0 1  0 0 -1 0 1  0 0 0 1 0" color-interpolation-filters="sRGB" result="source"/>
						</filter>
					</defs>
					
						<mask maskUnits="userSpaceOnUse" x="10.5" y="1.9" width="28" height="27.1" id="SVGID_00000090270405311744023900000012256773912758180543_">
						<g class="st9">
							
								<image style="overflow:visible;" width="264" height="256" xlink:href="B4CE9ED6.jpg"  transform="matrix(0.1082 0 0 0.1082 10.2599 1.6243)">
							</image>
						</g>
					</mask>
					<g style="mask:url(#SVGID_00000090270405311744023900000012256773912758180543_);">
						<g>
							<path class="st11" d="M38.6,15c0,0.4,0,0.8,0,1.2c0,0.6-0.1,1.2-0.2,1.7c-1.3,6.4-7,11.1-13.7,11.1c-4.7,0-8.8-2.3-11.3-5.8
								c-1.2-1.6-2-3.5-2.4-5.6c-0.2-0.9-0.2-1.7-0.2-2.6c0-1.3,0.2-2.5,0.5-3.7c0,0,0,0,0,0c0.4-1.4,1-2.8,1.8-4
								c-0.2,1-0.1,1.8,0.5,2.3c1.3,1,2.6-0.2,3.6-1.6c1-1.4,2.7-4,6.1-5.4c1.2-0.5,2.4-0.7,3.6-0.7c2.2-0.1,4.4,0.5,6.2,1.8
								c1.2,0.9,2.3,2,3.1,3.2C37.6,9.2,38.6,12,38.6,15z"/>
						</g>
					</g>
				</g>
				<defs>
					
						<filter id="Adobe_OpacityMaskFilter_00000170276969797595687630000000093235860750012076_" filterUnits="userSpaceOnUse" x="10.5" y="1.9" width="28" height="27.1">
						
							<feColorMatrix  type="matrix" values="-1 0 0 0 1  0 -1 0 0 1  0 0 -1 0 1  0 0 0 1 0" color-interpolation-filters="sRGB" result="source"/>
					</filter>
				</defs>
				
					<mask maskUnits="userSpaceOnUse" x="10.5" y="1.9" width="28" height="27.1" id="SVGID_00000065059262250368740530000013750296063817103242_">
					<g style="filter:url(#Adobe_OpacityMaskFilter_00000170276969797595687630000000093235860750012076_);">
						
							<image style="overflow:visible;" width="264" height="256" xlink:href="B4CE9ED1.jpg"  transform="matrix(0.1082 0 0 0.1082 10.2599 1.6243)">
						</image>
					</g>
				</mask>
				<g style="opacity:0.5;mask:url(#SVGID_00000065059262250368740530000013750296063817103242_);">
					<g>
						<g>
							<path class="st11" d="M38.6,15c0,0.4,0,0.8,0,1.2c0,0.6-0.1,1.2-0.2,1.7c-1.3,6.4-7,11.1-13.7,11.1c-4.7,0-8.8-2.3-11.3-5.8
								c-1.2-1.6-2-3.5-2.4-5.6c-0.2-0.9-0.2-1.7-0.2-2.6c0-1.3,0.2-2.5,0.5-3.7c0,0,0,0,0,0c0.4-1.4,1-2.8,1.8-4
								c-0.2,1-0.1,1.8,0.5,2.3c1.3,1,2.6-0.2,3.6-1.6c1-1.4,2.7-4,6.1-5.4c1.2-0.5,2.4-0.7,3.6-0.7c2.2-0.1,4.4,0.5,6.2,1.8
								c1.2,0.9,2.3,2,3.1,3.2C37.6,9.2,38.6,12,38.6,15z"/>
						</g>
					</g>
					<defs>
						
							<filter id="Adobe_OpacityMaskFilter_00000126299282803083493330000015066391421137671587_" filterUnits="userSpaceOnUse" x="10.5" y="1.9" width="28" height="27.1">
							
								<feColorMatrix  type="matrix" values="-1 0 0 0 1  0 -1 0 0 1  0 0 -1 0 1  0 0 0 1 0" color-interpolation-filters="sRGB" result="source"/>
						</filter>
					</defs>
					
						<mask maskUnits="userSpaceOnUse" x="10.5" y="1.9" width="28" height="27.1" id="SVGID_00000065059262250368740530000013750296063817103242_">
						<g style="filter:url(#Adobe_OpacityMaskFilter_00000126299282803083493330000015066391421137671587_);">
							
								<image style="overflow:visible;" width="264" height="256" xlink:href="B4CE9ED2.jpg"  transform="matrix(0.1082 0 0 0.1082 10.2599 1.6243)">
							</image>
						</g>
					</mask>
					<g>
						<g>
							<path class="st11" d="M38.6,15c0,0.4,0,0.8,0,1.2c0,0.6-0.1,1.2-0.2,1.7c-1.3,6.4-7,11.1-13.7,11.1c-4.7,0-8.8-2.3-11.3-5.8
								c-1.2-1.6-2-3.5-2.4-5.6c-0.2-0.9-0.2-1.7-0.2-2.6c0-1.3,0.2-2.5,0.5-3.7c0,0,0,0,0,0c0.4-1.4,1-2.8,1.8-4
								c-0.2,1-0.1,1.8,0.5,2.3c1.3,1,2.6-0.2,3.6-1.6c1-1.4,2.7-4,6.1-5.4c1.2-0.5,2.4-0.7,3.6-0.7c2.2-0.1,4.4,0.5,6.2,1.8
								c1.2,0.9,2.3,2,3.1,3.2C37.6,9.2,38.6,12,38.6,15z"/>
						</g>
					</g>
				</g>
			</g>
		</g>
		<g style="clip-path:url(#SVGID_00000061433869290006583670000011089310938595637138_);">
			
				<image style="overflow:visible;opacity:0.4;" width="272" height="242" xlink:href="B4CE9ED1.png"  transform="matrix(0.1082 0 0 0.1082 9.8272 3.5714)">
			</image>
			<g>
				<g>
					<g>
						<g>
							<path class="st15" d="M38.6,15c0,0.4,0,0.8,0,1.2c0,0.6-0.1,1.2-0.2,1.7c-1.3,6.4-7,11.1-13.7,11.1c-4.7,0-8.8-2.3-11.3-5.8
								c-1.2-1.6-2-3.5-2.4-5.6c-0.2-0.9-0.2-1.7-0.2-2.6c0-1.3,0.2-2.5,0.5-3.7c-0.2,1.6,0,3,0.9,3.7c1.3,1,5.2,0.9,7.6-2.6
								c2.3-3.3,5.6-8.1,11.2-8.1c2.2,0,3.9,1.2,5.3,2.6C37.6,9.2,38.6,12,38.6,15z"/>
						</g>
					</g>
					<defs>
						
							<filter id="Adobe_OpacityMaskFilter_00000108301929844221754630000009170137018156558993_" filterUnits="userSpaceOnUse" x="10.5" y="4.3" width="28" height="24.7">
							
								<feColorMatrix  type="matrix" values="-1 0 0 0 1  0 -1 0 0 1  0 0 -1 0 1  0 0 0 1 0" color-interpolation-filters="sRGB" result="source"/>
						</filter>
					</defs>
					
						<mask maskUnits="userSpaceOnUse" x="10.5" y="4.3" width="28" height="24.7" id="SVGID_00000155125136037734726100000004802328419251501464_">
						<g style="filter:url(#Adobe_OpacityMaskFilter_00000108301929844221754630000009170137018156558993_);">
							
								<image style="overflow:visible;" width="264" height="234" xlink:href="B4CE9EDE.jpg"  transform="matrix(0.1082 0 0 0.1082 10.2599 4.0041)">
							</image>
						</g>
					</mask>
					<g style="opacity:0.5;mask:url(#SVGID_00000155125136037734726100000004802328419251501464_);">
						<g>
							<path class="st18" d="M38.6,15c0,0.4,0,0.8,0,1.2c0,0.6-0.1,1.2-0.2,1.7c-1.3,6.4-7,11.1-13.7,11.1c-4.7,0-8.8-2.3-11.3-5.8
								c-1.2-1.6-2-3.5-2.4-5.6c-0.2-0.9-0.2-1.7-0.2-2.6c0-1.3,0.2-2.5,0.5-3.7c-0.2,1.6,0,3,0.9,3.7c1.3,1,5.2,0.9,7.6-2.6
								c2.3-3.3,5.6-8.1,11.2-8.1c2.2,0,3.9,1.2,5.3,2.6C37.6,9.2,38.6,12,38.6,15z"/>
						</g>
					</g>
				</g>
				<defs>
					
						<filter id="Adobe_OpacityMaskFilter_00000173883934730332479240000012906232802654734747_" filterUnits="userSpaceOnUse" x="10.5" y="4.3" width="28" height="24.7">
						
							<feColorMatrix  type="matrix" values="-1 0 0 0 1  0 -1 0 0 1  0 0 -1 0 1  0 0 0 1 0" color-interpolation-filters="sRGB" result="source"/>
					</filter>
				</defs>
				
					<mask maskUnits="userSpaceOnUse" x="10.5" y="4.3" width="28" height="24.7" id="SVGID_00000044145467989602966670000008458109549063839372_">
					<g style="filter:url(#Adobe_OpacityMaskFilter_00000173883934730332479240000012906232802654734747_);">
						
							<image style="overflow:visible;" width="264" height="234" xlink:href="B4CE9ED0.jpg"  transform="matrix(0.1082 0 0 0.1082 10.2599 4.0041)">
						</image>
					</g>
				</mask>
				<g style="mask:url(#SVGID_00000044145467989602966670000008458109549063839372_);">
					<g>
						<g>
							<path class="st18" d="M38.6,15c0,0.4,0,0.8,0,1.2c0,0.6-0.1,1.2-0.2,1.7c-1.3,6.4-7,11.1-13.7,11.1c-4.7,0-8.8-2.3-11.3-5.8
								c-1.2-1.6-2-3.5-2.4-5.6c-0.2-0.9-0.2-1.7-0.2-2.6c0-1.3,0.2-2.5,0.5-3.7c-0.2,1.6,0,3,0.9,3.7c1.3,1,5.2,0.9,7.6-2.6
								c2.3-3.3,5.6-8.1,11.2-8.1c2.2,0,3.9,1.2,5.3,2.6C37.6,9.2,38.6,12,38.6,15z"/>
						</g>
					</g>
					<defs>
						
							<filter id="Adobe_OpacityMaskFilter_00000095332734185456341110000005390646601745617554_" filterUnits="userSpaceOnUse" x="10.5" y="4.3" width="28" height="24.7">
							
								<feColorMatrix  type="matrix" values="-1 0 0 0 1  0 -1 0 0 1  0 0 -1 0 1  0 0 0 1 0" color-interpolation-filters="sRGB" result="source"/>
						</filter>
					</defs>
					
						<mask maskUnits="userSpaceOnUse" x="10.5" y="4.3" width="28" height="24.7" id="SVGID_00000044145467989602966670000008458109549063839372_">
						<g style="filter:url(#Adobe_OpacityMaskFilter_00000095332734185456341110000005390646601745617554_);">
							
								<image style="overflow:visible;" width="264" height="234" xlink:href="B4CE9ED3.jpg"  transform="matrix(0.1082 0 0 0.1082 10.2599 4.0041)">
							</image>
						</g>
					</mask>
					<g class="st22">
						<g>
							<path class="st18" d="M38.6,15c0,0.4,0,0.8,0,1.2c0,0.6-0.1,1.2-0.2,1.7c-1.3,6.4-7,11.1-13.7,11.1c-4.7,0-8.8-2.3-11.3-5.8
								c-1.2-1.6-2-3.5-2.4-5.6c-0.2-0.9-0.2-1.7-0.2-2.6c0-1.3,0.2-2.5,0.5-3.7c-0.2,1.6,0,3,0.9,3.7c1.3,1,5.2,0.9,7.6-2.6
								c2.3-3.3,5.6-8.1,11.2-8.1c2.2,0,3.9,1.2,5.3,2.6C37.6,9.2,38.6,12,38.6,15z"/>
						</g>
					</g>
				</g>
			</g>
		</g>
		<g style="clip-path:url(#SVGID_00000061433869290006583670000011089310938595637138_);">
			
				<image style="overflow:visible;opacity:0.4;" width="270" height="199" xlink:href="B4CE9ED0.png"  transform="matrix(0.1082 0 0 0.1082 10.0436 8.2228)">
			</image>
			<g>
				<g>
					<g>
						<g>
							<path class="st23" d="M38.5,16.2c0,0.6-0.1,1.2-0.2,1.7c0,0,0,0,0,0c-1.3,6.4-7,11.1-13.7,11.1c-4.7,0-8.8-2.3-11.3-5.8
								c0,0,0,0,0,0c-1.2-1.6-2-3.5-2.4-5.6c0.8,2,2.2,3.6,4.5,3.6c6.3,0,9.7-6.4,11.3-8.5c1.6-2.1,3.9-4,6.4-3.8
								C35.3,9.1,38.3,10.5,38.5,16.2z"/>
						</g>
					</g>
					<defs>
						
							<filter id="Adobe_OpacityMaskFilter_00000148647619839199311380000008698255704384364714_" filterUnits="userSpaceOnUse" x="10.8" y="8.9" width="27.7" height="20.1">
							
								<feColorMatrix  type="matrix" values="-1 0 0 0 1  0 -1 0 0 1  0 0 -1 0 1  0 0 0 1 0" color-interpolation-filters="sRGB" result="source"/>
						</filter>
					</defs>
					
						<mask maskUnits="userSpaceOnUse" x="10.8" y="8.9" width="27.7" height="20.1" id="SVGID_00000069356355508718114810000017368771170589325958_">
						<g style="filter:url(#Adobe_OpacityMaskFilter_00000148647619839199311380000008698255704384364714_);">
							
								<image style="overflow:visible;" width="262" height="191" xlink:href="21DCF4A5.jpg"  transform="matrix(0.1082 0 0 0.1082 10.4763 8.6555)">
							</image>
						</g>
					</mask>
					<g style="opacity:0.5;mask:url(#SVGID_00000069356355508718114810000017368771170589325958_);">
						<g>
							<path class="st26" d="M38.5,16.2c0,0.6-0.1,1.2-0.2,1.7c0,0,0,0,0,0c-1.3,6.4-7,11.1-13.7,11.1c-4.7,0-8.8-2.3-11.3-5.8
								c0,0,0,0,0,0c-1.2-1.6-2-3.5-2.4-5.6c0.8,2,2.2,3.6,4.5,3.6c6.3,0,9.7-6.4,11.3-8.5c1.6-2.1,3.9-4,6.4-3.8
								C35.3,9.1,38.3,10.5,38.5,16.2z"/>
						</g>
					</g>
				</g>
				<defs>
					
						<filter id="Adobe_OpacityMaskFilter_00000114761933526040523750000018298327109116470206_" filterUnits="userSpaceOnUse" x="10.8" y="8.9" width="27.7" height="20.1">
						
							<feColorMatrix  type="matrix" values="-1 0 0 0 1  0 -1 0 0 1  0 0 -1 0 1  0 0 0 1 0" color-interpolation-filters="sRGB" result="source"/>
					</filter>
				</defs>
				
					<mask maskUnits="userSpaceOnUse" x="10.8" y="8.9" width="27.7" height="20.1" id="SVGID_00000077322277613418015770000012899495247595937961_">
					<g style="filter:url(#Adobe_OpacityMaskFilter_00000114761933526040523750000018298327109116470206_);">
						
							<image style="overflow:visible;" width="262" height="191" xlink:href="21DCF4BB.jpg"  transform="matrix(0.1082 0 0 0.1082 10.4763 8.6555)">
						</image>
					</g>
				</mask>
				<g style="opacity:0.7;mask:url(#SVGID_00000077322277613418015770000012899495247595937961_);">
					<g>
						<g>
							<path class="st26" d="M38.5,16.2c0,0.6-0.1,1.2-0.2,1.7c0,0,0,0,0,0c-1.3,6.4-7,11.1-13.7,11.1c-4.7,0-8.8-2.3-11.3-5.8
								c0,0,0,0,0,0c-1.2-1.6-2-3.5-2.4-5.6c0.8,2,2.2,3.6,4.5,3.6c6.3,0,9.7-6.4,11.3-8.5c1.6-2.1,3.9-4,6.4-3.8
								C35.3,9.1,38.3,10.5,38.5,16.2z"/>
						</g>
					</g>
					<defs>
						
							<filter id="Adobe_OpacityMaskFilter_00000114056344081692232800000016737739576193327004_" filterUnits="userSpaceOnUse" x="10.8" y="8.9" width="27.7" height="20.1">
							
								<feColorMatrix  type="matrix" values="-1 0 0 0 1  0 -1 0 0 1  0 0 -1 0 1  0 0 0 1 0" color-interpolation-filters="sRGB" result="source"/>
						</filter>
					</defs>
					
						<mask maskUnits="userSpaceOnUse" x="10.8" y="8.9" width="27.7" height="20.1" id="SVGID_00000077322277613418015770000012899495247595937961_">
						<g style="filter:url(#Adobe_OpacityMaskFilter_00000114056344081692232800000016737739576193327004_);">
							
								<image style="overflow:visible;" width="262" height="191" xlink:href="21DCF4BD.jpg"  transform="matrix(0.1082 0 0 0.1082 10.4763 8.6555)">
							</image>
						</g>
					</mask>
					<g class="st22">
						<g>
							<path class="st26" d="M38.5,16.2c0,0.6-0.1,1.2-0.2,1.7c0,0,0,0,0,0c-1.3,6.4-7,11.1-13.7,11.1c-4.7,0-8.8-2.3-11.3-5.8
								c0,0,0,0,0,0c-1.2-1.6-2-3.5-2.4-5.6c0.8,2,2.2,3.6,4.5,3.6c6.3,0,9.7-6.4,11.3-8.5c1.6-2.1,3.9-4,6.4-3.8
								C35.3,9.1,38.3,10.5,38.5,16.2z"/>
						</g>
					</g>
				</g>
			</g>
		</g>
		<g style="clip-path:url(#SVGID_00000061433869290006583670000011089310938595637138_);">
			
				<image style="overflow:visible;opacity:0.5;" width="244" height="138" xlink:href="21DCF4BF.png"  transform="matrix(0.1082 0 0 0.1082 12.5315 14.8212)">
			</image>
			<g>
				<g>
					<g>
						<g>
							<path class="st30" d="M38.3,17.9c-1.3,6.4-7,11.1-13.7,11.1c-4.7,0-8.8-2.3-11.3-5.8c1,1.1,2.3,1.9,3.9,2.2
								c6.3,1.2,9.8-2.5,11.3-4.4c1.6-2,3.1-5.6,6.6-5.5C36.7,15.6,37.7,16.7,38.3,17.9z"/>
						</g>
					</g>
					<defs>
						
							<filter id="Adobe_OpacityMaskFilter_00000065043698404756736050000011609768825554825870_" filterUnits="userSpaceOnUse" x="13.2" y="15.5" width="25.1" height="13.5">
							
								<feColorMatrix  type="matrix" values="-1 0 0 0 1  0 -1 0 0 1  0 0 -1 0 1  0 0 0 1 0" color-interpolation-filters="sRGB" result="source"/>
						</filter>
					</defs>
					
						<mask maskUnits="userSpaceOnUse" x="13.2" y="15.5" width="25.1" height="13.5" id="SVGID_00000116212601700820909920000005063604458446493608_">
						<g style="filter:url(#Adobe_OpacityMaskFilter_00000065043698404756736050000011609768825554825870_);">
							
								<image style="overflow:visible;" width="236" height="130" xlink:href="21DCF4BC.jpg"  transform="matrix(0.1082 0 0 0.1082 12.9642 15.2539)">
							</image>
						</g>
					</mask>
					<g style="mask:url(#SVGID_00000116212601700820909920000005063604458446493608_);">
						<g>
							<path class="st33" d="M38.3,17.9c-1.3,6.4-7,11.1-13.7,11.1c-4.7,0-8.8-2.3-11.3-5.8c1,1.1,2.3,1.9,3.9,2.2
								c6.3,1.2,9.8-2.5,11.3-4.4c1.6-2,3.1-5.6,6.6-5.5C36.7,15.6,37.7,16.7,38.3,17.9z"/>
						</g>
					</g>
				</g>
				<defs>
					
						<filter id="Adobe_OpacityMaskFilter_00000120530362805000963000000000095227371376317361_" filterUnits="userSpaceOnUse" x="13.2" y="15.5" width="25.1" height="13.5">
						
							<feColorMatrix  type="matrix" values="-1 0 0 0 1  0 -1 0 0 1  0 0 -1 0 1  0 0 0 1 0" color-interpolation-filters="sRGB" result="source"/>
					</filter>
				</defs>
				
					<mask maskUnits="userSpaceOnUse" x="13.2" y="15.5" width="25.1" height="13.5" id="SVGID_00000008851153027892566460000004147796461959530427_">
					<g style="filter:url(#Adobe_OpacityMaskFilter_00000120530362805000963000000000095227371376317361_);">
						
							<image style="overflow:visible;" width="236" height="130" xlink:href="21DCF4A4.jpg"  transform="matrix(0.1082 0 0 0.1082 12.9642 15.2539)">
						</image>
					</g>
				</mask>
				<g style="opacity:0.5;mask:url(#SVGID_00000008851153027892566460000004147796461959530427_);">
					<g>
						<g>
							<path class="st33" d="M38.3,17.9c-1.3,6.4-7,11.1-13.7,11.1c-4.7,0-8.8-2.3-11.3-5.8c1,1.1,2.3,1.9,3.9,2.2
								c6.3,1.2,9.8-2.5,11.3-4.4c1.6-2,3.1-5.6,6.6-5.5C36.7,15.6,37.7,16.7,38.3,17.9z"/>
						</g>
					</g>
					<defs>
						
							<filter id="Adobe_OpacityMaskFilter_00000074419238570933970220000011275190212780473474_" filterUnits="userSpaceOnUse" x="13.2" y="15.5" width="25.1" height="13.5">
							
								<feColorMatrix  type="matrix" values="-1 0 0 0 1  0 -1 0 0 1  0 0 -1 0 1  0 0 0 1 0" color-interpolation-filters="sRGB" result="source"/>
						</filter>
					</defs>
					
						<mask maskUnits="userSpaceOnUse" x="13.2" y="15.5" width="25.1" height="13.5" id="SVGID_00000008851153027892566460000004147796461959530427_">
						<g style="filter:url(#Adobe_OpacityMaskFilter_00000074419238570933970220000011275190212780473474_);">
							
								<image style="overflow:visible;" width="236" height="130" xlink:href="21DCF4A7.jpg"  transform="matrix(0.1082 0 0 0.1082 12.9642 15.2539)">
							</image>
						</g>
					</mask>
					<g>
						<g>
							<path class="st33" d="M38.3,17.9c-1.3,6.4-7,11.1-13.7,11.1c-4.7,0-8.8-2.3-11.3-5.8c1,1.1,2.3,1.9,3.9,2.2
								c6.3,1.2,9.8-2.5,11.3-4.4c1.6-2,3.1-5.6,6.6-5.5C36.7,15.6,37.7,16.7,38.3,17.9z"/>
						</g>
					</g>
				</g>
			</g>
		</g>
		<g style="clip-path:url(#SVGID_00000061433869290006583670000011089310938595637138_);">
			<g>
				<defs>
					<path id="SVGID_00000125583104306908965120000010745153258281628061_" d="M38.3,17.9c-1.3,6.4-7,11.1-13.7,11.1
						c-4.7,0-8.8-2.3-11.3-5.8c1,1.1,2.3,1.9,3.9,2.2c6.3,1.2,9.8-2.5,11.3-4.4c1.6-2,3.1-5.6,6.6-5.5
						C36.7,15.6,37.7,16.7,38.3,17.9z"/>
				</defs>
				<clipPath id="SVGID_00000052071051443534599470000004566408093835354541_">
					<use xlink:href="#SVGID_00000125583104306908965120000010745153258281628061_"  style="overflow:visible;"/>
				</clipPath>
				<polygon style="clip-path:url(#SVGID_00000052071051443534599470000004566408093835354541_);fill:#5B24E7;" points="24.6,29 
					38.3,26.4 38.3,29 				"/>
				<polygon style="clip-path:url(#SVGID_00000052071051443534599470000004566408093835354541_);fill:#5B24E7;" points="14.1,29 
					13.2,24.4 13.2,23.1 38.3,18.4 38.3,26.4 24.6,29 				"/>
				<polygon style="clip-path:url(#SVGID_00000052071051443534599470000004566408093835354541_);fill:#5B24E7;" points="38,15.3 
					38.3,16.7 38.3,18.4 13.2,23.1 13.2,15.3 				"/>
			</g>
		</g>
		<g style="opacity:0.3;clip-path:url(#SVGID_00000061433869290006583670000011089310938595637138_);">
			<path class="st39" d="M38.3,17.9c-0.1-0.1-1.4-1.7-4.1-0.5c-3.2,1.3-3.4,6.2-8.5,8.3c-6,2.5-10.3-0.1-12-1.9
				c-0.2-0.2-0.3-0.4-0.5-0.6c1,1.1,2.3,1.9,3.9,2.2c6.3,1.2,9.8-2.5,11.3-4.4c1.6-2,3.1-5.6,6.6-5.5C36.7,15.6,37.7,16.7,38.3,17.9
				z"/>
		</g>
		<g style="opacity:0.3;clip-path:url(#SVGID_00000061433869290006583670000011089310938595637138_);">
			<path class="st40" d="M38.5,16.2c-0.6-5-4.3-5.6-6.4-5.2c-3.8,0.8-6.2,6-8.2,8.1s-3.8,3.4-7.9,3.3c-4.1-0.2-5.1-4.2-5.2-4.7
				c0,0,0,0,0,0c0.8,2,2.2,3.6,4.5,3.6c6.3,0,9.7-6.4,11.3-8.5c1.6-2.1,3.9-4,6.4-3.8C35.3,9.1,38.3,10.5,38.5,16.2z"/>
		</g>
		<g style="opacity:0.3;clip-path:url(#SVGID_00000061433869290006583670000011089310938595637138_);">
			<g>
				<g>
					<path class="st41" d="M36,6.9c-1.2-0.9-2.8-1.9-5.4-1.7c-4,0.3-7,4.7-9.8,8.7c-2.7,3.9-7.1,4.3-8.8,3c-1.9-1.4-1-5.6-1-5.7
						c0,0,0,0,0,0c-0.2,1.6,0,3,0.9,3.7c1.3,1,5.2,0.9,7.6-2.6c2.3-3.3,5.6-8.1,11.2-8.1C32.9,4.3,34.7,5.5,36,6.9
						C36,6.9,36,6.9,36,6.9z"/>
				</g>
			</g>
			<defs>
				
					<filter id="Adobe_OpacityMaskFilter_00000035514322500880919470000017833715081398604953_" filterUnits="userSpaceOnUse" x="10.8" y="4.3" width="25.2" height="13.4">
					
						<feColorMatrix  type="matrix" values="-1 0 0 0 1  0 -1 0 0 1  0 0 -1 0 1  0 0 0 1 0" color-interpolation-filters="sRGB" result="source"/>
				</filter>
			</defs>
			
				<mask maskUnits="userSpaceOnUse" x="10.8" y="4.3" width="25.2" height="13.4" id="SVGID_00000078731974744303119400000013181636130508180652_">
				<g style="filter:url(#Adobe_OpacityMaskFilter_00000035514322500880919470000017833715081398604953_);">
					
						<image style="overflow:visible;" width="238" height="129" xlink:href="21DCF4A2.jpg"  transform="matrix(0.1082 0 0 0.1082 10.5844 4.0041)">
					</image>
				</g>
			</mask>
			<g style="mask:url(#SVGID_00000078731974744303119400000013181636130508180652_);">
				<g>
					<path class="st18" d="M36,6.9c-1.2-0.9-2.8-1.9-5.4-1.7c-4,0.3-7,4.7-9.8,8.7c-2.7,3.9-7.1,4.3-8.8,3c-1.9-1.4-1-5.6-1-5.7
						c0,0,0,0,0,0c-0.2,1.6,0,3,0.9,3.7c1.3,1,5.2,0.9,7.6-2.6c2.3-3.3,5.6-8.1,11.2-8.1C32.9,4.3,34.7,5.5,36,6.9
						C36,6.9,36,6.9,36,6.9z"/>
				</g>
			</g>
		</g>
		<g style="opacity:0.3;clip-path:url(#SVGID_00000061433869290006583670000011089310938595637138_);">
			<path class="st41" d="M31.9,3c-2.5-0.7-5-0.9-6.7-0.3c-4.1,1.4-5.9,4.6-8,7.3c-1.6,2.1-4,1.8-4.7,0.3c-0.4-0.7-0.2-1.8,0.3-3
				c0,0,0,0,0,0c-0.2,1-0.1,1.8,0.5,2.3c1.3,1,2.6-0.2,3.6-1.6c1-1.4,2.7-4,6.1-5.4c2.3-0.9,5.6-1,8.7,0.3C31.8,3,31.8,3,31.9,3z"/>
		</g>
		<g style="opacity:0.5;clip-path:url(#SVGID_00000061433869290006583670000011089310938595637138_);">
			<ellipse transform="matrix(0.5987 -0.8009 0.8009 0.5987 0.6396 15.0179)" class="st45" cx="15.3" cy="6.9" rx="1.6" ry="0.8"/>
		</g>
		<g style="opacity:0.7;clip-path:url(#SVGID_00000061433869290006583670000011089310938595637138_);">
			
				<ellipse transform="matrix(0.5987 -0.8009 0.8009 0.5987 -2.6109 35.0733)" class="st47" cx="33.7" cy="20.1" rx="2.3" ry="1.1"/>
		</g>
		<g style="opacity:0.7;clip-path:url(#SVGID_00000061433869290006583670000011089310938595637138_);">
			<ellipse transform="matrix(0.5987 -0.8009 0.8009 0.5987 -6.3532 34.2003)" class="st47" cx="31" cy="23.4" rx="0.8" ry="0.5"/>
		</g>
		<g style="opacity:0.6;clip-path:url(#SVGID_00000061433869290006583670000011089310938595637138_);">
			
				<image style="overflow:visible;" width="222" height="258" xlink:href="21DCF4A5.png"  transform="matrix(0.1082 0 0 0.1082 7.4474 -1.9454)">
			</image>
		</g>
		<g style="display:none;opacity:0.8;clip-path:url(#SVGID_00000061433869290006583670000011089310938595637138_);">
			
				<image style="display:inline;overflow:visible;" width="233" height="192" xlink:href="21DCF4AB.png"  transform="matrix(0.1082 0 0 0.1082 17.2911 12.2251)">
			</image>
		</g>
		<g style="opacity:0.6;clip-path:url(#SVGID_00000061433869290006583670000011089310938595637138_);">
			
				<image style="overflow:visible;" width="203" height="220" xlink:href="21DCF4C0.png"  transform="matrix(0.1082 0 0 0.1082 22.3751 10.6026)">
			</image>
		</g>
	</g>
</g>
</svg>
