<?xml version="1.0" encoding="utf-8"?>
<!-- Generator: Adobe Illustrator 27.0.0, SVG Export Plug-In . SVG Version: 6.00 Build 0)  -->
<svg version="1.1" id="레이어_1" xmlns="http://www.w3.org/2000/svg" xmlns:xlink="http://www.w3.org/1999/xlink" x="0px"
	 y="0px" viewBox="0 0 416.1 90.2" style="enable-background:new 0 0 416.1 90.2;" xml:space="preserve">
<style type="text/css">
	.st0{fill:#FFFFFF;}
</style>
<path class="st0" d="M0.6,59.6V1.4h24.3c4.4,0,8,0.6,10.9,1.8c3,1.2,5.2,3,6.6,5.2c1.5,2.2,2.2,4.8,2.2,7.7c0,2.2-0.5,4.2-1.4,5.9
	c-0.9,1.7-2.2,3.2-3.8,4.3c-1.6,1.1-3.5,1.9-5.7,2.4v0.6c2.3,0.1,4.5,0.7,6.5,1.9c2,1.2,3.6,2.8,4.8,4.8c1.2,2,1.8,4.5,1.8,7.3
	c0,3.1-0.8,5.9-2.4,8.4c-1.6,2.4-3.9,4.4-6.9,5.8c-3,1.4-6.7,2.1-11,2.1H0.6z M14.7,48.2h8.7c3,0,5.3-0.6,6.7-1.7
	c1.5-1.2,2.2-2.8,2.2-4.8c0-1.5-0.4-2.8-1.1-3.9c-0.7-1.1-1.7-1.9-3-2.5c-1.3-0.6-2.8-0.9-4.6-0.9h-8.9V48.2z M14.7,25.3h7.8
	c1.5,0,2.9-0.3,4.1-0.8c1.2-0.5,2.1-1.2,2.8-2.2c0.7-1,1-2.1,1-3.5c0-1.9-0.7-3.5-2.1-4.6c-1.4-1.1-3.2-1.7-5.6-1.7h-8V25.3z
	 M108.7,30.5c0,6.4-1.2,11.8-3.7,16.3c-2.5,4.5-5.8,7.8-10,10.1c-4.2,2.3-8.9,3.5-14.1,3.5c-5.2,0-9.9-1.2-14.1-3.5
	c-4.2-2.3-7.5-5.7-10-10.1c-2.4-4.5-3.7-9.9-3.7-16.2c0-6.4,1.2-11.8,3.7-16.3c2.5-4.5,5.8-7.8,10-10.1c4.2-2.3,8.9-3.5,14.1-3.5
	c5.2,0,9.9,1.2,14.1,3.5c4.2,2.3,7.5,5.7,10,10.1C107.5,18.6,108.7,24.1,108.7,30.5z M94.3,30.5c0-3.8-0.5-7-1.6-9.6
	c-1.1-2.6-2.6-4.6-4.6-5.9c-2-1.3-4.4-2-7.2-2c-2.8,0-5.2,0.7-7.2,2c-2,1.3-3.6,3.3-4.6,5.9c-1.1,2.6-1.6,5.8-1.6,9.6
	c0,3.8,0.5,7,1.6,9.6c1.1,2.6,2.6,4.6,4.6,5.9c2,1.3,4.4,2,7.2,2c2.8,0,5.2-0.7,7.2-2c2-1.3,3.5-3.3,4.6-5.9
	C93.8,37.5,94.3,34.2,94.3,30.5z M126,59.6h-15.1l19.6-58.2h18.7l19.6,58.2h-15.1L140.1,16h-0.5L126,59.6z M124,36.7h31.6v10.7H124
	V36.7z M210.1,15.9c-0.3-3.2-1.8-5.8-4.3-7.7c-2.5-1.9-5.7-2.9-9.6-2.9c-2.7,0-5.1,0.5-7.2,1.4c-2,0.9-3.7,2.2-4.8,3.9
	c-1.2,1.6-1.7,3.5-1.7,5.6c0,1.5,0.3,2.9,1,4c0.7,1.2,1.6,2.1,2.7,3c1.1,0.8,2.4,1.5,3.8,2.1c1.4,0.6,2.8,1.1,4.2,1.5l6.1,1.8
	c1.9,0.5,3.7,1.2,5.6,2c1.9,0.8,3.6,1.8,5.1,3c1.6,1.2,2.8,2.7,3.7,4.4c0.9,1.7,1.4,3.8,1.4,6.2c0,3.1-0.8,5.9-2.4,8.4
	c-1.6,2.5-3.9,4.5-6.9,5.9c-3,1.4-6.6,2.2-10.8,2.2c-4,0-7.4-0.7-10.3-2c-2.9-1.3-5.2-3.2-6.9-5.5c-1.7-2.3-2.6-5-2.8-8.1h5.5
	c0.2,2.3,0.9,4.2,2.3,5.8c1.3,1.6,3,2.8,5.2,3.6c2.1,0.8,4.5,1.2,7.1,1.2c2.9,0,5.5-0.5,7.7-1.4c2.3-1,4.1-2.3,5.3-4.1
	c1.3-1.8,2-3.8,2-6.1c0-2-0.5-3.6-1.5-4.9c-1-1.3-2.5-2.5-4.3-3.4c-1.8-0.9-3.9-1.7-6.3-2.4l-7-2c-4.6-1.4-8.1-3.2-10.6-5.7
	c-2.5-2.4-3.8-5.5-3.8-9.2c0-3.1,0.8-5.9,2.5-8.2c1.7-2.4,4-4.2,6.8-5.6c2.9-1.3,6.1-2,9.7-2c3.6,0,6.8,0.7,9.6,2s5,3.2,6.6,5.5
	c1.6,2.3,2.5,4.9,2.6,7.9H210.1z M228.8,59.6V1.4h18.8c4.1,0,7.6,0.8,10.3,2.4c2.8,1.6,4.9,3.7,6.3,6.4c1.4,2.7,2.1,5.8,2.1,9.1
	s-0.7,6.4-2.1,9.2c-1.4,2.7-3.5,4.9-6.2,6.4c-2.8,1.6-6.2,2.4-10.3,2.4h-14.8v-4.8h14.6c3,0,5.6-0.6,7.6-1.7c2-1.2,3.5-2.7,4.5-4.7
	c1-2,1.5-4.3,1.5-6.8c0-2.5-0.5-4.8-1.5-6.8c-1-2-2.5-3.6-4.5-4.7c-2-1.1-4.6-1.7-7.6-1.7h-13.3v53.4H228.8z M273,59.6h-5.6
	l21.2-58.2h5.7l21.2,58.2h-5.6L291.6,8.3h-0.4L273,59.6z M277,37.3h28.9V42H277V37.3z M368.2,19.6h-5.3c-0.4-2-1.1-3.8-2.2-5.5
	c-1-1.7-2.3-3.2-3.9-4.5c-1.6-1.3-3.3-2.3-5.3-3c-2-0.7-4.1-1.1-6.4-1.1c-3.7,0-7,1-10.1,2.9c-3,1.9-5.4,4.7-7.2,8.4
	c-1.8,3.7-2.7,8.2-2.7,13.6c0,5.4,0.9,9.9,2.7,13.6c1.8,3.7,4.2,6.5,7.2,8.4c3,1.9,6.4,2.8,10.1,2.8c2.3,0,4.4-0.4,6.4-1.1
	c2-0.7,3.7-1.7,5.3-2.9c1.6-1.3,2.8-2.8,3.9-4.5c1-1.7,1.8-3.6,2.2-5.5h5.3c-0.5,2.7-1.4,5.2-2.7,7.5c-1.3,2.3-2.9,4.3-4.9,6
	c-2,1.7-4.3,3.1-6.9,4c-2.6,1-5.4,1.4-8.6,1.4c-4.9,0-9.2-1.2-13-3.7c-3.8-2.5-6.8-5.9-8.9-10.4c-2.1-4.5-3.2-9.7-3.2-15.8
	c0-6.1,1.1-11.4,3.2-15.8c2.2-4.5,5.1-7.9,8.9-10.4c3.8-2.5,8.1-3.7,13-3.7c3.1,0,6,0.5,8.6,1.4c2.6,0.9,4.9,2.3,6.9,4
	c2,1.7,3.7,3.7,4.9,6C366.8,14.4,367.7,16.9,368.2,19.6z M380.7,59.6V1.4h33.7v4.8H386V28h26.6v4.8H386v22h29v4.8H380.7z"/>
<path class="st0" d="M0.9,86.6v-8h2.9c0.6,0,1,0.1,1.4,0.3c0.4,0.2,0.7,0.4,0.8,0.8c0.2,0.3,0.3,0.7,0.3,1.1c0,0.3-0.1,0.6-0.2,0.8
	C6,81.7,5.9,81.9,5.7,82c-0.2,0.1-0.4,0.2-0.7,0.3v0.1c0.3,0,0.5,0.1,0.8,0.3c0.3,0.2,0.5,0.4,0.6,0.7c0.2,0.3,0.2,0.6,0.2,1.1
	c0,0.4-0.1,0.8-0.3,1.1c-0.2,0.3-0.5,0.6-0.9,0.8c-0.4,0.2-0.9,0.3-1.5,0.3H0.9z M2.1,85.5h1.7c0.6,0,1-0.1,1.2-0.3s0.4-0.5,0.4-0.8
	c0-0.3-0.1-0.5-0.2-0.7c-0.1-0.2-0.3-0.4-0.5-0.5C4.5,83,4.2,83,3.9,83H2.1V85.5z M2.1,82h1.6C4,82,4.2,82,4.5,81.9
	c0.2-0.1,0.4-0.2,0.5-0.4c0.1-0.2,0.2-0.4,0.2-0.7c0-0.3-0.1-0.6-0.3-0.8c-0.2-0.2-0.6-0.3-1.1-0.3H2.1V82z M25.5,82.6
	c0,0.9-0.2,1.6-0.5,2.2c-0.3,0.6-0.7,1.1-1.3,1.4c-0.5,0.3-1.2,0.5-1.8,0.5c-0.7,0-1.3-0.2-1.9-0.5c-0.5-0.3-1-0.8-1.3-1.4
	c-0.3-0.6-0.5-1.3-0.5-2.2c0-0.9,0.2-1.6,0.5-2.2c0.3-0.6,0.7-1.1,1.3-1.4c0.5-0.3,1.2-0.5,1.9-0.5c0.7,0,1.3,0.2,1.8,0.5
	c0.5,0.3,1,0.8,1.3,1.4C25.3,81,25.5,81.7,25.5,82.6z M24.3,82.6c0-0.7-0.1-1.2-0.3-1.6c-0.2-0.4-0.5-0.8-0.9-1
	c-0.4-0.2-0.8-0.3-1.2-0.3c-0.5,0-0.9,0.1-1.2,0.3c-0.4,0.2-0.6,0.6-0.9,1c-0.2,0.4-0.3,1-0.3,1.6s0.1,1.2,0.3,1.6
	c0.2,0.4,0.5,0.8,0.9,1c0.4,0.2,0.8,0.3,1.2,0.3c0.5,0,0.9-0.1,1.2-0.3c0.4-0.2,0.7-0.6,0.9-1C24.2,83.8,24.3,83.2,24.3,82.6z
	 M41.8,80.7c0-0.4-0.2-0.7-0.5-0.9c-0.3-0.2-0.7-0.3-1.1-0.3c-0.3,0-0.6,0.1-0.9,0.2c-0.2,0.1-0.4,0.2-0.6,0.4
	c-0.1,0.2-0.2,0.4-0.2,0.6c0,0.2,0,0.4,0.1,0.5c0.1,0.1,0.2,0.3,0.4,0.3c0.1,0.1,0.3,0.2,0.5,0.2c0.2,0.1,0.3,0.1,0.5,0.1l0.8,0.2
	c0.3,0.1,0.5,0.1,0.8,0.3c0.3,0.1,0.5,0.2,0.7,0.4c0.2,0.2,0.4,0.4,0.6,0.6c0.1,0.3,0.2,0.6,0.2,0.9c0,0.5-0.1,0.9-0.4,1.2
	c-0.2,0.4-0.6,0.6-1,0.8c-0.4,0.2-1,0.3-1.6,0.3c-0.6,0-1.1-0.1-1.6-0.3c-0.4-0.2-0.8-0.5-1-0.8c-0.2-0.4-0.4-0.8-0.4-1.2h1.2
	c0,0.3,0.1,0.5,0.3,0.7c0.2,0.2,0.4,0.3,0.6,0.4c0.3,0.1,0.5,0.1,0.9,0.1c0.3,0,0.6-0.1,0.9-0.2c0.3-0.1,0.5-0.3,0.6-0.5
	c0.2-0.2,0.2-0.4,0.2-0.7c0-0.2-0.1-0.4-0.2-0.6c-0.1-0.2-0.3-0.3-0.5-0.4c-0.2-0.1-0.5-0.2-0.8-0.3l-0.9-0.3
	c-0.6-0.2-1.1-0.4-1.5-0.8c-0.4-0.3-0.6-0.8-0.6-1.3c0-0.5,0.1-0.9,0.4-1.2c0.2-0.3,0.6-0.6,1-0.8c0.4-0.2,0.9-0.3,1.4-0.3
	c0.5,0,1,0.1,1.4,0.3c0.4,0.2,0.7,0.5,1,0.8c0.2,0.3,0.4,0.7,0.4,1.1H41.8z M56.6,86.7c-0.4,0-0.7-0.1-1-0.2
	c-0.3-0.1-0.6-0.4-0.7-0.6c-0.2-0.3-0.3-0.6-0.3-1c0-0.3,0.1-0.6,0.2-0.8c0.1-0.2,0.3-0.4,0.5-0.5c0.2-0.1,0.5-0.2,0.7-0.3
	c0.3-0.1,0.6-0.1,0.8-0.1c0.4,0,0.7-0.1,0.9-0.1c0.2,0,0.4-0.1,0.5-0.1c0.1-0.1,0.2-0.2,0.2-0.3v0c0-0.3-0.1-0.6-0.3-0.8
	c-0.2-0.2-0.5-0.3-0.9-0.3c-0.4,0-0.7,0.1-0.9,0.3c-0.2,0.2-0.4,0.4-0.5,0.6L54.8,82c0.1-0.4,0.3-0.7,0.6-0.9
	c0.3-0.2,0.5-0.4,0.9-0.5c0.3-0.1,0.7-0.2,1-0.2c0.2,0,0.5,0,0.8,0.1c0.3,0.1,0.5,0.2,0.8,0.3c0.2,0.1,0.4,0.4,0.6,0.6
	c0.2,0.3,0.2,0.6,0.2,1.1v4h-1.1v-0.8h0c-0.1,0.2-0.2,0.3-0.3,0.4s-0.3,0.3-0.6,0.4C57.2,86.6,57,86.7,56.6,86.7z M56.9,85.7
	c0.3,0,0.6-0.1,0.8-0.2c0.2-0.1,0.4-0.3,0.5-0.5c0.1-0.2,0.2-0.4,0.2-0.7v-0.8c0,0-0.1,0.1-0.2,0.1c-0.1,0-0.3,0.1-0.4,0.1
	c-0.2,0-0.3,0-0.4,0.1c-0.1,0-0.3,0-0.4,0c-0.2,0-0.4,0.1-0.6,0.1c-0.2,0.1-0.3,0.2-0.4,0.3c-0.1,0.1-0.2,0.3-0.2,0.5
	c0,0.3,0.1,0.5,0.3,0.7C56.3,85.7,56.6,85.7,56.9,85.7z M74.1,88.9c-0.5,0-0.9-0.1-1.2-0.2c-0.3-0.1-0.6-0.3-0.8-0.5
	c-0.2-0.2-0.4-0.4-0.5-0.7l1-0.4c0.1,0.1,0.2,0.2,0.3,0.4c0.1,0.1,0.3,0.2,0.5,0.3c0.2,0.1,0.5,0.1,0.8,0.1c0.4,0,0.8-0.1,1.1-0.3
	c0.3-0.2,0.4-0.6,0.4-1v-1.2h-0.1c-0.1,0.1-0.2,0.3-0.3,0.4c-0.1,0.2-0.3,0.3-0.5,0.4c-0.2,0.1-0.5,0.2-0.9,0.2
	c-0.5,0-0.9-0.1-1.3-0.3c-0.4-0.2-0.7-0.6-0.9-1c-0.2-0.4-0.3-1-0.3-1.6s0.1-1.2,0.3-1.6c0.2-0.5,0.5-0.8,0.9-1
	c0.4-0.2,0.8-0.4,1.3-0.4c0.4,0,0.7,0.1,0.9,0.2c0.2,0.1,0.4,0.3,0.5,0.4c0.1,0.2,0.2,0.3,0.3,0.4h0.1v-1h1.1v6.1
	c0,0.5-0.1,0.9-0.4,1.3c-0.2,0.3-0.6,0.6-1,0.7C75.1,88.8,74.6,88.9,74.1,88.9z M74.1,85.5c0.3,0,0.6-0.1,0.9-0.2
	c0.2-0.2,0.4-0.4,0.5-0.7c0.1-0.3,0.2-0.7,0.2-1.1c0-0.4-0.1-0.8-0.2-1.1c-0.1-0.3-0.3-0.5-0.5-0.7c-0.2-0.2-0.5-0.3-0.9-0.3
	c-0.4,0-0.6,0.1-0.9,0.3c-0.2,0.2-0.4,0.4-0.5,0.7c-0.1,0.3-0.2,0.7-0.2,1c0,0.4,0.1,0.7,0.2,1c0.1,0.3,0.3,0.5,0.5,0.7
	C73.5,85.4,73.8,85.5,74.1,85.5z M91.4,86.7c-0.6,0-1.1-0.1-1.5-0.4c-0.4-0.3-0.7-0.6-1-1.1c-0.2-0.5-0.3-1-0.3-1.6
	c0-0.6,0.1-1.2,0.3-1.6c0.2-0.5,0.6-0.8,1-1.1c0.4-0.3,0.9-0.4,1.5-0.4c0.6,0,1.1,0.1,1.5,0.4c0.4,0.3,0.7,0.6,1,1.1
	c0.2,0.5,0.3,1,0.3,1.6c0,0.6-0.1,1.2-0.3,1.6c-0.2,0.5-0.6,0.8-1,1.1C92.4,86.5,91.9,86.7,91.4,86.7z M91.4,85.7
	c0.4,0,0.7-0.1,0.9-0.3c0.2-0.2,0.4-0.4,0.5-0.8c0.1-0.3,0.2-0.7,0.2-1.1c0-0.4-0.1-0.7-0.2-1.1c-0.1-0.3-0.3-0.6-0.5-0.8
	c-0.2-0.2-0.5-0.3-0.9-0.3c-0.4,0-0.7,0.1-0.9,0.3c-0.2,0.2-0.4,0.5-0.5,0.8c-0.1,0.3-0.2,0.7-0.2,1.1c0,0.4,0.1,0.7,0.2,1.1
	c0.1,0.3,0.3,0.6,0.5,0.8C90.7,85.6,91,85.7,91.4,85.7z M105.9,86.6v-6h1.1v1h0.1c0.1-0.3,0.3-0.6,0.6-0.8c0.3-0.2,0.6-0.3,0.9-0.3
	c0.1,0,0.2,0,0.3,0c0.1,0,0.2,0,0.2,0v1.1c0,0-0.1,0-0.2,0c-0.1,0-0.2,0-0.4,0c-0.3,0-0.5,0.1-0.7,0.2c-0.2,0.1-0.4,0.3-0.5,0.5
	c-0.1,0.2-0.2,0.4-0.2,0.7v3.7H105.9z M122.3,86.7c-0.4,0-0.7-0.1-1-0.2c-0.3-0.1-0.6-0.4-0.7-0.6c-0.2-0.3-0.3-0.6-0.3-1
	c0-0.3,0.1-0.6,0.2-0.8c0.1-0.2,0.3-0.4,0.5-0.5c0.2-0.1,0.5-0.2,0.7-0.3c0.3-0.1,0.6-0.1,0.8-0.1c0.4,0,0.7-0.1,0.9-0.1
	c0.2,0,0.4-0.1,0.5-0.1c0.1-0.1,0.2-0.2,0.2-0.3v0c0-0.3-0.1-0.6-0.3-0.8c-0.2-0.2-0.5-0.3-0.9-0.3c-0.4,0-0.7,0.1-0.9,0.3
	c-0.2,0.2-0.4,0.4-0.5,0.6l-1.1-0.2c0.1-0.4,0.3-0.7,0.6-0.9c0.3-0.2,0.5-0.4,0.9-0.5c0.3-0.1,0.7-0.2,1-0.2c0.2,0,0.5,0,0.8,0.1
	c0.3,0.1,0.5,0.2,0.8,0.3c0.2,0.1,0.4,0.4,0.6,0.6c0.2,0.3,0.2,0.6,0.2,1.1v4h-1.1v-0.8h0c-0.1,0.2-0.2,0.3-0.3,0.4
	s-0.3,0.3-0.6,0.4C122.9,86.6,122.6,86.7,122.3,86.7z M122.5,85.7c0.3,0,0.6-0.1,0.8-0.2c0.2-0.1,0.4-0.3,0.5-0.5
	c0.1-0.2,0.2-0.4,0.2-0.7v-0.8c0,0-0.1,0.1-0.2,0.1c-0.1,0-0.3,0.1-0.4,0.1c-0.2,0-0.3,0-0.4,0.1c-0.1,0-0.3,0-0.4,0
	c-0.2,0-0.4,0.1-0.6,0.1c-0.2,0.1-0.3,0.2-0.4,0.3c-0.1,0.1-0.2,0.3-0.2,0.5c0,0.3,0.1,0.5,0.3,0.7
	C121.9,85.7,122.2,85.7,122.5,85.7z M157.2,78.6v8h-1.1l-4.1-5.9h-0.1v5.9h-1.2v-8h1.1l4.1,5.9h0.1v-5.9H157.2z M169.4,86.6v-8h5v1
	h-3.8V82h3.4v1h-3.4v3.5H169.4z M185.9,79.6v-1h6.2v1h-2.5v7h-1.2v-7H185.9z M217.2,78.6h1.5l2.5,6.2h0.1l2.5-6.2h1.5v8h-1.1v-5.8
	h-0.1l-2.4,5.8h-1l-2.4-5.8h-0.1v5.8h-1.1V78.6z M238.2,86.6H237l2.9-8h1.4l2.9,8h-1.3l-2.3-6.5h-0.1L238.2,86.6z M238.5,83.4h4.2v1
	h-4.2V83.4z M255.7,86.6v-8h2.9c0.6,0,1.1,0.1,1.5,0.3c0.4,0.2,0.7,0.5,0.9,0.9c0.2,0.4,0.3,0.8,0.3,1.3c0,0.5-0.1,0.9-0.3,1.3
	c-0.2,0.4-0.5,0.7-0.9,0.9c-0.4,0.2-0.9,0.3-1.5,0.3h-2.2v-1h2c0.4,0,0.7-0.1,1-0.2c0.2-0.1,0.4-0.3,0.5-0.5
	c0.1-0.2,0.2-0.5,0.2-0.8c0-0.3-0.1-0.6-0.2-0.8c-0.1-0.2-0.3-0.4-0.5-0.5c-0.2-0.1-0.6-0.2-1-0.2h-1.5v7H255.7z M259.7,82.9l2,3.6
	h-1.4l-1.9-3.6H259.7z M273.3,86.6v-8h1.2v3.8h0.1l3.4-3.8h1.5l-3.2,3.6l3.2,4.4H278l-2.6-3.6l-0.9,1.1v2.5H273.3z M291,86.6v-8h5v1
	h-3.8V82h3.5v1h-3.5v2.4h3.9v1H291z M307.7,79.6v-1h6.2v1h-2.5v7h-1.2v-7H307.7z M339.1,86.6v-8h2.9c0.6,0,1.1,0.1,1.5,0.3
	c0.4,0.2,0.7,0.5,0.9,0.9c0.2,0.4,0.3,0.8,0.3,1.3c0,0.5-0.1,0.9-0.3,1.3c-0.2,0.4-0.5,0.7-0.9,0.9c-0.4,0.2-0.9,0.3-1.5,0.3h-2v-1
	h1.9c0.4,0,0.7-0.1,1-0.2c0.2-0.1,0.4-0.3,0.5-0.6c0.1-0.2,0.2-0.5,0.2-0.8s-0.1-0.6-0.2-0.8c-0.1-0.2-0.3-0.4-0.5-0.6
	c-0.2-0.1-0.6-0.2-1-0.2h-1.5v7H339.1z M356.6,86.6v-8h1.2v7h3.6v1H356.6z M374.3,86.6H373l2.9-8h1.4l2.9,8h-1.3l-2.3-6.5h-0.1
	L374.3,86.6z M374.5,83.4h4.2v1h-4.2V83.4z M398,81.2h-1.2c0-0.3-0.1-0.5-0.3-0.7c-0.1-0.2-0.3-0.4-0.5-0.5s-0.4-0.2-0.6-0.3
	c-0.2-0.1-0.5-0.1-0.7-0.1c-0.5,0-0.9,0.1-1.2,0.3c-0.4,0.2-0.6,0.6-0.9,1c-0.2,0.4-0.3,1-0.3,1.6c0,0.7,0.1,1.2,0.3,1.6
	c0.2,0.4,0.5,0.8,0.9,1c0.4,0.2,0.8,0.3,1.2,0.3c0.3,0,0.5,0,0.7-0.1c0.2-0.1,0.4-0.2,0.6-0.3c0.2-0.1,0.3-0.3,0.5-0.5
	c0.1-0.2,0.2-0.4,0.3-0.7l1.2,0c-0.1,0.4-0.2,0.8-0.4,1.1c-0.2,0.3-0.4,0.6-0.7,0.9c-0.3,0.2-0.6,0.4-1,0.6
	c-0.4,0.1-0.8,0.2-1.2,0.2c-0.7,0-1.3-0.2-1.9-0.5c-0.5-0.3-1-0.8-1.3-1.4c-0.3-0.6-0.5-1.3-0.5-2.2c0-0.9,0.2-1.6,0.5-2.2
	c0.3-0.6,0.7-1.1,1.3-1.4c0.5-0.3,1.2-0.5,1.8-0.5c0.4,0,0.8,0.1,1.2,0.2c0.4,0.1,0.7,0.3,1,0.5c0.3,0.2,0.5,0.5,0.7,0.9
	C397.8,80.3,398,80.7,398,81.2z M409.9,86.6v-8h5v1h-3.8V82h3.5v1h-3.5v2.4h3.9v1H409.9z"/>
</svg>
