<?xml version="1.0" encoding="UTF-8"?>
<svg xmlns="http://www.w3.org/2000/svg" xmlns:xlink="http://www.w3.org/1999/xlink" viewBox="0 0 90 90.07">
  <defs>
    <style>
      .cls-1 {
        fill: none;
      }

      .cls-2 {
        clip-path: url(#clippath);
      }

      .cls-3 {
        fill: #00adf8;
      }

      .cls-4 {
        fill: #00a6f8;
      }

      .cls-5 {
        fill: #f5f6f7;
      }

      .cls-6 {
        fill: #fff;
      }

      .cls-7 {
        fill: #ff9e50;
      }

      .cls-8 {
        fill: #fe4041;
      }

      .cls-9 {
        fill: #ffd06f;
      }

      .cls-10 {
        fill: #e5e5e5;
      }

      .cls-11 {
        fill: #009bf7;
      }

      .cls-12 {
        fill: #9290a0;
      }

      .cls-13 {
        fill: #86e6ff;
      }

      .cls-14 {
        fill: #83e5ff;
      }

      .cls-15 {
        fill: #323266;
      }

      .cls-16 {
        fill: #323165;
      }

      .cls-17 {
        fill: #323367;
      }

      .cls-18 {
        fill: #333468;
      }

      .cls-19 {
        fill: #302d62;
      }

      .cls-20 {
        fill: #333569;
      }

      .cls-21 {
        fill: #c7d1ea;
      }

      .cls-22 {
        fill: #151148;
      }

      .cls-23 {
        fill: #141147;
      }

      .cls-24 {
        fill: #121147;
      }

      .cls-25 {
        fill: #131147;
      }

      .cls-26 {
        fill: #17284f;
      }

      .cls-27 {
        fill: #191249;
      }

      .cls-28 {
        fill: #181148;
      }

      .cls-29 {
        fill: #171148;
      }

      .cls-30 {
        fill: #25124c;
      }

      .cls-31 {
        fill: #24124b;
      }

      .cls-32 {
        fill: #1f124a;
      }

      .cls-33 {
        fill: #1e124a;
      }

      .cls-34 {
        fill: #23124b;
      }

      .cls-35 {
        fill: #22124b;
      }

      .cls-36 {
        fill: #21124b;
      }

      .cls-37 {
        fill: #0d1146;
      }

      .cls-38 {
        fill: #0b1145;
      }

      .cls-39 {
        fill: #0c1145;
      }

      .cls-40 {
        fill: #161148;
      }

      .cls-41 {
        fill: #111147;
      }

      .cls-42 {
        fill: #101146;
      }

      .cls-43 {
        fill: #1d124a;
      }

      .cls-44 {
        fill: #0f1146;
      }

      .cls-45 {
        fill: #1c124a;
      }

      .cls-46 {
        fill: #363b6e;
      }

      .cls-47 {
        fill: #363c6f;
      }

      .cls-48 {
        fill: #363d70;
      }

      .cls-49 {
        fill: #374071;
      }

      .cls-50 {
        fill: #373f70;
      }

      .cls-51 {
        fill: #1a1249;
      }

      .cls-52 {
        fill: #0a1145;
      }

      .cls-53 {
        fill: #3e507f;
      }

      .cls-54 {
        fill: #3e5180;
      }

      .cls-55 {
        fill: #3f5381;
      }

      .cls-56 {
        fill: #3f5482;
      }

      .cls-57 {
        fill: #3d4e7d;
      }

      .cls-58 {
        fill: #3d4f7e;
      }

      .cls-59 {
        fill: #0e1146;
      }

      .cls-60 {
        fill: #1b1249;
      }

      .cls-61 {
        fill: #281750;
      }

      .cls-62 {
        fill: #281650;
      }

      .cls-63 {
        fill: #281851;
      }

      .cls-64 {
        fill: #2b1f57;
      }

      .cls-65 {
        fill: #2b1f56;
      }

      .cls-66 {
        fill: #2a1e56;
      }

      .cls-67 {
        fill: #2a1c54;
      }

      .cls-68 {
        fill: #2a1d55;
      }

      .cls-69 {
        fill: #2c2159;
      }

      .cls-70 {
        fill: #2c2259;
      }

      .cls-71 {
        fill: #2b2058;
      }

      .cls-72 {
        fill: #291952;
      }

      .cls-73 {
        fill: #291951;
      }

      .cls-74 {
        fill: #291a53;
      }

      .cls-75 {
        fill: #291b53;
      }

      .cls-76 {
        fill: #2d235a;
      }

      .cls-77 {
        fill: #2d255c;
      }

      .cls-78 {
        fill: #2d245b;
      }

      .cls-79 {
        fill: #394374;
      }

      .cls-80 {
        fill: #302c62;
      }

      .cls-81 {
        fill: #302b61;
      }

      .cls-82 {
        fill: #3c4c7c;
      }

      .cls-83 {
        fill: #3ad0f9;
      }

      .cls-84 {
        fill: #384172;
      }

      .cls-85 {
        fill: #3b4879;
      }

      .cls-86 {
        fill: #2ed4ff;
      }

      .cls-87 {
        fill: #313064;
      }

      .cls-88 {
        fill: #384273;
      }

      .cls-89 {
        fill: #3a4778;
      }

      .cls-90 {
        fill: #3b4a7a;
      }

      .cls-91 {
        fill: #3a4676;
      }

      .cls-92 {
        fill: #34366a;
      }

      .cls-93 {
        fill: #35396c;
      }

      .cls-94 {
        fill: #353a6d;
      }

      .cls-95 {
        fill: #394575;
      }

      .cls-96 {
        fill: #3c4b7b;
      }

      .cls-97 {
        fill: #2e265d;
      }

      .cls-98 {
        fill: #2e275d;
      }

      .cls-99 {
        fill: #2e285e;
      }

      .cls-100 {
        fill: #2f2a60;
      }

      .cls-101 {
        fill: #2f295f;
      }

      .cls-102 {
        fill: #312f63;
      }

      .cls-103 {
        fill: #26134d;
      }

      .cls-104 {
        fill: #26124c;
      }

      .cls-105 {
        fill: #27164f;
      }

      .cls-106 {
        fill: #27154e;
      }

      .cls-107 {
        fill: #34386b;
      }

      .cls-108 {
        fill: #27144d;
      }

      .cls-109 {
        fill: #27144e;
      }

      .cls-110 {
        clip-path: url(#clippath-1);
      }

      .cls-111 {
        isolation: isolate;
      }

      .cls-112 {
        mix-blend-mode: multiply;
        opacity: .6;
      }
    </style>
    <clipPath id="clippath">
      <circle class="cls-1" cx="4.32" cy="30.85" r="2.16"/>
    </clipPath>
    <clipPath id="clippath-1">
      <circle class="cls-1" cx="80.14" cy="66.74" r="3.27"/>
    </clipPath>
  </defs>
  <g class="cls-111">
    <g id="Layer_2" data-name="Layer 2">
      <g id="Layer_1-2" data-name="Layer 1">
        <g>
          <g>
            <path class="cls-6" d="M25.66,80.22c8.91-8.91,9.43-19.65,6.6-22.47-2.81-2.81-13.57-2.31-22.47,6.6C.88,73.25,0,90,0,90c0,0,16.75-.88,25.66-9.78Z"/>
            <path class="cls-8" d="M23.96,79.33c7.46-7.46,7.89-16.45,5.53-18.81-2.35-2.35-11.36-1.93-18.81,5.53-7.46,7.46-8.19,21.48-8.19,21.48,0,0,14.02-.73,21.48-8.19Z"/>
            <path class="cls-7" d="M22.64,76.81c5.7-5.7,7.04-13.15,5.35-14.84-1.68-1.68-9.14-.35-14.84,5.35s-6.59,16.09-6.59,16.09c0,0,10.39-.89,16.09-6.59Z"/>
            <path class="cls-9" d="M22.49,71.81c3.74-3.74,5.23-8.03,4.46-8.8s-5.05,.72-8.8,4.46c-3.74,3.74-5.28,9.62-5.28,9.62,0,0,5.87-1.54,9.62-5.28Z"/>
          </g>
          <path class="cls-13" d="M88.32,1.68c-5.49,1.15-11.73,4.23-16.55,7.01l-4.68-4.68c12.75-5.47,21.23-2.33,21.23-2.33Z"/>
          <path class="cls-5" d="M66.37,47.97c-13.22,12.4-10.34,20.76-9.6,22.91,.55,1.64,.46,3.8-.76,5.02l-3.38,3.38c-1.22,1.22-3.22,1.22-4.45,0L10.74,41.82c-1.23-1.23-1.23-3.23,0-4.45l3.38-3.38c1.22-1.22,3.38-1.31,5.02-.76,2.15,.74,10.5,3.62,22.91-9.6"/>
          <g class="cls-112">
            <path class="cls-21" d="M53.27,62.95c-.56,2.87-.47,5.87,.58,8.91,.3,.88,.12,1.71-.02,1.86l-3.42,3.39s-.05-.01-.05-.02l-6.9-6.9c3.35-2.3,6.7-4.8,9.82-7.23m13.1-14.98s-14.71,13.32-27.75,21.73c2.48,2.48,9.56,9.56,9.56,9.56,.61,.61,1.42,.92,2.23,.92s1.61-.31,2.22-.91l3.38-3.38c1.22-1.22,1.31-3.38,.76-5.02-.74-2.15-3.62-10.5,9.6-22.91h0Z"/>
          </g>
          <path class="cls-3" d="M88.32,1.68c-5.49,1.15-11.73,4.23-16.55,7.01l9.16,9.16,5.06,5.06c5.47-12.75,2.33-21.23,2.33-21.23Z"/>
          <path class="cls-5" d="M72.05,42.54c-9.32,9.32-19.43,17.62-28.62,23.73l-19.7-19.7c6.11-9.19,14.41-19.3,23.73-28.62,7.16-7.16,13.83-11.44,19.63-13.94l18.9,18.9c-2.5,5.8-6.78,12.47-13.94,19.63Z"/>
          <g class="cls-112">
            <path class="cls-21" d="M72.05,42.54c-9.32,9.32-19.43,17.62-28.62,23.73l-4.1-4.1C81.33,30.78,88.15,2.39,88.31,1.69c.09,.25,3.05,8.67-2.33,21.21h0c-2.5,5.8-6.78,12.48-13.94,19.64Z"/>
          </g>
          <path class="cls-11" d="M52.63,79.27c-1.22,1.22-3.22,1.22-4.45,0L10.74,41.82c-1.23-1.23-1.23-3.23,0-4.45l1.36-1.36,41.9,41.9-1.36,1.36Z"/>
          <rect class="cls-86" x="31.29" y="27.74" width="2.69" height="59.26" transform="translate(-31.01 39.88) rotate(-45)"/>
          <g>
            <path class="cls-12" d="M85.71,46.03c-.2,0-.39-.08-.54-.23-.3-.3-.3-.79,0-1.09l.36-.36c.3-.3,.79-.3,1.09,0s.3,.79,0,1.09l-.36,.36c-.15,.15-.35,.23-.54,.23Z"/>
            <path class="cls-12" d="M72.97,58.77c-.2,0-.39-.08-.54-.23-.3-.3-.3-.79,0-1.09l.8-.8c.3-.3,.79-.3,1.09,0s.3,.79,0,1.09l-.8,.8c-.15,.15-.35,.23-.54,.23Zm3.18-3.18c-.2,0-.39-.08-.54-.23-.3-.3-.3-.79,0-1.09l.8-.8c.3-.3,.79-.3,1.09,0s.3,.79,0,1.09l-.8,.8c-.15,.15-.35,.23-.54,.23Zm3.18-3.18c-.2,0-.39-.08-.54-.23-.3-.3-.3-.79,0-1.09l.8-.8c.3-.3,.79-.3,1.09,0s.3,.79,0,1.09l-.8,.8c-.15,.15-.35,.23-.54,.23Zm3.18-3.18c-.2,0-.39-.08-.54-.23-.3-.3-.3-.79,0-1.09l.8-.8c.3-.3,.79-.3,1.09,0s.3,.79,0,1.09l-.8,.8c-.15,.15-.35,.23-.54,.23Z"/>
            <path class="cls-12" d="M70.22,61.52c-.2,0-.39-.08-.54-.23-.3-.3-.3-.79,0-1.09l.36-.36c.3-.3,.79-.3,1.09,0s.3,.79,0,1.09l-.36,.36c-.15,.15-.35,.23-.54,.23Z"/>
          </g>
          <g>
            <path class="cls-12" d="M38.69,7.77c-.2,0-.39-.08-.54-.23-.3-.3-.3-.79,0-1.09l.36-.36c.3-.3,.79-.3,1.09,0s.3,.79,0,1.09l-.36,.36c-.15,.15-.35,.23-.54,.23Z"/>
            <path class="cls-12" d="M25.96,20.51c-.2,0-.39-.08-.54-.23-.3-.3-.3-.79,0-1.09l.8-.8c.3-.3,.79-.3,1.09,0,.3,.3,.3,.79,0,1.09l-.8,.8c-.15,.15-.35,.23-.54,.23Zm3.18-3.18c-.2,0-.39-.08-.54-.23-.3-.3-.3-.79,0-1.09l.8-.8c.3-.3,.79-.3,1.09,0,.3,.3,.3,.79,0,1.09l-.8,.8c-.15,.15-.35,.23-.54,.23Zm3.18-3.18c-.2,0-.39-.08-.54-.23-.3-.3-.3-.79,0-1.09l.8-.8c.3-.3,.79-.3,1.09,0s.3,.79,0,1.09l-.8,.8c-.15,.15-.35,.23-.54,.23Zm3.18-3.18c-.2,0-.39-.08-.54-.23-.3-.3-.3-.79,0-1.09l.8-.8c.3-.3,.79-.3,1.09,0s.3,.79,0,1.09l-.8,.8c-.15,.15-.35,.23-.54,.23Z"/>
            <path class="cls-12" d="M23.21,23.26c-.2,0-.39-.08-.54-.23-.3-.3-.3-.79,0-1.09l.36-.36c.3-.3,.79-.3,1.09,0s.3,.79,0,1.09l-.36,.36c-.15,.15-.35,.23-.54,.23Z"/>
          </g>
          <g>
            <path class="cls-12" d="M39.02,77.08c-.2,0-.39-.08-.54-.23-.3-.3-.3-.79,0-1.09l.36-.36c.3-.3,.79-.3,1.09,0s.3,.79,0,1.09l-.36,.36c-.15,.15-.35,.23-.54,.23Z"/>
            <path class="cls-12" d="M29.45,86.65c-.2,0-.39-.08-.54-.23-.3-.3-.3-.79,0-1.09l.8-.8c.3-.3,.79-.3,1.09,0s.3,.79,0,1.09l-.8,.8c-.15,.15-.35,.23-.54,.23Zm3.19-3.19c-.2,0-.39-.08-.54-.23-.3-.3-.3-.79,0-1.09l.8-.8c.3-.3,.79-.3,1.09,0s.3,.79,0,1.09l-.8,.8c-.15,.15-.35,.23-.54,.23Zm3.19-3.19c-.2,0-.39-.08-.54-.23-.3-.3-.3-.79,0-1.09l.8-.8c.3-.3,.79-.3,1.09,0s.3,.79,0,1.09l-.8,.8c-.15,.15-.35,.23-.54,.23Z"/>
            <path class="cls-12" d="M26.69,89.41c-.2,0-.39-.08-.54-.23-.3-.3-.3-.79,0-1.09l.36-.36c.3-.3,.79-.3,1.09,0s.3,.79,0,1.09l-.36,.36c-.15,.15-.35,.23-.54,.23Z"/>
          </g>
          <g>
            <path class="cls-12" d="M11.94,49.51c-.2,0-.39-.08-.54-.23-.3-.3-.3-.79,0-1.09l.36-.36c.3-.3,.79-.3,1.09,0s.3,.79,0,1.09l-.36,.36c-.15,.15-.35,.23-.54,.23Z"/>
            <path class="cls-12" d="M5.75,55.7c-.2,0-.39-.08-.54-.23-.3-.3-.3-.79,0-1.09l.77-.77c.3-.3,.79-.3,1.09,0,.3,.3,.3,.79,0,1.09l-.77,.77c-.15,.15-.35,.23-.54,.23Zm3.1-3.1c-.2,0-.39-.08-.54-.23-.3-.3-.3-.79,0-1.09l.77-.77c.3-.3,.79-.3,1.09,0s.3,.79,0,1.09l-.77,.77c-.15,.15-.35,.23-.54,.23Z"/>
            <path class="cls-12" d="M3.07,58.38c-.2,0-.39-.08-.54-.23-.3-.3-.3-.79,0-1.09l.36-.36c.3-.3,.79-.3,1.09,0s.3,.79,0,1.09l-.36,.36c-.15,.15-.35,.23-.54,.23Z"/>
          </g>
          <g>
            <path class="cls-12" d="M47.97,83.76c-.2,0-.39-.08-.54-.23-.3-.3-.3-.79,0-1.09l.36-.36c.3-.3,.79-.3,1.09,0s.3,.79,0,1.09l-.36,.36c-.15,.15-.35,.23-.54,.23Z"/>
            <path class="cls-12" d="M44.58,87.16c-.2,0-.39-.08-.54-.23-.3-.3-.3-.79,0-1.09l.85-.85c.3-.3,.79-.3,1.09,0s.3,.79,0,1.09l-.85,.85c-.15,.15-.35,.23-.54,.23Z"/>
            <path class="cls-12" d="M41.67,90.07c-.2,0-.39-.08-.54-.23-.3-.3-.3-.79,0-1.09l.36-.36c.3-.3,.79-.3,1.09,0s.3,.79,0,1.09l-.36,.36c-.15,.15-.35,.23-.54,.23Z"/>
          </g>
          <g>
            <path class="cls-12" d="M15.11,15.38c-.9,0-1.75-.35-2.39-.99-1.32-1.32-1.32-3.46,0-4.78,1.32-1.32,3.46-1.32,4.78,0,1.32,1.32,1.32,3.46,0,4.78h0c-.64,.64-1.49,.99-2.39,.99Zm0-5.22c-.47,0-.94,.18-1.3,.54-.72,.72-.72,1.89,0,2.6s1.91,.7,2.6,0h0c.72-.72,.72-1.89,0-2.6-.36-.36-.83-.54-1.3-.54Z"/>
            <path class="cls-12" d="M17.76,12.77c-.2,0-.4-.08-.54-.23-.3-.3-.3-.79,0-1.09,.17-.17,.41-.25,.63-.22h2.36s0,0,0,0c.42,0,.77,.34,.77,.77s-.34,.77-.77,.77h-2.45s0,0,0,0Z"/>
            <path class="cls-12" d="M12.46,12.77h-2.45c-.43,0-.77-.35-.77-.77,0-.43,.35-.77,.77-.77h2.45c.43,0,.77,.35,.77,.77s-.35,.77-.77,.77Z"/>
            <path class="cls-12" d="M15.09,18.07c-.38,0-.77-.35-.77-.77v-2.67c0-.42,.35-.77,.78-.77h0c.43,0,.77,.35,.77,.77v2.67c0,.42-.35,.77-.78,.77Z"/>
            <path class="cls-12" d="M15.11,10.09c-.18,0-.36-.06-.5-.19h0c-.17-.15-.26-.37-.26-.59l.02-2.67c0-.42,.35-.77,.77-.77h0c.43,0,.77,.35,.77,.77l-.02,2.62c.01,.2-.05,.4-.19,.56-.15,.18-.37,.26-.58,.26Z"/>
          </g>
          <path class="cls-10" d="M35.38,25.56c-.16,0-.32-.05-.46-.15-.34-.25-.42-.74-.16-1.08,5.96-8.08,14.14-14.73,14.22-14.8,.33-.27,.81-.22,1.08,.11,.27,.33,.22,.82-.11,1.08-.08,.07-8.11,6.6-13.95,14.52-.15,.2-.38,.31-.62,.31Z"/>
          <path class="cls-10" d="M77.71,43.39c-.18,0-.37-.07-.51-.2-.32-.28-.34-.77-.06-1.09,7.16-7.97,10.31-14.85,10.34-14.92,.17-.39,.63-.56,1.02-.39,.39,.17,.56,.63,.39,1.02-.13,.29-3.26,7.15-10.6,15.32-.15,.17-.36,.26-.57,.26Z"/>
          <g>
            <circle class="cls-26" cx="61.91" cy="28.09" r="11.39"/>
            <circle class="cls-4" cx="61.91" cy="28.09" r="10.45"/>
            <circle class="cls-83" cx="61.84" cy="26.61" r="8.98"/>
            <circle class="cls-14" cx="61.77" cy="23.71" r="5.49"/>
            <circle class="cls-6" cx="61.91" cy="21.02" r="2.26"/>
          </g>
          <path class="cls-6" d="M86.25,24.26L65.74,3.75l1.05-.45c12.88-5.53,21.44-2.48,21.8-2.35l.33,.12,.12,.33c.13,.36,3.18,8.92-2.34,21.8l-.45,1.05ZM68.45,4.28l17.27,17.27c4.11-10.31,2.46-17.61,1.99-19.25-1.64-.47-8.95-2.12-19.25,1.99Z"/>
          <path class="cls-6" d="M43.33,67.26l-20.59-20.59,.35-.52c6.29-9.46,14.75-19.67,23.82-28.74,6.45-6.45,13.14-11.2,19.87-14.1l.48-.21,19.64,19.64-.21,.48c-2.9,6.73-7.64,13.41-14.1,19.87-9.07,9.07-19.28,17.54-28.74,23.82l-.52,.35Zm-18.61-20.78l18.8,18.8c9.23-6.2,19.14-14.44,27.98-23.28h0c6.16-6.16,10.72-12.52,13.56-18.91L66.92,4.93c-6.39,2.84-12.75,7.4-18.91,13.56-8.84,8.84-17.08,18.75-23.28,27.98Z"/>
          <path class="cls-6" d="M50.41,80.96c-1,0-2.01-.38-2.78-1.15L10.19,42.36c-.74-.74-1.15-1.72-1.15-2.77s.4-2.03,1.14-2.77l3.38-3.38c1.5-1.5,4-1.56,5.81-.95,4.58,1.58,12.13,1.23,22.1-9.4l1.12,1.06c-5.82,6.2-14.65,12.93-23.72,9.8-1.31-.44-3.2-.45-4.22,.58l-3.38,3.38c-.92,.93-.92,2.43,0,3.36l37.44,37.44c.93,.93,2.44,.93,3.36,0l3.38-3.38c1.03-1.03,1.02-2.91,.58-4.23-3.12-9.06,3.61-17.9,9.8-23.71l1.06,1.12c-10.62,9.97-10.98,17.52-9.4,22.09,.61,1.81,.55,4.31-.95,5.81l-3.38,3.38c-.76,.76-1.76,1.14-2.76,1.14Z"/>
          <path class="cls-6" d="M50.41,80.96h0c-1.05,0-2.03-.41-2.77-1.15L10.19,42.36c-1.53-1.53-1.53-4.01,0-5.54l2.45-2.45,42.99,42.99-2.45,2.45c-.73,.74-1.72,1.14-2.76,1.14ZM12.63,36.55l-1.36,1.36c-.44,.44-.69,1.04-.69,1.68s.25,1.24,.7,1.68l37.45,37.45c.45,.45,1.05,.7,1.69,.7h0c.64,0,1.23-.24,1.67-.69l1.36-1.36L12.63,36.55Z"/>
          <g>
            <rect class="cls-26" x="16.97" y="59.77" width="21.13" height="5.57" rx="1.56" ry="1.56" transform="translate(52.3 -1.15) rotate(45)"/>
            <path class="cls-6" d="M33.03,72.1c-.61,0-1.21-.23-1.68-.69l-12.68-12.68c-.92-.92-.92-2.43,0-3.36l1.67-1.67c.92-.92,2.43-.93,3.36,0l12.68,12.68c.92,.92,.92,2.43,0,3.36l-1.67,1.67c-.46,.46-1.07,.69-1.68,.69Zm-11-17.55c-.21,0-.43,.08-.59,.24l-1.67,1.67c-.32,.32-.32,.85,0,1.18l12.68,12.68c.33,.33,.85,.32,1.18,0l1.67-1.67c.32-.32,.32-.85,0-1.18l-12.68-12.68c-.16-.16-.38-.24-.59-.24Z"/>
          </g>
          <g class="cls-112">
            <path class="cls-21" d="M32.45,64.63l.54-.55,.54-.54,16.12-16.12c.44-.44,.65-1.01,.65-1.58,0-.58-.21-1.15-.65-1.58-.86-.87-2.28-.87-3.15,0l-16.12,16.12-.54,.54-.54,.55,3.15,3.15Z"/>
            <path class="cls-21" d="M29.66,61.83l.55-.54,.54-.55,16.12-16.12c.32-.32,.75-.5,1.2-.5s.9,.18,1.22,.5,.5,.75,.5,1.22c0,.46-.18,.88-.5,1.2l-16.12,16.14-.54,.54-.55,.54-2.42-2.42Zm3.15,3.15l.54-.55,.54-.54,16.14-16.12c.51-.53,.8-1.2,.8-1.93s-.29-1.42-.8-1.95c-1.04-1.02-2.85-1.02-3.88,0l-16.12,16.14-.54,.54-.55,.54,3.88,3.88Z"/>
          </g>
          <g>
            <rect class="cls-8" x="25.2" y="48.04" width="29.06" height="4.45" rx="1.61" ry="1.61" transform="translate(-23.91 42.82) rotate(-45)"/>
            <path class="cls-6" d="M31.03,61.96c-.8,0-1.56-.31-2.12-.87-.56-.56-.87-1.32-.87-2.12s.31-1.55,.87-2.12l17.4-17.4c1.17-1.17,3.07-1.17,4.24,0,.56,.56,.87,1.32,.87,2.12s-.31,1.56-.87,2.12l-17.4,17.4c-.56,.56-1.32,.87-2.12,.87Zm17.4-21.85c-.37,0-.75,.14-1.03,.43l-17.4,17.4c-.27,.27-.42,.64-.42,1.03s.15,.76,.42,1.03c.54,.54,1.51,.55,2.06,0l17.4-17.4c.57-.57,.57-1.49,0-2.06-.28-.28-.66-.43-1.03-.43Z"/>
          </g>
          <g>
            <circle class="cls-6" cx="4.32" cy="30.85" r="3.59"/>
            <g class="cls-2">
              <rect class="cls-52" x="1.95" y="28.49" width="4.73" height="4.73"/>
              <circle class="cls-52" cx="4.32" cy="30.85" r="2.16"/>
              <circle class="cls-38" cx="4.32" cy="30.84" r="2.13"/>
              <circle class="cls-39" cx="4.32" cy="30.83" r="2.11"/>
              <circle class="cls-37" cx="4.32" cy="30.82" r="2.09"/>
              <circle class="cls-59" cx="4.32" cy="30.81" r="2.07"/>
              <circle class="cls-44" cx="4.32" cy="30.8" r="2.04"/>
              <circle class="cls-42" cx="4.32" cy="30.79" r="2.02"/>
              <circle class="cls-41" cx="4.32" cy="30.78" r="2"/>
              <circle class="cls-24" cx="4.32" cy="30.77" r="1.98"/>
              <circle class="cls-25" cx="4.32" cy="30.76" r="1.95"/>
              <circle class="cls-23" cx="4.32" cy="30.75" r="1.93"/>
              <circle class="cls-22" cx="4.32" cy="30.74" r="1.91"/>
              <circle class="cls-40" cx="4.32" cy="30.73" r="1.89"/>
              <circle class="cls-29" cx="4.32" cy="30.72" r="1.86"/>
              <circle class="cls-28" cx="4.32" cy="30.71" r="1.84"/>
              <circle class="cls-27" cx="4.32" cy="30.7" r="1.82"/>
              <circle class="cls-51" cx="4.32" cy="30.69" r="1.8"/>
              <circle class="cls-60" cx="4.32" cy="30.67" r="1.77"/>
              <circle class="cls-45" cx="4.32" cy="30.66" r="1.75"/>
              <circle class="cls-43" cx="4.32" cy="30.65" r="1.73"/>
              <circle class="cls-33" cx="4.32" cy="30.64" r="1.71"/>
              <circle class="cls-32" cx="4.32" cy="30.63" r="1.68"/>
              <circle class="cls-36" cx="4.32" cy="30.62" r="1.66"/>
              <circle class="cls-35" cx="4.32" cy="30.61" r="1.64"/>
              <circle class="cls-34" cx="4.33" cy="30.6" r="1.62"/>
              <circle class="cls-31" cx="4.33" cy="30.59" r="1.6"/>
              <circle class="cls-30" cx="4.33" cy="30.58" r="1.57"/>
              <circle class="cls-104" cx="4.33" cy="30.57" r="1.55"/>
              <circle class="cls-104" cx="4.33" cy="30.57" r="1.53"/>
              <circle class="cls-104" cx="4.33" cy="30.56" r="1.5"/>
              <circle class="cls-103" cx="4.33" cy="30.55" r="1.48"/>
              <circle class="cls-103" cx="4.33" cy="30.54" r="1.46"/>
              <circle class="cls-108" cx="4.33" cy="30.53" r="1.44"/>
              <circle class="cls-109" cx="4.33" cy="30.52" r="1.41"/>
              <circle class="cls-106" cx="4.33" cy="30.51" r="1.39"/>
              <circle class="cls-105" cx="4.33" cy="30.5" r="1.37"/>
              <circle class="cls-62" cx="4.33" cy="30.48" r="1.34"/>
              <circle class="cls-61" cx="4.33" cy="30.47" r="1.32"/>
              <circle class="cls-63" cx="4.33" cy="30.46" r="1.3"/>
              <circle class="cls-73" cx="4.33" cy="30.45" r="1.27"/>
              <circle class="cls-72" cx="4.33" cy="30.44" r="1.25"/>
              <circle class="cls-74" cx="4.33" cy="30.43" r="1.23"/>
              <circle class="cls-75" cx="4.33" cy="30.42" r="1.2"/>
              <circle class="cls-67" cx="4.33" cy="30.41" r="1.18"/>
              <circle class="cls-68" cx="4.33" cy="30.4" r="1.16"/>
              <circle class="cls-66" cx="4.33" cy="30.39" r="1.13"/>
              <circle class="cls-65" cx="4.33" cy="30.38" r="1.11"/>
              <circle class="cls-64" cx="4.33" cy="30.37" r="1.09"/>
              <circle class="cls-71" cx="4.33" cy="30.36" r="1.06"/>
              <circle class="cls-69" cx="4.34" cy="30.35" r="1.04"/>
              <circle class="cls-70" cx="4.34" cy="30.34" r="1.02"/>
              <circle class="cls-76" cx="4.34" cy="30.33" r="1"/>
              <circle class="cls-78" cx="4.34" cy="30.31" r=".97"/>
              <circle class="cls-77" cx="4.34" cy="30.3" r=".95"/>
              <circle class="cls-97" cx="4.34" cy="30.29" r=".93"/>
              <circle class="cls-98" cx="4.34" cy="30.28" r=".9"/>
              <circle class="cls-99" cx="4.34" cy="30.27" r=".88"/>
              <circle class="cls-101" cx="4.34" cy="30.26" r=".86"/>
              <circle class="cls-100" cx="4.34" cy="30.25" r=".83"/>
              <circle class="cls-81" cx="4.34" cy="30.24" r=".81"/>
              <circle class="cls-80" cx="4.34" cy="30.23" r=".79"/>
              <circle class="cls-19" cx="4.34" cy="30.22" r=".76"/>
              <circle class="cls-102" cx="4.34" cy="30.21" r=".74"/>
              <circle class="cls-87" cx="4.34" cy="30.2" r=".72"/>
              <circle class="cls-16" cx="4.34" cy="30.19" r=".69"/>
              <circle class="cls-15" cx="4.34" cy="30.18" r=".67"/>
              <circle class="cls-17" cx="4.34" cy="30.17" r=".65"/>
              <circle class="cls-18" cx="4.34" cy="30.16" r=".63"/>
              <circle class="cls-20" cx="4.34" cy="30.14" r=".6"/>
              <circle class="cls-92" cx="4.34" cy="30.13" r=".58"/>
              <circle class="cls-107" cx="4.34" cy="30.12" r=".56"/>
              <circle class="cls-93" cx="4.34" cy="30.11" r=".53"/>
              <circle class="cls-94" cx="4.34" cy="30.1" r=".51"/>
              <circle class="cls-46" cx="4.35" cy="30.09" r=".49"/>
              <circle class="cls-47" cx="4.35" cy="30.08" r=".46"/>
              <circle class="cls-48" cx="4.35" cy="30.07" r=".44"/>
              <circle class="cls-50" cx="4.35" cy="30.06" r=".42"/>
              <circle class="cls-49" cx="4.35" cy="30.05" r=".39"/>
              <circle class="cls-84" cx="4.35" cy="30.04" r=".37"/>
              <circle class="cls-88" cx="4.35" cy="30.03" r=".35"/>
              <circle class="cls-79" cx="4.35" cy="30.02" r=".32"/>
              <circle class="cls-95" cx="4.35" cy="30.01" r=".3"/>
              <circle class="cls-91" cx="4.35" cy="30" r=".28"/>
              <circle class="cls-89" cx="4.35" cy="29.99" r=".25"/>
              <circle class="cls-85" cx="4.35" cy="29.97" r=".23"/>
              <circle class="cls-90" cx="4.35" cy="29.96" r=".21"/>
              <circle class="cls-96" cx="4.35" cy="29.95" r=".19"/>
              <circle class="cls-82" cx="4.35" cy="29.94" r=".16"/>
              <circle class="cls-57" cx="4.35" cy="29.93" r=".14"/>
              <circle class="cls-58" cx="4.35" cy="29.92" r=".12"/>
              <circle class="cls-53" cx="4.35" cy="29.91" r=".09"/>
              <circle class="cls-54" cx="4.35" cy="29.9" r=".07"/>
              <path class="cls-55" d="M4.39,29.92s-.05,.02-.07,0c-.02-.02-.02-.05,0-.07,.02-.02,.05-.02,.07,0s.02,.05,0,.07Z"/>
              <path class="cls-56" d="M4.37,29.9s-.02,0-.03,0c0,0,0-.02,0-.03s.02,0,.03,0c0,0,0,.02,0,.03Z"/>
            </g>
          </g>
          <g>
            <circle class="cls-6" cx="80.14" cy="66.74" r="5.02"/>
            <g class="cls-110">
              <rect class="cls-52" x="76.56" y="63.15" width="7.17" height="7.17"/>
              <circle class="cls-52" cx="80.14" cy="66.74" r="3.27"/>
              <circle class="cls-38" cx="80.14" cy="66.72" r="3.23"/>
              <circle class="cls-39" cx="80.14" cy="66.7" r="3.2"/>
              <circle class="cls-37" cx="80.14" cy="66.69" r="3.17"/>
              <circle class="cls-59" cx="80.14" cy="66.67" r="3.13"/>
              <circle class="cls-44" cx="80.15" cy="66.66" r="3.1"/>
              <circle class="cls-42" cx="80.15" cy="66.64" r="3.06"/>
              <circle class="cls-41" cx="80.15" cy="66.62" r="3.03"/>
              <circle class="cls-24" cx="80.15" cy="66.61" r="3"/>
              <circle class="cls-25" cx="80.15" cy="66.59" r="2.96"/>
              <circle class="cls-23" cx="80.15" cy="66.58" r="2.93"/>
              <circle class="cls-22" cx="80.15" cy="66.56" r="2.89"/>
              <circle class="cls-40" cx="80.15" cy="66.55" r="2.86"/>
              <circle class="cls-29" cx="80.15" cy="66.53" r="2.83"/>
              <circle class="cls-28" cx="80.15" cy="66.51" r="2.79"/>
              <circle class="cls-27" cx="80.15" cy="66.5" r="2.76"/>
              <circle class="cls-51" cx="80.15" cy="66.48" r="2.72"/>
              <circle class="cls-60" cx="80.15" cy="66.47" r="2.69"/>
              <circle class="cls-45" cx="80.15" cy="66.45" r="2.66"/>
              <circle class="cls-43" cx="80.15" cy="66.43" r="2.62"/>
              <circle class="cls-33" cx="80.15" cy="66.42" r="2.59"/>
              <circle class="cls-32" cx="80.16" cy="66.4" r="2.55"/>
              <circle class="cls-36" cx="80.16" cy="66.39" r="2.52"/>
              <circle class="cls-35" cx="80.16" cy="66.37" r="2.49"/>
              <circle class="cls-34" cx="80.16" cy="66.35" r="2.45"/>
              <circle class="cls-31" cx="80.16" cy="66.34" r="2.42"/>
              <circle class="cls-30" cx="80.16" cy="66.32" r="2.38"/>
              <circle class="cls-104" cx="80.16" cy="66.31" r="2.35"/>
              <circle class="cls-104" cx="80.16" cy="66.31" r="2.32"/>
              <circle class="cls-104" cx="80.16" cy="66.29" r="2.28"/>
              <circle class="cls-103" cx="80.16" cy="66.27" r="2.25"/>
              <circle class="cls-103" cx="80.16" cy="66.26" r="2.21"/>
              <circle class="cls-108" cx="80.16" cy="66.24" r="2.18"/>
              <circle class="cls-109" cx="80.16" cy="66.23" r="2.14"/>
              <circle class="cls-106" cx="80.16" cy="66.21" r="2.11"/>
              <circle class="cls-105" cx="80.16" cy="66.19" r="2.07"/>
              <circle class="cls-62" cx="80.16" cy="66.18" r="2.04"/>
              <circle class="cls-61" cx="80.16" cy="66.16" r="2"/>
              <circle class="cls-63" cx="80.17" cy="66.15" r="1.96"/>
              <circle class="cls-73" cx="80.17" cy="66.13" r="1.93"/>
              <circle class="cls-72" cx="80.17" cy="66.11" r="1.89"/>
              <circle class="cls-74" cx="80.17" cy="66.1" r="1.86"/>
              <circle class="cls-75" cx="80.17" cy="66.08" r="1.82"/>
              <circle class="cls-67" cx="80.17" cy="66.06" r="1.79"/>
              <circle class="cls-68" cx="80.17" cy="66.05" r="1.75"/>
              <circle class="cls-66" cx="80.17" cy="66.03" r="1.72"/>
              <circle class="cls-65" cx="80.17" cy="66.02" r="1.68"/>
              <circle class="cls-64" cx="80.17" cy="66" r="1.65"/>
              <circle class="cls-71" cx="80.17" cy="65.98" r="1.61"/>
              <circle class="cls-69" cx="80.17" cy="65.97" r="1.58"/>
              <circle class="cls-70" cx="80.17" cy="65.95" r="1.54"/>
              <circle class="cls-76" cx="80.17" cy="65.94" r="1.51"/>
              <circle class="cls-78" cx="80.17" cy="65.92" r="1.47"/>
              <circle class="cls-77" cx="80.17" cy="65.9" r="1.44"/>
              <circle class="cls-97" cx="80.18" cy="65.89" r="1.4"/>
              <circle class="cls-98" cx="80.18" cy="65.87" r="1.37"/>
              <circle class="cls-99" cx="80.18" cy="65.86" r="1.33"/>
              <circle class="cls-101" cx="80.18" cy="65.84" r="1.3"/>
              <circle class="cls-100" cx="80.18" cy="65.82" r="1.26"/>
              <circle class="cls-81" cx="80.18" cy="65.81" r="1.23"/>
              <circle class="cls-80" cx="80.18" cy="65.79" r="1.19"/>
              <circle class="cls-19" cx="80.18" cy="65.78" r="1.16"/>
              <circle class="cls-102" cx="80.18" cy="65.76" r="1.12"/>
              <circle class="cls-87" cx="80.18" cy="65.74" r="1.09"/>
              <circle class="cls-16" cx="80.18" cy="65.73" r="1.05"/>
              <circle class="cls-15" cx="80.18" cy="65.71" r="1.02"/>
              <circle class="cls-17" cx="80.18" cy="65.69" r=".98"/>
              <circle class="cls-18" cx="80.18" cy="65.68" r=".95"/>
              <circle class="cls-20" cx="80.18" cy="65.66" r=".91"/>
              <circle class="cls-92" cx="80.18" cy="65.65" r=".88"/>
              <circle class="cls-107" cx="80.18" cy="65.63" r=".84"/>
              <circle class="cls-93" cx="80.19" cy="65.61" r=".81"/>
              <circle class="cls-94" cx="80.19" cy="65.6" r=".77"/>
              <circle class="cls-46" cx="80.19" cy="65.58" r=".74"/>
              <circle class="cls-47" cx="80.19" cy="65.57" r=".7"/>
              <circle class="cls-48" cx="80.19" cy="65.55" r=".67"/>
              <circle class="cls-50" cx="80.19" cy="65.53" r=".63"/>
              <circle class="cls-49" cx="80.19" cy="65.52" r=".6"/>
              <circle class="cls-84" cx="80.19" cy="65.5" r=".56"/>
              <circle class="cls-88" cx="80.19" cy="65.49" r=".53"/>
              <circle class="cls-79" cx="80.19" cy="65.47" r=".49"/>
              <circle class="cls-95" cx="80.19" cy="65.45" r=".46"/>
              <circle class="cls-91" cx="80.19" cy="65.44" r=".42"/>
              <circle class="cls-89" cx="80.19" cy="65.42" r=".39"/>
              <circle class="cls-85" cx="80.19" cy="65.4" r=".35"/>
              <circle class="cls-90" cx="80.19" cy="65.39" r=".32"/>
              <circle class="cls-96" cx="80.19" cy="65.37" r=".28"/>
              <circle class="cls-82" cx="80.2" cy="65.36" r=".25"/>
              <circle class="cls-57" cx="80.2" cy="65.34" r=".21"/>
              <circle class="cls-58" cx="80.2" cy="65.32" r=".18"/>
              <circle class="cls-53" cx="80.2" cy="65.31" r=".14"/>
              <circle class="cls-54" cx="80.2" cy="65.29" r=".11"/>
              <path class="cls-55" d="M80.25,65.33s-.07,.03-.1,0c-.03-.03-.03-.07,0-.1s.07-.03,.1,0,.03,.07,0,.1Z"/>
              <circle class="cls-56" cx="80.2" cy="65.26" r=".04"/>
            </g>
          </g>
          <g>
            <path class="cls-12" d="M63.59,87.17c-.9,0-1.75-.35-2.39-.99-1.32-1.32-1.32-3.46,0-4.78,1.32-1.32,3.46-1.32,4.78,0,1.32,1.32,1.32,3.46,0,4.78h0c-.64,.64-1.49,.99-2.39,.99Zm0-5.22c-.47,0-.94,.18-1.3,.54-.72,.72-.72,1.89,0,2.6s1.91,.7,2.6,0h0c.72-.72,.72-1.89,0-2.6-.36-.36-.83-.54-1.3-.54Z"/>
            <path class="cls-12" d="M66.24,84.56c-.2,0-.4-.08-.54-.23-.3-.3-.3-.79,0-1.09,.17-.17,.41-.25,.63-.22h2.36s0,0,0,0c.42,0,.77,.34,.77,.77s-.34,.77-.77,.77h-2.45s0,0,0,0Z"/>
            <path class="cls-12" d="M60.94,84.56h-2.45c-.43,0-.77-.35-.77-.77s.35-.77,.77-.77h2.45c.43,0,.77,.35,.77,.77s-.35,.77-.77,.77Z"/>
            <path class="cls-12" d="M63.57,89.86c-.38,0-.77-.35-.77-.77v-2.67c0-.42,.35-.77,.78-.77h0c.43,0,.77,.35,.77,.77v2.67c0,.42-.35,.77-.78,.77Z"/>
            <path class="cls-12" d="M63.59,81.88c-.18,0-.36-.06-.5-.19h0c-.17-.15-.26-.37-.26-.59l.02-2.67c0-.42,.35-.77,.77-.77h0c.43,0,.77,.35,.77,.77l-.02,2.62c.01,.2-.05,.4-.19,.56-.15,.18-.37,.26-.58,.26Z"/>
          </g>
        </g>
      </g>
    </g>
  </g>
</svg>