<?xml version="1.0" encoding="utf-8"?>
<!-- Generator: Adobe Illustrator 26.4.1, SVG Export Plug-In . SVG Version: 6.00 Build 0)  -->
<svg version="1.1" id="Layer_1" xmlns="http://www.w3.org/2000/svg" xmlns:xlink="http://www.w3.org/1999/xlink" x="0px" y="0px"
	 viewBox="0 0 113 112" style="enable-background:new 0 0 113 112;" xml:space="preserve">
<style type="text/css">
	.st0{fill:#A1DDF3;}
	.st1{fill:#63CCF0;}
	.st2{fill:#8AD6F0;}
	.st3{fill:#41BFEE;}
	.st4{fill:#FFFFFF;}
	.st5{fill:#70CDE0;}
	.st6{fill:#29305F;}
	.st7{fill:#B0B0B0;}
	.st8{fill:#9290A0;}
</style>
<g>
	<g>
		<circle class="st0" cx="56.5" cy="56" r="34.8"/>
	</g>
	<g>
		<g>
			<circle class="st1" cx="56.5" cy="56" r="24.9"/>
		</g>
	</g>
	<g>
		<path class="st2" d="M81.1,80.6c-13.6,13.6-35.6,13.6-49.2,0l7-7c4.5,4.5,10.7,7.3,17.6,7.3c13.7,0,24.9-11.1,24.9-24.9
			c0-6.9-2.8-13.1-7.3-17.6l7-7C94.7,45,94.7,67,81.1,80.6z"/>
	</g>
	<g>
		<g>
			<path class="st3" d="M81.4,56c0,13.7-11.1,24.9-24.9,24.9c-6.9,0-13.1-2.8-17.6-7.3l35.2-35.2C78.6,42.9,81.4,49.1,81.4,56z"/>
		</g>
	</g>
	<g>
		<g>
			<g>
				<path class="st4" d="M71,31.9c-0.1,0-0.3,0-0.4-0.1c-0.4-0.2-0.5-0.7-0.2-1.1l3.3-5c0.2-0.4,0.7-0.5,1.1-0.2
					c0.4,0.2,0.5,0.7,0.2,1.1l-3.3,5C71.5,31.8,71.3,31.9,71,31.9z"/>
			</g>
			<g>
				<path class="st4" d="M82.1,42.5c-0.3,0-0.6-0.2-0.7-0.4c-0.2-0.4,0-0.9,0.3-1l4.9-2.5c0.4-0.2,0.9,0,1,0.3c0.2,0.4,0,0.9-0.3,1
					l-4.9,2.5C82.3,42.5,82.2,42.5,82.1,42.5z"/>
			</g>
			<g>
				<path class="st4" d="M31.4,42.5c-0.1,0-0.3,0-0.4-0.1l-5-3.2c-0.4-0.2-0.5-0.7-0.2-1.1c0.2-0.4,0.7-0.5,1.1-0.2l5,3.2
					c0.4,0.2,0.5,0.7,0.2,1.1C31.9,42.4,31.7,42.5,31.4,42.5z"/>
			</g>
			<g>
				<path class="st4" d="M41.9,31.3c-0.3,0-0.6-0.2-0.7-0.4l-2.5-4.9c-0.2-0.4-0.1-0.9,0.3-1.1c0.4-0.2,0.9-0.1,1.1,0.3l2.5,4.9
					c0.2,0.4,0.1,0.9-0.3,1.1C42.2,31.3,42.1,31.3,41.9,31.3z"/>
			</g>
			<g>
				<path class="st4" d="M39.2,87c-0.1,0-0.3,0-0.4-0.1c-0.4-0.2-0.5-0.7-0.2-1.1l3.2-5c0.2-0.4,0.7-0.5,1.1-0.2
					c0.4,0.2,0.5,0.7,0.2,1.1l-3.2,5C39.7,86.8,39.4,87,39.2,87z"/>
			</g>
			<g>
				<path class="st4" d="M26.3,74.1c-0.3,0-0.5-0.2-0.7-0.4c-0.2-0.4-0.1-0.9,0.3-1.1l4.8-2.6c0.4-0.2,0.9-0.1,1.1,0.3
					c0.2,0.4,0.1,0.9-0.3,1.1L26.6,74C26.5,74,26.4,74.1,26.3,74.1z"/>
			</g>
			<g>
				<path class="st4" d="M86.8,73.8c-0.1,0-0.3,0-0.4-0.1l-5.1-3.1c-0.4-0.2-0.5-0.7-0.3-1.1c0.2-0.4,0.7-0.5,1.1-0.3l5.1,3.1
					c0.4,0.2,0.5,0.7,0.3,1.1C87.4,73.7,87.1,73.8,86.8,73.8z"/>
			</g>
			<g>
				<path class="st4" d="M74.1,86.8c-0.3,0-0.5-0.1-0.7-0.4l-2.6-4.8c-0.2-0.4-0.1-0.9,0.3-1.1c0.4-0.2,0.9-0.1,1.1,0.3l2.6,4.8
					c0.2,0.4,0.1,0.9-0.3,1.1C74.3,86.8,74.2,86.8,74.1,86.8z"/>
			</g>
			<g>
				<path class="st4" d="M56.5,28c-0.4,0-0.8-0.3-0.8-0.8v-6c0-0.4,0.3-0.8,0.8-0.8s0.8,0.3,0.8,0.8v6C57.3,27.7,56.9,28,56.5,28z"
					/>
			</g>
			<g>
				<path class="st4" d="M56.5,91.6c-0.4,0-0.8-0.3-0.8-0.8V85c0-0.4,0.3-0.8,0.8-0.8s0.8,0.3,0.8,0.8v5.8
					C57.3,91.3,56.9,91.6,56.5,91.6z"/>
			</g>
			<g>
				<path class="st4" d="M91.3,56.8h-5.4c-0.4,0-0.8-0.3-0.8-0.8s0.3-0.8,0.8-0.8h5.4c0.4,0,0.8,0.3,0.8,0.8S91.7,56.8,91.3,56.8z"
					/>
			</g>
			<g>
				<path class="st4" d="M27.1,56.8h-5.4c-0.4,0-0.8-0.3-0.8-0.8s0.3-0.8,0.8-0.8h5.4c0.4,0,0.8,0.3,0.8,0.8S27.5,56.8,27.1,56.8z"
					/>
			</g>
		</g>
		<g>
			<path class="st4" d="M56.5,91.6c-19.6,0-35.6-16-35.6-35.6s16-35.6,35.6-35.6c19.6,0,35.6,16,35.6,35.6S76.1,91.6,56.5,91.6z
				 M56.5,22c-18.8,0-34,15.3-34,34s15.3,34,34,34c18.8,0,34-15.3,34-34S75.2,22,56.5,22z"/>
		</g>
	</g>
	<g>
		<g>
			<g>
				<g>
					<path class="st5" d="M73.3,48l-31.7,0l0,4.5h1.9L43,68.2l-1.3,0l0,2.2l31.7,0l0-2.2l-1.7,0L71,52.4l2.3,0L73.3,48z M53.9,68.2
						h-3.7l-0.6-15.8h4.9L53.9,68.2z M64.8,68.2h-3.7l-0.6-15.8h4.9L64.8,68.2z"/>
				</g>
			</g>
			<g>
				<g>
					<polygon class="st5" points="57.5,39 45.7,45.7 69.3,45.7 					"/>
				</g>
			</g>
		</g>
	</g>
	<g>
		<g>
			<g>
				<g>
					<path class="st6" d="M72.7,47.2l-31.7,0l0,4.5h1.9l-0.6,15.8l-1.3,0l0,2.2l31.7,0l0-2.2l-1.7,0l-0.6-15.8l2.3,0L72.7,47.2z
						 M53.2,67.5h-3.7l-0.6-15.8h4.9L53.2,67.5z M64.1,67.5h-3.7l-0.6-15.8h4.9L64.1,67.5z"/>
				</g>
			</g>
			<g>
				<g>
					<polygon class="st6" points="56.8,38.2 45,45 68.6,45 					"/>
				</g>
			</g>
		</g>
	</g>
	<g>
		<g>
			<g>
				<path class="st7" d="M56.5,105.8c-19.3,0-37.1-11.3-45.2-28.9c-0.2-0.4,0-0.9,0.4-1c0.4-0.2,0.9,0,1,0.4c7.9,17,25.1,28,43.8,28
					c26.6,0,48.3-21.6,48.3-48.3c0-0.4,0.3-0.8,0.8-0.8c0.4,0,0.8,0.3,0.8,0.8C106.3,83.5,83.9,105.8,56.5,105.8z"/>
			</g>
			<g>
				<g>
					<circle class="st8" cx="10" cy="71.8" r="1.2"/>
				</g>
				<g>
					<circle class="st8" cx="8.6" cy="66.7" r="1.2"/>
				</g>
				<g>
					<circle class="st8" cx="7.8" cy="61.5" r="1.2"/>
				</g>
			</g>
		</g>
		<g>
			<path class="st7" d="M112.2,63.5c-0.2,0-0.4-0.1-0.6-0.2l-6.2-6.2l-6.2,6.2c-0.3,0.3-0.8,0.3-1.1,0s-0.3-0.8,0-1.1l6.7-6.7
				c0.3-0.3,0.8-0.3,1.1,0l6.7,6.7c0.3,0.3,0.3,0.8,0,1.1C112.6,63.4,112.4,63.5,112.2,63.5z"/>
		</g>
	</g>
	<g>
		<g>
			<g>
				<path class="st7" d="M7.5,56.8c-0.4,0-0.8-0.3-0.8-0.8c0-27.5,22.3-49.8,49.8-49.8c19.3,0,37.1,11.3,45.2,28.9
					c0.2,0.4,0,0.9-0.4,1c-0.4,0.2-0.9,0-1-0.4c-7.9-17-25.1-28-43.8-28C29.9,7.7,8.3,29.4,8.3,56C8.3,56.4,7.9,56.8,7.5,56.8z"/>
			</g>
			<g>
				<g>
					<circle class="st8" cx="103" cy="40.2" r="1.2"/>
				</g>
				<g>
					<circle class="st8" cx="104.4" cy="45.3" r="1.2"/>
				</g>
				<g>
					<circle class="st8" cx="105.2" cy="50.5" r="1.2"/>
				</g>
			</g>
		</g>
		<g>
			<path class="st7" d="M7.5,56.8c-0.2,0-0.4-0.1-0.6-0.2l-6.7-6.7c-0.3-0.3-0.3-0.8,0-1.1s0.8-0.3,1.1,0l6.2,6.2l6.2-6.2
				c0.3-0.3,0.8-0.3,1.1,0s0.3,0.8,0,1.1L8,56.5C7.9,56.7,7.7,56.8,7.5,56.8z"/>
		</g>
	</g>
</g>
</svg>
