<?xml version="1.0" encoding="utf-8"?>
<!-- Generator: Adobe Illustrator 26.4.1, SVG Export Plug-In . SVG Version: 6.00 Build 0)  -->
<svg version="1.1" id="Layer_1" xmlns="http://www.w3.org/2000/svg" xmlns:xlink="http://www.w3.org/1999/xlink" x="0px" y="0px"
	 viewBox="0 0 116 111" style="enable-background:new 0 0 116 111;" xml:space="preserve">
<style type="text/css">
	.st0{fill:#9290A0;}
	.st1{fill:#FFFFFF;}
	.st2{fill:#F5831F;}
	.st3{fill:#FCB356;}
	.st4{fill:#FFCE65;}
	.st5{fill:#41A0D9;}
	.st6{fill:#4EC8F0;}
	.st7{fill:#91D8F2;}
</style>
<g>
	<g>
		<g>
			<path class="st0" d="M46,93.5c-0.4,0-0.8-0.3-0.8-0.8c0-0.4,0.3-0.8,0.8-0.8c0.5,0,1,0,1.5,0c0.4,0,0.8,0.3,0.8,0.8
				s-0.3,0.8-0.8,0.8C47.1,93.5,46.5,93.5,46,93.5C46,93.5,46,93.5,46,93.5z M40.8,93.2C40.8,93.2,40.8,93.2,40.8,93.2
				c-0.6-0.1-1.1-0.1-1.7-0.2c-0.4-0.1-0.7-0.4-0.7-0.9c0.1-0.4,0.4-0.7,0.9-0.7c0.5,0.1,1,0.1,1.5,0.2c0.4,0,0.7,0.4,0.7,0.8
				C41.6,92.9,41.2,93.2,40.8,93.2z M52.8,93c-0.4,0-0.7-0.3-0.8-0.7c-0.1-0.4,0.3-0.8,0.7-0.9c0.5-0.1,1-0.1,1.5-0.2
				c0.4-0.1,0.8,0.2,0.9,0.7s-0.2,0.8-0.7,0.9C53.9,92.9,53.4,93,52.8,93C52.8,93,52.8,93,52.8,93z M34.2,92.1c-0.1,0-0.1,0-0.2,0
				c-0.5-0.1-1-0.3-1.5-0.4c-0.4-0.1-0.6-0.6-0.5-1c0.1-0.4,0.5-0.7,1-0.5c0.5,0.1,1,0.3,1.5,0.4c0.4,0.1,0.7,0.5,0.6,0.9
				C34.8,91.9,34.5,92.1,34.2,92.1z M59.4,91.9c-0.4,0-0.7-0.2-0.8-0.6c-0.1-0.4,0.2-0.8,0.6-0.9c0.5-0.1,1-0.2,1.5-0.3
				c0.4-0.1,0.8,0.2,0.9,0.6c0.1,0.4-0.2,0.8-0.6,0.9c-0.5,0.1-1,0.2-1.5,0.4C59.5,91.9,59.5,91.9,59.4,91.9z M65.9,90.1
				c-0.3,0-0.6-0.2-0.7-0.5c-0.1-0.4,0.1-0.8,0.5-1c0.5-0.2,1-0.3,1.5-0.5c0.4-0.1,0.9,0.1,1,0.5c0.1,0.4-0.1,0.9-0.5,1
				c-0.5,0.2-1,0.3-1.5,0.5C66.1,90.1,66,90.1,65.9,90.1z M27.8,89.9c-0.1,0-0.2,0-0.3-0.1c-0.5-0.2-1-0.5-1.4-0.7
				c-0.4-0.2-0.5-0.7-0.3-1.1c0.2-0.4,0.7-0.5,1.1-0.3c0.4,0.2,0.9,0.5,1.4,0.7c0.4,0.2,0.6,0.6,0.4,1
				C28.4,89.7,28.1,89.9,27.8,89.9z M72.3,87.8c-0.3,0-0.6-0.2-0.7-0.5c-0.2-0.4,0-0.9,0.4-1c0.5-0.2,0.9-0.4,1.4-0.6
				c0.4-0.2,0.9,0,1,0.4c0.2,0.4,0,0.9-0.4,1c-0.5,0.2-1,0.4-1.4,0.6C72.5,87.8,72.4,87.8,72.3,87.8z M22.1,86.3
				c-0.2,0-0.4-0.1-0.5-0.2c-0.4-0.3-0.8-0.7-1.2-1.1c-0.3-0.3-0.3-0.8,0-1.1c0.3-0.3,0.8-0.3,1.1,0c0.4,0.3,0.7,0.7,1.1,1
				c0.3,0.3,0.4,0.8,0.1,1.1C22.5,86.2,22.3,86.3,22.1,86.3z M78.4,84.9c-0.3,0-0.6-0.2-0.7-0.4c-0.2-0.4-0.1-0.9,0.3-1.1
				c0.5-0.2,0.9-0.5,1.4-0.7c0.4-0.2,0.9-0.1,1.1,0.3c0.2,0.4,0.1,0.9-0.3,1.1c-0.5,0.3-0.9,0.5-1.4,0.7
				C78.6,84.9,78.5,84.9,78.4,84.9z M84.2,81.6c-0.3,0-0.5-0.1-0.7-0.4c-0.2-0.4-0.1-0.8,0.2-1.1c0.4-0.3,0.9-0.6,1.3-0.8
				c0.4-0.2,0.8-0.1,1.1,0.2c0.2,0.4,0.1,0.8-0.2,1.1c-0.4,0.3-0.9,0.6-1.3,0.9C84.5,81.5,84.4,81.6,84.2,81.6z M17.7,81.2
				c-0.3,0-0.5-0.1-0.7-0.4c-0.3-0.5-0.5-0.9-0.8-1.4c-0.2-0.4,0-0.9,0.4-1c0.4-0.2,0.9,0,1,0.4c0.2,0.4,0.5,0.9,0.7,1.3
				c0.2,0.4,0.1,0.8-0.3,1.1C17.9,81.2,17.8,81.2,17.7,81.2z M89.8,77.7c-0.2,0-0.5-0.1-0.6-0.3c-0.3-0.3-0.2-0.8,0.2-1.1
				c0.4-0.3,0.8-0.6,1.2-0.9c0.3-0.3,0.8-0.2,1.1,0.1c0.3,0.3,0.2,0.8-0.1,1.1c-0.4,0.3-0.8,0.6-1.2,1C90.1,77.7,90,77.7,89.8,77.7z
				 M15.3,74.9c-0.4,0-0.7-0.3-0.8-0.7c-0.1-0.5-0.2-1.1-0.2-1.6c0-0.4,0.3-0.8,0.7-0.8c0.4,0,0.8,0.3,0.8,0.7c0,0.5,0.1,1,0.2,1.5
				c0.1,0.4-0.2,0.8-0.6,0.9C15.4,74.9,15.4,74.9,15.3,74.9z M95,73.4c-0.2,0-0.4-0.1-0.6-0.3c-0.3-0.3-0.3-0.8,0.1-1.1
				c0.4-0.3,0.8-0.7,1.1-1c0.3-0.3,0.8-0.3,1.1,0c0.3,0.3,0.3,0.8,0,1.1c-0.4,0.4-0.8,0.7-1.2,1.1C95.4,73.4,95.2,73.4,95,73.4z
				 M62.2,69.6c-0.3,0-0.6-0.2-0.7-0.5c-0.1-0.4,0.1-0.9,0.5-1c0.5-0.2,1-0.3,1.4-0.5c0.4-0.2,0.9,0,1,0.5c0.2,0.4,0,0.9-0.5,1
				c-0.5,0.2-1,0.4-1.5,0.5C62.4,69.6,62.3,69.6,62.2,69.6z M99.8,68.7c-0.2,0-0.4-0.1-0.5-0.2c-0.3-0.3-0.3-0.8,0-1.1
				c0.4-0.4,0.7-0.8,1-1.1c0.3-0.3,0.8-0.4,1.1-0.1c0.3,0.3,0.4,0.8,0.1,1.1c-0.3,0.4-0.7,0.8-1.1,1.2
				C100.2,68.6,100,68.7,99.8,68.7z M15.4,68.2c0,0-0.1,0-0.1,0c-0.4-0.1-0.7-0.5-0.6-0.9c0.1-0.5,0.2-1,0.3-1.6
				c0.1-0.4,0.5-0.7,0.9-0.6c0.4,0.1,0.7,0.5,0.6,0.9c-0.1,0.5-0.2,1-0.3,1.5C16.1,67.9,15.7,68.2,15.4,68.2z M68.5,67
				c-0.3,0-0.6-0.2-0.7-0.4c-0.2-0.4,0-0.9,0.4-1c0.5-0.2,0.9-0.5,1.4-0.7c0.4-0.2,0.9-0.1,1.1,0.3c0.2,0.4,0.1,0.9-0.3,1.1
				c-0.5,0.2-0.9,0.5-1.4,0.7C68.7,67,68.6,67,68.5,67z M74.3,63.6c-0.2,0-0.5-0.1-0.6-0.3c-0.2-0.4-0.2-0.8,0.2-1.1
				c0.4-0.3,0.8-0.6,1.2-0.9c0.3-0.3,0.8-0.2,1.1,0.2c0.3,0.3,0.2,0.8-0.2,1.1c-0.4,0.3-0.9,0.6-1.3,0.9
				C74.6,63.6,74.4,63.6,74.3,63.6z M17.2,61.7c-0.1,0-0.2,0-0.3-0.1c-0.4-0.2-0.6-0.6-0.4-1c0.2-0.5,0.4-1,0.6-1.5
				c0.2-0.4,0.6-0.6,1-0.4c0.4,0.2,0.6,0.6,0.4,1c-0.2,0.5-0.4,0.9-0.6,1.4C17.8,61.5,17.5,61.7,17.2,61.7z M79.5,59.4
				c-0.2,0-0.4-0.1-0.6-0.2c-0.3-0.3-0.3-0.8,0-1.1c0.4-0.4,0.7-0.7,1.1-1.1c0.3-0.3,0.8-0.3,1.1,0c0.3,0.3,0.3,0.8,0,1.1
				c-0.4,0.4-0.7,0.8-1.1,1.1C79.9,59.3,79.7,59.4,79.5,59.4z M20.1,55.6c-0.1,0-0.3,0-0.4-0.1c-0.4-0.2-0.5-0.7-0.3-1.1
				c0.3-0.5,0.5-0.9,0.8-1.4c0.2-0.4,0.7-0.5,1.1-0.2c0.4,0.2,0.5,0.7,0.2,1.1c-0.3,0.4-0.5,0.9-0.8,1.3
				C20.7,55.5,20.4,55.6,20.1,55.6z M83.8,54.2c-0.1,0-0.3,0-0.4-0.1c-0.4-0.2-0.5-0.7-0.2-1.1c0.3-0.4,0.5-0.9,0.8-1.3
				c0.2-0.4,0.7-0.5,1.1-0.3c0.4,0.2,0.5,0.7,0.3,1.1c-0.3,0.5-0.5,0.9-0.8,1.4C84.3,54,84.1,54.2,83.8,54.2z M23.9,50
				c-0.2,0-0.3-0.1-0.5-0.2c-0.3-0.3-0.4-0.8-0.1-1.1c0.3-0.4,0.7-0.8,1-1.2c0.3-0.3,0.8-0.4,1.1-0.1c0.3,0.3,0.4,0.8,0.1,1.1
				c-0.3,0.4-0.7,0.8-1,1.2C24.4,49.9,24.2,50,23.9,50z M86.7,48c-0.1,0-0.1,0-0.2,0c-0.4-0.1-0.7-0.5-0.5-1c0.1-0.5,0.2-1,0.3-1.5
				c0.1-0.4,0.5-0.7,0.9-0.6c0.4,0.1,0.7,0.5,0.6,0.9c-0.1,0.5-0.2,1.1-0.4,1.6C87.3,47.8,87,48,86.7,48z M28.5,45.1
				c-0.2,0-0.4-0.1-0.6-0.2c-0.3-0.3-0.3-0.8,0-1.1c0.4-0.4,0.8-0.7,1.2-1.1c0.3-0.3,0.8-0.3,1.1,0.1c0.3,0.3,0.3,0.8-0.1,1.1
				c-0.4,0.3-0.8,0.7-1.1,1C28.9,45,28.7,45.1,28.5,45.1z M87.3,41.4c-0.4,0-0.7-0.3-0.8-0.7c0-0.5-0.1-1-0.2-1.5
				c-0.1-0.4,0.2-0.8,0.6-0.9c0.4-0.1,0.8,0.2,0.9,0.6c0.1,0.5,0.2,1.1,0.2,1.6C88.1,40.9,87.8,41.3,87.3,41.4
				C87.4,41.4,87.3,41.4,87.3,41.4z M33.6,40.7c-0.2,0-0.5-0.1-0.6-0.3c-0.3-0.3-0.2-0.8,0.2-1.1c0.4-0.3,0.9-0.6,1.3-0.9
				c0.4-0.2,0.8-0.2,1.1,0.2c0.2,0.4,0.2,0.8-0.2,1.1c-0.4,0.3-0.8,0.6-1.3,0.9C34,40.6,33.8,40.7,33.6,40.7z M39.3,37
				c-0.3,0-0.5-0.1-0.7-0.4c-0.2-0.4-0.1-0.9,0.3-1.1c0.5-0.3,0.9-0.5,1.4-0.8c0.4-0.2,0.9-0.1,1.1,0.3c0.2,0.4,0.1,0.9-0.3,1.1
				c-0.5,0.2-0.9,0.5-1.3,0.7C39.6,37,39.4,37,39.3,37z M85,35.1c-0.2,0-0.5-0.1-0.6-0.3c-0.3-0.4-0.6-0.8-0.9-1.1
				c-0.3-0.3-0.3-0.8,0-1.1c0.3-0.3,0.8-0.3,1.1,0c0.4,0.4,0.7,0.8,1.1,1.3c0.3,0.3,0.2,0.8-0.2,1.1C85.3,35,85.2,35.1,85,35.1z
				 M45.4,34c-0.3,0-0.6-0.2-0.7-0.5c-0.2-0.4,0-0.9,0.4-1c0.5-0.2,1-0.4,1.5-0.6c0.4-0.2,0.9,0,1,0.4c0.2,0.4,0,0.9-0.4,1
				c-0.5,0.2-1,0.4-1.4,0.6C45.6,34,45.5,34,45.4,34z M51.7,31.7c-0.3,0-0.6-0.2-0.7-0.6c-0.1-0.4,0.1-0.8,0.5-1
				c0.5-0.2,1-0.3,1.5-0.4c0.4-0.1,0.8,0.1,1,0.5c0.1,0.4-0.1,0.8-0.5,1c-0.5,0.1-1,0.3-1.5,0.4C51.9,31.7,51.8,31.7,51.7,31.7z
				 M79.8,31c-0.1,0-0.2,0-0.3-0.1c-0.4-0.2-0.9-0.4-1.4-0.6c-0.4-0.1-0.6-0.6-0.5-1c0.1-0.4,0.6-0.6,1-0.5c0.5,0.2,1,0.4,1.5,0.6
				c0.4,0.2,0.6,0.6,0.4,1C80.3,30.8,80,31,79.8,31z M58.3,30.1c-0.4,0-0.7-0.3-0.8-0.6c-0.1-0.4,0.2-0.8,0.6-0.9
				c0.5-0.1,1-0.2,1.6-0.3c0.4-0.1,0.8,0.2,0.9,0.6c0.1,0.4-0.2,0.8-0.6,0.9c-0.5,0.1-1,0.2-1.5,0.3C58.4,30.1,58.3,30.1,58.3,30.1z
				 M73.3,29.2c0,0-0.1,0-0.1,0c-0.5-0.1-1-0.1-1.5-0.2c-0.4,0-0.8-0.4-0.7-0.8c0-0.4,0.4-0.7,0.8-0.7c0.5,0,1.1,0.1,1.6,0.2
				c0.4,0.1,0.7,0.4,0.7,0.9C74,28.9,73.6,29.2,73.3,29.2z M65,29.1c-0.4,0-0.7-0.3-0.8-0.7c0-0.4,0.3-0.8,0.7-0.8
				c0.5,0,1.1-0.1,1.6-0.1c0.4,0,0.8,0.3,0.8,0.7c0,0.4-0.3,0.8-0.7,0.8C66,29,65.5,29,65,29.1C65,29.1,65,29.1,65,29.1z"/>
		</g>
		<g>
			<g>
				<path class="st1" d="M104.4,63.4c-0.2,0-0.3,0-0.4-0.1c-0.4-0.2-0.4-0.7-0.2-1.1c0.3-0.4,0.6-0.8,0.8-1.3
					c0.2-0.4,0.7-0.5,1.1-0.2c0.4,0.2,0.5,0.7,0.2,1.1c-0.3,0.4-0.6,0.9-0.9,1.3C104.8,63.3,104.6,63.4,104.4,63.4z M107.7,57.6
					c-0.1,0-0.2,0-0.3-0.1c-0.4-0.2-0.6-0.7-0.4-1c0.2-0.5,0.4-0.9,0.6-1.4c0.2-0.4,0.6-0.6,1-0.4c0.4,0.2,0.6,0.6,0.4,1
					c-0.2,0.5-0.4,1-0.7,1.4C108.3,57.4,108,57.6,107.7,57.6z"/>
			</g>
			<g>
				<path class="st1" d="M109.5,53.2c-0.1,0-0.2,0-0.3,0c-0.4-0.1-0.6-0.6-0.5-1c1-3,1.7-6,2-9c0.6-6.2-0.3-12-2.8-17.1
					c-0.2-0.4,0-0.9,0.4-1c0.4-0.2,0.9,0,1,0.4c2.6,5.4,3.6,11.4,2.9,17.9c-0.3,3.1-1,6.3-2.1,9.4C110.2,53,109.9,53.2,109.5,53.2z"
					/>
			</g>
		</g>
		<g>
			<g>
				<path class="st0" d="M57.6,8.5c-0.4,0-0.7-0.3-0.8-0.6c-0.1-0.4,0.2-0.8,0.6-0.9l0.8-0.1c0.4-0.1,0.8,0.2,0.9,0.6
					c0.1,0.4-0.2,0.8-0.6,0.9l-0.8,0.1C57.7,8.5,57.7,8.5,57.6,8.5z"/>
			</g>
			<g>
				<path class="st0" d="M105.2,21.6c-0.2,0-0.5-0.1-0.6-0.3c-0.3-0.4-0.6-0.8-0.9-1.1c-0.3-0.3-0.2-0.8,0.1-1.1
					c0.3-0.3,0.8-0.2,1.1,0.1c0.3,0.4,0.6,0.8,0.9,1.2c0.3,0.3,0.2,0.8-0.2,1.1C105.6,21.6,105.4,21.6,105.2,21.6z M100.9,17
					c-0.2,0-0.4-0.1-0.5-0.2c-0.4-0.3-0.7-0.6-1.1-0.9c-0.3-0.3-0.4-0.8-0.1-1.1c0.3-0.3,0.8-0.4,1.1-0.1c0.4,0.3,0.8,0.6,1.2,1
					c0.3,0.3,0.4,0.8,0.1,1.1C101.3,16.9,101.1,17,100.9,17z M95.7,13.3c-0.1,0-0.3,0-0.4-0.1c-0.4-0.2-0.8-0.5-1.3-0.7
					c-0.4-0.2-0.5-0.7-0.3-1.1c0.2-0.4,0.7-0.5,1.1-0.3c0.4,0.2,0.9,0.5,1.3,0.7c0.4,0.2,0.5,0.7,0.3,1.1
					C96.2,13.1,95.9,13.3,95.7,13.3z M89.9,10.5c-0.1,0-0.2,0-0.3-0.1c-0.4-0.2-0.9-0.3-1.4-0.5c-0.4-0.1-0.6-0.6-0.5-1
					c0.1-0.4,0.6-0.6,1-0.5c0.5,0.2,0.9,0.3,1.4,0.5c0.4,0.2,0.6,0.6,0.4,1C90.5,10.3,90.2,10.5,89.9,10.5z M83.8,8.6
					c-0.1,0-0.1,0-0.2,0c-0.5-0.1-0.9-0.2-1.4-0.3c-0.4-0.1-0.7-0.5-0.6-0.9c0.1-0.4,0.5-0.7,0.9-0.6C83,6.9,83.5,7,84,7.1
					c0.4,0.1,0.7,0.5,0.6,0.9C84.5,8.4,84.2,8.6,83.8,8.6z M63.3,7.7c-0.4,0-0.7-0.3-0.8-0.7c0-0.4,0.3-0.8,0.7-0.9
					c0.5-0.1,1-0.1,1.5-0.1c0.4,0,0.8,0.3,0.8,0.7c0,0.4-0.3,0.8-0.7,0.8C64.3,7.6,63.8,7.6,63.3,7.7C63.3,7.7,63.3,7.7,63.3,7.7z
					 M77.5,7.6C77.5,7.6,77.4,7.6,77.5,7.6c-0.6-0.1-1-0.1-1.5-0.1c-0.4,0-0.7-0.4-0.7-0.8c0-0.4,0.4-0.7,0.8-0.7
					c0.5,0,1,0.1,1.5,0.1c0.4,0,0.7,0.4,0.7,0.9C78.2,7.3,77.9,7.6,77.5,7.6z M69.7,7.3c-0.4,0-0.8-0.3-0.8-0.8
					c0-0.4,0.3-0.8,0.8-0.8c0.5,0,0.9,0,1.4,0c0.4,0,0.8,0.3,0.8,0.8s-0.3,0.8-0.7,0.8C70.6,7.3,70.1,7.3,69.7,7.3
					C69.7,7.3,69.7,7.3,69.7,7.3z"/>
			</g>
			<g>
				<path class="st0" d="M108.2,26.5c-0.3,0-0.6-0.2-0.7-0.4c-0.1-0.2-0.2-0.5-0.3-0.7c-0.2-0.4-0.1-0.9,0.3-1.1
					c0.4-0.2,0.9-0.1,1.1,0.3c0.1,0.2,0.2,0.5,0.4,0.7c0.2,0.4,0,0.9-0.4,1C108.5,26.5,108.3,26.5,108.2,26.5z"/>
			</g>
		</g>
		<g>
			<g>
				<path class="st1" d="M45.4,11.6c-0.3,0-0.6-0.2-0.7-0.5c-0.1-0.4,0.1-0.8,0.5-1c0.5-0.2,1-0.3,1.5-0.5c0.4-0.1,0.8,0.1,1,0.5
					c0.1,0.4-0.1,0.8-0.5,1c-0.5,0.1-1,0.3-1.5,0.5C45.5,11.5,45.5,11.6,45.4,11.6z M51.9,9.7c-0.4,0-0.7-0.2-0.8-0.6
					c-0.1-0.4,0.2-0.8,0.6-0.9c0.5-0.1,0.9-0.2,1.4-0.3C53.5,7.8,54,8,54.1,8.5s-0.2,0.8-0.6,0.9c-0.5,0.1-0.9,0.2-1.4,0.3
					C52,9.7,51.9,9.7,51.9,9.7z"/>
			</g>
			<g>
				<path class="st1" d="M18.9,24.2c-0.3,0-0.5-0.1-0.6-0.3c-0.2-0.4-0.1-0.8,0.2-1.1c7.1-4.8,14.9-8.7,23.2-11.6
					c0.4-0.1,0.9,0.1,1,0.5c0.1,0.4-0.1,0.9-0.5,1c-8.1,2.9-15.8,6.7-22.8,11.4C19.2,24.2,19.1,24.2,18.9,24.2z"/>
			</g>
		</g>
		<g>
			<g>
				<circle class="st1" cx="18.2" cy="25" r="7.3"/>
			</g>
			<g>
				<circle class="st2" cx="18.2" cy="25" r="6.1"/>
			</g>
			<g>
				<circle class="st3" cx="17.7" cy="24.3" r="5.3"/>
			</g>
			<g>
				<circle class="st4" cx="16.7" cy="22.9" r="3.2"/>
			</g>
			<g>
				<circle class="st1" cx="15.8" cy="21.6" r="1.3"/>
			</g>
		</g>
		<g>
			<g>
				<circle class="st1" cx="108.7" cy="25" r="7.3"/>
			</g>
			<g>
				<circle class="st2" cx="108.7" cy="25" r="6.1"/>
			</g>
			<g>
				<circle class="st3" cx="108.2" cy="24.3" r="5.3"/>
			</g>
			<g>
				<circle class="st4" cx="107.2" cy="22.9" r="3.2"/>
			</g>
			<g>
				<circle class="st1" cx="106.3" cy="21.6" r="1.3"/>
			</g>
		</g>
	</g>
	<g>
		<g>
			<path class="st0" d="M49.5,82.6c-0.4,0-0.8-0.3-0.8-0.7c0-0.4,0.3-0.8,0.7-0.8c0.5,0,1-0.1,1.5-0.1c0.4,0,0.8,0.3,0.8,0.7
				c0,0.4-0.3,0.8-0.7,0.8C50.6,82.5,50.1,82.5,49.5,82.6C49.5,82.6,49.5,82.6,49.5,82.6z M44.3,82.5C44.3,82.5,44.3,82.5,44.3,82.5
				c-0.6,0-1.1-0.1-1.7-0.2c-0.4-0.1-0.7-0.4-0.7-0.9s0.5-0.7,0.9-0.7c0.5,0.1,1,0.1,1.5,0.2c0.4,0,0.8,0.4,0.7,0.8
				C45,82.2,44.7,82.5,44.3,82.5z M56.2,81.8c-0.4,0-0.7-0.3-0.8-0.6c-0.1-0.4,0.2-0.8,0.6-0.9c0.5-0.1,1-0.2,1.5-0.3
				c0.4-0.1,0.8,0.2,0.9,0.6s-0.2,0.8-0.6,0.9c-0.5,0.1-1,0.2-1.6,0.3C56.3,81.8,56.2,81.8,56.2,81.8z M37.7,81.2
				c-0.1,0-0.2,0-0.3,0c-0.5-0.2-1-0.4-1.5-0.6c-0.4-0.2-0.6-0.6-0.4-1c0.2-0.4,0.6-0.6,1-0.4c0.4,0.2,0.9,0.4,1.4,0.6
				c0.4,0.1,0.6,0.6,0.5,1C38.3,81,38,81.2,37.7,81.2z M62.8,80.3c-0.3,0-0.7-0.2-0.8-0.6c-0.1-0.4,0.1-0.8,0.5-1
				c0.5-0.1,1-0.3,1.5-0.4c0.4-0.1,0.8,0.1,1,0.5c0.1,0.4-0.1,0.8-0.5,1c-0.5,0.2-1,0.3-1.5,0.4C62.9,80.3,62.9,80.3,62.8,80.3z
				 M69.2,78.1c-0.3,0-0.6-0.2-0.7-0.5c-0.2-0.4,0-0.9,0.4-1c0.5-0.2,1-0.4,1.4-0.6c0.4-0.2,0.9,0,1,0.4c0.2,0.4,0,0.9-0.4,1
				c-0.5,0.2-1,0.4-1.5,0.6C69.4,78.1,69.3,78.1,69.2,78.1z M32,77.7c-0.2,0-0.4-0.1-0.6-0.2c-0.4-0.4-0.7-0.8-1.1-1.3
				c-0.3-0.3-0.2-0.8,0.2-1.1c0.3-0.3,0.8-0.2,1.1,0.2c0.3,0.4,0.6,0.8,0.9,1.1c0.3,0.3,0.3,0.8,0,1.1C32.4,77.6,32.2,77.7,32,77.7z
				 M75.3,75.3c-0.3,0-0.5-0.1-0.7-0.4c-0.2-0.4-0.1-0.9,0.3-1.1c0.5-0.2,0.9-0.5,1.3-0.7c0.4-0.2,0.9-0.1,1.1,0.3
				c0.2,0.4,0.1,0.9-0.3,1.1c-0.5,0.3-0.9,0.5-1.4,0.8C75.6,75.3,75.5,75.3,75.3,75.3z M81.1,71.8c-0.2,0-0.5-0.1-0.6-0.3
				c-0.2-0.4-0.2-0.8,0.2-1.1c0.4-0.3,0.8-0.6,1.3-0.9c0.3-0.3,0.8-0.2,1.1,0.2c0.3,0.3,0.2,0.8-0.2,1.1c-0.4,0.3-0.9,0.6-1.3,0.9
				C81.4,71.7,81.3,71.8,81.1,71.8z M28.9,71.7c-0.4,0-0.7-0.3-0.8-0.6c-0.1-0.5-0.2-1.1-0.2-1.6c0-0.4,0.3-0.8,0.7-0.9
				c0.4-0.1,0.8,0.3,0.9,0.7c0,0.5,0.1,1,0.2,1.5c0.1,0.4-0.2,0.8-0.6,0.9C29,71.7,29,71.7,28.9,71.7z M86.4,67.6
				c-0.2,0-0.4-0.1-0.6-0.3c-0.3-0.3-0.3-0.8,0.1-1.1c0.4-0.3,0.8-0.7,1.1-1c0.3-0.3,0.8-0.3,1.1,0c0.3,0.3,0.3,0.8,0,1.1
				c-0.4,0.4-0.8,0.7-1.2,1.1C86.8,67.5,86.6,67.6,86.4,67.6z M29,65c0,0-0.1,0-0.1,0c-0.4-0.1-0.7-0.5-0.6-0.9
				c0.1-0.5,0.2-1.1,0.4-1.6c0.1-0.4,0.5-0.7,1-0.5c0.4,0.1,0.7,0.5,0.5,1c-0.1,0.5-0.2,1-0.3,1.5C29.7,64.8,29.4,65,29,65z
				 M91.1,62.7c-0.2,0-0.4-0.1-0.5-0.2c-0.3-0.3-0.4-0.8-0.1-1.1c0.3-0.4,0.7-0.8,1-1.2c0.3-0.3,0.8-0.4,1.1-0.1
				c0.3,0.3,0.4,0.8,0.1,1.1c-0.3,0.4-0.7,0.8-1,1.2C91.5,62.6,91.3,62.7,91.1,62.7z M31.3,58.7c-0.1,0-0.3,0-0.4-0.1
				c-0.4-0.2-0.5-0.7-0.3-1.1c0.3-0.5,0.5-0.9,0.8-1.4c0.2-0.4,0.7-0.5,1.1-0.2c0.4,0.2,0.5,0.7,0.2,1.1c-0.3,0.4-0.5,0.9-0.8,1.3
				C31.9,58.6,31.6,58.7,31.3,58.7z M95.1,57.3c-0.1,0-0.3,0-0.4-0.1c-0.4-0.2-0.5-0.7-0.2-1.1c0.3-0.4,0.5-0.9,0.8-1.3
				c0.2-0.4,0.7-0.5,1.1-0.3c0.4,0.2,0.5,0.7,0.3,1.1c-0.3,0.5-0.5,0.9-0.8,1.4C95.6,57.1,95.3,57.3,95.1,57.3z M35.4,53.3
				c-0.2,0-0.4-0.1-0.5-0.2c-0.3-0.3-0.3-0.8,0-1.1c0.4-0.4,0.7-0.8,1.1-1.1c0.3-0.3,0.8-0.3,1.1,0c0.3,0.3,0.3,0.8,0,1.1
				c-0.4,0.4-0.7,0.7-1.1,1.1C35.8,53.2,35.6,53.3,35.4,53.3z M98.2,51.3c-0.1,0-0.2,0-0.3-0.1c-0.4-0.2-0.6-0.6-0.4-1
				c0.2-0.5,0.4-0.9,0.6-1.4c0.2-0.4,0.6-0.6,1-0.4c0.4,0.2,0.6,0.6,0.4,1c-0.2,0.5-0.4,1-0.6,1.5C98.8,51.1,98.5,51.3,98.2,51.3z
				 M40.4,48.9c-0.2,0-0.5-0.1-0.6-0.3c-0.3-0.3-0.2-0.8,0.2-1.1c0.4-0.3,0.9-0.6,1.3-0.9c0.4-0.2,0.8-0.2,1.1,0.2
				c0.2,0.4,0.2,0.8-0.2,1.1c-0.4,0.3-0.8,0.6-1.2,0.9C40.8,48.8,40.6,48.9,40.4,48.9z M46.2,45.3c-0.3,0-0.5-0.2-0.7-0.4
				c-0.2-0.4-0.1-0.9,0.3-1.1c0.5-0.2,0.9-0.5,1.4-0.7c0.4-0.2,0.9,0,1,0.4c0.2,0.4,0,0.9-0.4,1c-0.5,0.2-0.9,0.5-1.4,0.7
				C46.4,45.2,46.3,45.3,46.2,45.3z M100.3,44.9c-0.1,0-0.1,0-0.2,0c-0.4-0.1-0.7-0.5-0.6-0.9c0.1-0.5,0.2-1,0.3-1.5
				c0.1-0.4,0.5-0.7,0.9-0.6c0.4,0.1,0.7,0.5,0.6,0.9c-0.1,0.5-0.2,1-0.3,1.6C101,44.6,100.7,44.9,100.3,44.9z M15.1,44
				c-0.2,0-0.4-0.1-0.5-0.2c-0.3-0.3-0.4-0.8-0.1-1.1c0.3-0.4,0.7-0.8,1.1-1.2c0.3-0.3,0.8-0.3,1.1,0c0.3,0.3,0.3,0.8,0,1.1
				c-0.4,0.4-0.7,0.8-1,1.1C15.6,44,15.3,44,15.1,44z M52.3,42.5c-0.3,0-0.6-0.2-0.7-0.5c-0.2-0.4,0-0.9,0.5-1
				c0.5-0.2,1-0.4,1.5-0.5c0.4-0.1,0.9,0.1,1,0.5c0.1,0.4-0.1,0.9-0.5,1c-0.5,0.2-1,0.3-1.4,0.5C52.5,42.5,52.4,42.5,52.3,42.5z
				 M19.8,39.2c-0.2,0-0.4-0.1-0.6-0.2c-0.3-0.3-0.3-0.8,0-1.1c0.4-0.4,0.8-0.7,1.2-1.1c0.3-0.3,0.8-0.3,1.1,0.1
				c0.3,0.3,0.3,0.8-0.1,1.1c-0.4,0.3-0.8,0.7-1.1,1C20.2,39.1,20,39.2,19.8,39.2z M100.9,38.2c-0.4,0-0.7-0.3-0.8-0.7
				c0-0.5-0.1-1-0.2-1.5c-0.1-0.4,0.2-0.8,0.6-0.9c0.4-0.1,0.8,0.2,0.9,0.6c0.1,0.5,0.2,1.1,0.2,1.6
				C101.7,37.7,101.4,38.1,100.9,38.2C100.9,38.2,100.9,38.2,100.9,38.2z M25,34.8c-0.2,0-0.5-0.1-0.6-0.3c-0.3-0.3-0.2-0.8,0.1-1.1
				c0.4-0.3,0.8-0.6,1.2-1c0.3-0.3,0.8-0.2,1.1,0.2c0.3,0.3,0.2,0.8-0.2,1.1c-0.4,0.3-0.8,0.6-1.2,0.9C25.3,34.7,25.1,34.8,25,34.8z
				 M99.1,31.7c-0.3,0-0.6-0.2-0.7-0.4c-0.2-0.4-0.5-0.9-0.7-1.3c-0.2-0.4-0.1-0.8,0.3-1.1c0.4-0.2,0.8-0.1,1.1,0.3
				c0.3,0.5,0.5,0.9,0.8,1.4c0.2,0.4,0,0.9-0.4,1C99.3,31.7,99.2,31.7,99.1,31.7z M30.4,30.8c-0.3,0-0.5-0.1-0.7-0.4
				c-0.2-0.4-0.1-0.8,0.2-1.1c0.4-0.3,0.9-0.6,1.3-0.9c0.4-0.2,0.8-0.1,1.1,0.2c0.2,0.4,0.1,0.8-0.2,1.1c-0.4,0.3-0.9,0.6-1.3,0.8
				C30.7,30.8,30.6,30.8,30.4,30.8z M36.2,27.4c-0.3,0-0.5-0.1-0.7-0.4c-0.2-0.4-0.1-0.9,0.3-1.1c0.5-0.3,0.9-0.5,1.4-0.7
				c0.4-0.2,0.9-0.1,1.1,0.3c0.2,0.4,0.1,0.9-0.3,1.1c-0.5,0.2-0.9,0.5-1.4,0.7C36.5,27.3,36.4,27.4,36.2,27.4z M95.1,26.3
				c-0.2,0-0.4-0.1-0.5-0.2c-0.4-0.3-0.7-0.7-1.1-1c-0.3-0.3-0.4-0.8-0.1-1.1c0.3-0.3,0.8-0.4,1.1-0.1c0.4,0.3,0.8,0.7,1.2,1.1
				c0.3,0.3,0.3,0.8,0,1.1C95.5,26.2,95.3,26.3,95.1,26.3z M42.3,24.4c-0.3,0-0.6-0.2-0.7-0.5c-0.2-0.4,0-0.9,0.4-1
				c0.5-0.2,1-0.4,1.4-0.6c0.4-0.2,0.9,0,1,0.4c0.2,0.4,0,0.9-0.4,1c-0.5,0.2-0.9,0.4-1.4,0.6C42.5,24.4,42.4,24.4,42.3,24.4z
				 M89.6,22.4c-0.1,0-0.2,0-0.4-0.1c-0.4-0.2-0.9-0.5-1.4-0.7c-0.4-0.2-0.6-0.6-0.4-1c0.2-0.4,0.6-0.6,1-0.4c0.5,0.2,1,0.5,1.4,0.7
				c0.4,0.2,0.5,0.7,0.3,1.1C90.2,22.2,89.9,22.4,89.6,22.4z M48.6,21.9c-0.3,0-0.6-0.2-0.7-0.5c-0.1-0.4,0.1-0.9,0.5-1
				c0.5-0.2,1-0.3,1.5-0.5c0.4-0.1,0.8,0.1,1,0.5c0.1,0.4-0.1,0.8-0.5,1c-0.5,0.2-1,0.3-1.5,0.5C48.8,21.9,48.7,21.9,48.6,21.9z
				 M55.1,20c-0.4,0-0.7-0.2-0.8-0.6c-0.1-0.4,0.2-0.8,0.6-0.9c0.5-0.1,1-0.2,1.5-0.4c0.4-0.1,0.8,0.2,0.9,0.6
				c0.1,0.4-0.2,0.8-0.6,0.9c-0.5,0.1-1,0.2-1.5,0.3C55.2,20,55.1,20,55.1,20z M83.3,19.8c-0.1,0-0.1,0-0.2,0
				c-0.5-0.1-1-0.3-1.5-0.4c-0.4-0.1-0.7-0.5-0.6-0.9c0.1-0.4,0.5-0.7,0.9-0.6c0.5,0.1,1,0.3,1.5,0.4c0.4,0.1,0.7,0.6,0.5,1
				C84,19.6,83.7,19.8,83.3,19.8z M61.7,18.7c-0.4,0-0.7-0.3-0.8-0.7c-0.1-0.4,0.2-0.8,0.7-0.9c0.5-0.1,1-0.1,1.6-0.2
				c0.4,0,0.8,0.3,0.9,0.7c0.1,0.4-0.3,0.8-0.7,0.9c-0.5,0.1-1,0.1-1.5,0.2C61.8,18.7,61.7,18.7,61.7,18.7z M76.7,18.5
				C76.7,18.5,76.7,18.5,76.7,18.5c-0.6-0.1-1.1-0.1-1.6-0.2c-0.4,0-0.7-0.4-0.7-0.8c0-0.4,0.4-0.7,0.8-0.7c0.5,0,1.1,0.1,1.6,0.2
				c0.4,0.1,0.7,0.4,0.7,0.9C77.5,18.2,77.1,18.5,76.7,18.5z M68.4,18.1c-0.4,0-0.8-0.3-0.8-0.8c0-0.4,0.3-0.8,0.8-0.8
				c0.5,0,1.1,0,1.6,0c0,0,0,0,0,0c0.4,0,0.8,0.3,0.8,0.8c0,0.4-0.3,0.8-0.8,0.8C69.5,18.1,69,18.1,68.4,18.1
				C68.4,18.1,68.4,18.1,68.4,18.1z"/>
		</g>
		<g>
			<g>
				<path class="st1" d="M7.6,55.4c-0.1,0-0.2,0-0.3-0.1c-0.4-0.2-0.6-0.6-0.4-1c0.2-0.5,0.4-1,0.7-1.4c0.2-0.4,0.7-0.6,1-0.4
					c0.4,0.2,0.6,0.7,0.4,1c-0.2,0.5-0.4,0.9-0.6,1.4C8.2,55.2,7.9,55.4,7.6,55.4z M10.8,49.4c-0.1,0-0.3,0-0.4-0.1
					c-0.4-0.2-0.5-0.7-0.2-1.1c0.3-0.4,0.6-0.9,0.9-1.3c0.2-0.4,0.7-0.4,1.1-0.2c0.4,0.2,0.4,0.7,0.2,1.1c-0.3,0.4-0.6,0.8-0.8,1.3
					C11.3,49.3,11,49.4,10.8,49.4z"/>
			</g>
			<g>
				<path class="st1" d="M7.3,85.1c-0.3,0-0.6-0.2-0.7-0.4c-2.6-5.4-3.6-11.4-2.9-17.9c0.3-3.1,1-6.2,2.1-9.3c0.1-0.4,0.6-0.6,1-0.5
					c0.4,0.1,0.6,0.6,0.5,1c-1,3-1.7,6-2,8.9C4.5,73.1,5.5,78.8,8,84c0.2,0.4,0,0.9-0.4,1C7.5,85,7.4,85.1,7.3,85.1z"/>
			</g>
		</g>
		<g>
			<g>
				<path class="st0" d="M57.6,103.2c-0.4,0-0.7-0.3-0.8-0.6c-0.1-0.4,0.2-0.8,0.6-0.9l0.8-0.1c0.4-0.1,0.8,0.2,0.9,0.6
					c0.1,0.4-0.2,0.8-0.6,0.9l-0.8,0.1C57.7,103.2,57.6,103.2,57.6,103.2z"/>
			</g>
			<g>
				<path class="st0" d="M45,104.3c-0.4,0-0.8-0.3-0.8-0.8c0-0.4,0.3-0.8,0.7-0.8c0.5,0,1,0,1.5,0c0.4,0,0.8,0.3,0.8,0.8
					c0,0.4-0.3,0.8-0.8,0.8C45.9,104.3,45.4,104.3,45,104.3z M40,104.1C39.9,104.1,39.9,104.1,40,104.1c-0.6,0-1.1-0.1-1.6-0.1
					c-0.4,0-0.7-0.4-0.7-0.9c0-0.4,0.4-0.7,0.9-0.7c0.5,0.1,1,0.1,1.4,0.1c0.4,0,0.7,0.4,0.7,0.8C40.7,103.8,40.4,104.1,40,104.1z
					 M51.3,104c-0.4,0-0.7-0.3-0.8-0.7c0-0.4,0.3-0.8,0.7-0.8c0.5,0,1-0.1,1.5-0.1c0.4-0.1,0.8,0.3,0.9,0.7c0,0.4-0.3,0.8-0.7,0.9
					C52.3,103.9,51.8,104,51.3,104C51.3,104,51.3,104,51.3,104z M33.6,103.2c-0.1,0-0.1,0-0.2,0c-0.5-0.1-1-0.2-1.5-0.3
					c-0.4-0.1-0.7-0.5-0.6-0.9c0.1-0.4,0.5-0.7,0.9-0.6c0.5,0.1,0.9,0.2,1.4,0.3c0.4,0.1,0.7,0.5,0.6,0.9
					C34.3,103,34,103.2,33.6,103.2z M27.5,101.6c-0.1,0-0.2,0-0.3,0c-0.5-0.2-0.9-0.3-1.4-0.5c-0.4-0.2-0.6-0.6-0.4-1
					c0.2-0.4,0.6-0.6,1-0.4c0.4,0.2,0.9,0.3,1.4,0.5c0.4,0.1,0.6,0.6,0.5,1C28.1,101.4,27.8,101.6,27.5,101.6z M21.6,99
					c-0.1,0-0.2,0-0.4-0.1c-0.4-0.2-0.9-0.5-1.3-0.7c-0.4-0.2-0.5-0.7-0.3-1.1c0.2-0.4,0.7-0.5,1.1-0.3c0.4,0.2,0.8,0.5,1.3,0.7
					c0.4,0.2,0.5,0.7,0.3,1.1C22.2,98.9,21.9,99,21.6,99z M16.3,95.5c-0.2,0-0.3-0.1-0.5-0.2c-0.4-0.3-0.8-0.6-1.2-1
					c-0.3-0.3-0.4-0.8-0.1-1.1c0.3-0.3,0.8-0.4,1.1-0.1c0.4,0.3,0.7,0.6,1.1,0.9c0.3,0.3,0.4,0.8,0.1,1.1
					C16.7,95.4,16.5,95.5,16.3,95.5z M11.7,91.1c-0.2,0-0.4-0.1-0.6-0.3c-0.3-0.4-0.6-0.8-0.9-1.2c-0.3-0.3-0.2-0.8,0.2-1.1
					c0.3-0.3,0.8-0.2,1.1,0.2c0.3,0.4,0.6,0.8,0.9,1.1c0.3,0.3,0.2,0.8-0.1,1.1C12,91,11.9,91.1,11.7,91.1z"/>
			</g>
			<g>
				<path class="st0" d="M8.1,85.8c-0.3,0-0.6-0.2-0.7-0.4c-0.1-0.2-0.2-0.5-0.4-0.7c-0.2-0.4,0-0.9,0.4-1c0.4-0.2,0.9,0,1,0.4
					c0.1,0.2,0.2,0.5,0.3,0.7C9,85,8.9,85.5,8.5,85.7C8.4,85.7,8.3,85.8,8.1,85.8z"/>
			</g>
		</g>
		<g>
			<g>
				<path class="st1" d="M62.7,102.2c-0.4,0-0.7-0.2-0.8-0.6c-0.1-0.4,0.2-0.8,0.6-0.9c0.5-0.1,0.9-0.2,1.4-0.3
					c0.4-0.1,0.8,0.2,0.9,0.6c0.1,0.4-0.2,0.8-0.6,0.9c-0.5,0.1-0.9,0.2-1.4,0.3C62.8,102.1,62.8,102.2,62.7,102.2z M69.1,100.5
					c-0.3,0-0.6-0.2-0.7-0.6c-0.1-0.4,0.1-0.8,0.5-1c0.5-0.1,1-0.3,1.5-0.5c0.4-0.1,0.8,0.1,1,0.5c0.1,0.4-0.1,0.8-0.5,1
					c-0.5,0.2-1,0.3-1.5,0.5C69.3,100.5,69.2,100.5,69.1,100.5z"/>
			</g>
			<g>
				<path class="st1" d="M74.1,98.9c-0.3,0-0.6-0.2-0.7-0.5c-0.1-0.4,0.1-0.9,0.5-1c8.1-2.9,15.8-6.7,22.8-11.4
					c0.4-0.2,0.8-0.1,1.1,0.2c0.2,0.4,0.1,0.8-0.2,1.1c-7.2,4.8-14.9,8.7-23.2,11.6C74.2,98.9,74.1,98.9,74.1,98.9z"/>
			</g>
		</g>
		<g>
			<g>
				<circle class="st1" cx="97.8" cy="85" r="7.3"/>
			</g>
			<g>
				<circle class="st2" cx="97.8" cy="85" r="6.1"/>
			</g>
			<g>
				<circle class="st3" cx="98.3" cy="85.7" r="5.3"/>
			</g>
			<g>
				<circle class="st4" cx="99.3" cy="87.1" r="3.2"/>
			</g>
			<g>
				<circle class="st1" cx="100.2" cy="88.4" r="1.3"/>
			</g>
		</g>
		<g>
			<g>
				<circle class="st1" cx="7.3" cy="85" r="7.3"/>
			</g>
			<g>
				<circle class="st2" cx="7.3" cy="85" r="6.1"/>
			</g>
			<g>
				<circle class="st3" cx="7.8" cy="85.7" r="5.3"/>
			</g>
			<g>
				<circle class="st4" cx="8.8" cy="87.1" r="3.2"/>
			</g>
			<g>
				<circle class="st1" cx="9.7" cy="88.4" r="1.3"/>
			</g>
		</g>
	</g>
	<g>
		<circle class="st1" cx="57.7" cy="55.2" r="17.2"/>
		<circle class="st5" cx="57.7" cy="55.2" r="15.1"/>
		<circle class="st6" cx="56.3" cy="53.5" r="13"/>
		<circle class="st7" cx="53.8" cy="50.2" r="8"/>
		<circle class="st1" cx="51.6" cy="47" r="3.3"/>
	</g>
</g>
</svg>
