<svg width="35" height="34" viewBox="0 0 35 34" fill="none" xmlns="http://www.w3.org/2000/svg">
<mask id="mask0_211_58730" style="mask-type:alpha" maskUnits="userSpaceOnUse" x="0" y="0" width="35" height="34">
<rect x="0.029541" width="34" height="34" fill="#D9D9D9"/>
</mask>
<g mask="url(#mask0_211_58730)">
<path d="M8.56492 24.5082C9.76908 23.6109 11.0795 22.9026 12.4962 22.3832C13.9128 21.8637 15.4239 21.604 17.0295 21.604C18.6351 21.604 20.1462 21.8637 21.5628 22.3832C22.9795 22.9026 24.2899 23.6109 25.4941 24.5082C26.3677 23.5401 27.0642 22.4186 27.5837 21.1436C28.1031 19.8686 28.3628 18.4873 28.3628 16.9998C28.3628 13.8596 27.2593 11.1854 25.0521 8.97725C22.844 6.77009 20.1698 5.6665 17.0295 5.6665C13.8892 5.6665 11.2155 6.77009 9.00833 8.97725C6.80022 11.1854 5.69617 13.8596 5.69617 16.9998C5.69617 18.4873 5.95589 19.8686 6.47533 21.1436C6.99478 22.4186 7.69131 23.5401 8.56492 24.5082ZM17.0295 18.0623C15.7309 18.0623 14.6391 17.6194 13.7542 16.7335C12.8683 15.8486 12.4253 14.7568 12.4253 13.4582C12.4253 12.1596 12.8683 11.0678 13.7542 10.1828C14.6391 9.29695 15.7309 8.854 17.0295 8.854C18.3281 8.854 19.4199 9.29695 20.3048 10.1828C21.1907 11.0678 21.6337 12.1596 21.6337 13.4582C21.6337 14.7568 21.1907 15.8486 20.3048 16.7335C19.4199 17.6194 18.3281 18.0623 17.0295 18.0623ZM17.0295 30.4582C15.1642 30.4582 13.4113 30.104 11.7708 29.3957C10.1294 28.6873 8.70658 27.7311 7.50242 26.5269C6.29825 25.3228 5.342 23.9 4.63367 22.2585C3.92533 20.618 3.57117 18.8651 3.57117 16.9998C3.57117 15.1346 3.92533 13.3812 4.63367 11.7398C5.342 10.0993 6.29825 8.67692 7.50242 7.47275C8.70658 6.26859 10.1294 5.31234 11.7708 4.604C13.4113 3.89567 15.1642 3.5415 17.0295 3.5415C18.8948 3.5415 20.6481 3.89567 22.2896 4.604C23.9301 5.31234 25.3524 6.26859 26.5566 7.47275C27.7608 8.67692 28.717 10.0993 29.4253 11.7398C30.1337 13.3812 30.4878 15.1346 30.4878 16.9998C30.4878 18.8651 30.1337 20.618 29.4253 22.2585C28.717 23.9 27.7608 25.3228 26.5566 26.5269C25.3524 27.7311 23.9301 28.6873 22.2896 29.3957C20.6481 30.104 18.8948 30.4582 17.0295 30.4582ZM17.0295 28.3332C18.3045 28.3332 19.5384 28.1263 20.7313 27.7127C21.9231 27.2999 22.9795 26.7276 23.9003 25.9957C22.9795 25.2873 21.9345 24.7325 20.7653 24.3311C19.597 23.9297 18.3517 23.729 17.0295 23.729C15.7073 23.729 14.462 23.924 13.2938 24.3141C12.1245 24.7032 11.0795 25.2637 10.1587 25.9957C11.0795 26.7276 12.1359 27.2999 13.3278 27.7127C14.5206 28.1263 15.7545 28.3332 17.0295 28.3332ZM17.0295 15.9373C17.7378 15.9373 18.3281 15.7012 18.8003 15.229C19.2726 14.7568 19.5087 14.1665 19.5087 13.4582C19.5087 12.7498 19.2726 12.1596 18.8003 11.6873C18.3281 11.2151 17.7378 10.979 17.0295 10.979C16.3212 10.979 15.7309 11.2151 15.2587 11.6873C14.7864 12.1596 14.5503 12.7498 14.5503 13.4582C14.5503 14.1665 14.7864 14.7568 15.2587 15.229C15.7309 15.7012 16.3212 15.9373 17.0295 15.9373Z" fill="white"/>
</g>
</svg>
