<svg width="85" height="85" viewBox="0 0 85 85" fill="none" xmlns="http://www.w3.org/2000/svg">
<mask id="mask0_14_21217" style="mask-type:alpha" maskUnits="userSpaceOnUse" x="0" y="0" width="85" height="85">
<rect width="85" height="85" fill="#D9D9D9"/>
</mask>
<g mask="url(#mask0_14_21217)">
<path d="M17.7083 74.375C15.7604 74.375 14.0923 73.682 12.704 72.296C11.318 70.9077 10.625 69.2396 10.625 67.2917V17.7083C10.625 15.7604 11.318 14.0923 12.704 12.704C14.0923 11.318 15.7604 10.625 17.7083 10.625H49.5833V28.3333H56.6667V35.4167H74.375V67.2917C74.375 69.2396 73.682 70.9077 72.296 72.296C70.9077 73.682 69.2396 74.375 67.2917 74.375H17.7083ZM21.25 60.2083H63.75L50.4688 42.5L39.8438 56.6667L31.875 46.0417L21.25 60.2083ZM60.2083 31.875V24.7917H53.125V17.7083H60.2083V10.625H67.2917V17.7083H74.375V24.7917H67.2917V31.875H60.2083Z" fill="#9F9FBA"/>
</g>
</svg>
