<svg width="29" height="28" viewBox="0 0 29 28" fill="none" xmlns="http://www.w3.org/2000/svg">
<mask id="mask0_66_21899" style="mask-type:alpha" maskUnits="userSpaceOnUse" x="0" y="0" width="29" height="28">
<rect x="0.0878906" width="28.1353" height="28" fill="#D9D9D9"/>
</mask>
<g mask="url(#mask0_66_21899)">
<path d="M14.1552 24.5C12.6898 24.5 11.3175 24.2231 10.0381 23.6693C8.75794 23.1148 7.64425 22.3658 6.69703 21.4223C5.74902 20.4797 4.99641 19.3713 4.43917 18.0973C3.88272 16.8241 3.60449 15.4583 3.60449 14C3.60449 12.5417 3.88272 11.1755 4.43917 9.9015C4.99641 8.62828 5.74902 7.51994 6.69703 6.5765C7.64425 5.63383 8.75794 4.88561 10.0381 4.33183C11.3175 3.77728 12.6898 3.5 14.1552 3.5C15.6206 3.5 16.9934 3.77728 18.2735 4.33183C19.5529 4.88561 20.6666 5.63383 21.6146 6.5765C22.5618 7.51994 23.314 8.62828 23.8713 9.9015C24.4277 11.1755 24.7059 12.5417 24.7059 14C24.7059 15.4583 24.4277 16.8241 23.8713 18.0973C23.314 19.3713 22.5618 20.4797 21.6146 21.4223C20.6666 22.3658 19.5529 23.1148 18.2735 23.6693C16.9934 24.2231 15.6206 24.5 14.1552 24.5ZM17.4377 18.9L19.0789 17.2667L15.3275 13.5333V8.16667H12.9829V14.4667L17.4377 18.9ZM14.1552 22.1667C16.4412 22.1667 18.3802 21.3741 19.9722 19.789C21.565 18.2047 22.3613 16.275 22.3613 14C22.3613 11.725 21.565 9.79494 19.9722 8.20983C18.3802 6.6255 16.4412 5.83333 14.1552 5.83333C11.8692 5.83333 9.93024 6.6255 8.33825 8.20983C6.74548 9.79494 5.9491 11.725 5.9491 14C5.9491 16.275 6.74548 18.2047 8.33825 19.789C9.93024 21.3741 11.8692 22.1667 14.1552 22.1667Z" fill="#C4C4D3"/>
</g>
</svg>
