<svg width="25" height="24" viewBox="0 0 25 24" fill="none" xmlns="http://www.w3.org/2000/svg">
<mask id="mask0_82_27998" style="mask-type:alpha" maskUnits="userSpaceOnUse" x="0" y="0" width="25" height="24">
<rect x="0.621582" width="24" height="24" fill="#D9D9D9"/>
</mask>
<g mask="url(#mask0_82_27998)">
<path d="M15.6216 17.5L8.62158 15.55V6H10.5716L16.7716 8.3C17.3216 8.5 17.7676 8.85 18.1096 9.35C18.4509 9.85 18.6216 10.4 18.6216 11H16.6216C15.9216 11 15.3716 10.975 14.9716 10.925C14.5716 10.875 14.2216 10.8 13.9216 10.7L11.9216 10.05L11.6216 11L13.1966 11.575C13.6632 11.7583 14.0882 11.875 14.4716 11.925C14.8549 11.975 15.3049 12 15.8216 12H20.6216C21.7216 12 22.4966 12.1793 22.9466 12.538C23.3966 12.896 23.6216 13.3833 23.6216 14V15L15.6216 17.5ZM2.62158 17V6H6.62158V17H2.62158Z" fill="white"/>
</g>
</svg>
