<svg width="32" height="32" viewBox="0 0 32 32" fill="none" xmlns="http://www.w3.org/2000/svg">
<path d="M19.4841 14.7769L21.7027 11.0122L27.6829 20.3265L27.6858 22.1141L27.6663 9.81366C27.6521 9.51298 27.4924 9.23794 27.2377 9.07571L16.4712 2.88263C16.2195 2.7588 15.8999 2.76023 15.6486 2.88655C15.6146 2.90347 15.5826 2.92202 15.5522 2.94224L15.5146 2.96583L5.06409 9.02182L5.02358 9.04024C4.97144 9.0642 4.91867 9.09469 4.86926 9.1301C4.67107 9.27216 4.53952 9.4823 4.49696 9.71801C4.49055 9.75373 4.48582 9.79007 4.48364 9.82685L4.50007 19.8505L10.0703 11.2169C10.7716 10.0721 12.2995 9.70333 13.718 9.72337L15.3827 9.7673L5.57366 25.4983L6.72995 26.1639L16.6564 9.78329L21.044 9.76736L11.1431 26.5613L15.2691 28.9345L15.7621 29.218C15.9706 29.3028 16.2164 29.3071 16.4267 29.2311L27.3445 22.904L25.2572 24.1136L19.4841 14.7769ZM20.3305 26.9687L16.1633 20.4282L18.7072 16.1115L24.1801 24.7378L20.3305 26.9687Z" fill="#2D374B"/>
<path d="M16.1633 20.428L20.3305 26.9686L24.1801 24.7377L18.7071 16.1113L16.1633 20.428Z" fill="#28A0F0"/>
<path d="M27.6858 22.114L27.6829 20.3264L21.7028 11.0121L19.4841 14.7768L25.2571 24.1134L27.3444 22.9039C27.5492 22.7375 27.6731 22.4935 27.6861 22.2303L27.6858 22.114Z" fill="#28A0F0"/>
<path d="M2.62598 23.7997L5.57358 25.4983L15.3826 9.76736L13.7178 9.72342C12.2994 9.70339 10.7714 10.0721 10.0701 11.2169L4.49993 19.8505L2.62598 22.7298V23.7997V23.7997Z" fill="white"/>
<path d="M21.044 9.76733L16.6565 9.78326L6.72998 26.1639L10.1996 28.1615L11.1431 26.5613L21.044 9.76733Z" fill="white"/>
<path d="M29.5347 9.74473C29.498 8.82714 29.0011 7.98714 28.2229 7.49811L17.3153 1.22537C16.5455 0.837764 15.5838 0.837266 14.8126 1.22512C14.7215 1.27111 4.20522 7.37011 4.20522 7.37011C4.05967 7.43993 3.91948 7.52306 3.78762 7.61746C3.09292 8.11533 2.66947 8.88905 2.62598 9.73907V22.7298L4.49993 19.8505L4.48356 9.82687C4.48574 9.79022 4.49034 9.75413 4.49688 9.71853C4.53925 9.48269 4.67092 9.27231 4.86918 9.13012C4.91865 9.09471 15.6146 2.90349 15.6485 2.88651C15.8999 2.76025 16.2195 2.75876 16.4712 2.88259L27.2377 9.07555C27.4924 9.23777 27.6521 9.51281 27.6663 9.81349V22.2303C27.6533 22.4936 27.5492 22.7375 27.3444 22.9039L25.2571 24.1134L24.1801 24.7376L20.3305 26.9686L16.4266 29.2309C16.2164 29.3069 15.9705 29.3026 15.762 29.2179L11.143 26.5612L10.1995 28.1615L14.3504 30.5514C14.4876 30.6295 14.6099 30.6987 14.7103 30.755C14.8657 30.8421 14.9716 30.9004 15.009 30.9186C15.304 31.0619 15.7285 31.1453 16.111 31.1453C16.4617 31.1453 16.8037 31.0809 17.1273 30.9541L28.4665 24.3873C29.1173 23.883 29.5002 23.1225 29.5347 22.2987V9.74473Z" fill="#96BEDC"/>
</svg>
