<svg width="24" height="24" viewBox="0 0 24 24" fill="none" xmlns="http://www.w3.org/2000/svg">
<mask id="mask0_28_31450" style="mask-type:alpha" maskUnits="userSpaceOnUse" x="0" y="0" width="24" height="24">
<rect width="24" height="24" fill="#D9D9D9"/>
</mask>
<g mask="url(#mask0_28_31450)">
<path d="M12 19C11.0317 19 10.1217 18.8161 9.27 18.4484C8.41833 18.0811 7.6775 17.5825 7.0475 16.9525C6.4175 16.3225 5.91887 15.5817 5.5516 14.73C5.18387 13.8783 5 12.9683 5 12C5 11.0317 5.18387 10.1217 5.5516 9.27C5.91887 8.41833 6.4175 7.6775 7.0475 7.0475C7.6775 6.4175 8.41833 5.91863 9.27 5.5509C10.1217 5.18363 11.0317 5 12 5C12.9683 5 13.8783 5.18363 14.73 5.5509C15.5817 5.91863 16.3225 6.4175 16.9525 7.0475C17.5825 7.6775 18.0811 8.41833 18.4484 9.27C18.8161 10.1217 19 11.0317 19 12C19 12.9683 18.8161 13.8783 18.4484 14.73C18.0811 15.5817 17.5825 16.3225 16.9525 16.9525C16.3225 17.5825 15.5817 18.0811 14.73 18.4484C13.8783 18.8161 12.9683 19 12 19ZM12 17.6C13.5633 17.6 14.8875 17.0575 15.9725 15.9725C17.0575 14.8875 17.6 13.5633 17.6 12C17.6 10.4367 17.0575 9.1125 15.9725 8.0275C14.8875 6.9425 13.5633 6.4 12 6.4C10.4367 6.4 9.1125 6.9425 8.0275 8.0275C6.9425 9.1125 6.4 10.4367 6.4 12C6.4 13.5633 6.9425 14.8875 8.0275 15.9725C9.1125 17.0575 10.4367 17.6 12 17.6Z" fill="#1C1B1F"/>
</g>
</svg>
