<svg width="24" height="24" viewBox="0 0 24 24" fill="none" xmlns="http://www.w3.org/2000/svg">
<mask id="mask0_1_585" style="mask-type:alpha" maskUnits="userSpaceOnUse" x="0" y="0" width="24" height="24">
<rect width="24" height="24" fill="#D9D9D9"/>
</mask>
<g mask="url(#mask0_1_585)">
<path d="M10.95 21.2001V19.025C9.98328 18.8084 9.17062 18.3874 8.51195 17.762C7.85395 17.1374 7.37495 16.275 7.07495 15.175L9.34995 14.3C9.58329 15.1334 9.94162 15.75 10.425 16.15C10.9083 16.55 11.5166 16.75 12.25 16.75C12.9 16.75 13.4333 16.6167 13.85 16.35C14.2666 16.0834 14.475 15.6667 14.475 15.1C14.475 14.5834 14.2876 14.1584 13.913 13.825C13.5376 13.4917 12.6916 13.1167 11.375 12.7C9.97495 12.2667 8.99995 11.7167 8.44995 11.05C7.89995 10.3834 7.62495 9.58338 7.62495 8.65005C7.62495 7.60005 7.96228 6.75405 8.63695 6.11205C9.31228 5.47072 10.0833 5.07505 10.95 4.92505V2.80005H13.15V4.92505C14.0166 5.09172 14.7373 5.43338 15.312 5.95005C15.8873 6.46672 16.3083 7.10838 16.575 7.87505L14.35 8.80005C14.15 8.28338 13.8666 7.88738 13.5 7.61205C13.1333 7.33738 12.6416 7.20005 12.025 7.20005C11.3583 7.20005 10.8666 7.33338 10.55 7.60005C10.2333 7.86672 10.075 8.20005 10.075 8.60005C10.075 9.08338 10.2876 9.47072 10.713 9.76205C11.1376 10.054 11.9833 10.3834 13.25 10.75C14.45 11.1 15.3626 11.65 15.988 12.4C16.6126 13.15 16.925 14.0334 16.925 15.05C16.925 16.2667 16.5626 17.2 15.838 17.85C15.1126 18.5 14.2166 18.9084 13.15 19.0751V21.2001H10.95Z" fill="#1C1B1F"/>
</g>
</svg>
