<svg width="24" height="24" viewBox="0 0 24 24" fill="none" xmlns="http://www.w3.org/2000/svg">
<mask id="mask0_1_781" style="mask-type:alpha" maskUnits="userSpaceOnUse" x="0" y="0" width="24" height="24">
<rect width="24" height="24" fill="#D9D9D9"/>
</mask>
<g mask="url(#mask0_1_781)">
<path d="M19 9.17495L17.7 6.29995L14.825 4.99995L17.7 3.69995L19 0.824951L20.325 3.69995L23.1749 4.99995L20.325 6.29995L19 9.17495ZM19 23.1749L17.7 20.2999L14.825 19L17.7 17.7L19 14.825L20.325 17.7L23.1749 19L20.325 20.2999L19 23.1749ZM9.02495 20.225L6.47495 14.575L0.824951 12L6.47495 9.42495L9.02495 3.77495L11.6 9.42495L17.25 12L11.6 14.575L9.02495 20.225Z" fill="#1C1B1F"/>
</g>
</svg>
