<svg width="24" height="24" viewBox="0 0 24 24" fill="none" xmlns="http://www.w3.org/2000/svg">
<mask id="mask0_1_775" style="mask-type:alpha" maskUnits="userSpaceOnUse" x="0" y="0" width="24" height="24">
<rect x="24" width="24" height="24" transform="rotate(90 24 0)" fill="#D9D9D9"/>
</mask>
<g mask="url(#mask0_1_775)">
<path d="M6.35 5.325C7.95 4.175 8.70115 3.60468 9.9 3.275C10.5667 3.09167 11.25 3 11.95 3C14.1833 3 16.0833 3.775 17.65 5.325C19.2167 6.875 20 8.76667 20 11L20 11.175L21.6 9.575L23 10.975L19 14.975L15 10.975L16.4 9.575L18 11.175L18 11C18 9.33333 17.4127 7.91667 16.238 6.75C15.0627 5.58333 13.6333 5 11.95 5C11.5167 5 11.0917 5.05 10.675 5.15C10.2583 5.25 9 6 7.95 6.75L6.35 5.325ZM1 13.025L5 9.025L9 13.025L7.6 14.425L6 12.825L6 13C6 14.6667 6.58733 16.0833 7.762 17.25C8.93733 18.4167 10.3667 19 12.05 19C12.4833 19 12.9083 18.95 13.325 18.85C13.7417 18.75 15.2245 18.4 16.4 17L18 18.4C16.4 20 14.7667 20.5417 14.1 20.725C13.4333 20.9083 12.75 21 12.05 21C9.81667 21 7.91667 20.225 6.35 18.675C4.78333 17.125 4 15.2333 4 13L4 12.825L2.4 14.425L1 13.025Z" fill="#1C1B1F"/>
</g>
</svg>
