<svg width="32" height="32" viewBox="0 0 32 32" fill="none" xmlns="http://www.w3.org/2000/svg">
<g clip-path="url(#clip0_1_614)">
<path d="M25.8747 5.47534H6.10376V23.4567H25.8747V5.47534Z" fill="white"/>
<path fill-rule="evenodd" clip-rule="evenodd" d="M32 16C32 24.8366 24.8366 32 16 32C7.16344 32 0 24.8366 0 16C0 7.16344 7.16344 0 16 0C24.8366 0 32 7.16344 32 16ZM11.4661 22.3672H8.36091C7.70842 22.3672 7.38612 22.3672 7.1896 22.2415C6.97734 22.1039 6.84764 21.8759 6.83191 21.6243C6.82011 21.3925 6.98128 21.1094 7.30358 20.5434L14.9706 7.02924C15.2968 6.45537 15.4619 6.16844 15.6702 6.06232C15.8943 5.94834 16.1616 5.94834 16.3856 6.06232C16.5939 6.16844 16.759 6.45537 17.0852 7.02924L18.6614 9.78064L18.6694 9.79468C19.0218 10.4103 19.2005 10.7225 19.2785 11.0502C19.3649 11.4079 19.3649 11.7852 19.2785 12.1429C19.1999 12.4731 19.023 12.7875 18.6653 13.4125L14.638 20.5316L14.6276 20.5498C14.2729 21.1706 14.0932 21.4852 13.844 21.7225C13.5728 21.982 13.2466 22.1705 12.8889 22.2769C12.5627 22.3672 12.1971 22.3672 11.466 22.3672L11.4661 22.3672ZM19.3076 22.3672H23.7569C24.4133 22.3672 24.7435 22.3672 24.9402 22.2377C25.1524 22.1 25.286 21.868 25.2979 21.6166C25.3092 21.3923 25.1515 21.1202 24.8426 20.5871C24.832 20.5689 24.8213 20.5505 24.8104 20.5317L22.5817 16.719L22.5564 16.6761C22.2432 16.1465 22.0851 15.8791 21.8821 15.7757C21.6582 15.6617 21.3946 15.6617 21.1707 15.7757C20.9663 15.8818 20.8012 16.1609 20.475 16.723L18.2542 20.5356L18.2466 20.5487C17.9215 21.1099 17.759 21.3904 17.7707 21.6205C17.7865 21.8721 17.9162 22.1039 18.1284 22.2415C18.321 22.3672 18.6512 22.3672 19.3076 22.3672H19.3076Z" fill="#E84142"/>
</g>
<defs>
<clipPath id="clip0_1_614">
<rect width="32" height="32" fill="white"/>
</clipPath>
</defs>
</svg>
