<svg width="24" height="24" viewBox="0 0 24 24" fill="none" xmlns="http://www.w3.org/2000/svg">
<path d="M13.2521 16C11.7808 16 10.3971 15.4372 9.35665 14.4154C8.88112 13.9484 8.88112 13.1909 9.35665 12.724C9.83218 12.257 10.6035 12.257 11.0791 12.724C11.6595 13.294 12.4313 13.6077 13.2521 13.6077C14.0729 13.6077 14.8446 13.294 15.4251 12.7235L18.6661 9.54079C19.8644 8.36405 19.8644 6.44968 18.6661 5.27294C17.4678 4.09619 15.5184 4.09619 14.3201 5.27294L12.9326 6.63546C12.4571 7.10244 11.6857 7.10244 11.2102 6.63546C10.7347 6.16848 10.7347 5.411 11.2102 4.94402L12.5981 3.58192C14.7462 1.47248 18.2409 1.4729 20.3889 3.58192C22.537 5.69136 22.537 9.12321 20.3889 11.2327L17.1479 14.4154C16.107 15.4372 14.7238 16 13.2521 16Z" fill="white"/>
<path d="M7.36594 22.0008C5.93218 22.0008 4.58388 21.4423 3.56994 20.4283C1.47669 18.3351 1.47669 14.9296 3.56994 12.8363L6.72825 9.67802C8.8215 7.58519 12.227 7.58519 14.3203 9.67802C14.7837 10.1414 14.7837 10.8931 14.3203 11.3565C13.8569 11.8199 13.1052 11.8199 12.6418 11.3565C11.4741 10.1888 9.57442 10.1888 8.4067 11.3565L5.24839 14.5148C4.08068 15.6825 4.08068 17.5822 5.24839 18.7499C5.81402 19.3155 6.5661 19.6272 7.36594 19.6272C8.16579 19.6272 8.91787 19.3159 9.4835 18.7503L10.8356 17.3982C11.299 16.9348 12.0506 16.9348 12.514 17.3982C12.9774 17.8616 12.9774 18.6133 12.514 19.0767L11.162 20.4288C10.148 21.4423 8.80013 22.0008 7.36594 22.0008Z" fill="white"/>
</svg>
