<svg width="24" height="24" viewBox="0 0 24 24" fill="none" xmlns="http://www.w3.org/2000/svg">
<mask id="mask0_1_730" style="mask-type:alpha" maskUnits="userSpaceOnUse" x="0" y="0" width="24" height="24">
<rect width="24" height="24" fill="#D9D9D9"/>
</mask>
<g mask="url(#mask0_1_730)">
<path d="M4.90588 21C4.37647 21 3.92647 20.8147 3.55588 20.4441C3.18529 20.0735 3 19.6235 3 19.0941V4.90588C3 4.37647 3.18529 3.92647 3.55588 3.55588C3.92647 3.18529 4.37647 3 4.90588 3H19.0941C19.6235 3 20.0735 3.18529 20.4441 3.55588C20.8147 3.92647 21 4.37647 21 4.90588V19.0941C21 19.6235 20.8147 20.0735 20.4441 20.4441C20.0735 20.8147 19.6235 21 19.0941 21H4.90588ZM4.90588 19.4118H19.0941C19.1647 19.4118 19.2353 19.3765 19.3059 19.3059C19.3765 19.2353 19.4118 19.1647 19.4118 19.0941V4.90588C19.4118 4.83529 19.3765 4.76471 19.3059 4.69412C19.2353 4.62353 19.1647 4.58824 19.0941 4.58824H4.90588C4.83529 4.58824 4.76471 4.62353 4.69412 4.69412C4.62353 4.76471 4.58824 4.83529 4.58824 4.90588V19.0941C4.58824 19.1647 4.62353 19.2353 4.69412 19.3059C4.76471 19.3765 4.83529 19.4118 4.90588 19.4118Z" fill="#1C1B1F"/>
</g>
</svg>
