<svg width="34" height="34" viewBox="0 0 34 34" fill="none" xmlns="http://www.w3.org/2000/svg">
<mask id="mask0_429_37591" style="mask-type:alpha" maskUnits="userSpaceOnUse" x="0" y="0" width="34" height="34">
<rect width="34" height="34" fill="#D9D9D9"/>
</mask>
<g mask="url(#mask0_429_37591)">
<path d="M15.0167 23.5168L25.0042 13.5293L23.0209 11.546L15.0167 19.5502L10.9792 15.5127L8.99587 17.496L15.0167 23.5168ZM17 31.1668C15.0403 31.1668 13.1987 30.7947 11.475 30.0505C9.75143 29.3072 8.25212 28.2981 6.97712 27.0231C5.70212 25.7481 4.69299 24.2488 3.94971 22.5252C3.20549 20.8015 2.83337 18.9599 2.83337 17.0002C2.83337 15.0404 3.20549 13.1988 3.94971 11.4752C4.69299 9.75155 5.70212 8.25225 6.97712 6.97725C8.25212 5.70225 9.75143 4.69263 11.475 3.94841C13.1987 3.20513 15.0403 2.8335 17 2.8335C18.9598 2.8335 20.8014 3.20513 22.525 3.94841C24.2487 4.69263 25.748 5.70225 27.023 6.97725C28.298 8.25225 29.3071 9.75155 30.0504 11.4752C30.7946 13.1988 31.1667 15.0404 31.1667 17.0002C31.1667 18.9599 30.7946 20.8015 30.0504 22.5252C29.3071 24.2488 28.298 25.7481 27.023 27.0231C25.748 28.2981 24.2487 29.3072 22.525 30.0505C20.8014 30.7947 18.9598 31.1668 17 31.1668Z" fill="#00A5BC"/>
</g>
</svg>
