<svg width="24" height="24" viewBox="0 0 24 24" fill="none" xmlns="http://www.w3.org/2000/svg">
<mask id="mask0_1_733" style="mask-type:alpha" maskUnits="userSpaceOnUse" x="0" y="0" width="24" height="24">
<rect width="24" height="24" fill="#D9D9D9"/>
</mask>
<g mask="url(#mask0_1_733)">
<path d="M10.575 16.35L17.725 9.20005L16.15 7.65005L10.575 13.225L7.80005 10.45L6.25005 12L10.575 16.35ZM5.07505 21.2001C4.44172 21.2001 3.90438 20.9794 3.46305 20.538C3.02105 20.096 2.80005 19.5584 2.80005 18.925V5.07505C2.80005 4.44172 3.02105 3.90405 3.46305 3.46205C3.90438 3.02072 4.44172 2.80005 5.07505 2.80005H18.925C19.5584 2.80005 20.096 3.02072 20.538 3.46205C20.9794 3.90405 21.2001 4.44172 21.2001 5.07505V18.925C21.2001 19.5584 20.9794 20.096 20.538 20.538C20.096 20.9794 19.5584 21.2001 18.925 21.2001H5.07505Z" fill="#1C1B1F"/>
</g>
</svg>
