<svg width="32" height="32" viewBox="0 0 32 32" fill="none" xmlns="http://www.w3.org/2000/svg">
<g clip-path="url(#clip0_1_631)">
<path d="M15.9999 31.84C24.7481 31.84 31.8399 24.7482 31.8399 16C31.8399 7.25184 24.7481 0.160034 15.9999 0.160034C7.25172 0.160034 0.159912 7.25184 0.159912 16C0.159912 24.7482 7.25172 31.84 15.9999 31.84Z" fill="#04111D" stroke="#353840"/>
<path d="M8.41357 8.57348C8.41357 6.84289 9.81652 5.43994 11.5471 5.43994C13.2777 5.43994 14.6807 6.84289 14.6807 8.57348V17.2888C14.6807 17.4851 14.5215 17.6443 14.3252 17.6443H8.76906C8.57274 17.6443 8.41357 17.4851 8.41357 17.2888V8.57348Z" fill="#2BCDE4"/>
<path d="M10.3926 9.11223C10.3926 8.47463 10.9094 7.95776 11.547 7.95776C12.1846 7.95776 12.7015 8.47463 12.7015 9.11223V15.7531C12.7015 16.3907 12.1846 16.9076 11.547 16.9076C10.9094 16.9076 10.3926 16.3907 10.3926 15.7531V9.11223Z" fill="#1868B7"/>
<path d="M17.3193 8.57348C17.3193 6.84289 18.7223 5.43994 20.4529 5.43994C22.1835 5.43994 23.5864 6.84289 23.5864 8.57348V17.2888C23.5864 17.4851 23.4273 17.6443 23.231 17.6443H17.6748C17.4785 17.6443 17.3193 17.4851 17.3193 17.2888V8.57348Z" fill="#2BCDE4"/>
<path d="M19.2983 9.11223C19.2983 8.47463 19.8152 7.95776 20.4528 7.95776C21.0904 7.95776 21.6073 8.47463 21.6073 9.11223V15.7531C21.6073 16.3907 21.0904 16.9076 20.4528 16.9076C19.8152 16.9076 19.2983 16.3907 19.2983 15.7531V9.11223Z" fill="#1868B7"/>
<path d="M7.14815 20.0595C8.02127 17.1232 9.51407 14.1923 12.4966 13.4932C13.4552 13.2685 14.6133 13.12 16 13.12C17.3867 13.12 18.5449 13.2685 19.5035 13.4932C22.486 14.1923 23.9788 17.1232 24.8519 20.0595C25.8637 23.4623 23.3144 26.88 19.7643 26.88H12.2357C8.68565 26.88 6.13631 23.4623 7.14815 20.0595Z" fill="#2BCDE4"/>
<path d="M21.9371 21.1077C21.9371 21.7453 21.4202 22.2622 20.7826 22.2622C20.145 22.2622 19.6282 21.7453 19.6282 21.1077C19.6282 20.4701 20.145 19.9532 20.7826 19.9532C21.4202 19.9532 21.9371 20.4701 21.9371 21.1077Z" fill="#1868B7"/>
<path d="M12.0418 21.1077C12.0418 21.7453 11.5249 22.2622 10.8874 22.2622C10.2498 22.2622 9.73291 21.7453 9.73291 21.1077C9.73291 20.4701 10.2498 19.9532 10.8874 19.9532C11.5249 19.9532 12.0418 20.4701 12.0418 21.1077Z" fill="#1868B7"/>
<path fill-rule="evenodd" clip-rule="evenodd" d="M15.9703 22.8469L15.97 22.8458L15.9696 22.8447L15.969 22.843C15.9689 22.8426 15.9688 22.8422 15.9688 22.842C15.9687 22.8419 15.9687 22.842 15.9688 22.842C15.9688 22.8421 15.9688 22.8422 15.9689 22.8425C15.9694 22.8439 15.9698 22.8454 15.9703 22.8469ZM16.0001 22.9173C15.9952 22.9069 15.9907 22.8968 15.9866 22.8872C15.979 22.8697 15.9738 22.856 15.9709 22.8482C15.9699 22.8453 15.9692 22.8434 15.9689 22.8425C15.8606 22.5084 15.5029 22.3237 15.1674 22.4297C14.8304 22.5361 14.6434 22.8956 14.7498 23.2327L15.3601 23.04C14.7498 23.2327 14.7499 23.2329 14.75 23.233L14.7504 23.2343L14.7509 23.2361L14.7524 23.2406L14.7563 23.2524C14.7594 23.2615 14.7634 23.273 14.7684 23.2867C14.7783 23.314 14.7923 23.3503 14.8106 23.3927C14.8462 23.4757 14.9021 23.5913 14.9813 23.7117C15.1169 23.9179 15.444 24.32 16.0001 24.32C16.5563 24.32 16.8834 23.9179 17.019 23.7117C17.0982 23.5913 17.154 23.4757 17.1897 23.3927C17.2079 23.3503 17.2219 23.314 17.2319 23.2867C17.2369 23.273 17.2409 23.2615 17.244 23.2524L17.2479 23.2406L17.2493 23.2361L17.2499 23.2343L17.2503 23.233C17.2504 23.2329 17.2504 23.2327 16.6401 23.04L17.2504 23.2327C17.3569 22.8956 17.1699 22.5361 16.8329 22.4297C16.4974 22.3237 16.1397 22.5084 16.0314 22.8425C16.0311 22.8434 16.0304 22.8453 16.0293 22.8482C16.0265 22.856 16.0213 22.8697 16.0137 22.8872C16.0096 22.8968 16.005 22.9069 16.0001 22.9173Z" fill="#1868B7"/>
</g>
<defs>
<clipPath id="clip0_1_631">
<rect width="32" height="32" fill="white"/>
</clipPath>
</defs>
</svg>
