<svg width="24" height="24" viewBox="0 0 24 24" fill="none" xmlns="http://www.w3.org/2000/svg">
<mask id="mask0_1_217" style="mask-type:alpha" maskUnits="userSpaceOnUse" x="0" y="0" width="24" height="24">
<rect width="24" height="24" fill="#D9D9D9"/>
</mask>
<g mask="url(#mask0_1_217)">
<path d="M4.74995 21.3C4.24995 21.3 3.82495 21.125 3.47495 20.775C3.12495 20.425 2.94995 20 2.94995 19.5V6.80005H4.44995V19.5C4.44995 19.5834 4.47895 19.654 4.53695 19.712C4.59562 19.7707 4.66662 19.8 4.74995 19.8H17.45V21.3H4.74995ZM8.24995 17.8C7.74995 17.8 7.32495 17.625 6.97495 17.275C6.62495 16.925 6.44995 16.5 6.44995 16V4.62505C6.44995 4.10838 6.62495 3.67505 6.97495 3.32505C7.32495 2.97505 7.74995 2.80005 8.24995 2.80005H19.625C20.1416 2.80005 20.5749 2.97505 20.9249 3.32505C21.2749 3.67505 21.45 4.10838 21.45 4.62505V16C21.45 16.5 21.2749 16.925 20.9249 17.275C20.5749 17.625 20.1416 17.8 19.625 17.8H8.24995ZM8.24995 16.3H19.625C19.7083 16.3 19.7833 16.2707 19.85 16.212C19.9166 16.154 19.95 16.0834 19.95 16V4.62505C19.95 4.54172 19.9166 4.46672 19.85 4.40005C19.7833 4.33338 19.7083 4.30005 19.625 4.30005H8.24995C8.16662 4.30005 8.09595 4.33338 8.03795 4.40005C7.97928 4.46672 7.94995 4.54172 7.94995 4.62505V16C7.94995 16.0834 7.97928 16.154 8.03795 16.212C8.09595 16.2707 8.16662 16.3 8.24995 16.3Z" fill="#1C1B1F"/>
</g>
</svg>
