<svg width="24" height="24" viewBox="0 0 24 24" fill="none" xmlns="http://www.w3.org/2000/svg">
<mask id="mask0_1_681" style="mask-type:alpha" maskUnits="userSpaceOnUse" x="0" y="0" width="24" height="24">
<rect width="24" height="24" fill="#D9D9D9"/>
</mask>
<g mask="url(#mask0_1_681)">
<path d="M7.5 15H9V11H7.5V12.25H6V13.75H7.5V15ZM10 13.75H18V12.25H10V13.75ZM15 11H16.5V9.75H18V8.25H16.5V7H15V11ZM6 9.75H14V8.25H6V9.75ZM8 21V19H4C3.45 19 2.97933 18.8043 2.588 18.413C2.196 18.021 2 17.55 2 17V5C2 4.45 2.196 3.979 2.588 3.587C2.97933 3.19567 3.45 3 4 3H20C20.55 3 21.021 3.19567 21.413 3.587C21.8043 3.979 22 4.45 22 5V17C22 17.55 21.8043 18.021 21.413 18.413C21.021 18.8043 20.55 19 20 19H16V21H8Z" fill="#1C1B1F"/>
</g>
</svg>
