<svg width="122" height="89" viewBox="0 0 122 89" fill="none" xmlns="http://www.w3.org/2000/svg">
<g opacity="0.5">
<path d="M64.5193 0.949707H6.42387C3.50844 0.949707 1.14502 3.30905 1.14502 6.21944V44.3864C1.14502 47.2968 3.50844 49.6561 6.42387 49.6561H64.5193C67.4348 49.6561 69.7982 47.2968 69.7982 44.3864V6.21944C69.7982 3.30905 67.4348 0.949707 64.5193 0.949707Z" fill="white" stroke="#E2E6EF"/>
<path d="M42.1781 13.5001C42.1781 9.80259 39.1755 6.80518 35.4716 6.80518C31.7677 6.80518 28.7651 9.80259 28.7651 13.5001V13.5024C28.7651 17.1999 31.7677 20.1973 35.4716 20.1973C39.1755 20.1973 42.1781 17.1999 42.1781 13.5024V13.5001Z" fill="#E2E6EF"/>
<path d="M55.0453 24.7842H15.8997C13.9043 24.7842 12.2866 26.399 12.2866 28.391V28.3922C12.2866 30.3842 13.9043 31.999 15.8997 31.999H55.0453C57.0407 31.999 58.6584 30.3842 58.6584 28.3922V28.391C58.6584 26.399 57.0407 24.7842 55.0453 24.7842Z" fill="#E2E6EF"/>
<path d="M27.0815 40.1928C27.0815 38.2004 28.6995 36.5854 30.6952 36.5854H40.2477C42.2434 36.5854 43.8614 38.2004 43.8614 40.1928C43.8614 42.1851 42.2434 43.8002 40.2477 43.8002H30.6952C28.6995 43.8002 27.0815 42.1851 27.0815 40.1928Z" fill="#3291E9"/>
<path d="M89.8318 25.3696H31.7364C28.8209 25.3696 26.4575 27.729 26.4575 30.6394V68.8063C26.4575 71.7167 28.8209 74.0761 31.7364 74.0761H89.8318C92.7473 74.0761 95.1107 71.7167 95.1107 68.8063V30.6394C95.1107 27.729 92.7473 25.3696 89.8318 25.3696Z" fill="white" stroke="#E2E6EF"/>
<path d="M67.4906 37.92C67.4906 34.2225 64.488 31.2251 60.7841 31.2251C57.0802 31.2251 54.0776 34.2225 54.0776 37.92V37.9223C54.0776 41.6198 57.0802 44.6173 60.7841 44.6173C64.488 44.6173 67.4906 41.6198 67.4906 37.9223V37.92Z" fill="#E2E6EF"/>
<path d="M80.3568 49.2041H41.2112C39.2158 49.2041 37.5981 50.8189 37.5981 52.8109V52.8121C37.5981 54.8041 39.2158 56.419 41.2112 56.419H80.3568C82.3522 56.419 83.9699 54.8041 83.9699 52.8121V52.8109C83.9699 50.8189 82.3522 49.2041 80.3568 49.2041Z" fill="#E2E6EF"/>
<path d="M52.3931 64.6127C52.3931 62.6204 54.011 61.0054 56.0066 61.0054H65.5592C67.555 61.0054 69.1728 62.6204 69.1728 64.6127C69.1728 66.605 67.555 68.2201 65.5592 68.2201H56.0066C54.011 68.2201 52.3931 66.605 52.3931 64.6127Z" fill="#3291E9"/>
<path d="M115.146 39.2524H57.0503C54.1349 39.2524 51.7715 41.6118 51.7715 44.5222V82.6891C51.7715 85.5995 54.1349 87.9589 57.0503 87.9589H115.146C118.061 87.9589 120.425 85.5995 120.425 82.6891V44.5222C120.425 41.6118 118.061 39.2524 115.146 39.2524Z" fill="white" stroke="#E2E6EF"/>
<path d="M92.8046 51.8028C92.8046 48.1053 89.802 45.1079 86.0981 45.1079C82.3942 45.1079 79.3916 48.1053 79.3916 51.8028V51.8052C79.3916 55.5027 82.3942 58.5001 86.0981 58.5001C89.802 58.5001 92.8046 55.5027 92.8046 51.8052V51.8028Z" fill="#E2E6EF"/>
<path d="M105.671 63.0869H66.5252C64.5297 63.0869 62.9121 64.7017 62.9121 66.6938V66.6949C62.9121 68.6869 64.5297 70.3018 66.5252 70.3018H105.671C107.666 70.3018 109.284 68.6869 109.284 66.6949V66.6938C109.284 64.7017 107.666 63.0869 105.671 63.0869Z" fill="#E2E6EF"/>
<path d="M77.707 78.496C77.707 76.5037 79.3249 74.8887 81.3206 74.8887H90.8732C92.8689 74.8887 94.4867 76.5037 94.4867 78.496C94.4867 80.4883 92.8689 82.1034 90.8732 82.1034H81.3206C79.3249 82.1034 77.707 80.4883 77.707 78.496Z" fill="#3291E9"/>
</g>
</svg>
