<svg width="120" height="89" viewBox="0 0 120 89" fill="none" xmlns="http://www.w3.org/2000/svg">
<g opacity="0.5" clip-path="url(#clip0_14_25260)">
<path d="M114.041 0.944824H6.06157C3.16609 0.944824 0.818848 3.29207 0.818848 6.18754V82.2652C0.818848 85.1607 3.16609 87.5079 6.06157 87.5079H114.041C116.936 87.5079 119.283 85.1607 119.283 82.2652V6.18754C119.283 3.29207 116.936 0.944824 114.041 0.944824Z" fill="white" stroke="#E2E6EF"/>
<path d="M45.3937 22.9526H20.3487C17.1315 22.9526 14.5234 25.5607 14.5234 28.7779V51.3414C14.5234 54.5586 17.1315 57.1666 20.3487 57.1666H45.3937C48.6109 57.1666 51.219 54.5586 51.219 51.3414V28.7779C51.219 25.5607 48.6109 22.9526 45.3937 22.9526Z" fill="#E2E6EF"/>
<path d="M72.6009 23.5667H63.1128C61.131 23.5667 59.5244 25.1732 59.5244 27.155V27.1562C59.5244 29.138 61.131 30.7445 63.1128 30.7445H72.6009C74.5827 30.7445 76.1893 29.138 76.1893 27.1562V27.155C76.1893 25.1732 74.5827 23.5667 72.6009 23.5667Z" fill="#E2E6EF"/>
<path d="M101.99 34.6357H63.1128C61.131 34.6357 59.5244 36.2423 59.5244 38.2241V38.2253C59.5244 40.207 61.131 41.8136 63.1128 41.8136H101.99C103.972 41.8136 105.579 40.207 105.579 38.2253V38.2241C105.579 36.2423 103.972 34.6357 101.99 34.6357Z" fill="#E2E6EF"/>
<path d="M101.99 46.0403H63.1128C61.131 46.0403 59.5244 47.6468 59.5244 49.6286V49.6298C59.5244 51.6116 61.131 53.2181 63.1128 53.2181H101.99C103.972 53.2181 105.579 51.6116 105.579 49.6298V49.6286C105.579 47.6468 103.972 46.0403 101.99 46.0403Z" fill="#E2E6EF"/>
<path d="M59.5244 61.9113C59.5244 59.9292 61.1312 58.3225 63.1133 58.3225H72.6004C74.5825 58.3225 76.1894 59.9292 76.1894 61.9113C76.1894 63.8934 74.5825 65.5003 72.6004 65.5003H63.1133C61.1312 65.5003 59.5244 63.8934 59.5244 61.9113Z" fill="#3291E9"/>
<path d="M78.5259 61.9113C78.5259 60.251 79.8719 58.905 81.5322 58.905H91.0194C92.6797 58.905 94.0257 60.251 94.0257 61.9113C94.0257 63.5717 92.6797 64.9177 91.0194 64.9177H81.5322C79.8719 64.9177 78.5259 63.5717 78.5259 61.9113Z" stroke="#3291E9"/>
</g>
<defs>
<clipPath id="clip0_14_25260">
<rect width="120" height="88.5437" fill="white"/>
</clipPath>
</defs>
</svg>
