<svg width="152" height="102" viewBox="0 0 152 102" fill="none" xmlns="http://www.w3.org/2000/svg">
<g opacity="0.5">
<path d="M146.432 1.25H20.0679C17.5826 1.25 15.5679 3.26472 15.5679 5.75V95.75C15.5679 98.2353 17.5826 100.25 20.0679 100.25H146.432C148.917 100.25 150.932 98.2353 150.932 95.75V5.75C150.932 3.26472 148.917 1.25 146.432 1.25Z" fill="white" stroke="#E2E6EF"/>
<path d="M39.7002 20.8628H35.4152C33.1558 20.8628 31.3242 22.6944 31.3242 24.9538C31.3242 27.2132 33.1558 29.0448 35.4152 29.0448H39.7002C41.9596 29.0448 43.7912 27.2132 43.7912 24.9538C43.7912 22.6944 41.9596 20.8628 39.7002 20.8628Z" fill="#E2E6EF"/>
<path d="M94.6231 20.8628H90.3381C88.0787 20.8628 86.2471 22.6944 86.2471 24.9538C86.2471 27.2132 88.0787 29.0448 90.3381 29.0448H94.6231C96.8825 29.0448 98.7141 27.2132 98.7141 24.9538C98.7141 22.6944 96.8825 20.8628 94.6231 20.8628Z" fill="#E2E6EF"/>
<path d="M117.091 20.8628H112.806C110.546 20.8628 108.715 22.6944 108.715 24.9538C108.715 27.2132 110.546 29.0448 112.806 29.0448H117.091C119.35 29.0448 121.182 27.2132 121.182 24.9538C121.182 22.6944 119.35 20.8628 117.091 20.8628Z" fill="#E2E6EF"/>
<path d="M72.1548 20.8628H67.8698C65.6104 20.8628 63.7788 22.6944 63.7788 24.9538C63.7788 27.2132 65.6104 29.0448 67.8698 29.0448H72.1548C74.4142 29.0448 76.2458 27.2132 76.2458 24.9538C76.2458 22.6944 74.4142 20.8628 72.1548 20.8628Z" fill="#E2E6EF"/>
<path d="M29.6489 14.9541H136.85" stroke="#E2E6EF"/>
<path d="M61.8309 24.9538C61.8309 22.6944 59.9993 20.8628 57.7399 20.8628C55.4805 20.8628 53.6489 22.6944 53.6489 24.9538C53.6489 27.2132 55.4805 29.0448 57.7399 29.0448C59.9993 29.0448 61.8309 27.2132 61.8309 24.9538Z" fill="#BFDCF6"/>
<path d="M136.85 24.9538C136.85 22.6944 135.018 20.8628 132.759 20.8628C130.5 20.8628 128.668 22.6944 128.668 24.9538C128.668 27.2132 130.5 29.0448 132.759 29.0448C135.018 29.0448 136.85 27.2132 136.85 24.9538Z" fill="#3291E9"/>
<path d="M102.2 27.4177L104.664 24.9541L102.2 22.4905L102.95 21.7407L106.163 24.9541L102.95 28.1675L102.2 27.4177Z" fill="#E2E6EF"/>
<path d="M39.7002 39.8628H35.4152C33.1558 39.8628 31.3242 41.6944 31.3242 43.9538C31.3242 46.2132 33.1558 48.0448 35.4152 48.0448H39.7002C41.9596 48.0448 43.7912 46.2132 43.7912 43.9538C43.7912 41.6944 41.9596 39.8628 39.7002 39.8628Z" fill="#E2E6EF"/>
<path d="M94.6231 39.8628H90.3381C88.0787 39.8628 86.2471 41.6944 86.2471 43.9538C86.2471 46.2132 88.0787 48.0448 90.3381 48.0448H94.6231C96.8825 48.0448 98.7141 46.2132 98.7141 43.9538C98.7141 41.6944 96.8825 39.8628 94.6231 39.8628Z" fill="#E2E6EF"/>
<path d="M117.091 39.8628H112.806C110.546 39.8628 108.715 41.6944 108.715 43.9538C108.715 46.2132 110.546 48.0448 112.806 48.0448H117.091C119.35 48.0448 121.182 46.2132 121.182 43.9538C121.182 41.6944 119.35 39.8628 117.091 39.8628Z" fill="#E2E6EF"/>
<path d="M72.1548 39.8628H67.8698C65.6104 39.8628 63.7788 41.6944 63.7788 43.9538C63.7788 46.2132 65.6104 48.0448 67.8698 48.0448H72.1548C74.4142 48.0448 76.2458 46.2132 76.2458 43.9538C76.2458 41.6944 74.4142 39.8628 72.1548 39.8628Z" fill="#E2E6EF"/>
<path d="M29.6489 33.9541H136.85" stroke="#E2E6EF"/>
<path d="M61.8309 43.9538C61.8309 41.6944 59.9993 39.8628 57.7399 39.8628C55.4805 39.8628 53.6489 41.6944 53.6489 43.9538C53.6489 46.2132 55.4805 48.0448 57.7399 48.0448C59.9993 48.0448 61.8309 46.2132 61.8309 43.9538Z" fill="#BFDCF6"/>
<path d="M136.85 43.9538C136.85 41.6944 135.018 39.8628 132.759 39.8628C130.5 39.8628 128.668 41.6944 128.668 43.9538C128.668 46.2132 130.5 48.0448 132.759 48.0448C135.018 48.0448 136.85 46.2132 136.85 43.9538Z" fill="#3291E9"/>
<path d="M102.2 46.4177L104.664 43.9541L102.2 41.4905L102.95 40.7407L106.163 43.9541L102.95 47.1675L102.2 46.4177Z" fill="#E2E6EF"/>
<path d="M26.4316 62.9542C26.4316 60.6948 28.2632 58.8633 30.5226 58.8633H44.5585C46.8179 58.8633 48.6494 60.6948 48.6494 62.9542C48.6494 65.2135 46.8179 67.0451 44.5585 67.0451H30.5226C28.2632 67.0451 26.4316 65.2135 26.4316 62.9542Z" fill="#E2E6EF"/>
<path d="M94.6231 58.8628H90.3381C88.0787 58.8628 86.2471 60.6944 86.2471 62.9538C86.2471 65.2132 88.0787 67.0448 90.3381 67.0448H94.6231C96.8825 67.0448 98.7141 65.2132 98.7141 62.9538C98.7141 60.6944 96.8825 58.8628 94.6231 58.8628Z" fill="#E2E6EF"/>
<path d="M117.091 58.8628H112.806C110.546 58.8628 108.715 60.6944 108.715 62.9538C108.715 65.2132 110.546 67.0448 112.806 67.0448H117.091C119.35 67.0448 121.182 65.2132 121.182 62.9538C121.182 60.6944 119.35 58.8628 117.091 58.8628Z" fill="#E2E6EF"/>
<path d="M72.1548 58.8628H67.8698C65.6104 58.8628 63.7788 60.6944 63.7788 62.9538C63.7788 65.2132 65.6104 67.0448 67.8698 67.0448H72.1548C74.4142 67.0448 76.2458 65.2132 76.2458 62.9538C76.2458 60.6944 74.4142 58.8628 72.1548 58.8628Z" fill="#E2E6EF"/>
<path d="M45.6494 52.9541H136.85" stroke="#E2E6EF"/>
<path d="M61.8309 62.9538C61.8309 60.6944 59.9993 58.8628 57.7399 58.8628C55.4805 58.8628 53.6489 60.6944 53.6489 62.9538C53.6489 65.2132 55.4805 67.0448 57.7399 67.0448C59.9993 67.0448 61.8309 65.2132 61.8309 62.9538Z" fill="#BFDCF6"/>
<path d="M136.85 62.9538C136.85 60.6944 135.018 58.8628 132.759 58.8628C130.5 58.8628 128.668 60.6944 128.668 62.9538C128.668 65.2132 130.5 67.0448 132.759 67.0448C135.018 67.0448 136.85 65.2132 136.85 62.9538Z" fill="#3291E9"/>
<path d="M102.2 65.4177L104.664 62.9541L102.2 60.4905L102.95 59.7407L106.163 62.9541L102.95 66.1675L102.2 65.4177Z" fill="#E2E6EF"/>
<path d="M39.7002 77.8628H35.4152C33.1558 77.8628 31.3242 79.6944 31.3242 81.9538C31.3242 84.2132 33.1558 86.0448 35.4152 86.0448H39.7002C41.9596 86.0448 43.7912 84.2132 43.7912 81.9538C43.7912 79.6944 41.9596 77.8628 39.7002 77.8628Z" fill="#E2E6EF"/>
<path d="M94.6231 77.8628H90.3381C88.0787 77.8628 86.2471 79.6944 86.2471 81.9538C86.2471 84.2132 88.0787 86.0448 90.3381 86.0448H94.6231C96.8825 86.0448 98.7141 84.2132 98.7141 81.9538C98.7141 79.6944 96.8825 77.8628 94.6231 77.8628Z" fill="#E2E6EF"/>
<path d="M117.091 77.8628H112.806C110.546 77.8628 108.715 79.6944 108.715 81.9538C108.715 84.2132 110.546 86.0448 112.806 86.0448H117.091C119.35 86.0448 121.182 84.2132 121.182 81.9538C121.182 79.6944 119.35 77.8628 117.091 77.8628Z" fill="#E2E6EF"/>
<path d="M72.1548 77.8628H67.8698C65.6104 77.8628 63.7788 79.6944 63.7788 81.9538C63.7788 84.2132 65.6104 86.0448 67.8698 86.0448H72.1548C74.4142 86.0448 76.2458 84.2132 76.2458 81.9538C76.2458 79.6944 74.4142 77.8628 72.1548 77.8628Z" fill="#E2E6EF"/>
<path d="M46.6494 71.9541H136.85" stroke="#E2E6EF"/>
<path d="M61.8309 81.9538C61.8309 79.6944 59.9993 77.8628 57.7399 77.8628C55.4805 77.8628 53.6489 79.6944 53.6489 81.9538C53.6489 84.2132 55.4805 86.0448 57.7399 86.0448C59.9993 86.0448 61.8309 84.2132 61.8309 81.9538Z" fill="#BFDCF6"/>
<path d="M136.85 81.9538C136.85 79.6944 135.018 77.8628 132.759 77.8628C130.5 77.8628 128.668 79.6944 128.668 81.9538C128.668 84.2132 130.5 86.0448 132.759 86.0448C135.018 86.0448 136.85 84.2132 136.85 81.9538Z" fill="#3291E9"/>
<path d="M102.2 84.4177L104.664 81.9541L102.2 79.4905L102.95 78.7407L106.163 81.9541L102.95 85.1675L102.2 84.4177Z" fill="#E2E6EF"/>
<path d="M22.2621 74.9227C28.9165 80.1581 38.5552 79.0078 43.7906 72.3533C49.0261 65.6989 47.8757 56.0603 41.2213 50.8248C34.5669 45.5894 24.9282 46.7397 19.6928 53.3941C14.4573 60.0486 15.6077 69.6872 22.2621 74.9227Z" stroke="#3291E9" stroke-width="5"/>
<path d="M20.8521 76.4111L3.99512 97.8361" stroke="#3291E9" stroke-width="5" stroke-linecap="round"/>
</g>
</svg>
