<svg width="24" height="24" viewBox="0 0 24 24" fill="none" xmlns="http://www.w3.org/2000/svg">
<mask id="mask0_1_784" style="mask-type:alpha" maskUnits="userSpaceOnUse" x="0" y="0" width="24" height="24">
<rect width="24" height="24" fill="#D9D9D9"/>
</mask>
<g mask="url(#mask0_1_784)">
<path d="M10.475 19.9L8.72505 18.325C6.95838 16.7083 5.36272 15.1 3.93805 13.5C2.51272 11.9 1.80005 10.1166 1.80005 8.14995C1.80005 6.51662 2.34172 5.15828 3.42505 4.07495C4.50838 2.99162 5.86672 2.44995 7.50005 2.44995C8.36672 2.44995 9.19172 2.62495 9.97505 2.97495C10.7584 3.32495 11.4334 3.82495 12 4.47495C12.5667 3.82495 13.2377 3.32495 14.013 2.97495C14.7877 2.62495 15.6167 2.44995 16.5 2.44995C18.1167 2.44995 19.4707 2.99162 20.562 4.07495C21.654 5.15828 22.2001 6.51662 22.2001 8.14995C22.2001 10.1166 21.4874 11.904 20.062 13.512C18.6374 15.1206 17.0334 16.7333 15.25 18.35L13.525 19.9C13.0917 20.3 12.5834 20.5 12 20.5C11.4167 20.5 10.9084 20.3 10.475 19.9Z" fill="#1C1B1F"/>
</g>
</svg>
