<svg width="24" height="24" viewBox="0 0 24 24" fill="none" xmlns="http://www.w3.org/2000/svg">
<mask id="mask0_1_699" style="mask-type:alpha" maskUnits="userSpaceOnUse" x="0" y="0" width="24" height="24">
<rect width="24" height="24" fill="#D9D9D9"/>
</mask>
<g mask="url(#mask0_1_699)">
<path d="M10.475 19.9L8.72505 18.325C6.95838 16.7083 5.36272 15.1 3.93805 13.5C2.51272 11.9 1.80005 10.1166 1.80005 8.14995C1.80005 6.51662 2.34172 5.15828 3.42505 4.07495C4.50838 2.99162 5.86672 2.44995 7.50005 2.44995C8.36672 2.44995 9.19172 2.62495 9.97505 2.97495C10.7584 3.32495 11.4334 3.82495 12 4.47495C12.5667 3.82495 13.2377 3.32495 14.013 2.97495C14.7877 2.62495 15.6167 2.44995 16.5 2.44995C18.1167 2.44995 19.4707 2.99162 20.562 4.07495C21.654 5.15828 22.2001 6.51662 22.2001 8.14995C22.2001 10.1166 21.4874 11.904 20.062 13.512C18.6374 15.1206 17.0334 16.7333 15.25 18.35L13.525 19.9C13.0917 20.3166 12.5834 20.525 12 20.525C11.4167 20.525 10.9084 20.3166 10.475 19.9ZM11 6.77495C10.55 6.12495 10.046 5.62062 9.48805 5.26195C8.92938 4.90395 8.26672 4.72495 7.50005 4.72495C6.51672 4.72495 5.70005 5.04995 5.05005 5.69995C4.40005 6.34995 4.07505 7.16662 4.07505 8.14995C4.07505 9.01662 4.37938 9.93328 4.98805 10.9C5.59605 11.8666 6.32505 12.804 7.17505 13.712C8.02505 14.6206 8.90005 15.4706 9.80005 16.262L12 18.2C12.5667 17.6833 13.3 17.0293 14.2 16.238C15.1 15.446 15.975 14.596 16.825 13.688C17.675 12.7793 18.4044 11.8456 19.0131 10.887C19.6211 9.92895 19.925 9.01662 19.925 8.14995C19.925 7.16662 19.6001 6.34995 18.9501 5.69995C18.3001 5.04995 17.4834 4.72495 16.5 4.72495C15.7334 4.72495 15.071 4.90395 14.513 5.26195C13.9544 5.62062 13.45 6.12495 13 6.77495C12.8667 6.95828 12.7127 7.09595 12.538 7.18795C12.3627 7.27928 12.1834 7.32495 12 7.32495C11.8 7.32495 11.6127 7.27928 11.438 7.18795C11.2627 7.09595 11.1167 6.95828 11 6.77495Z" fill="#1C1B1F"/>
</g>
</svg>
