<svg width="24" height="24" viewBox="0 0 24 24" fill="none" xmlns="http://www.w3.org/2000/svg">
<mask id="mask0_5_7614" style="mask-type:alpha" maskUnits="userSpaceOnUse" x="0" y="0" width="24" height="24">
<rect width="24" height="24" fill="#D9D9D9"/>
</mask>
<g mask="url(#mask0_5_7614)">
<path d="M12.5 24C10.1333 24 8.125 23.175 6.475 21.525C4.825 19.875 4 17.8667 4 15.5V7C4 6.3 4.24167 5.70833 4.725 5.225C5.20833 4.74167 5.8 4.5 6.5 4.5C6.58333 4.5 6.66667 4.504 6.75 4.512C6.83333 4.52067 6.91667 4.53333 7 4.55V4C7 3.3 7.24167 2.70833 7.725 2.225C8.20833 1.74167 8.8 1.5 9.5 1.5C9.61667 1.5 9.72933 1.50833 9.838 1.525C9.946 1.54167 10.0583 1.56667 10.175 1.6C10.3583 1.11667 10.6583 0.729333 11.075 0.438C11.4917 0.146 11.9667 0 12.5 0C13.1167 0 13.6543 0.195667 14.113 0.587C14.571 0.979 14.85 1.46667 14.95 2.05C15.0333 2.03333 15.121 2.02067 15.213 2.012C15.3043 2.004 15.4 2 15.5 2C16.2 2 16.7917 2.24167 17.275 2.725C17.7583 3.20833 18 3.8 18 4.5V8.05C18.0833 8.03333 18.1667 8.02067 18.25 8.012C18.3333 8.004 18.4167 8 18.5 8C19.2 8 19.7917 8.24167 20.275 8.725C20.7583 9.20833 21 9.8 21 10.5V15.5C21 17.8667 20.175 19.875 18.525 21.525C16.875 23.175 14.8667 24 12.5 24ZM12.5 22C13.4 22 14.246 21.8293 15.038 21.488C15.8293 21.146 16.5167 20.6833 17.1 20.1C17.6833 19.5167 18.146 18.8293 18.488 18.038C18.8293 17.246 19 16.4 19 15.5V10.5C19 10.3667 18.95 10.25 18.85 10.15C18.75 10.05 18.6333 10 18.5 10C18.3667 10 18.25 10.05 18.15 10.15C18.05 10.25 18 10.3667 18 10.5V15L17.65 15.025C16.9 15.1083 16.271 15.4333 15.763 16C15.2543 16.5667 15 17.2333 15 18H13C13 16.9667 13.275 16.0417 13.825 15.225C14.375 14.4083 15.1 13.8083 16 13.425V4.5C16 4.36667 15.95 4.25 15.85 4.15C15.75 4.05 15.6333 4 15.5 4C15.3667 4 15.25 4.05 15.15 4.15C15.05 4.25 15 4.36667 15 4.5V11H13V2.5C13 2.36667 12.95 2.25 12.85 2.15C12.75 2.05 12.6333 2 12.5 2C12.3667 2 12.25 2.05 12.15 2.15C12.05 2.25 12 2.36667 12 2.5V11H10V4C10 3.86667 9.95 3.75 9.85 3.65C9.75 3.55 9.63333 3.5 9.5 3.5C9.36667 3.5 9.25 3.55 9.15 3.65C9.05 3.75 9 3.86667 9 4V12H7V7C7 6.86667 6.95 6.75 6.85 6.65C6.75 6.55 6.63333 6.5 6.5 6.5C6.36667 6.5 6.25 6.55 6.15 6.65C6.05 6.75 6 6.86667 6 7V15.5C6 16.4 6.171 17.246 6.513 18.038C6.85433 18.8293 7.31667 19.5167 7.9 20.1C8.48333 20.6833 9.171 21.146 9.963 21.488C10.7543 21.8293 11.6 22 12.5 22Z" fill="#1C1B1F"/>
</g>
</svg>
