<svg width="24" height="24" viewBox="0 0 24 24" fill="none" xmlns="http://www.w3.org/2000/svg">
<mask id="mask0_1_669" style="mask-type:alpha" maskUnits="userSpaceOnUse" x="0" y="0" width="24" height="24">
<rect width="24" height="24" fill="#D9D9D9"/>
</mask>
<g mask="url(#mask0_1_669)">
<path d="M3 19C2.45 19 1.97933 18.8043 1.588 18.413C1.196 18.021 1 17.55 1 17C1 16.45 1.196 15.979 1.588 15.587C1.97933 15.1957 2.45 15 3 15H3.263C3.33767 15 3.41667 15.0167 3.5 15.05L8.05 10.5C8.01667 10.4167 8 10.3373 8 10.262V10C8 9.45 8.196 8.979 8.588 8.587C8.97933 8.19567 9.45 8 10 8C10.55 8 11.021 8.19567 11.413 8.587C11.8043 8.979 12 9.45 12 10C12 10.0333 11.9833 10.2 11.95 10.5L14.5 13.05C14.5833 13.0167 14.6627 13 14.738 13H15.262C15.3373 13 15.4167 13.0167 15.5 13.05L19.05 9.5C19.0167 9.41667 19 9.33733 19 9.262V9C19 8.45 19.1957 7.979 19.587 7.587C19.979 7.19567 20.45 7 21 7C21.55 7 22.021 7.19567 22.413 7.587C22.8043 7.979 23 8.45 23 9C23 9.55 22.8043 10.0207 22.413 10.412C22.021 10.804 21.55 11 21 11H20.738C20.6627 11 20.5833 10.9833 20.5 10.95L16.95 14.5C16.9833 14.5833 17 14.6627 17 14.738V15C17 15.55 16.8043 16.021 16.413 16.413C16.021 16.8043 15.55 17 15 17C14.45 17 13.9793 16.8043 13.588 16.413C13.196 16.021 13 15.55 13 15V14.738C13 14.6627 13.0167 14.5833 13.05 14.5L10.5 11.95C10.4167 11.9833 10.3373 12 10.262 12H10C9.96667 12 9.8 11.9833 9.5 11.95L4.95 16.5C4.98333 16.5833 5 16.6627 5 16.738V17C5 17.55 4.804 18.021 4.412 18.413C4.02067 18.8043 3.55 19 3 19Z" fill="#1C1B1F"/>
</g>
</svg>
