<svg width="24" height="24" viewBox="0 0 24 24" fill="none" xmlns="http://www.w3.org/2000/svg">
<mask id="mask0_1_663" style="mask-type:alpha" maskUnits="userSpaceOnUse" x="0" y="0" width="24" height="24">
<rect width="24" height="24" fill="#D9D9D9"/>
</mask>
<g mask="url(#mask0_1_663)">
<path d="M21.2249 12L16.7999 18.25C16.5999 18.55 16.3332 18.7834 15.9999 18.95C15.6666 19.1167 15.3166 19.2 14.9499 19.2H5.0499C4.41657 19.2 3.87924 18.9794 3.4379 18.538C2.9959 18.096 2.7749 17.5584 2.7749 16.925V7.07505C2.7749 6.44172 2.9959 5.90405 3.4379 5.46205C3.87924 5.02072 4.41657 4.80005 5.0499 4.80005H14.9499C15.3166 4.80005 15.6666 4.88338 15.9999 5.05005C16.3332 5.21672 16.5999 5.45005 16.7999 5.75005L21.2249 12Z" fill="#1C1B1F"/>
</g>
</svg>
