<svg width="44" height="44" viewBox="0 0 44 44" fill="none" xmlns="http://www.w3.org/2000/svg">
<mask id="mask0_256_83045" style="mask-type:alpha" maskUnits="userSpaceOnUse" x="10" y="10" width="24" height="24">
<rect x="10" y="10" width="24" height="24" fill="#D9D9D9"/>
</mask>
<g mask="url(#mask0_256_83045)">
<path d="M22 31.5C20.7 31.5 19.4707 31.25 18.312 30.75C17.154 30.25 16.1457 29.5707 15.287 28.712C14.429 27.854 13.75 26.846 13.25 25.688C12.75 24.5293 12.5 23.3 12.5 22C12.5 20.6833 12.75 19.45 13.25 18.3C13.75 17.15 14.429 16.1457 15.287 15.287C16.1457 14.429 17.154 13.75 18.312 13.25C19.4707 12.75 20.7 12.5 22 12.5C23.3167 12.5 24.55 12.75 25.7 13.25C26.85 13.75 27.854 14.429 28.712 15.287C29.5707 16.1457 30.25 17.15 30.75 18.3C31.25 19.45 31.5 20.6833 31.5 22C31.5 23.3 31.25 24.5293 30.75 25.688C30.25 26.846 29.5707 27.854 28.712 28.712C27.854 29.5707 26.85 30.25 25.7 30.75C24.55 31.25 23.3167 31.5 22 31.5ZM22 29.975C22.5167 29.3083 22.946 28.6293 23.288 27.938C23.6293 27.246 23.9167 26.4917 24.15 25.675H19.85C20.0833 26.5083 20.371 27.2707 20.713 27.962C21.0543 28.654 21.4833 29.325 22 29.975ZM20.075 29.7C19.6917 29.15 19.346 28.525 19.038 27.825C18.7293 27.125 18.4917 26.4083 18.325 25.675H14.925C15.4583 26.7083 16.1667 27.5793 17.05 28.288C17.9333 28.996 18.9417 29.4667 20.075 29.7ZM23.925 29.7C25.0583 29.4667 26.0667 28.996 26.95 28.288C27.8333 27.5793 28.5417 26.7083 29.075 25.675H25.675C25.475 26.4083 25.225 27.129 24.925 27.837C24.625 28.5457 24.2917 29.1667 23.925 29.7ZM14.3 24.175H18.025C17.9583 23.8083 17.9083 23.4457 17.875 23.087C17.8417 22.729 17.825 22.3667 17.825 22C17.825 21.6333 17.8417 21.2707 17.875 20.912C17.9083 20.554 17.9583 20.1917 18.025 19.825H14.3C14.2 20.1583 14.125 20.5083 14.075 20.875C14.025 21.2417 14 21.6167 14 22C14 22.3833 14.025 22.7583 14.075 23.125C14.125 23.4917 14.2 23.8417 14.3 24.175ZM19.525 24.175H24.475C24.5417 23.8083 24.5917 23.45 24.625 23.1C24.6583 22.75 24.675 22.3833 24.675 22C24.675 21.6167 24.6583 21.25 24.625 20.9C24.5917 20.55 24.5417 20.1917 24.475 19.825H19.525C19.4583 20.1917 19.4083 20.55 19.375 20.9C19.3417 21.25 19.325 21.6167 19.325 22C19.325 22.3833 19.3417 22.75 19.375 23.1C19.4083 23.45 19.4583 23.8083 19.525 24.175ZM25.975 24.175H29.7C29.8 23.8417 29.875 23.4917 29.925 23.125C29.975 22.7583 30 22.3833 30 22C30 21.6167 29.975 21.2417 29.925 20.875C29.875 20.5083 29.8 20.1583 29.7 19.825H25.975C26.0417 20.1917 26.0917 20.554 26.125 20.912C26.1583 21.2707 26.175 21.6333 26.175 22C26.175 22.3667 26.1583 22.729 26.125 23.087C26.0917 23.4457 26.0417 23.8083 25.975 24.175ZM25.675 18.325H29.075C28.5417 17.275 27.8377 16.404 26.963 15.712C26.0877 15.0207 25.075 14.5417 23.925 14.275C24.3083 14.8583 24.65 15.4957 24.95 16.187C25.25 16.879 25.4917 17.5917 25.675 18.325ZM19.85 18.325H24.15C23.9167 17.4917 23.621 16.7207 23.263 16.012C22.9043 15.304 22.4833 14.6417 22 14.025C21.5167 14.6417 21.096 15.304 20.738 16.012C20.3793 16.7207 20.0833 17.4917 19.85 18.325ZM14.925 18.325H18.325C18.5083 17.5917 18.75 16.879 19.05 16.187C19.35 15.4957 19.6917 14.8583 20.075 14.275C18.9083 14.5417 17.8917 15.0207 17.025 15.712C16.1583 16.404 15.4583 17.275 14.925 18.325Z" fill="#A796FF"/>
</g>
</svg>
