<svg width="54" height="55" viewBox="0 0 54 55" fill="none" xmlns="http://www.w3.org/2000/svg">
<path fill-rule="evenodd" clip-rule="evenodd" d="M5.86683 11.0436C15.079 -0.788541 32.0213 -2.97035 43.6843 6.17351C55.3474 15.3174 57.3365 32.3414 48.1243 44.1735C41.9494 52.1045 32.3288 55.677 23.1241 54.4324L23.4343 52.2833C26.6732 52.7479 30.0559 52.5789 33.4143 51.679C46.7509 48.1055 54.6553 34.3591 51.0692 20.9756C47.4831 7.59206 33.7645 -0.360473 20.4279 3.21307C7.09123 6.78662 -0.813156 20.533 2.77294 33.9165C3.06566 35.009 3.4259 36.0652 3.84793 37.082L1.97426 37.8509C-1.43494 29.2062 -0.30803 18.9746 5.86683 11.0436Z" fill="#443F5B"/>
</svg>
