<svg width="33" height="33" viewBox="0 0 33 33" fill="none" xmlns="http://www.w3.org/2000/svg">
<path fill-rule="evenodd" clip-rule="evenodd" d="M26.5546 29.322C19.4668 34.6818 9.43444 33.3322 4.16094 26.3094C-1.11257 19.2866 0.359915 9.23702 7.44774 3.87721C12.1986 0.284575 18.2534 -0.284783 23.3313 1.83942L22.5715 3.61108C20.8403 2.85112 18.928 2.42948 16.9175 2.42948C9.11901 2.42948 2.79705 8.77365 2.79705 16.5996C2.79705 24.4255 9.11901 30.7697 16.9175 30.7697C24.7161 30.7697 31.038 24.4255 31.038 16.5996C31.038 15.9992 31.0008 15.4075 30.9286 14.8267L32.8943 14.5745C33.5199 20.0456 31.3055 25.7294 26.5546 29.322Z" fill="#A796FF"/>
</svg>
