<svg width="24" height="24" viewBox="0 0 24 24" fill="none" xmlns="http://www.w3.org/2000/svg">
<mask id="mask0_1_289" style="mask-type:alpha" maskUnits="userSpaceOnUse" x="0" y="0" width="24" height="24">
<rect width="24" height="24" fill="#D9D9D9"/>
</mask>
<g mask="url(#mask0_1_289)">
<path d="M5.4001 21C4.9001 21 4.4751 20.825 4.1251 20.475C3.7751 20.125 3.6001 19.7 3.6001 19.2V5.3C3.6001 4.8 3.7751 4.375 4.1251 4.025C4.4751 3.675 4.9001 3.5 5.4001 3.5H12.1251V5H5.4001C5.33343 5 5.26676 5.03333 5.2001 5.1C5.13343 5.16667 5.1001 5.23333 5.1001 5.3V19.2C5.1001 19.2667 5.13343 19.3333 5.2001 19.4C5.26676 19.4667 5.33343 19.5 5.4001 19.5H12.1251V21H5.4001ZM16.1251 16.525L15.1001 15.425L17.5251 13H9.1251V11.5H17.5251L15.1001 9.075L16.1251 7.975L20.4001 12.25L16.1251 16.525Z" fill="#1C1B1F"/>
</g>
</svg>
