<svg width="25" height="23" viewBox="0 0 25 23" fill="none" xmlns="http://www.w3.org/2000/svg">
<g clip-path="url(#clip0_1_238)">
<path d="M22.8501 0.049941C22.8501 0.049941 22.7801 -0.010059 22.7401 0.00994101L15.1501 2.83994C15.1501 2.83994 15.1101 2.86994 15.1001 2.88994L13.3601 6.95994C13.3601 6.95994 13.3601 7.03994 13.3901 7.05994C13.4101 7.06994 13.4301 7.07994 13.4401 7.07994C13.4501 7.07994 13.4801 7.07994 13.4901 7.05994L22.8301 0.159941C22.8301 0.159941 22.8801 0.089941 22.8601 0.049941H22.8501Z" fill="#E17726"/>
<path d="M4.69994 16.03C4.69994 16.03 4.65994 15.99 4.62994 15.99L0.289938 16.08C0.289938 16.08 0.239938 16.09 0.219938 16.12C0.199938 16.15 0.199938 16.17 0.209938 16.2L1.71994 21.37C1.71994 21.37 1.76994 21.43 1.80994 21.43H1.82994L7.12994 19.97C7.12994 19.97 7.17994 19.94 7.18994 19.92C7.19994 19.9 7.18994 19.86 7.18994 19.84L4.71994 16.05L4.69994 16.03Z" fill="#E27625"/>
<path d="M23.84 16.11C23.84 16.11 23.8 16.07 23.77 16.07L19.42 15.98C19.42 15.98 19.36 15.99 19.34 16.02L16.86 19.81C16.86 19.81 16.84 19.86 16.86 19.89C16.87 19.92 16.89 19.94 16.92 19.94L22.24 21.4H22.26C22.3 21.4 22.33 21.38 22.35 21.34L23.87 16.17C23.87 16.17 23.87 16.11 23.86 16.09L23.84 16.11Z" fill="#E27625"/>
<path d="M8.93985 2.9C8.93985 2.9 8.90985 2.86 8.88985 2.85L1.29985 0C1.29985 0 1.20985 0 1.18985 0.04C1.16985 0.08 1.17985 0.13 1.20985 0.15L10.4598 7.12C10.4598 7.12 10.4898 7.14 10.5098 7.14C10.5298 7.14 10.5498 7.14 10.5598 7.12C10.5898 7.1 10.5998 7.05 10.5898 7.02L8.93985 2.9V2.9Z" fill="#E27625"/>
<path d="M7.60001 16.14C7.60001 16.14 7.54001 16.12 7.51001 16.13C7.48001 16.14 7.46001 16.17 7.46001 16.2L7.01001 19.86C7.01001 19.86 7.02001 19.92 7.05001 19.94C7.07001 19.95 7.08001 19.96 7.10001 19.96C7.11001 19.96 7.13001 19.96 7.14001 19.96L10.33 18.43C10.33 18.43 10.38 18.39 10.38 18.36C10.38 18.33 10.38 18.3 10.35 18.28L7.61001 16.15L7.60001 16.14Z" fill="#E27625"/>
<path d="M10.4501 6.41002C10.4501 6.41002 10.3801 6.41002 10.3601 6.43002L6.78011 9.60002C6.78011 9.60002 6.75011 9.62002 6.74011 9.63002L5.26011 11.86C5.26011 11.86 5.24011 11.92 5.26011 11.95C5.27011 11.98 5.30011 12 5.34011 12L10.5901 12.24C10.5901 12.24 10.6401 12.24 10.6501 12.21C10.6701 12.19 10.6801 12.17 10.6801 12.14L10.5101 6.48002C10.5101 6.48002 10.4901 6.41002 10.4601 6.40002L10.4501 6.41002Z" fill="#E27625"/>
<path d="M18.7801 11.86L17.3101 9.64001C17.3101 9.64001 17.3101 9.63 17.2901 9.62L13.6301 6.35C13.6301 6.35 13.5701 6.32 13.5401 6.34C13.5101 6.35 13.4901 6.38 13.4901 6.42L13.3701 12.15C13.3701 12.15 13.3701 12.2 13.4001 12.22C13.4201 12.24 13.4401 12.25 13.4601 12.25L18.7101 12.01C18.7101 12.01 18.7701 11.99 18.7901 11.96C18.8001 11.93 18.8001 11.9 18.7901 11.87L18.7801 11.86Z" fill="#E27625"/>
<path d="M16.5401 16.12C16.5401 16.12 16.4801 16.12 16.4501 16.13L13.7101 18.26C13.7101 18.26 13.6701 18.31 13.6801 18.34C13.6801 18.37 13.7001 18.4 13.7301 18.41L16.9001 19.95C16.9001 19.95 16.9301 19.95 16.9401 19.95C16.9601 19.95 16.9801 19.95 16.9901 19.93C17.0201 19.91 17.0301 19.88 17.0301 19.85L16.6001 16.18C16.6001 16.18 16.5801 16.12 16.5501 16.11L16.5401 16.12Z" fill="#E27625"/>
<path d="M16.9699 19.7901L13.7999 18.2601C13.7999 18.2601 13.7399 18.2501 13.7099 18.2601C13.6799 18.2801 13.6699 18.3101 13.6699 18.3401L13.9199 20.3801L13.8899 21.2501C13.8899 21.2501 13.8999 21.3101 13.9299 21.3301C13.9399 21.3301 13.9599 21.3401 13.9799 21.3401C13.9899 21.3401 14.0099 21.3401 14.0199 21.3401L16.9599 19.9401C16.9599 19.9401 17.0099 19.8901 17.0099 19.8601C17.0099 19.8301 16.9899 19.7901 16.9599 19.7801L16.9699 19.7901Z" fill="#D5BFB2"/>
<path d="M10.33 18.2701C10.33 18.2701 10.27 18.2501 10.24 18.2701L7.05 19.8001C7.05 19.8001 7 19.8501 7 19.8801C7 19.9101 7.02 19.9501 7.05 19.9601L10 21.3601C10 21.3601 10.03 21.3601 10.04 21.3601C10.06 21.3601 10.07 21.3601 10.09 21.3501C10.12 21.3301 10.13 21.3001 10.13 21.2701L10.11 20.4101L10.37 18.3501C10.37 18.3501 10.36 18.2901 10.33 18.2701Z" fill="#D5BFB2"/>
<path d="M9.28988 13.1399L7.42988 13.9899C7.42988 13.9899 7.37988 14.0399 7.37988 14.0799C7.37988 14.1199 7.40988 14.1499 7.43988 14.1599L10.0699 14.9299C10.0699 14.9299 10.0899 14.9299 10.0999 14.9299C10.1299 14.9299 10.1599 14.9099 10.1799 14.8899C10.1999 14.8599 10.1999 14.8299 10.1799 14.7999L9.40988 13.1799C9.40988 13.1799 9.33988 13.1199 9.28988 13.1399Z" fill="#233447"/>
<path d="M16.6199 13.9899L14.7499 13.1399C14.7499 13.1399 14.6499 13.1399 14.6299 13.1799L13.8499 14.8099C13.8499 14.8099 13.8499 14.8399 13.8499 14.8599C13.8499 14.8899 13.8599 14.9099 13.8899 14.9299C13.9099 14.9399 13.9199 14.9499 13.9399 14.9499C13.9399 14.9499 13.9599 14.9499 13.9699 14.9499L16.6199 14.1699C16.6199 14.1699 16.6799 14.1299 16.6799 14.0899C16.6799 14.0499 16.6599 14.0199 16.6299 13.9999L16.6199 13.9899Z" fill="#233447"/>
<path d="M10.6 12.0499L5.35004 11.8199C5.35004 11.8199 5.28004 11.8399 5.27004 11.8699C5.26004 11.8999 5.27004 11.9399 5.29004 11.9699L7.42004 14.1299C7.42004 14.1299 7.49004 14.1599 7.52004 14.1499L9.30004 13.3299L10.04 14.8699C10.04 14.8699 10.09 14.9199 10.12 14.9199C10.12 14.9199 10.12 14.9199 10.13 14.9199C10.17 14.9199 10.2 14.8899 10.21 14.8499L10.7 12.1499C10.7 12.1499 10.7 12.0999 10.68 12.0799C10.66 12.0599 10.64 12.0499 10.61 12.0499H10.6Z" fill="#CC6228"/>
<path d="M7.54997 15.99L4.61997 16.08C4.61997 16.08 4.55997 16.1 4.53997 16.13C4.52997 16.16 4.52997 16.19 4.53997 16.22L7.00997 19.93C7.00997 19.93 7.04997 19.97 7.07997 19.97C7.07997 19.97 7.08997 19.97 7.09997 19.97C7.13997 19.97 7.15997 19.93 7.16997 19.89L7.62997 16.1C7.62997 16.1 7.62997 16.05 7.60997 16.03C7.58997 16.01 7.56997 16.01 7.53997 16L7.54997 15.99Z" fill="#CC6228"/>
<path d="M19.4199 16.08L16.4899 15.99C16.4899 15.99 16.4399 15.99 16.4199 16.02C16.3999 16.04 16.3899 16.06 16.3999 16.09L16.8499 19.88C16.8499 19.88 16.8799 19.95 16.9199 19.96C16.9199 19.96 16.9299 19.96 16.9399 19.96C16.9699 19.96 16.9999 19.95 17.0099 19.92L19.4899 16.21C19.4899 16.21 19.5099 16.15 19.4899 16.12C19.4699 16.09 19.4499 16.07 19.4099 16.07L19.4199 16.08Z" fill="#CC6228"/>
<path d="M16.6499 14.13L18.7699 11.97C18.7699 11.97 18.7999 11.9 18.7899 11.87C18.7799 11.84 18.7399 11.81 18.7099 11.82L13.4599 12.06C13.4599 12.06 13.4099 12.07 13.3899 12.09C13.3699 12.11 13.3699 12.14 13.3699 12.16L13.8499 14.86C13.8499 14.86 13.8899 14.93 13.9299 14.93C13.9299 14.93 13.9299 14.93 13.9399 14.93C13.9699 14.93 14.0099 14.91 14.0199 14.88L14.7599 13.33L16.5499 14.15C16.5499 14.15 16.6199 14.15 16.6499 14.13V14.13Z" fill="#CC6228"/>
<path d="M7.52999 14.0101L5.39999 11.8501C5.39999 11.8501 5.31999 11.8101 5.27999 11.8501C5.23999 11.8801 5.22999 11.9201 5.24999 11.9601L7.44999 16.2501C7.44999 16.2501 7.49999 16.3001 7.52999 16.3001C7.52999 16.3001 7.53999 16.3001 7.54999 16.3001C7.58999 16.2901 7.61999 16.2501 7.61999 16.2101L7.54999 14.0801C7.54999 14.0801 7.54999 14.0401 7.51999 14.0201L7.52999 14.0101Z" fill="#E27525"/>
<path d="M10.6 12.0601C10.6 12.0601 10.52 12.0901 10.51 12.1301L10.01 14.8301C10.01 14.8301 10.01 14.8501 10.01 14.8601L10.63 18.0401C10.63 18.0401 10.67 18.1101 10.72 18.1101C10.76 18.1101 10.8 18.0701 10.8 18.0201L10.94 13.8101L10.67 12.1301C10.67 12.1301 10.63 12.0601 10.58 12.0601H10.6Z" fill="#E27525"/>
<path d="M13.4401 12.0501C13.4401 12.0501 13.3601 12.0901 13.3601 12.1401L13.1001 13.8201L13.2301 18.0201C13.2301 18.0201 13.2701 18.1001 13.3101 18.1101C13.3501 18.1101 13.3901 18.0801 13.4001 18.0401L14.0201 14.8501C14.0201 14.8501 14.0201 14.8301 14.0201 14.8201L13.5301 12.1201C13.5301 12.1201 13.4901 12.0401 13.4301 12.0501H13.4401Z" fill="#E27525"/>
<path d="M18.7499 11.84C18.7499 11.84 18.6699 11.82 18.6299 11.85L16.5099 14.01C16.5099 14.01 16.4899 14.05 16.4799 14.07L16.3899 16.2C16.3899 16.2 16.4199 16.28 16.4599 16.29H16.4799C16.5099 16.29 16.5399 16.27 16.5599 16.24L18.7599 11.95C18.7599 11.95 18.7599 11.86 18.7299 11.84H18.7499Z" fill="#E27525"/>
<path d="M16.64 14C16.64 14 16.59 13.98 16.56 13.98L13.91 14.75C13.91 14.75 13.85 14.79 13.85 14.82L13.23 18.01C13.23 18.01 13.23 18.08 13.27 18.1L13.72 18.41C13.72 18.41 13.75 18.43 13.77 18.43C13.79 18.43 13.81 18.43 13.82 18.41L16.55 16.28C16.55 16.28 16.58 16.24 16.58 16.21L16.67 14.07C16.67 14.07 16.66 14.01 16.64 14Z" fill="#F5841F"/>
<path d="M10.1299 14.75L7.49988 13.99C7.44988 13.97 7.38988 14.01 7.37988 14.06C7.37988 14.08 7.37988 14.09 7.37988 14.11L7.44988 16.2C7.44988 16.2 7.45988 16.25 7.47988 16.27L10.2199 18.4C10.2199 18.4 10.2599 18.42 10.2699 18.42C10.2899 18.42 10.3099 18.42 10.3199 18.4L10.7599 18.09C10.7599 18.09 10.7999 18.03 10.7999 18L10.1799 14.81C10.1799 14.81 10.1499 14.75 10.1199 14.74L10.1299 14.75Z" fill="#F5841F"/>
<path d="M17.01 19.82C17.01 19.82 16.94 19.77 16.9 19.79L14.1 21.12L14.12 20.39C14.12 20.39 14.11 20.34 14.09 20.32L13.85 20.12C13.85 20.12 13.81 20.1 13.79 20.1H10.27C10.27 20.1 10.23 20.1 10.21 20.12L9.97999 20.32C9.97999 20.32 9.94999 20.36 9.94999 20.39L9.96999 21.12L7.14999 19.78C7.14999 19.78 7.05999 19.78 7.03999 19.81C7.01999 19.85 7.01999 19.9 7.05999 19.93L8.09999 20.79L10.19 22.23C10.19 22.23 10.22 22.25 10.24 22.25H13.82C13.82 22.25 13.86 22.25 13.87 22.23L15.98 20.78L17 19.94C17 19.94 17.04 19.86 17.02 19.82H17.01Z" fill="#C0AC9D"/>
<path d="M13.8599 18.3401C13.8599 18.3401 13.8499 18.2801 13.8199 18.2601L13.3699 17.9501C13.3699 17.9501 13.3399 17.9301 13.3199 17.9301H10.7199C10.7199 17.9301 10.6799 17.9301 10.6699 17.9501L10.2299 18.2601C10.2299 18.2601 10.1999 18.3001 10.1899 18.3201L9.92993 20.3801C9.92993 20.3801 9.93993 20.4501 9.97993 20.4701C9.98993 20.4701 10.0099 20.4801 10.0199 20.4801C10.0399 20.4801 10.0599 20.4801 10.0799 20.4601L10.2899 20.2801H13.7499L13.9699 20.4601C13.9699 20.4601 14.0399 20.4901 14.0699 20.4601C14.0999 20.4401 14.1199 20.4101 14.1199 20.3701L13.8699 18.3201L13.8599 18.3401Z" fill="#161616"/>
<path d="M1.32 0.0200021C1.32 0.0200021 1.27 2.14856e-06 1.24 0.0100021C1.21 0.0100021 1.19 0.0400021 1.18 0.0700021L0 3.6C0 3.6 0 3.63 0 3.65L0.78 7.4L0.31 7.74C0.31 7.74 0.27 7.78 0.27 7.81C0.27 7.84 0.28 7.86 0.31 7.88L0.98 8.38L0.5 8.76C0.5 8.76 0.47 8.8 0.47 8.83C0.47 8.86 0.47 8.88 0.5 8.9L1.16 9.51L0.78 9.79C0.78 9.79 0.75 9.83 0.74 9.85C0.73 9.87 0.74 9.9 0.76 9.92L1.84 11.18C1.84 11.18 1.88 11.21 1.91 11.21H1.93L6.83 9.79C6.83 9.79 6.85 9.79 6.86 9.77L10.33 6.84C10.33 6.84 10.36 6.8 10.36 6.77C10.36 6.74 10.35 6.72 10.32 6.7L1.32 0.0200021Z" fill="#763E1A"/>
<path d="M23.2699 7.4L24.0399 3.65C24.0399 3.65 24.0399 3.62 24.0399 3.6L22.8599 0.06C22.8599 0.06 22.8299 0.01 22.7999 0C22.7699 0 22.7399 0 22.7199 0.01L13.7099 6.69C13.7099 6.69 13.6799 6.73 13.6699 6.76C13.6599 6.79 13.6799 6.81 13.6999 6.83L17.1699 9.75C17.1699 9.75 17.1899 9.76 17.1999 9.77L22.0999 11.2H22.1199C22.1499 11.2 22.1699 11.19 22.1899 11.17L23.2699 9.91C23.2699 9.91 23.2899 9.87 23.2899 9.84C23.2899 9.81 23.2699 9.79 23.2499 9.78L22.8699 9.5L23.5399 8.89C23.5399 8.89 23.5699 8.85 23.5699 8.82C23.5699 8.79 23.5599 8.77 23.5399 8.75L23.0599 8.38L23.7099 7.88C23.7099 7.88 23.7399 7.84 23.7399 7.81C23.7399 7.78 23.7299 7.76 23.7099 7.74L23.2599 7.4H23.2699Z" fill="#763E1A"/>
<path d="M6.88995 9.72997C6.88995 9.72997 6.90995 9.66997 6.88995 9.63997C6.86995 9.60997 6.83995 9.58997 6.80995 9.58997H6.78995L1.88995 11.02C1.88995 11.02 1.83995 11.05 1.82995 11.08L0.199951 16.14C0.199951 16.14 0.199951 16.2 0.209951 16.22C0.229951 16.24 0.249951 16.26 0.279951 16.26H4.62995L7.53995 16.3C7.53995 16.3 7.59995 16.28 7.61995 16.26C7.63995 16.24 7.63995 16.2 7.61995 16.17L5.43995 11.92L6.88995 9.72997V9.72997Z" fill="#F5841F"/>
<path d="M22.21 11.08C22.21 11.08 22.18 11.03 22.15 11.02L17.25 9.59998C17.25 9.59998 17.18 9.59998 17.15 9.62998C17.13 9.65998 17.13 9.69997 17.15 9.72997L18.6 11.91L16.42 16.16C16.42 16.16 16.41 16.22 16.42 16.25C16.43 16.28 16.46 16.29 16.5 16.29L19.41 16.25H23.76C23.76 16.25 23.82 16.24 23.83 16.21C23.85 16.19 23.85 16.16 23.84 16.13L22.2 11.07L22.21 11.08Z" fill="#F5841F"/>
<path d="M15.19 2.82996H8.86001C8.86001 2.82996 8.80001 2.83996 8.79001 2.86996C8.77001 2.88996 8.77001 2.91996 8.78001 2.94996L10.2 6.76996L10.52 12.15L10.64 13.83V18.02C10.64 18.02 10.68 18.11 10.73 18.11H13.34C13.34 18.11 13.43 18.07 13.43 18.02V13.84L13.56 12.15L13.88 6.76996L15.29 2.94996C15.29 2.94996 15.29 2.88996 15.28 2.86996C15.26 2.84996 15.24 2.82996 15.21 2.82996H15.19Z" fill="#F5841F"/>
</g>
<defs>
<clipPath id="clip0_1_238">
<rect width="24.04" height="22.25" fill="white"/>
</clipPath>
</defs>
</svg>
