<svg width="24" height="24" viewBox="0 0 24 24" fill="none" xmlns="http://www.w3.org/2000/svg">
<mask id="mask0_1_654" style="mask-type:alpha" maskUnits="userSpaceOnUse" x="0" y="0" width="24" height="24">
<rect width="24" height="24" fill="#D9D9D9"/>
</mask>
<g mask="url(#mask0_1_654)">
<path d="M4.8251 14.1C4.24176 14.1 3.7461 13.8917 3.3381 13.475C2.92943 13.0584 2.7251 12.5667 2.7251 12C2.7251 11.4167 2.92943 10.9207 3.3381 10.512C3.7461 10.104 4.24176 9.90002 4.8251 9.90002C5.39176 9.90002 5.87943 10.104 6.2881 10.512C6.6961 10.9207 6.9001 11.4167 6.9001 12C6.9001 12.5667 6.6961 13.0584 6.2881 13.475C5.87943 13.8917 5.39176 14.1 4.8251 14.1ZM12.0001 14.1C11.4334 14.1 10.9418 13.8917 10.5251 13.475C10.1084 13.0584 9.9001 12.5667 9.9001 12C9.9001 11.4167 10.1084 10.9207 10.5251 10.512C10.9418 10.104 11.4334 9.90002 12.0001 9.90002C12.5834 9.90002 13.0794 10.104 13.4881 10.512C13.8961 10.9207 14.1001 11.4167 14.1001 12C14.1001 12.5667 13.8961 13.0584 13.4881 13.475C13.0794 13.8917 12.5834 14.1 12.0001 14.1ZM19.1751 14.1C18.6084 14.1 18.1208 13.8917 17.7121 13.475C17.3041 13.0584 17.1001 12.5667 17.1001 12C17.1001 11.4167 17.3041 10.9207 17.7121 10.512C18.1208 10.104 18.6084 9.90002 19.1751 9.90002C19.7584 9.90002 20.2544 10.104 20.6631 10.512C21.0711 10.9207 21.2751 11.4167 21.2751 12C21.2751 12.5667 21.0711 13.0584 20.6631 13.475C20.2544 13.8917 19.7584 14.1 19.1751 14.1Z" fill="#1C1B1F"/>
</g>
</svg>
