<svg width="24" height="24" viewBox="0 0 24 24" fill="none" xmlns="http://www.w3.org/2000/svg">
<mask id="mask0_1_687" style="mask-type:alpha" maskUnits="userSpaceOnUse" x="0" y="0" width="24" height="24">
<rect width="24" height="24" fill="#D9D9D9"/>
</mask>
<g mask="url(#mask0_1_687)">
<path d="M6.89995 20.475L2.57495 16.15L6.89995 11.8L8.52495 13.4L6.92495 15H10.9V17.275H6.92495L8.49995 18.875L6.89995 20.475ZM14.1 17.325C13.7666 17.325 13.4833 17.2084 13.25 16.975C13.0166 16.7417 12.9 16.4667 12.9 16.15C12.9 15.8167 13.0166 15.5334 13.25 15.3C13.4833 15.0667 13.7666 14.95 14.1 14.95C14.4166 14.95 14.6916 15.0667 14.925 15.3C15.1583 15.5334 15.275 15.8167 15.275 16.15C15.275 16.4667 15.1583 16.7417 14.925 16.975C14.6916 17.2084 14.4166 17.325 14.1 17.325ZM18.45 17.325C18.1333 17.325 17.8583 17.2084 17.625 16.975C17.3916 16.7417 17.275 16.4667 17.275 16.15C17.275 15.8167 17.3916 15.5334 17.625 15.3C17.8583 15.0667 18.1333 14.95 18.45 14.95C18.7833 14.95 19.0666 15.0667 19.2999 15.3C19.5333 15.5334 19.65 15.8167 19.65 16.15C19.65 16.4667 19.5333 16.7417 19.2999 16.975C19.0666 17.2084 18.7833 17.325 18.45 17.325ZM17.1 12.2L15.475 10.6L17.075 9.00002H13.1V6.72502H17.075L15.5 5.12502L17.1 3.52502L21.4249 7.85002L17.1 12.2ZM5.54995 9.05002C5.21662 9.05002 4.93328 8.93336 4.69995 8.70002C4.46662 8.46669 4.34995 8.18336 4.34995 7.85002C4.34995 7.53336 4.46662 7.25836 4.69995 7.02502C4.93328 6.79169 5.21662 6.67502 5.54995 6.67502C5.86662 6.67502 6.14162 6.79169 6.37495 7.02502C6.60828 7.25836 6.72495 7.53336 6.72495 7.85002C6.72495 8.18336 6.60828 8.46669 6.37495 8.70002C6.14162 8.93336 5.86662 9.05002 5.54995 9.05002ZM9.89995 9.05002C9.58328 9.05002 9.30828 8.93336 9.07495 8.70002C8.84162 8.46669 8.72495 8.18336 8.72495 7.85002C8.72495 7.53336 8.84162 7.25836 9.07495 7.02502C9.30828 6.79169 9.58328 6.67502 9.89995 6.67502C10.2333 6.67502 10.5166 6.79169 10.75 7.02502C10.9833 7.25836 11.1 7.53336 11.1 7.85002C11.1 8.18336 10.9833 8.46669 10.75 8.70002C10.5166 8.93336 10.2333 9.05002 9.89995 9.05002Z" fill="#1C1B1F"/>
</g>
</svg>
