<svg width="24" height="24" viewBox="0 0 24 24" fill="none" xmlns="http://www.w3.org/2000/svg">
<mask id="mask0_20_79735" style="mask-type:alpha" maskUnits="userSpaceOnUse" x="0" y="0" width="24" height="24">
<rect width="24" height="24" fill="#D9D9D9"/>
</mask>
<g mask="url(#mask0_20_79735)">
<path d="M20 21L18.6 19.6L20.175 18H16V16H20.175L18.6 14.4L20 13L24 17L20 21ZM4 18C3.45 18 2.97933 17.8043 2.588 17.413C2.196 17.021 2 16.55 2 16V5C2 4.45 2.196 3.979 2.588 3.587C2.97933 3.19567 3.45 3 4 3H19C19.55 3 20.021 3.19567 20.413 3.587C20.8043 3.979 21 4.45 21 5V11.1C20.8333 11.0667 20.6667 11.0417 20.5 11.025C20.3333 11.0083 20.1667 11 20 11C19.8333 11 19.6667 11.004 19.5 11.012C19.3333 11.0207 19.1667 11.0417 19 11.075V6.4L11.4 11L4 6.425V16H14.075C14.0417 16.1667 14.0207 16.3333 14.012 16.5C14.004 16.6667 14 16.8333 14 17C14 17.1667 14.0083 17.3333 14.025 17.5C14.0417 17.6667 14.0667 17.8333 14.1 18H4ZM5.45 5L11.4 8.55L17.5 5H5.45Z" fill="#1C1B1F"/>
</g>
</svg>
