<svg width="26" height="26" viewBox="0 0 26 26" fill="none" xmlns="http://www.w3.org/2000/svg">
<g clip-path="url(#clip0_9_41498)">
<path d="M13 26C20.1797 26 26 20.1797 26 13C26 5.8203 20.1797 0 13 0C5.8203 0 0 5.8203 0 13C0 20.1797 5.8203 26 13 26Z" fill="url(#paint0_linear_9_41498)"/>
<path d="M22.4623 13.1857H20.1381C20.1381 8.48354 16.285 4.67188 11.5318 4.67188C6.83733 4.67188 3.0207 8.39022 2.9273 13.0118C2.83065 17.7891 7.36136 21.9375 12.1912 21.9375H12.7987C17.0568 21.9375 22.7639 18.6401 23.6556 14.6224C23.8204 13.8818 23.2289 13.1857 22.4623 13.1857ZM8.07796 13.3952C8.07796 14.024 7.55808 14.5382 6.92244 14.5382C6.2868 14.5382 5.76695 14.0237 5.76695 13.3952V11.5459C5.76695 10.9171 6.2868 10.4028 6.92244 10.4028C7.55808 10.4028 8.07796 10.9171 8.07796 11.5459V13.3952ZM12.0904 13.3952C12.0904 14.024 11.5705 14.5382 10.9349 14.5382C10.2993 14.5382 9.77938 14.0237 9.77938 13.3952V11.5459C9.77938 10.9171 10.2995 10.4028 10.9349 10.4028C11.5705 10.4028 12.0904 10.9171 12.0904 11.5459V13.3952Z" fill="url(#paint1_linear_9_41498)"/>
</g>
<defs>
<linearGradient id="paint0_linear_9_41498" x1="13" y1="0" x2="13" y2="26" gradientUnits="userSpaceOnUse">
<stop stop-color="#534BB1"/>
<stop offset="1" stop-color="#551BF9"/>
</linearGradient>
<linearGradient id="paint1_linear_9_41498" x1="13.3046" y1="4.67188" x2="13.3046" y2="21.9375" gradientUnits="userSpaceOnUse">
<stop stop-color="white"/>
<stop offset="1" stop-color="white" stop-opacity="0.82"/>
</linearGradient>
<clipPath id="clip0_9_41498">
<rect width="26" height="26" fill="white"/>
</clipPath>
</defs>
</svg>
