<svg width="24" height="24" viewBox="0 0 24 24" fill="none" xmlns="http://www.w3.org/2000/svg">
<mask id="mask0_1_721" style="mask-type:alpha" maskUnits="userSpaceOnUse" x="0" y="0" width="24" height="24">
<rect width="24" height="24" fill="#D9D9D9"/>
</mask>
<g mask="url(#mask0_1_721)">
<path d="M12 22C10.75 22 9.57933 21.7627 8.488 21.288C7.396 20.8127 6.446 20.1707 5.638 19.362C4.82933 18.554 4.18733 17.604 3.712 16.512C3.23733 15.4207 3 14.25 3 13H5C5 14.95 5.67933 16.604 7.038 17.962C8.396 19.3207 10.05 20 12 20C13.95 20 15.604 19.3207 16.962 17.962C18.3207 16.604 19 14.95 19 13C19 11.05 18.3207 9.39567 16.962 8.037C15.604 6.679 13.95 6 12 6H11.85L13.4 7.55L12 9L8 5L12 1L13.4 2.45L11.85 4H12C13.25 4 14.421 4.23767 15.513 4.713C16.6043 5.18767 17.5543 5.829 18.363 6.637C19.171 7.44567 19.8127 8.39567 20.288 9.487C20.7627 10.579 21 11.75 21 13C21 14.25 20.7627 15.4207 20.288 16.512C19.8127 17.604 19.171 18.554 18.363 19.362C17.5543 20.1707 16.6043 20.8127 15.513 21.288C14.421 21.7627 13.25 22 12 22Z" fill="#1C1B1F"/>
</g>
</svg>
