<svg width="25" height="25" viewBox="0 0 25 25" fill="none" xmlns="http://www.w3.org/2000/svg">
<mask id="mask0_211_25804" style="mask-type:alpha" maskUnits="userSpaceOnUse" x="0" y="0" width="25" height="25">
<rect x="0.00732422" y="0.117188" width="24" height="24" transform="rotate(-0.0352863 0.00732422 0.117188)" fill="#D9D9D9"/>
</mask>
<g mask="url(#mask0_211_25804)">
<path d="M19.687 21.105L15.5258 16.9805C14.8912 17.51 14.1613 17.9232 13.336 18.22C12.5108 18.5168 11.6644 18.6655 10.7966 18.666C8.61674 18.6673 6.77501 17.9172 5.27144 16.4154C3.76787 14.9137 3.01541 13.0729 3.01407 10.893C3.01274 8.73428 3.76293 6.89763 5.26464 5.38305C6.76636 3.86932 8.60716 3.11179 10.7871 3.11044C12.9458 3.10911 14.7769 3.85931 16.2805 5.36103C17.7841 6.86275 18.5365 8.70356 18.5379 10.8834C18.5384 11.7935 18.3908 12.6613 18.095 13.4869C17.7992 14.3125 17.3976 15.0323 16.89 15.6464L21.0195 19.7708L19.687 21.105ZM10.7955 16.7612C12.4251 16.7602 13.8059 16.188 14.9379 15.0444C16.069 13.9008 16.6341 12.5143 16.6331 10.8846C16.6321 9.25499 16.0653 7.8691 14.9328 6.72694C13.7994 5.58478 12.4179 5.0142 10.7882 5.01521C9.13743 5.01622 7.74646 5.58851 6.61531 6.73206C5.48332 7.87562 4.91783 9.26221 4.91883 10.8918C4.91983 12.5215 5.48704 13.9074 6.62044 15.0495C7.75299 16.1917 9.14467 16.7623 10.7955 16.7612Z" fill="#BCBCCC"/>
</g>
</svg>
