<svg width="34" height="34" viewBox="0 0 34 34" fill="none" xmlns="http://www.w3.org/2000/svg">
<mask id="mask0_150_40013" style="mask-type:alpha" maskUnits="userSpaceOnUse" x="0" y="0" width="34" height="34">
<rect width="34" height="34" fill="#D9D9D9"/>
</mask>
<g mask="url(#mask0_150_40013)">
<path d="M27.8611 29.75L21.9696 23.9034C21.0701 24.653 20.0357 25.2377 18.8664 25.6574C17.6971 26.0772 16.4978 26.287 15.2685 26.287C12.1803 26.287 9.57187 25.2227 7.44312 23.0939C5.31437 20.9652 4.25 18.3567 4.25 15.2685C4.25 12.2103 5.31437 9.60905 7.44312 7.46471C9.57187 5.32157 12.1803 4.25 15.2685 4.25C18.3267 4.25 20.9202 5.31437 23.0489 7.44312C25.1777 9.57187 26.2421 12.1803 26.2421 15.2685C26.2421 16.5578 26.0322 17.787 25.6124 18.9563C25.1927 20.1257 24.623 21.1451 23.9034 22.0145L29.75 27.8611L27.8611 29.75ZM15.2685 23.5886C17.5772 23.5886 19.5338 22.7791 21.1385 21.1601C22.7419 19.541 23.5436 17.5772 23.5436 15.2685C23.5436 12.9599 22.7419 10.996 21.1385 9.37698C19.5338 7.75794 17.5772 6.94841 15.2685 6.94841C12.9299 6.94841 10.9589 7.75794 9.3554 9.37698C7.75074 10.996 6.94841 12.9599 6.94841 15.2685C6.94841 17.5772 7.75074 19.541 9.3554 21.1601C10.9589 22.7791 12.9299 23.5886 15.2685 23.5886Z" fill="white"/>
</g>
</svg>
