<svg width="88" height="88" viewBox="0 0 88 88" fill="none" xmlns="http://www.w3.org/2000/svg">
<g clip-path="url(#clip0_256_82958)">
<path d="M39.5531 75.3622C59.3296 75.3622 75.3617 59.33 75.3617 39.5536C75.3617 19.7772 59.3296 3.74512 39.5531 3.74512C19.7767 3.74512 3.74463 19.7772 3.74463 39.5536C3.74463 59.33 19.7767 75.3622 39.5531 75.3622Z" fill="#3D3755" stroke="#6F36FF" stroke-width="8" stroke-linejoin="round"/>
<path d="M66.0872 66.0869L83.9604 83.9602" stroke="#6F36FF" stroke-width="8" stroke-linecap="round" stroke-linejoin="round"/>
<path d="M44.3233 48.2834V52.7296C44.3233 53.0737 44.1807 53.3714 43.8955 53.6229C43.6103 53.8743 43.2725 54 42.8822 54H37.1178C36.7275 54 36.3897 53.8743 36.1045 53.6229C35.8193 53.3714 35.6767 53.0737 35.6767 52.7296V48.2834C35.6767 47.9393 35.8193 47.6416 36.1045 47.3902C36.3897 47.1387 36.7275 47.013 37.1178 47.013H42.8822C43.2725 47.013 43.6103 47.1387 43.8955 47.3902C44.1807 47.6416 44.3233 47.9393 44.3233 48.2834ZM44.9988 25.2704L43.5924 41.8827C43.5774 42.2268 43.4235 42.5245 43.1308 42.776C42.838 43.0274 42.4965 43.1531 42.1062 43.1531H37.8938C37.5035 43.1531 37.162 43.0274 36.8692 42.776C36.5765 42.5245 36.4226 42.2268 36.4076 41.8827L35.0012 25.2704C34.9861 24.9263 35.1175 24.6286 35.3952 24.3771C35.6729 24.1257 36.0069 24 36.3972 24H43.6028C43.9931 24 44.3271 24.1257 44.6048 24.3771C44.8825 24.6286 45.0139 24.9263 44.9988 25.2704Z" fill="#8A5EF9"/>
</g>
<defs>
<clipPath id="clip0_256_82958">
<rect width="88" height="88" fill="white"/>
</clipPath>
</defs>
</svg>
