<svg width="24" height="24" viewBox="0 0 24 24" fill="none" xmlns="http://www.w3.org/2000/svg">
<mask id="mask0_1_660" style="mask-type:alpha" maskUnits="userSpaceOnUse" x="0" y="0" width="24" height="24">
<rect width="24" height="24" fill="#D9D9D9"/>
</mask>
<g mask="url(#mask0_1_660)">
<path d="M14.4501 21.6C14.0001 22.0333 13.4584 22.25 12.8251 22.25C12.1918 22.25 11.6501 22.0333 11.2001 21.6L2.4001 12.8C2.2001 12.5833 2.03776 12.3333 1.9131 12.05C1.78776 11.7666 1.7251 11.4666 1.7251 11.15V3.99998C1.7251 3.36664 1.9461 2.82898 2.3881 2.38698C2.82943 1.94564 3.36676 1.72498 4.0001 1.72498H11.1501C11.4668 1.72498 11.7668 1.78731 12.0501 1.91198C12.3334 2.03731 12.5834 2.19998 12.8001 2.39998L21.6001 11.225C22.0334 11.6583 22.2501 12.1916 22.2501 12.825C22.2501 13.4583 22.0334 14 21.6001 14.45L14.4501 21.6ZM6.5001 7.99998C6.91676 7.99998 7.27076 7.85398 7.5621 7.56198C7.8541 7.27064 8.0001 6.91664 8.0001 6.49998C8.0001 6.08331 7.8541 5.72931 7.5621 5.43798C7.27076 5.14598 6.91676 4.99998 6.5001 4.99998C6.08343 4.99998 5.72943 5.14598 5.4381 5.43798C5.1461 5.72931 5.0001 6.08331 5.0001 6.49998C5.0001 6.91664 5.1461 7.27064 5.4381 7.56198C5.72943 7.85398 6.08343 7.99998 6.5001 7.99998Z" fill="#1C1B1F"/>
</g>
</svg>
