<svg width="24" height="24" viewBox="0 0 24 24" fill="none" xmlns="http://www.w3.org/2000/svg">
<mask id="mask0_5_12256" style="mask-type:alpha" maskUnits="userSpaceOnUse" x="0" y="0" width="24" height="24">
<rect width="24" height="24" fill="#D9D9D9"/>
</mask>
<g mask="url(#mask0_5_12256)">
<path d="M9.7001 21.5L9.3001 18.45C9.03343 18.3667 8.76276 18.2417 8.4881 18.075C8.21276 17.9083 7.95843 17.7333 7.7251 17.55L4.9001 18.75L2.6001 14.75L5.0501 12.9C5.01676 12.75 4.9961 12.6 4.9881 12.45C4.97943 12.3 4.9751 12.15 4.9751 12C4.9751 11.8667 4.97943 11.725 4.9881 11.575C4.9961 11.425 5.01676 11.2667 5.0501 11.1L2.6001 9.25L4.9001 5.275L7.7251 6.45C7.95843 6.26667 8.21276 6.096 8.4881 5.938C8.76276 5.77933 9.03343 5.65 9.3001 5.55L9.7001 2.5H14.3001L14.7001 5.55C15.0001 5.66667 15.2708 5.79567 15.5121 5.937C15.7541 6.079 16.0001 6.25 16.2501 6.45L19.1001 5.275L21.4001 9.25L18.9251 11.125C18.9584 11.2917 18.9751 11.4417 18.9751 11.575V12C18.9751 12.1333 18.9708 12.2707 18.9621 12.412C18.9541 12.554 18.9334 12.7167 18.9001 12.9L21.3501 14.75L19.0501 18.75L16.2501 17.55C16.0001 17.75 15.7461 17.925 15.4881 18.075C15.2294 18.225 14.9668 18.35 14.7001 18.45L14.3001 21.5H9.7001ZM12.0001 15C12.8334 15 13.5418 14.7083 14.1251 14.125C14.7084 13.5417 15.0001 12.8333 15.0001 12C15.0001 11.1667 14.7084 10.4583 14.1251 9.875C13.5418 9.29167 12.8334 9 12.0001 9C11.1668 9 10.4584 9.29167 9.8751 9.875C9.29176 10.4583 9.0001 11.1667 9.0001 12C9.0001 12.8333 9.29176 13.5417 9.8751 14.125C10.4584 14.7083 11.1668 15 12.0001 15Z" fill="#1C1B1F"/>
</g>
</svg>
