<svg width="24" height="24" viewBox="0 0 24 24" fill="none" xmlns="http://www.w3.org/2000/svg">
<mask id="mask0_1_648" style="mask-type:alpha" maskUnits="userSpaceOnUse" x="0" y="0" width="24" height="24">
<rect width="24" height="24" fill="#D9D9D9"/>
</mask>
<g mask="url(#mask0_1_648)">
<path d="M18 22.1749C17.1166 22.1749 16.3666 21.8666 15.75 21.25C15.1333 20.6333 14.825 19.8833 14.825 19C14.825 18.8833 14.8333 18.7583 14.85 18.625C14.8666 18.4916 14.8916 18.375 14.925 18.275L8.14995 14.35C7.86662 14.6 7.53762 14.8 7.16295 14.95C6.78762 15.1 6.39995 15.175 5.99995 15.175C5.11662 15.175 4.36662 14.8666 3.74995 14.25C3.13328 13.6333 2.82495 12.8833 2.82495 12C2.82495 11.1166 3.13328 10.3666 3.74995 9.74995C4.36662 9.13328 5.11662 8.82495 5.99995 8.82495C6.39995 8.82495 6.78762 8.89995 7.16295 9.04995C7.53762 9.19995 7.86662 9.39995 8.14995 9.64995L14.925 5.72495C14.8916 5.62495 14.8666 5.50828 14.85 5.37495C14.8333 5.24162 14.825 5.11662 14.825 4.99995C14.825 4.11662 15.1333 3.36662 15.75 2.74995C16.3666 2.13328 17.1166 1.82495 18 1.82495C18.8833 1.82495 19.6333 2.13328 20.25 2.74995C20.8666 3.36662 21.1749 4.11662 21.1749 4.99995C21.1749 5.88328 20.8666 6.63328 20.25 7.24995C19.6333 7.86662 18.8833 8.17495 18 8.17495C17.6 8.17495 17.2126 8.10395 16.838 7.96195C16.4626 7.82062 16.1333 7.61662 15.85 7.34995L9.07495 11.275C9.10828 11.375 9.13328 11.4916 9.14995 11.625C9.16662 11.7583 9.17495 11.8833 9.17495 12C9.17495 12.1166 9.16662 12.2416 9.14995 12.375C9.13328 12.5083 9.10828 12.625 9.07495 12.725L15.85 16.65C16.1333 16.3833 16.4626 16.1793 16.838 16.038C17.2126 15.896 17.6 15.825 18 15.825C18.8833 15.825 19.6333 16.1333 20.25 16.75C20.8666 17.3666 21.1749 18.1166 21.1749 19C21.1749 19.8833 20.8666 20.6333 20.25 21.25C19.6333 21.8666 18.8833 22.1749 18 22.1749ZM18 5.99995C18.2833 5.99995 18.5206 5.90428 18.712 5.71295C18.904 5.52095 19 5.28328 19 4.99995C19 4.71662 18.904 4.47895 18.712 4.28695C18.5206 4.09562 18.2833 3.99995 18 3.99995C17.7166 3.99995 17.4793 4.09562 17.288 4.28695C17.096 4.47895 17 4.71662 17 4.99995C17 5.28328 17.096 5.52095 17.288 5.71295C17.4793 5.90428 17.7166 5.99995 18 5.99995ZM5.99995 13C6.28328 13 6.52095 12.904 6.71295 12.712C6.90428 12.5206 6.99995 12.2833 6.99995 12C6.99995 11.7166 6.90428 11.479 6.71295 11.287C6.52095 11.0956 6.28328 11 5.99995 11C5.71662 11 5.47895 11.0956 5.28695 11.287C5.09562 11.479 4.99995 11.7166 4.99995 12C4.99995 12.2833 5.09562 12.5206 5.28695 12.712C5.47895 12.904 5.71662 13 5.99995 13ZM18 20C18.2833 20 18.5206 19.904 18.712 19.712C18.904 19.5206 19 19.2833 19 19C19 18.7166 18.904 18.4793 18.712 18.288C18.5206 18.096 18.2833 18 18 18C17.7166 18 17.4793 18.096 17.288 18.288C17.096 18.4793 17 18.7166 17 19C17 19.2833 17.096 19.5206 17.288 19.712C17.4793 19.904 17.7166 20 18 20Z" fill="#1C1B1F"/>
</g>
</svg>
