<svg width="34" height="34" viewBox="0 0 34 34" fill="none" xmlns="http://www.w3.org/2000/svg">
<mask id="mask0_150_40016" style="mask-type:alpha" maskUnits="userSpaceOnUse" x="0" y="0" width="34" height="34">
<rect width="34" height="34" fill="#D9D9D9"/>
</mask>
<g mask="url(#mask0_150_40016)">
<path d="M10.1292 30.5292C9.44445 30.5292 8.86031 30.2874 8.37675 29.8038C7.89225 29.3193 7.65 28.7347 7.65 28.05C7.65 27.3653 7.89225 26.7807 8.37675 26.2962C8.86031 25.8126 9.44445 25.5708 10.1292 25.5708C10.8139 25.5708 11.398 25.8126 11.8816 26.2962C12.3661 26.7807 12.6083 27.3653 12.6083 28.05C12.6083 28.7347 12.3661 29.3193 11.8816 29.8038C11.398 30.2874 10.8139 30.5292 10.1292 30.5292ZM23.8708 30.5292C23.1861 30.5292 22.602 30.2874 22.1184 29.8038C21.6339 29.3193 21.3917 28.7347 21.3917 28.05C21.3917 27.3653 21.6339 26.7807 22.1184 26.2962C22.602 25.8126 23.1861 25.5708 23.8708 25.5708C24.5556 25.5708 25.1397 25.8126 25.6233 26.2962C26.1078 26.7807 26.35 27.3653 26.35 28.05C26.35 28.7347 26.1078 29.3193 25.6233 29.8038C25.1397 30.2874 24.5556 30.5292 23.8708 30.5292ZM8.53542 8.14583L12.1125 15.6542H21.7813C21.8521 15.6542 21.9229 15.6362 21.9938 15.6003C22.0646 15.5654 22.1118 15.5125 22.1354 15.4417L25.9604 8.53542C26.0076 8.44097 26.0076 8.35267 25.9604 8.2705C25.9132 8.18739 25.8424 8.14583 25.7479 8.14583H8.53542ZM7.50833 6.02083H27.1646C27.7549 6.02083 28.1978 6.26875 28.4934 6.76458C28.7881 7.26042 28.8056 7.76806 28.5458 8.2875L23.9771 16.5042C23.7646 16.9056 23.4638 17.2182 23.0747 17.442C22.6846 17.6668 22.2653 17.7792 21.8167 17.7792H11.475L9.84583 20.7896C9.775 20.9076 9.76933 21.0257 9.82883 21.1437C9.88739 21.2618 9.9875 21.3208 10.1292 21.3208H26.35V23.4458H10.1292C9.18472 23.4458 8.47639 23.0388 8.00417 22.2247C7.53194 21.4096 7.52014 20.6007 7.96875 19.7979L9.9875 16.15L4.81667 5.3125H2.125V3.1875H6.1625L7.50833 6.02083Z" fill="white"/>
</g>
</svg>
