<svg width="24" height="24" viewBox="0 0 24 24" fill="none" xmlns="http://www.w3.org/2000/svg">
<mask id="mask0_1_690" style="mask-type:alpha" maskUnits="userSpaceOnUse" x="0" y="0" width="24" height="24">
<rect width="24" height="24" fill="#D9D9D9"/>
</mask>
<g mask="url(#mask0_1_690)">
<path d="M6.9999 22.1C6.4499 22.1 5.97924 21.9044 5.5879 21.513C5.1959 21.121 4.9999 20.65 4.9999 20.1C4.9999 19.55 5.1959 19.0794 5.5879 18.688C5.97924 18.296 6.4499 18.1 6.9999 18.1C7.5499 18.1 8.02057 18.296 8.4119 18.688C8.8039 19.0794 8.9999 19.55 8.9999 20.1C8.9999 20.65 8.8039 21.121 8.4119 21.513C8.02057 21.9044 7.5499 22.1 6.9999 22.1ZM16.9999 22.1C16.4499 22.1 15.9792 21.9044 15.5879 21.513C15.1959 21.121 14.9999 20.65 14.9999 20.1C14.9999 19.55 15.1959 19.0794 15.5879 18.688C15.9792 18.296 16.4499 18.1 16.9999 18.1C17.5499 18.1 18.0209 18.296 18.4129 18.688C18.8042 19.0794 18.9999 19.55 18.9999 20.1C18.9999 20.65 18.8042 21.121 18.4129 21.513C18.0209 21.9044 17.5499 22.1 16.9999 22.1ZM5.2499 3.90002H19.7749C20.2249 3.90002 20.5706 4.10402 20.8119 4.51202C21.0539 4.92069 21.0666 5.32502 20.8499 5.72502L17.4249 11.9C17.2416 12.25 16.9876 12.5207 16.6629 12.712C16.3376 12.904 15.9832 13 15.5999 13H8.1999L7.1499 14.9H19.0999V17.1H6.9999C6.1999 17.1 5.5999 16.754 5.1999 16.062C4.7999 15.3707 4.79157 14.6834 5.1749 14L6.4999 11.6L2.9499 4.10002H0.899902V1.90002H4.2999L5.2499 3.90002Z" fill="#1C1B1F"/>
</g>
</svg>
