<svg width="24" height="25" viewBox="0 0 24 25" fill="none" xmlns="http://www.w3.org/2000/svg">
<path d="M3.60876 7.22865C3.63613 6.95033 3.53318 6.67516 3.33148 6.48788L1.27728 3.93761V3.55664H7.65543L12.5854 14.6995L16.9198 3.55664L23 3.55668V3.93761L21.2437 5.67303C21.0922 5.79193 21.0172 5.98753 21.0486 6.18104V18.9323C21.0172 19.1258 21.0922 19.3214 21.2437 19.4403L22.9589 21.1757V21.5566H14.3315V21.1757L16.1083 19.3979C16.283 19.218 16.283 19.1651 16.283 18.89V8.58315L11.3427 21.5143H10.6751L4.92339 8.58315V17.2498C4.87552 17.6141 4.99291 17.981 5.24179 18.2445L7.55282 21.1333V21.5143H1V21.1333L3.31103 18.2445C3.55806 17.9805 3.66857 17.6112 3.60876 17.2498V7.22865Z" fill="white"/>
</svg>
