<svg width="30" height="21" viewBox="0 0 30 21" fill="none" xmlns="http://www.w3.org/2000/svg">
<path d="M6.14164 4.97247C11.034 0.447817 18.966 0.447817 23.8584 4.97247L24.4472 5.517C24.6918 5.74326 24.6918 6.11003 24.4472 6.33629L22.433 8.19907C22.3107 8.3122 22.1124 8.3122 21.9901 8.19907L21.1798 7.44974C17.7668 4.2932 12.2332 4.2932 8.82015 7.44974L7.95242 8.2522C7.83015 8.36533 7.63187 8.36533 7.50953 8.2522L5.49539 6.38942C5.2507 6.16316 5.2507 5.79639 5.49539 5.57013L6.14164 4.97247ZM28.0239 8.82494L29.8165 10.4828C30.0612 10.709 30.0612 11.0758 29.8165 11.3021L21.7335 18.7778C21.4889 19.0039 21.0923 19.0039 20.8476 18.7778L15.1108 13.4721C15.0496 13.4155 14.9505 13.4155 14.8893 13.4721L9.15257 18.7778C8.90796 19.0039 8.51132 19.0039 8.26671 18.7778L0.183463 11.302C-0.0611543 11.0757 -0.0611543 10.709 0.183463 10.4827L1.97609 8.82479C2.2207 8.5986 2.61731 8.5986 2.86193 8.82479L8.5989 14.1306C8.66 14.1872 8.75914 14.1872 8.82031 14.1306L14.5569 8.82479C14.8016 8.5986 15.1982 8.5986 15.4428 8.82479L21.1798 14.1306C21.2409 14.1872 21.3401 14.1872 21.4012 14.1306L27.138 8.82494C27.3827 8.59868 27.7793 8.59868 28.0239 8.82494Z" fill="#3396FF"/>
</svg>
