<svg width="25" height="24" viewBox="0 0 25 24" fill="none" xmlns="http://www.w3.org/2000/svg">
<path d="M23.2995 6.37751C22.5009 6.71829 21.6415 6.94816 20.7397 7.05103C21.6604 6.52187 22.3664 5.68367 22.6993 4.68376C21.8381 5.1744 20.8847 5.53042 19.8692 5.72262C19.0565 4.89119 17.898 4.37134 16.6161 4.37134C14.1551 4.37134 12.1597 6.28692 12.1597 8.64996C12.1597 8.98482 12.1989 9.31121 12.2752 9.6249C8.57106 9.44625 5.2867 7.74318 3.08846 5.1545C2.70482 5.78612 2.48521 6.52102 2.48521 7.30588C2.48521 8.79008 3.2719 10.0999 4.46782 10.867C3.73757 10.8445 3.0501 10.6519 2.44905 10.3314C2.44861 10.3492 2.44861 10.3674 2.44861 10.3856C2.44861 12.4583 3.98496 14.1872 6.02401 14.5809C5.65006 14.6782 5.25628 14.7307 4.8497 14.7307C4.56219 14.7307 4.28305 14.704 4.01097 14.6537C4.5785 16.3533 6.22421 17.5907 8.17419 17.625C6.64886 18.7727 4.72755 19.4568 2.63911 19.4568C2.27972 19.4568 1.92474 19.4365 1.57593 19.3967C3.54883 20.6112 5.89128 21.319 8.4079 21.319C16.606 21.319 21.0885 14.7997 21.0885 9.14568C21.0885 8.96026 21.0845 8.77527 21.0761 8.59154C21.9466 7.98956 22.7024 7.23561 23.2995 6.37751Z" fill="black"/>
</svg>
