<svg width="22" height="20" viewBox="0 0 22 20" fill="none" xmlns="http://www.w3.org/2000/svg">
<path d="M20.072 5.31439C19.4012 5.59837 18.6793 5.78993 17.9218 5.87566C18.6952 5.43469 19.2882 4.73619 19.5679 3.90293C18.8445 4.3118 18.0436 4.60848 17.1906 4.76864C16.5079 4.07579 15.5348 3.64258 14.458 3.64258C12.3907 3.64258 10.7146 5.2389 10.7146 7.2081C10.7146 7.48714 10.7475 7.75914 10.8116 8.02054C7.70013 7.87167 4.94127 6.45245 3.09475 4.29522C2.77248 4.82156 2.58802 5.43398 2.58802 6.08803C2.58802 7.32487 3.24884 8.41636 4.25341 9.05559C3.64 9.03689 3.06252 8.87638 2.55764 8.60933C2.55727 8.62415 2.55727 8.63932 2.55727 8.65448C2.55727 10.3817 3.8478 11.8224 5.56061 12.1505C5.24649 12.2316 4.91571 12.2754 4.57419 12.2754C4.33268 12.2754 4.0982 12.2532 3.86966 12.2112C4.34638 13.6276 5.72878 14.6588 7.36676 14.6873C6.08549 15.6437 4.47158 16.2138 2.71729 16.2138C2.4154 16.2138 2.11722 16.1969 1.82422 16.1637C3.48146 17.1758 5.44911 17.7657 7.56308 17.7657C14.4495 17.7657 18.2148 12.3329 18.2148 7.6212C18.2148 7.46668 18.2114 7.31252 18.2044 7.15941C18.9356 6.65777 19.5705 6.02947 20.072 5.31439Z" fill="white"/>
</svg>
