<svg width="20" height="20" viewBox="0 0 20 20" fill="none" xmlns="http://www.w3.org/2000/svg">
<circle cx="10" cy="10" r="10" fill="#93919D"/>
<g clip-path="url(#clip0_119_45241)">
<path d="M14.3123 5.99852C13.599 5.67118 12.8464 5.43755 12.0731 5.30346C12.0661 5.30228 12.0589 5.3033 12.0525 5.30637C12.0461 5.30945 12.0408 5.31444 12.0374 5.32064C11.9404 5.49252 11.8332 5.71733 11.7582 5.89333C10.9247 5.76684 10.0769 5.76684 9.24337 5.89333C9.15977 5.69727 9.06521 5.50607 8.96012 5.32064C8.95659 5.3145 8.95129 5.30958 8.9449 5.30651C8.93852 5.30344 8.93136 5.30238 8.92437 5.30346C8.15093 5.43683 7.39812 5.67058 6.68518 5.99852C6.67908 6.00085 6.67397 6.00522 6.67074 6.01089C5.24487 8.14146 4.85368 10.2198 5.04549 12.272C5.04618 12.2816 5.05237 12.2912 5.05993 12.2974C5.89024 12.9124 6.81896 13.382 7.80649 13.6861C7.81346 13.6883 7.82096 13.6883 7.82788 13.6859C7.8348 13.6836 7.8408 13.6791 7.84499 13.6731C8.05674 13.3843 8.24512 13.0798 8.40737 12.7594C8.41075 12.7528 8.41191 12.7453 8.41067 12.738C8.40943 12.7307 8.40586 12.7239 8.40049 12.7188C8.39694 12.7155 8.39272 12.7129 8.38812 12.7113C8.09191 12.5974 7.80504 12.4607 7.53012 12.3022C7.52244 12.2979 7.51673 12.2907 7.51417 12.2823C7.51161 12.2738 7.51239 12.2647 7.51637 12.2568C7.51871 12.2517 7.52224 12.2472 7.52668 12.2438C7.58443 12.2005 7.64218 12.1551 7.69718 12.1097C7.70204 12.1058 7.70787 12.1033 7.71404 12.1024C7.72022 12.1016 7.72651 12.1024 7.73224 12.1049C9.5328 12.9271 11.4819 12.9271 13.2604 12.1049C13.2664 12.1023 13.2729 12.1014 13.2793 12.1023C13.2857 12.1031 13.2918 12.1057 13.2969 12.1097C13.3519 12.1551 13.4096 12.2005 13.4674 12.2438C13.472 12.2472 13.4758 12.2517 13.4783 12.2569C13.4808 12.2622 13.482 12.2679 13.4817 12.2737C13.4814 12.2795 13.4797 12.2851 13.4767 12.2901C13.4738 12.2951 13.4696 12.2992 13.4646 12.3022C13.1903 12.4621 12.9031 12.5987 12.6059 12.7106C12.6012 12.7123 12.5969 12.715 12.5933 12.7186C12.5898 12.7222 12.587 12.7265 12.5853 12.7312C12.5837 12.7358 12.5831 12.7407 12.5834 12.7455C12.5838 12.7504 12.5851 12.7551 12.5874 12.7594C12.7524 13.0791 12.9414 13.3843 13.1491 13.6731C13.1532 13.6791 13.1592 13.6836 13.1662 13.6859C13.1731 13.6883 13.1806 13.6883 13.1876 13.6861C14.1767 13.383 15.107 12.9133 15.9382 12.2974C15.9424 12.2945 15.9459 12.2907 15.9484 12.2863C15.9509 12.2819 15.9523 12.277 15.9527 12.272C16.1823 9.89939 15.5684 7.83827 14.3261 6.01158C14.3248 6.00856 14.3229 6.00584 14.3206 6.00359C14.3182 6.00134 14.3154 5.99961 14.3123 5.99852ZM8.67618 11.0221C8.13374 11.0221 7.68755 10.5243 7.68755 9.91383C7.68755 9.30264 8.12549 8.80489 8.67618 8.80489C9.23099 8.80489 9.67305 9.30677 9.6648 9.91383C9.6648 10.5243 9.22687 11.0221 8.67618 11.0221ZM12.3309 11.0221C11.7892 11.0221 11.3423 10.5243 11.3423 9.91383C11.3423 9.30264 11.7802 8.80489 12.3309 8.80489C12.8857 8.80489 13.3285 9.30677 13.3196 9.91383C13.3196 10.5243 12.8857 11.0221 12.3309 11.0221Z" fill="#2C273F"/>
</g>
<defs>
<clipPath id="clip0_119_45241">
<rect width="11" height="11" fill="white" transform="translate(5 4)"/>
</clipPath>
</defs>
</svg>
