<svg width="24" height="24" viewBox="0 0 24 24" fill="none" xmlns="http://www.w3.org/2000/svg">
<path d="M20.6392 9.53911C19.936 9.53911 19.3173 9.82974 18.8626 10.2844C17.1892 9.12661 14.9345 8.3813 12.436 8.30161L13.7345 2.45161L17.8689 3.37974C17.8689 4.39224 18.6939 5.21724 19.7064 5.21724C20.7376 5.21724 21.5673 4.3688 21.5673 3.3563C21.5673 2.3438 20.7423 1.49536 19.7064 1.49536C18.9845 1.49536 18.361 1.9313 18.0517 2.52661L13.486 1.51411C13.2564 1.45317 13.0314 1.61724 12.9704 1.84692L11.5454 8.29692C9.06574 8.40005 6.83449 9.14536 5.15636 10.3032C4.70167 9.82974 4.05949 9.53911 3.35636 9.53911C0.750112 9.53911 -0.103013 13.036 2.28292 14.2313C2.19855 14.6016 2.16105 14.9954 2.16105 15.3891C2.16105 19.3172 6.58605 22.5 12.0189 22.5C17.4751 22.5 21.9001 19.3172 21.9001 15.3891C21.9001 14.9954 21.8579 14.5829 21.7548 14.2125C24.0939 13.0125 23.2314 9.53911 20.6392 9.53911V9.53911ZM6.06574 14.4797C6.06574 13.4485 6.89074 12.6188 7.92667 12.6188C8.93917 12.6188 9.76417 13.4438 9.76417 14.4797C9.76417 15.4922 8.93917 16.3172 7.92667 16.3172C6.89542 16.3219 6.06574 15.4922 6.06574 14.4797V14.4797ZM16.111 18.8625C14.4048 20.5688 9.59074 20.5688 7.88449 18.8625C7.69699 18.6985 7.69699 18.4079 7.88449 18.2204C8.04855 18.0563 8.33917 18.0563 8.50324 18.2204C9.80636 19.5563 14.1282 19.5797 15.4876 18.2204C15.6517 18.0563 15.9423 18.0563 16.1064 18.2204C16.2985 18.4079 16.2985 18.6985 16.111 18.8625ZM16.0735 16.3219C15.061 16.3219 14.236 15.4969 14.236 14.4844C14.236 13.4532 15.061 12.6235 16.0735 12.6235C17.1048 12.6235 17.9345 13.4485 17.9345 14.4844C17.9298 15.4922 17.1048 16.3219 16.0735 16.3219Z" fill="black"/>
</svg>
