<svg width="24" height="25" viewBox="0 0 24 25" fill="none" xmlns="http://www.w3.org/2000/svg">
<mask id="mask0_307_38191" style="mask-type:alpha" maskUnits="userSpaceOnUse" x="0" y="0" width="24" height="25">
<rect y="0.374268" width="24" height="24" fill="#D9D9D9"/>
</mask>
<g mask="url(#mask0_307_38191)">
<path d="M12 21.8743C10.7 21.8743 9.47067 21.6243 8.312 21.1243C7.154 20.6243 6.14567 19.9449 5.287 19.0863C4.429 18.2283 3.75 17.2203 3.25 16.0623C2.75 14.9036 2.5 13.6743 2.5 12.3743C2.5 11.0576 2.75 9.82427 3.25 8.67427C3.75 7.52427 4.429 6.51993 5.287 5.66127C6.14567 4.80327 7.154 4.12427 8.312 3.62427C9.47067 3.12427 10.7 2.87427 12 2.87427C13.3167 2.87427 14.55 3.12427 15.7 3.62427C16.85 4.12427 17.854 4.80327 18.712 5.66127C19.5707 6.51993 20.25 7.52427 20.75 8.67427C21.25 9.82427 21.5 11.0576 21.5 12.3743C21.5 13.6743 21.25 14.9036 20.75 16.0623C20.25 17.2203 19.5707 18.2283 18.712 19.0863C17.854 19.9449 16.85 20.6243 15.7 21.1243C14.55 21.6243 13.3167 21.8743 12 21.8743ZM12 20.3493C12.5167 19.6826 12.946 19.0036 13.288 18.3123C13.6293 17.6203 13.9167 16.8659 14.15 16.0493H9.85C10.0833 16.8826 10.371 17.6449 10.713 18.3363C11.0543 19.0283 11.4833 19.6993 12 20.3493ZM10.075 20.0743C9.69167 19.5243 9.346 18.8993 9.038 18.1993C8.72933 17.4993 8.49167 16.7826 8.325 16.0493H4.925C5.45833 17.0826 6.16667 17.9536 7.05 18.6623C7.93333 19.3703 8.94167 19.8409 10.075 20.0743ZM13.925 20.0743C15.0583 19.8409 16.0667 19.3703 16.95 18.6623C17.8333 17.9536 18.5417 17.0826 19.075 16.0493H15.675C15.475 16.7826 15.225 17.5033 14.925 18.2113C14.625 18.9199 14.2917 19.5409 13.925 20.0743ZM4.3 14.5493H8.025C7.95833 14.1826 7.90833 13.8199 7.875 13.4613C7.84167 13.1033 7.825 12.7409 7.825 12.3743C7.825 12.0076 7.84167 11.6449 7.875 11.2863C7.90833 10.9283 7.95833 10.5659 8.025 10.1993H4.3C4.2 10.5326 4.125 10.8826 4.075 11.2493C4.025 11.6159 4 11.9909 4 12.3743C4 12.7576 4.025 13.1326 4.075 13.4993C4.125 13.8659 4.2 14.2159 4.3 14.5493ZM9.525 14.5493H14.475C14.5417 14.1826 14.5917 13.8243 14.625 13.4743C14.6583 13.1243 14.675 12.7576 14.675 12.3743C14.675 11.9909 14.6583 11.6243 14.625 11.2743C14.5917 10.9243 14.5417 10.5659 14.475 10.1993H9.525C9.45833 10.5659 9.40833 10.9243 9.375 11.2743C9.34167 11.6243 9.325 11.9909 9.325 12.3743C9.325 12.7576 9.34167 13.1243 9.375 13.4743C9.40833 13.8243 9.45833 14.1826 9.525 14.5493ZM15.975 14.5493H19.7C19.8 14.2159 19.875 13.8659 19.925 13.4993C19.975 13.1326 20 12.7576 20 12.3743C20 11.9909 19.975 11.6159 19.925 11.2493C19.875 10.8826 19.8 10.5326 19.7 10.1993H15.975C16.0417 10.5659 16.0917 10.9283 16.125 11.2863C16.1583 11.6449 16.175 12.0076 16.175 12.3743C16.175 12.7409 16.1583 13.1033 16.125 13.4613C16.0917 13.8199 16.0417 14.1826 15.975 14.5493ZM15.675 8.69927H19.075C18.5417 7.64927 17.8377 6.77827 16.963 6.08627C16.0877 5.39493 15.075 4.91593 13.925 4.64927C14.3083 5.2326 14.65 5.86993 14.95 6.56127C15.25 7.25327 15.4917 7.96593 15.675 8.69927ZM9.85 8.69927H14.15C13.9167 7.86593 13.621 7.09493 13.263 6.38627C12.9043 5.67827 12.4833 5.01593 12 4.39927C11.5167 5.01593 11.096 5.67827 10.738 6.38627C10.3793 7.09493 10.0833 7.86593 9.85 8.69927ZM4.925 8.69927H8.325C8.50833 7.96593 8.75 7.25327 9.05 6.56127C9.35 5.86993 9.69167 5.2326 10.075 4.64927C8.90833 4.91593 7.89167 5.39493 7.025 6.08627C6.15833 6.77827 5.45833 7.64927 4.925 8.69927Z" fill="white"/>
</g>
</svg>
