<svg width="20" height="20" viewBox="0 0 20 20" fill="none" xmlns="http://www.w3.org/2000/svg">
<circle cx="10" cy="10" r="10" fill="#93919D"/>
<path d="M16.1158 7.18876C15.7006 7.35915 15.2537 7.47408 14.7847 7.52552C15.2635 7.26093 15.6306 6.84183 15.8038 6.34188C15.3559 6.5872 14.8602 6.76521 14.3321 6.86131C13.9095 6.4456 13.3071 6.18567 12.6405 6.18567C11.3607 6.18567 10.3231 7.14346 10.3231 8.32498C10.3231 8.49241 10.3435 8.6556 10.3832 8.81245C8.45705 8.72312 6.74918 7.87159 5.6061 6.57725C5.4066 6.89306 5.29241 7.26051 5.29241 7.65294C5.29241 8.39504 5.70149 9.04994 6.32336 9.43348C5.94363 9.42226 5.58615 9.32595 5.2736 9.16572C5.27338 9.17461 5.27338 9.18371 5.27338 9.19281C5.27338 10.2291 6.07227 11.0936 7.13258 11.2904C6.93813 11.3391 6.73336 11.3654 6.52194 11.3654C6.37243 11.3654 6.22728 11.352 6.0858 11.3268C6.38092 12.1767 7.23669 12.7954 8.25067 12.8125C7.45751 13.3863 6.45842 13.7284 5.37243 13.7284C5.18555 13.7284 5.00096 13.7182 4.81958 13.6983C5.84549 14.3056 7.06356 14.6595 8.37221 14.6595C12.6352 14.6595 14.9661 11.3999 14.9661 8.57284C14.9661 8.48013 14.964 8.38763 14.9597 8.29577C15.4123 7.99478 15.8054 7.6178 16.1158 7.18876Z" fill="#2C273F"/>
</svg>
