<svg width="20" height="20" viewBox="0 0 20 20" fill="none" xmlns="http://www.w3.org/2000/svg">
<g clip-path="url(#clip0_14_32783)">
<path d="M19.7579 14.0582C19.2 13.1959 18.524 12.4161 17.7496 11.7415C16.6746 10.7415 16.6746 10.7415 17.7496 9.37487L18.4079 8.54154C20.0746 6.3582 20.1163 5.6332 19.9663 5.2082C19.7246 4.54154 18.7163 4.62487 18.5663 4.64154H15.7413C15.5204 4.61133 15.2957 4.65219 15.0996 4.7582C14.9091 4.88582 14.7588 5.06502 14.6663 5.27487C14.1496 6.64987 12.7329 9.19987 12.1663 9.44154C11.9849 8.81079 11.9451 8.14779 12.0496 7.49987C12.1413 6.1332 12.2413 4.5832 11.0829 4.29987C10.6111 4.18689 10.126 4.13922 9.64128 4.1582C8.76924 4.07353 7.88914 4.17289 7.05794 4.44987C6.73294 4.6082 6.29961 5.0082 6.35794 5.39154C6.38134 5.48682 6.43138 5.57347 6.50222 5.64135C6.57305 5.70924 6.66175 5.75555 6.75794 5.77487C6.97193 5.78933 7.17334 5.88115 7.32461 6.0332C7.61962 7.16993 7.61962 8.36314 7.32461 9.49987C6.77461 9.3332 5.41627 6.9082 4.82461 5.39987C4.74396 5.20414 4.61493 5.03209 4.44961 4.89987C4.24323 4.7593 4.00594 4.67068 3.75794 4.64154H1.00794C0.689283 4.64825 0.385226 4.77643 0.157938 4.99987C0.076521 5.13071 0.0272748 5.27897 0.0142379 5.43252C0.00120093 5.58607 0.0247445 5.74052 0.0829381 5.8832C0.174605 6.0832 2.28294 10.8249 4.73294 13.3832C5.36432 14.0921 6.14624 14.6509 7.02146 15.0185C7.89668 15.3862 8.84304 15.5535 9.79128 15.5082C10.4544 15.5121 11.1162 15.4478 11.7663 15.3165C12.0098 14.9846 12.1279 14.5772 12.0996 14.1665C12.0996 13.5665 12.1829 13.3332 12.4413 13.2915C12.6996 13.2499 13.1996 13.9332 13.4579 14.2249C13.8027 14.6636 14.2001 15.0582 14.6413 15.3999C15.0414 15.694 15.5201 15.8622 16.0163 15.8832H18.7413C18.9709 15.8765 19.1957 15.8165 19.3982 15.708C19.6006 15.5996 19.7751 15.4456 19.9079 15.2582C19.9988 15.0644 20.0329 14.8489 20.0064 14.6365C19.9798 14.4242 19.8937 14.2237 19.7579 14.0582Z" fill="white"/>
</g>
<defs>
<clipPath id="clip0_14_32783">
<rect width="20" height="20" fill="white"/>
</clipPath>
</defs>
</svg>
