<svg width="23" height="23" viewBox="0 0 23 23" fill="none" xmlns="http://www.w3.org/2000/svg">
<path d="M22.5195 5.964C22.255 4.97437 21.4757 4.19512 20.4861 3.93062C18.6923 3.44995 11.5 3.44995 11.5 3.44995C11.5 3.44995 4.30769 3.44995 2.51387 3.93062C1.52442 4.19512 0.744984 4.97437 0.480529 5.964C0 7.75764 0 11.5001 0 11.5001C0 11.5001 0 15.2424 0.480529 17.0359C0.744984 18.0255 1.52442 18.805 2.51387 19.0695C4.30769 19.5499 11.5 19.55 11.5 19.55C11.5 19.55 18.6923 19.5499 20.4861 19.0695C21.4757 18.805 22.255 18.0255 22.5195 17.0359C23 15.2424 23 11.5001 23 11.5001C23 11.5001 23 7.75764 22.5195 5.964V5.964ZM9.19987 14.9501V8.05L15.1753 11.5001L9.19987 14.9501Z" fill="black"/>
</svg>
