<svg width="24" height="25" viewBox="0 0 24 25" fill="none" xmlns="http://www.w3.org/2000/svg">
<path d="M11.9365 7.33008C8.97358 7.33008 6.51855 9.74278 6.51855 12.7481C6.51855 15.7534 8.93125 18.1661 11.9365 18.1661C14.9418 18.1661 17.3545 15.711 17.3545 12.7481C17.3545 9.7851 14.8995 7.33008 11.9365 7.33008ZM11.9365 16.219C10.0318 16.219 8.46564 14.6528 8.46564 12.7481C8.46564 10.8433 10.0318 9.27717 11.9365 9.27717C13.8413 9.27717 15.4074 10.8433 15.4074 12.7481C15.4074 14.6528 13.8413 16.219 11.9365 16.219Z" fill="white"/>
<path d="M17.5659 8.43061C18.2438 8.43061 18.7934 7.88104 18.7934 7.2031C18.7934 6.52516 18.2438 5.97559 17.5659 5.97559C16.888 5.97559 16.3384 6.52516 16.3384 7.2031C16.3384 7.88104 16.888 8.43061 17.5659 8.43061Z" fill="white"/>
<path d="M20.7406 4.02842C19.64 2.88556 18.0739 2.29297 16.2961 2.29297H7.57653C3.89399 2.29297 1.43896 4.74799 1.43896 8.43053V17.1078C1.43896 18.9279 2.03156 20.494 3.21674 21.6369C4.3596 22.7374 5.88341 23.2877 7.61886 23.2877H16.2538C18.0739 23.2877 19.5977 22.6951 20.6982 21.6369C21.8411 20.5364 22.4337 18.9702 22.4337 17.1501V8.43053C22.4337 6.65276 21.8411 5.12895 20.7406 4.02842ZM20.5712 17.1501C20.5712 18.4623 20.1056 19.5205 19.3437 20.2401C18.5818 20.9596 17.5236 21.3406 16.2538 21.3406H7.61886C6.34902 21.3406 5.29082 20.9596 4.52891 20.2401C3.76701 19.4782 3.38605 18.42 3.38605 17.1078V8.43053C3.38605 7.16069 3.76701 6.10249 4.52891 5.34059C5.24849 4.62101 6.34902 4.24006 7.61886 4.24006H16.3384C17.6083 4.24006 18.6665 4.62101 19.4284 5.38292C20.148 6.14482 20.5712 7.20302 20.5712 8.43053V17.1501Z" fill="white"/>
</svg>
