<svg width="22" height="22" viewBox="0 0 22 22" fill="none" xmlns="http://www.w3.org/2000/svg">
<g clip-path="url(#clip0_5_12138)">
<path d="M18.6244 3.99716C17.1978 3.34248 15.6925 2.87522 14.146 2.60703C14.132 2.60467 14.1176 2.60671 14.1048 2.61287C14.092 2.61902 14.0814 2.62899 14.0745 2.64141C13.8806 2.98516 13.6661 3.43478 13.5162 3.78678C11.8492 3.5338 10.1535 3.5338 8.48649 3.78678C8.3193 3.39466 8.13017 3.01226 7.91999 2.64141C7.91293 2.62913 7.90233 2.61927 7.88956 2.61314C7.8768 2.607 7.86248 2.60487 7.84849 2.60703C6.30161 2.87378 4.79599 3.34128 3.37011 3.99716C3.35791 4.00182 3.34771 4.01056 3.34124 4.02191C0.489488 8.28303 -0.292887 12.4397 0.0907381 16.544C0.0921131 16.5633 0.104488 16.5825 0.119613 16.5949C1.78023 17.825 3.63768 18.7642 5.61274 19.3724C5.62668 19.3768 5.64167 19.3766 5.65551 19.3719C5.66936 19.3673 5.68135 19.3583 5.68974 19.3463C6.11324 18.7688 6.48999 18.1597 6.81449 17.5189C6.82125 17.5057 6.82357 17.4907 6.82109 17.4761C6.81861 17.4614 6.81147 17.448 6.80074 17.4378C6.79363 17.4311 6.7852 17.4259 6.77599 17.4227C6.18358 17.195 5.60984 16.9214 5.05999 16.6045C5.04463 16.5958 5.03321 16.5816 5.02809 16.5647C5.02297 16.5478 5.02454 16.5295 5.03249 16.5138C5.03717 16.5035 5.04424 16.4946 5.05311 16.4877C5.16861 16.401 5.28411 16.3103 5.39411 16.2195C5.40383 16.2117 5.41549 16.2067 5.42784 16.205C5.44019 16.2033 5.45277 16.205 5.46424 16.2099C9.06536 17.8544 12.9635 17.8544 16.5206 16.2099C16.5325 16.2048 16.5455 16.2029 16.5584 16.2046C16.5712 16.2063 16.5833 16.2115 16.5935 16.2195C16.7035 16.3103 16.819 16.401 16.9345 16.4877C16.9438 16.4945 16.9514 16.5036 16.9564 16.514C16.9614 16.5245 16.9637 16.536 16.9632 16.5476C16.9626 16.5592 16.9592 16.5704 16.9532 16.5804C16.9473 16.5903 16.9389 16.5986 16.929 16.6045C16.3804 16.9244 15.8059 17.1976 15.2116 17.4213C15.2021 17.4247 15.1935 17.4302 15.1864 17.4373C15.1793 17.4444 15.1738 17.4531 15.1704 17.4625C15.1672 17.4717 15.1659 17.4815 15.1666 17.4911C15.1673 17.5008 15.17 17.5103 15.1745 17.5189C15.5045 18.1583 15.8826 18.7688 16.2979 19.3463C16.3062 19.3583 16.3182 19.3673 16.3321 19.3719C16.3459 19.3766 16.3609 19.3768 16.3749 19.3724C18.3532 18.7661 20.2137 17.8268 21.8762 16.5949C21.8846 16.5891 21.8915 16.5816 21.8965 16.5728C21.9015 16.564 21.9044 16.5541 21.9051 16.544C22.3644 11.7989 21.1365 7.67666 18.6519 4.02328C18.6494 4.01725 18.6456 4.01181 18.6409 4.00731C18.6361 4.00281 18.6305 3.99935 18.6244 3.99716V3.99716ZM7.35211 14.0443C6.26724 14.0443 5.37486 13.0488 5.37486 11.8278C5.37486 10.6054 6.25074 9.60991 7.35211 9.60991C8.46174 9.60991 9.34586 10.6137 9.32936 11.8278C9.32936 13.0488 8.45349 14.0443 7.35211 14.0443ZM14.6616 14.0443C13.5781 14.0443 12.6844 13.0488 12.6844 11.8278C12.6844 10.6054 13.5602 9.60991 14.6616 9.60991C15.7712 9.60991 16.6567 10.6137 16.6389 11.8278C16.6389 13.0488 15.7712 14.0443 14.6616 14.0443Z" fill="black"/>
</g>
<defs>
<clipPath id="clip0_5_12138">
<rect width="22" height="22" fill="white"/>
</clipPath>
</defs>
</svg>
