<svg width="20" height="20" viewBox="0 0 20 20" fill="none" xmlns="http://www.w3.org/2000/svg">
<circle cx="10" cy="10" r="10" fill="#93919D"/>
<path d="M9.96827 7.53442C8.48679 7.53442 7.25928 8.74077 7.25928 10.2434C7.25928 11.7461 8.46563 12.9524 9.96827 12.9524C11.4709 12.9524 12.6773 11.7249 12.6773 10.2434C12.6773 8.76194 11.4498 7.53442 9.96827 7.53442ZM9.96827 11.9789C9.01589 11.9789 8.23282 11.1958 8.23282 10.2434C8.23282 9.29104 9.01589 8.50797 9.96827 8.50797C10.9207 8.50797 11.7037 9.29104 11.7037 10.2434C11.7037 11.1958 10.9207 11.9789 9.96827 11.9789Z" fill="#2C273F"/>
<path d="M12.7829 8.08469C13.1219 8.08469 13.3967 7.8099 13.3967 7.47093C13.3967 7.13197 13.1219 6.85718 12.7829 6.85718C12.444 6.85718 12.1692 7.13197 12.1692 7.47093C12.1692 7.8099 12.444 8.08469 12.7829 8.08469Z" fill="#2C273F"/>
<path d="M14.3703 5.88359C13.82 5.31217 13.0369 5.01587 12.1481 5.01587H7.78827C5.947 5.01587 4.71948 6.24338 4.71948 8.08465V12.4233C4.71948 13.3333 5.01578 14.1164 5.60837 14.6878C6.1798 15.2381 6.9417 15.5132 7.80943 15.5132H12.1269C13.0369 15.5132 13.7988 15.2169 14.3491 14.6878C14.9205 14.1376 15.2168 13.3545 15.2168 12.4444V8.08465C15.2168 7.19576 14.9205 6.43386 14.3703 5.88359ZM14.2856 12.4444C14.2856 13.1005 14.0528 13.6296 13.6719 13.9894C13.2909 14.3492 12.7618 14.5397 12.1269 14.5397H7.80943C7.17451 14.5397 6.64541 14.3492 6.26446 13.9894C5.8835 13.6085 5.69303 13.0794 5.69303 12.4233V8.08465C5.69303 7.44973 5.8835 6.92063 6.26446 6.53968C6.62424 6.17989 7.17451 5.98941 7.80943 5.98941H12.1692C12.8041 5.98941 13.3332 6.17989 13.7142 6.56084C14.074 6.9418 14.2856 7.4709 14.2856 8.08465V12.4444Z" fill="#2C273F"/>
</svg>
