<svg width="20" height="20" viewBox="0 0 20 20" fill="none" xmlns="http://www.w3.org/2000/svg">
<g clip-path="url(#clip0_14_32790)">
<path d="M16.9315 3.63376C15.6346 3.03859 14.2661 2.61381 12.8602 2.37001C12.8475 2.36786 12.8344 2.36972 12.8227 2.37531C12.8111 2.38091 12.8015 2.38997 12.7952 2.40126C12.619 2.71376 12.424 3.12251 12.2877 3.44251C10.7722 3.21252 9.2307 3.21252 7.71521 3.44251C7.56322 3.08603 7.39129 2.7384 7.20021 2.40126C7.1938 2.3901 7.18416 2.38114 7.17255 2.37556C7.16095 2.36998 7.14793 2.36805 7.13521 2.37001C5.72896 2.61251 4.36021 3.03751 3.06396 3.63376C3.05287 3.63799 3.04359 3.64594 3.03771 3.65626C0.445211 7.53001 -0.266039 11.3088 0.0827111 15.04C0.0839611 15.0575 0.0952111 15.075 0.108961 15.0863C1.61862 16.2045 3.3072 17.0583 5.10271 17.6113C5.11539 17.6153 5.12901 17.6151 5.1416 17.6108C5.15419 17.6066 5.16508 17.5984 5.17271 17.5875C5.55771 17.0625 5.90021 16.5088 6.19521 15.9263C6.20136 15.9143 6.20346 15.9006 6.20121 15.8873C6.19896 15.874 6.19247 15.8618 6.18271 15.8525C6.17625 15.8464 6.16859 15.8417 6.16021 15.8388C5.62166 15.6318 5.10008 15.3831 4.60021 15.095C4.58625 15.0871 4.57587 15.0741 4.57121 15.0588C4.56656 15.0434 4.56799 15.0268 4.57521 15.0125C4.57946 15.0032 4.5859 14.9951 4.59396 14.9888C4.69896 14.91 4.80396 14.8275 4.90396 14.745C4.91279 14.7379 4.92339 14.7333 4.93462 14.7318C4.94585 14.7303 4.95729 14.7318 4.96771 14.7363C8.24146 16.2313 11.7852 16.2313 15.019 14.7363C15.0298 14.7316 15.0416 14.7299 15.0533 14.7315C15.065 14.733 15.076 14.7377 15.0852 14.745C15.1852 14.8275 15.2902 14.91 15.3952 14.9888C15.4037 14.995 15.4106 15.0032 15.4151 15.0127C15.4197 15.0222 15.4218 15.0327 15.4213 15.0432C15.4208 15.0538 15.4177 15.064 15.4123 15.073C15.4068 15.0821 15.3993 15.0896 15.3902 15.095C14.8915 15.3858 14.3692 15.6341 13.829 15.8375C13.8203 15.8406 13.8125 15.8456 13.806 15.8521C13.7996 15.8586 13.7946 15.8664 13.7915 15.875C13.7886 15.8834 13.7874 15.8922 13.7881 15.901C13.7887 15.9098 13.7911 15.9184 13.7952 15.9263C14.0952 16.5075 14.439 17.0625 14.8165 17.5875C14.8241 17.5984 14.835 17.6066 14.8476 17.6108C14.8602 17.6151 14.8738 17.6153 14.8865 17.6113C16.685 17.06 18.3763 16.2061 19.8877 15.0863C19.8953 15.081 19.9016 15.0741 19.9061 15.0661C19.9107 15.0581 19.9133 15.0492 19.914 15.04C20.3315 10.7263 19.2152 6.97876 16.9565 3.65751C16.9542 3.65202 16.9508 3.64708 16.9465 3.64298C16.9422 3.63889 16.9371 3.63575 16.9315 3.63376ZM6.68396 12.7675C5.69771 12.7675 4.88646 11.8625 4.88646 10.7525C4.88646 9.64126 5.68271 8.73626 6.68396 8.73626C7.69271 8.73626 8.49646 9.64876 8.48146 10.7525C8.48146 11.8625 7.68521 12.7675 6.68396 12.7675ZM13.329 12.7675C12.344 12.7675 11.5315 11.8625 11.5315 10.7525C11.5315 9.64126 12.3277 8.73626 13.329 8.73626C14.3377 8.73626 15.1427 9.64876 15.1265 10.7525C15.1265 11.8625 14.3377 12.7675 13.329 12.7675Z" fill="white"/>
</g>
<defs>
<clipPath id="clip0_14_32790">
<rect width="20" height="20" fill="white"/>
</clipPath>
</defs>
</svg>
