<svg width="18" height="21" viewBox="0 0 18 21" fill="none" xmlns="http://www.w3.org/2000/svg">
<g clip-path="url(#clip0_5_12168)">
<path d="M17.9999 8.43389C16.231 8.43812 14.5055 7.88647 13.0672 6.85688V14.0376C13.0667 15.3675 12.6602 16.6656 11.902 17.7583C11.1439 18.851 10.0702 19.6862 8.82456 20.1522C7.57893 20.6182 6.22072 20.6928 4.93153 20.366C3.64235 20.0393 2.48365 19.3267 1.61037 18.3237C0.73709 17.3206 0.19085 16.0748 0.0446917 14.7529C-0.101466 13.431 0.159424 12.096 0.792479 10.9264C1.42553 9.75681 2.40058 8.80834 3.58723 8.20783C4.77389 7.60733 6.1156 7.38341 7.43294 7.56603V11.1777C6.83012 10.9881 6.1828 10.9938 5.58342 11.194C4.98404 11.3942 4.46325 11.7787 4.09543 12.2926C3.7276 12.8064 3.53155 13.4234 3.53527 14.0553C3.539 14.6872 3.7423 15.3018 4.11615 15.8113C4.49 16.3208 5.01528 16.6992 5.61698 16.8923C6.21868 17.0855 6.86603 17.0835 7.46657 16.8868C8.06712 16.6901 8.59015 16.3087 8.96099 15.797C9.33182 15.2853 9.53149 14.6695 9.53147 14.0376V0H13.0672C13.0647 0.298583 13.0897 0.596759 13.1419 0.890759V0.890759C13.2648 1.54707 13.5202 2.17141 13.8927 2.72561C14.2651 3.2798 14.7467 3.75219 15.3079 4.11389C16.1064 4.64187 17.0426 4.92328 17.9999 4.92308V8.43389Z" fill="black"/>
</g>
<defs>
<clipPath id="clip0_5_12168">
<rect width="18" height="20.5714" fill="white"/>
</clipPath>
</defs>
</svg>
