<svg width="25" height="24" viewBox="0 0 25 24" fill="none" xmlns="http://www.w3.org/2000/svg">
<mask id="mask0_130_10393" style="mask-type:alpha" maskUnits="userSpaceOnUse" x="0" y="0" width="25" height="24">
<rect x="0.5" width="24" height="24" fill="#D9D9D9"/>
</mask>
<g mask="url(#mask0_130_10393)">
<path d="M11.5 17H7.5C6.11667 17 4.93767 16.5123 3.963 15.537C2.98767 14.5623 2.5 13.3833 2.5 12C2.5 10.6167 2.98767 9.43733 3.963 8.462C4.93767 7.48733 6.11667 7 7.5 7H11.5V9H7.5C6.66667 9 5.95833 9.29167 5.375 9.875C4.79167 10.4583 4.5 11.1667 4.5 12C4.5 12.8333 4.79167 13.5417 5.375 14.125C5.95833 14.7083 6.66667 15 7.5 15H11.5V17ZM8.5 13V11H16.5V13H8.5ZM13.5 17V15H17.5C18.3333 15 19.0417 14.7083 19.625 14.125C20.2083 13.5417 20.5 12.8333 20.5 12C20.5 11.1667 20.2083 10.4583 19.625 9.875C19.0417 9.29167 18.3333 9 17.5 9H13.5V7H17.5C18.8833 7 20.0627 7.48733 21.038 8.462C22.0127 9.43733 22.5 10.6167 22.5 12C22.5 13.3833 22.0127 14.5623 21.038 15.537C20.0627 16.5123 18.8833 17 17.5 17H13.5Z" fill="white"/>
</g>
</svg>
