<svg width="24" height="24" viewBox="0 0 24 24" fill="none" xmlns="http://www.w3.org/2000/svg">
<mask id="mask0_1_702" style="mask-type:alpha" maskUnits="userSpaceOnUse" x="0" y="0" width="24" height="24">
<rect width="24" height="24" fill="#D9D9D9"/>
</mask>
<g mask="url(#mask0_1_702)">
<path d="M8.32053 18.2049L11.9998 15.8811L15.679 18.2354L14.7154 13.8326L17.9567 10.8974L13.6934 10.4999L11.9998 6.34168L10.3062 10.4693L6.04291 10.8668L9.28415 13.8326L8.32053 18.2049ZM11.9998 18.7552L7.15252 21.8127C6.93838 21.9554 6.71451 22.0166 6.48091 21.9962C6.24731 21.9758 6.04291 21.8943 5.8677 21.7516C5.6925 21.6089 5.55623 21.4307 5.4589 21.2171C5.36156 21.0027 5.3421 20.763 5.4005 20.498L6.68531 14.7193L2.39286 10.8362C2.19819 10.6528 2.07672 10.4436 2.02844 10.2088C1.97938 9.97483 1.99379 9.74572 2.07166 9.5215C2.14952 9.29728 2.26633 9.11383 2.42206 8.97115C2.5778 8.82846 2.79193 8.73674 3.06447 8.69597L8.72934 8.17619L10.9194 2.73381C11.0167 2.4892 11.1678 2.30575 11.3726 2.18345C11.5766 2.06115 11.7856 2 11.9998 2C12.2139 2 12.4234 2.06115 12.6282 2.18345C12.8322 2.30575 12.9829 2.4892 13.0802 2.73381L15.2702 8.17619L20.9351 8.69597C21.2076 8.73674 21.4218 8.82846 21.5775 8.97115C21.7332 9.11383 21.85 9.29728 21.9279 9.5215C22.0058 9.74572 22.0206 9.97483 21.9723 10.2088C21.9232 10.4436 21.8014 10.6528 21.6067 10.8362L17.3142 14.7193L18.5991 20.498C18.6575 20.763 18.638 21.0027 18.5407 21.2171C18.4433 21.4307 18.3071 21.6089 18.1319 21.7516C17.9567 21.8943 17.7522 21.9758 17.5186 21.9962C17.285 22.0166 17.0612 21.9554 16.847 21.8127L11.9998 18.7552Z" fill="#1C1B1F"/>
</g>
</svg>
