<svg width="24" height="24" viewBox="0 0 24 24" fill="none" xmlns="http://www.w3.org/2000/svg">
<mask id="mask0_1_675" style="mask-type:alpha" maskUnits="userSpaceOnUse" x="0" y="0" width="24" height="24">
<rect width="24" height="24" fill="#D9D9D9"/>
</mask>
<g mask="url(#mask0_1_675)">
<path d="M3 17V15H17V17H3ZM3 13V11H17V13H3ZM3 9V7H17V9H3ZM20 17C19.7167 17 19.4793 16.904 19.288 16.712C19.096 16.5207 19 16.2833 19 16C19 15.7167 19.096 15.479 19.288 15.287C19.4793 15.0957 19.7167 15 20 15C20.2833 15 20.5207 15.0957 20.712 15.287C20.904 15.479 21 15.7167 21 16C21 16.2833 20.904 16.5207 20.712 16.712C20.5207 16.904 20.2833 17 20 17ZM20 13C19.7167 13 19.4793 12.904 19.288 12.712C19.096 12.5207 19 12.2833 19 12C19 11.7167 19.096 11.479 19.288 11.287C19.4793 11.0957 19.7167 11 20 11C20.2833 11 20.5207 11.0957 20.712 11.287C20.904 11.479 21 11.7167 21 12C21 12.2833 20.904 12.5207 20.712 12.712C20.5207 12.904 20.2833 13 20 13ZM20 9C19.7167 9 19.4793 8.904 19.288 8.712C19.096 8.52067 19 8.28333 19 8C19 7.71667 19.096 7.479 19.288 7.287C19.4793 7.09567 19.7167 7 20 7C20.2833 7 20.5207 7.09567 20.712 7.287C20.904 7.479 21 7.71667 21 8C21 8.28333 20.904 8.52067 20.712 8.712C20.5207 8.904 20.2833 9 20 9Z" fill="#1C1B1F"/>
</g>
</svg>
