<svg width="45" height="44" viewBox="0 0 45 44" fill="none" xmlns="http://www.w3.org/2000/svg">
<path d="M33.2998 16.3773C32.5012 16.718 31.6417 16.9479 30.7399 17.0508C31.6607 16.5216 32.3667 15.6834 32.6996 14.6835C31.8384 15.1742 30.885 15.5302 29.8694 15.7224C29.0567 14.8909 27.8983 14.3711 26.6164 14.3711C24.1553 14.3711 22.1599 16.2867 22.1599 18.6497C22.1599 18.9846 22.1992 19.311 22.2755 19.6247C18.5713 19.446 15.2869 17.7429 13.0887 15.1543C12.7051 15.7859 12.4855 16.5208 12.4855 17.3056C12.4855 18.7898 13.2721 20.0996 14.4681 20.8667C13.7378 20.8443 13.0503 20.6517 12.4493 20.3312C12.4489 20.349 12.4489 20.3672 12.4489 20.3854C12.4489 22.458 13.9852 24.1869 16.0243 24.5806C15.6503 24.678 15.2565 24.7305 14.8499 24.7305C14.5624 24.7305 14.2833 24.7038 14.0112 24.6534C14.5787 26.3531 16.2245 27.5905 18.1744 27.6248C16.6491 28.7724 14.7278 29.4566 12.6394 29.4566C12.28 29.4566 11.925 29.4362 11.5762 29.3964C13.5491 30.611 15.8915 31.3188 18.4081 31.3188C26.6062 31.3188 31.0887 24.7995 31.0887 19.1454C31.0887 18.96 31.0848 18.775 31.0764 18.5913C31.9469 17.9893 32.7027 17.2354 33.2998 16.3773Z" fill="#A796FF"/>
</svg>
