<svg width="32" height="32" viewBox="0 0 32 32" fill="none" xmlns="http://www.w3.org/2000/svg">
<g clip-path="url(#clip0_1_603)">
<path d="M32 16C32 7.16344 24.8366 0 16 0C7.16344 0 0 7.16344 0 16C0 24.8366 7.16344 32 16 32C24.8366 32 32 24.8366 32 16Z" fill="url(#paint0_linear_1_603)"/>
<mask id="mask0_1_603" style="mask-type:alpha" maskUnits="userSpaceOnUse" x="6" y="6" width="21" height="20">
<path d="M23.5262 9.08044L16.6067 15.9493L23.5262 22.8181C27.1626 18.9609 27.1626 12.9376 23.5262 9.08044Z" fill="url(#paint1_linear_1_603)"/>
<path d="M9.28296 23.1716L16.1012 26L22.9194 23.1716L16.1012 16.4041L9.28296 23.1716Z" fill="url(#paint2_linear_1_603)"/>
<path d="M15.849 15.6972L22.9204 8.67646L16.404 6L9.93921 21.6071L15.849 15.6972Z" fill="url(#paint3_linear_1_603)"/>
<path d="M6.00002 15.9494C5.99496 18.5043 6.97116 20.963 8.72711 22.8182L15.4947 6.50427L6.00002 15.9494Z" fill="url(#paint4_linear_1_603)"/>
</mask>
<g mask="url(#mask0_1_603)">
<path d="M27 5H5V27H27V5Z" fill="white"/>
</g>
</g>
<defs>
<linearGradient id="paint0_linear_1_603" x1="24" y1="2.18182" x2="5.09091" y2="26.9091" gradientUnits="userSpaceOnUse">
<stop stop-color="#FF9900"/>
<stop offset="1" stop-color="#C70000"/>
</linearGradient>
<linearGradient id="paint1_linear_1_603" x1="21.4301" y1="9.08044" x2="21.4301" y2="22.8181" gradientUnits="userSpaceOnUse">
<stop stop-color="#FFB800"/>
<stop offset="1" stop-color="#E20000"/>
</linearGradient>
<linearGradient id="paint2_linear_1_603" x1="16.1012" y1="16.4041" x2="16.1012" y2="26" gradientUnits="userSpaceOnUse">
<stop stop-color="#FFB800"/>
<stop offset="1" stop-color="#E20000"/>
</linearGradient>
<linearGradient id="paint3_linear_1_603" x1="16.4298" y1="6" x2="16.4298" y2="21.6071" gradientUnits="userSpaceOnUse">
<stop stop-color="#FFB800"/>
<stop offset="1" stop-color="#E20000"/>
</linearGradient>
<linearGradient id="paint4_linear_1_603" x1="10.7474" y1="6.50427" x2="10.7474" y2="22.8182" gradientUnits="userSpaceOnUse">
<stop stop-color="#FFB800"/>
<stop offset="1" stop-color="#E20000"/>
</linearGradient>
<clipPath id="clip0_1_603">
<rect width="32" height="32" fill="white"/>
</clipPath>
</defs>
</svg>
