<svg width="22" height="22" viewBox="0 0 22 22" fill="none" xmlns="http://www.w3.org/2000/svg">
<mask id="mask0_55_34275" style="mask-type:alpha" maskUnits="userSpaceOnUse" x="0" y="0" width="22" height="22">
<rect width="22" height="22" fill="#D9D9D9"/>
</mask>
<g mask="url(#mask0_55_34275)">
<path d="M7.88317 20.625L6.1415 17.6917L2.8415 16.9583L3.16234 13.5667L0.916504 11L3.16234 8.43333L2.8415 5.04167L6.1415 4.30833L7.88317 1.375L10.9998 2.70417L14.1165 1.375L15.8582 4.30833L19.1582 5.04167L18.8373 8.43333L21.0832 11L18.8373 13.5667L19.1582 16.9583L15.8582 17.6917L14.1165 20.625L10.9998 19.2958L7.88317 20.625ZM10.0373 14.2542L15.2165 9.075L13.9332 7.74583L10.0373 11.6417L8.0665 9.71667L6.78317 11L10.0373 14.2542Z" fill="#A796FF"/>
</g>
</svg>
