<svg width="128" height="128" viewBox="0 0 128 128" fill="none" xmlns="http://www.w3.org/2000/svg">
<mask id="mask0_1_235" style="mask-type:alpha" maskUnits="userSpaceOnUse" x="0" y="0" width="128" height="128">
<rect width="128" height="128" fill="#D9D9D9"/>
</mask>
<g mask="url(#mask0_1_235)">
<path d="M30.9324 105.067C28.6213 105.067 26.7101 104.311 25.199 102.8C23.6879 101.289 22.9324 99.3778 22.9324 97.0667V69.3333H26.6657V97.0667C26.6657 98.1333 27.1101 99.1111 27.999 100C28.8879 100.889 29.8657 101.333 30.9324 101.333H58.6657V105.067H30.9324ZM69.3324 105.067V101.333H97.0657C98.1324 101.333 99.1101 100.889 99.999 100C100.888 99.1111 101.332 98.1333 101.332 97.0667V69.3333H105.066V97.0667C105.066 99.3778 104.31 101.289 102.799 102.8C101.288 104.311 99.3768 105.067 97.0657 105.067H69.3324ZM42.399 87.2L51.199 75.7333L59.7324 85.6L73.0657 69.0667L86.6657 87.2H42.399ZM22.9324 58.6667V30.9333C22.9324 28.6222 23.6879 26.7111 25.199 25.2C26.7101 23.6889 28.6213 22.9333 30.9324 22.9333H58.6657V26.6667H30.9324C29.8657 26.6667 28.8879 27.1111 27.999 28C27.1101 28.8889 26.6657 29.8667 26.6657 30.9333V58.6667H22.9324ZM101.332 58.6667V30.9333C101.332 29.8667 100.888 28.8889 99.999 28C99.1101 27.1111 98.1324 26.6667 97.0657 26.6667H69.3324V22.9333H97.0657C99.3768 22.9333 101.288 23.6889 102.799 25.2C104.31 26.7111 105.066 28.6222 105.066 30.9333V58.6667H101.332ZM81.3324 52C79.8213 52 78.5555 51.488 77.535 50.464C76.511 49.4436 75.999 48.1778 75.999 46.6667C75.999 45.1556 76.511 43.888 77.535 42.864C78.5555 41.8436 79.8213 41.3333 81.3324 41.3333C82.8435 41.3333 84.111 41.8436 85.135 42.864C86.1555 43.888 86.6657 45.1556 86.6657 46.6667C86.6657 48.1778 86.1555 49.4436 85.135 50.464C84.111 51.488 82.8435 52 81.3324 52Z" fill="#C4C4D3" fill-opacity="0.5"/>
</g>
</svg>
